<svg width="126" height="41" viewBox="0 0 126 41" fill="none" xmlns="http://www.w3.org/2000/svg">
<path fill-rule="evenodd" clip-rule="evenodd" d="M125.779 35.3381C125.779 38.3887 123.298 40.8536 120.228 40.8536H5.72275C2.65258 40.8536 0.171875 38.3887 0.171875 35.3381V5.53989C0.171875 2.4893 2.65258 0.0244141 5.72275 0.0244141H120.253C123.323 0.0244141 125.803 2.4893 125.803 5.53989V35.3381H125.779Z" fill="#828282"/>
<path fill-rule="evenodd" clip-rule="evenodd" d="M21.8599 7.00391H11.6178C10.3897 7.00391 9.40723 7.9801 9.40723 9.20033V31.7259C9.40723 32.9462 10.3897 33.9224 11.6178 33.9224H21.8599C23.0879 33.9224 24.0704 32.9462 24.0704 31.7259V9.20033C24.0704 7.9801 23.0879 7.00391 21.8599 7.00391ZM16.7265 32.3116C15.916 32.3116 15.2528 31.6527 15.2528 30.8474C15.2528 30.042 15.916 29.3831 16.7265 29.3831C17.5371 29.3831 18.2002 30.042 18.2002 30.8474C18.2248 31.6527 17.5616 32.3116 16.7265 32.3116ZM11.1511 28.6753H22.3265V12.0557H11.1511V28.6753Z" fill="#1A1A28"/>
<path fill-rule="evenodd" clip-rule="evenodd" d="M31.8315 12.8854L32.4456 11.0063H34.5578L35.1964 12.8854H36.0315L33.9929 6.93066H33.0596L31.021 12.8854H31.8315ZM33.821 8.71221L34.4105 10.4205V10.4449H32.6175L33.207 8.71221C33.3298 8.34614 33.428 7.98007 33.5017 7.6384H33.5263C33.5999 7.98007 33.6982 8.32174 33.821 8.71221Z" fill="#1A1A28"/>
<path fill-rule="evenodd" clip-rule="evenodd" d="M36.8421 8.61426L37.6772 11.0059C37.8245 11.3964 37.9473 11.7625 38.021 12.1041H38.0456C38.1438 11.7625 38.2666 11.3964 38.414 11.0059L39.2491 8.61426H40.0596L38.3649 12.8851H37.628L35.9824 8.61426H36.8421Z" fill="#1A1A28"/>
<path fill-rule="evenodd" clip-rule="evenodd" d="M43.7439 12.8851C43.6948 12.5922 43.6702 12.2261 43.6702 11.8601H43.6457V10.2982C43.6457 9.44399 43.3264 8.54102 42.0001 8.54102C41.4597 8.54102 40.9194 8.68744 40.5755 8.90709L40.7474 9.41959C41.0422 9.22435 41.4597 9.10233 41.8773 9.10233C42.7615 9.07792 42.8597 9.73685 42.8597 10.0785V10.1761C41.2141 10.1761 40.2808 10.7374 40.2808 11.7624C40.2808 12.3726 40.7474 12.9827 41.6071 12.9827C42.2211 12.9827 42.7123 12.6898 42.9334 12.3482H42.958L43.0316 12.8851H43.7439ZM41.0913 11.6648C41.0913 10.8351 42.0492 10.6886 42.9088 10.713V11.4452C42.9088 11.5184 42.9088 11.616 42.8843 11.6892C42.7615 12.0553 42.393 12.397 41.8281 12.397C41.4351 12.397 41.0913 12.1773 41.0913 11.6648Z" fill="#1A1A28"/>
<path fill-rule="evenodd" clip-rule="evenodd" d="M44.7754 7.3211C44.7754 7.61396 44.9719 7.8336 45.2666 7.8336C45.5859 7.8336 45.7824 7.58956 45.7824 7.3211C45.7824 7.05265 45.5859 6.83301 45.2912 6.83301C44.9719 6.83301 44.7754 7.05265 44.7754 7.3211ZM44.8982 8.61456V12.8854H45.6842V8.61456H44.8982Z" fill="#1A1A28"/>
<path fill-rule="evenodd" clip-rule="evenodd" d="M46.9121 6.61328H47.6981V12.8853H46.9121V6.61328Z" fill="#1A1A28"/>
<path fill-rule="evenodd" clip-rule="evenodd" d="M52.0701 12.8851C52.021 12.5922 51.9964 12.2261 51.9964 11.8601H51.9718V10.2982C51.9718 9.44399 51.6525 8.54102 50.3262 8.54102C49.7859 8.54102 49.2455 8.68744 48.9017 8.90709L49.0736 9.41959C49.3683 9.22435 49.7859 9.10233 50.2034 9.10233C51.0876 9.07792 51.1859 9.73685 51.1859 10.0785V10.1761C49.5403 10.1761 48.6069 10.7374 48.6069 11.7624C48.6069 12.3726 49.0736 12.9827 49.9332 12.9827C50.5473 12.9827 51.0385 12.6898 51.2596 12.3482H51.2841L51.3578 12.8851H52.0701ZM49.4175 11.6648C49.4175 10.8351 50.3754 10.6886 51.235 10.713V11.4452C51.235 11.5184 51.235 11.616 51.2104 11.6892C51.0876 12.0553 50.7192 12.397 50.1543 12.397C49.7613 12.397 49.4175 12.1773 49.4175 11.6648Z" fill="#1A1A28"/>
<path fill-rule="evenodd" clip-rule="evenodd" d="M53.9858 6.61328H53.1999V11.7871C53.1999 12.1532 53.1999 12.5924 53.1753 12.8853H53.8385L53.8876 12.1776H53.9121C54.256 12.7389 54.7472 12.9829 55.3613 12.9829C56.3192 12.9829 57.3016 12.2264 57.3016 10.6889C57.3016 9.39542 56.5402 8.51685 55.4841 8.51685C54.7718 8.51685 54.2806 8.80971 54.0104 9.29781H53.9858V6.61328ZM54.0104 11.4698C53.9858 11.3722 53.9858 11.2746 53.9858 11.177V10.4204C53.9858 10.2984 54.0104 10.2008 54.0349 10.1032C54.1823 9.51745 54.6735 9.15138 55.2139 9.15138C56.049 9.15138 56.4911 9.88352 56.4911 10.7377C56.4911 11.7139 56.0244 12.3728 55.1893 12.3728C54.6244 12.3728 54.1577 12.0067 54.0104 11.4698Z" fill="#1A1A28"/>
<path fill-rule="evenodd" clip-rule="evenodd" d="M58.2104 6.61328H58.9964V12.8853H58.2104V6.61328Z" fill="#1A1A28"/>
<path fill-rule="evenodd" clip-rule="evenodd" d="M62.1648 12.3725C61.3788 12.3725 60.7157 11.9333 60.6911 10.8839L63.7121 10.8594C63.7367 10.7862 63.7367 10.6642 63.7367 10.4934C63.7367 9.71243 63.3683 8.49219 61.9683 8.49219C60.6911 8.49219 59.9297 9.51719 59.9297 10.8106C59.9297 12.0797 60.7157 12.9583 62.042 12.9583C62.7297 12.9583 63.2209 12.8118 63.4911 12.6898L63.3437 12.1529C63.0735 12.2749 62.7297 12.3725 62.1648 12.3725ZM61.8946 9.0535C62.7788 9.0535 62.9753 9.83445 62.9753 10.3225H60.6911C60.7648 9.78564 61.0841 9.0535 61.8946 9.0535Z" fill="#1A1A28"/>
<path fill-rule="evenodd" clip-rule="evenodd" d="M66.1685 10.7862C66.1685 12.1285 67.0772 12.9827 68.2316 12.9827C69.2632 12.9827 70.3685 12.2993 70.3685 10.713C70.3685 9.41958 69.5334 8.5166 68.3053 8.5166C67.1264 8.5166 66.1685 9.34636 66.1685 10.7862ZM69.5579 10.7374C69.5579 11.6892 68.993 12.397 68.2562 12.397C67.4948 12.397 66.979 11.6892 66.9544 10.7618C66.9544 9.95648 67.372 9.10232 68.2807 9.10232C69.1895 9.10232 69.5579 10.0053 69.5579 10.7374Z" fill="#1A1A28"/>
<path fill-rule="evenodd" clip-rule="evenodd" d="M71.326 9.76124C71.326 9.32196 71.326 8.95589 71.2769 8.61422H71.9646L72.0137 9.32196H72.0383C72.2593 8.93148 72.7505 8.5166 73.4628 8.5166C74.0523 8.5166 74.9856 8.85827 74.9856 10.347V12.9095H74.1997V10.4446C74.1997 9.76124 73.954 9.17553 73.1926 9.17553C72.6769 9.17553 72.2839 9.5416 72.1365 9.98089C72.1119 10.0785 72.0874 10.2249 72.0874 10.347V12.9339H71.3014V9.76124H71.326Z" fill="#1A1A28"/>
<path fill-rule="evenodd" clip-rule="evenodd" d="M78.9895 7.58984V8.61484H80.1193V9.20056H78.9895V11.4946C78.9895 12.0315 79.1369 12.3244 79.579 12.3244C79.8 12.3244 79.9228 12.3 80.0211 12.2756L80.0456 12.8613C79.8983 12.9101 79.6527 12.9589 79.3579 12.9589C78.9895 12.9589 78.6948 12.8369 78.5228 12.6416C78.3018 12.3976 78.2281 12.0315 78.2281 11.519V9.17615H77.5649V8.59044H78.2281V7.80949L78.9895 7.58984Z" fill="#1A1A28"/>
<path fill-rule="evenodd" clip-rule="evenodd" d="M80.9541 6.61328H81.7401V9.2734H81.7646C81.8874 9.05376 82.0839 8.85852 82.3295 8.7365C82.5506 8.59007 82.8453 8.51685 83.1401 8.51685C83.705 8.51685 84.6383 8.85852 84.6383 10.3472V12.8853H83.8523V10.4204C83.8523 9.71269 83.5822 9.15138 82.8453 9.15138C82.3295 9.15138 81.9366 9.49304 81.7892 9.93233C81.7401 10.0299 81.7401 10.152 81.7401 10.2984V12.8853H80.9541V6.61328H80.9541Z" fill="#1A1A28"/>
<path fill-rule="evenodd" clip-rule="evenodd" d="M87.7579 12.3725C86.9719 12.3725 86.3088 11.9333 86.2842 10.8839L89.3053 10.8594C89.3298 10.7862 89.3298 10.6642 89.3298 10.4934C89.3298 9.71243 88.9614 8.49219 87.5614 8.49219C86.3088 8.49219 85.5474 9.51719 85.5474 10.8106C85.5474 12.0797 86.3333 12.9583 87.6596 12.9583C88.3474 12.9583 88.8386 12.8118 89.1088 12.6898L88.9614 12.1529C88.6667 12.2749 88.3228 12.3725 87.7579 12.3725ZM87.4877 9.0535C88.3719 9.0535 88.5684 9.83445 88.5684 10.3225H86.2842C86.3579 9.78564 86.6772 9.0535 87.4877 9.0535Z" fill="#1A1A28"/>
<path fill-rule="evenodd" clip-rule="evenodd" d="M91.958 7.3211C91.958 7.61396 92.1545 7.8336 92.4492 7.8336C92.7685 7.8336 92.965 7.58956 92.965 7.3211C92.965 7.05265 92.7685 6.83301 92.4738 6.83301C92.1545 6.83301 91.958 7.05265 91.958 7.3211ZM92.0808 8.61456V12.8854H92.8668V8.61456H92.0808Z" fill="#1A1A28"/>
<path fill-rule="evenodd" clip-rule="evenodd" d="M95.6172 6.88184C95.0032 6.88184 94.512 6.93065 94.1436 7.00386V12.8854H94.905V10.4937C95.0769 10.5426 95.2979 10.5426 95.519 10.5426C96.2804 10.5426 96.9436 10.3229 97.3611 9.88362C97.6558 9.56636 97.8278 9.15148 97.8278 8.61457C97.8278 8.07767 97.6067 7.66279 97.2874 7.36993C96.9436 7.05267 96.3786 6.88184 95.6172 6.88184ZM95.5436 9.95684C95.2979 9.95684 95.0769 9.93243 94.905 9.88362H94.8804V7.58957C95.0278 7.54076 95.2734 7.51636 95.6172 7.51636C96.4769 7.51636 97.0418 7.88243 97.0418 8.68779C97.0418 9.49315 96.4769 9.95684 95.5436 9.95684Z" fill="#1A1A28"/>
<path fill-rule="evenodd" clip-rule="evenodd" d="M98.7612 6.61328H99.5472V9.2734H99.5718C99.6946 9.05376 99.8911 8.85852 100.137 8.7365C100.358 8.59007 100.652 8.51685 100.947 8.51685C101.537 8.51685 102.445 8.85852 102.445 10.3472V12.8853H101.659V10.4204C101.659 9.71269 101.389 9.15138 100.652 9.15138C100.137 9.15138 99.7437 9.49304 99.5963 9.93233C99.5472 10.0299 99.5472 10.152 99.5472 10.2984V12.8853H98.7612V6.61328Z" fill="#1A1A28"/>
<path fill-rule="evenodd" clip-rule="evenodd" d="M103.33 10.7862C103.33 12.1285 104.238 12.9827 105.393 12.9827C106.424 12.9827 107.53 12.2993 107.53 10.713C107.53 9.41958 106.695 8.5166 105.466 8.5166C104.287 8.5166 103.33 9.34636 103.33 10.7862ZM106.719 10.7374C106.719 11.6892 106.154 12.397 105.417 12.397C104.656 12.397 104.116 11.6892 104.116 10.7618C104.116 9.95648 104.533 9.10232 105.442 9.10232C106.351 9.10232 106.719 10.0053 106.719 10.7374Z" fill="#1A1A28"/>
<path fill-rule="evenodd" clip-rule="evenodd" d="M108.463 9.76124C108.463 9.32196 108.463 8.95589 108.438 8.61422H109.126L109.175 9.32196H109.2C109.421 8.93148 109.912 8.5166 110.624 8.5166C111.214 8.5166 112.147 8.85827 112.147 10.347V12.9095H111.361V10.4446C111.361 9.76124 111.091 9.17553 110.354 9.17553C109.838 9.17553 109.445 9.5416 109.298 9.98089C109.274 10.0785 109.249 10.2249 109.249 10.347V12.9339H108.463V9.76124Z" fill="#1A1A28"/>
<path fill-rule="evenodd" clip-rule="evenodd" d="M115.266 12.3725C114.48 12.3725 113.817 11.9333 113.793 10.8839L116.789 10.8594C116.814 10.7862 116.814 10.6642 116.814 10.4934C116.814 9.71243 116.445 8.49219 115.045 8.49219C113.793 8.49219 113.031 9.51719 113.031 10.8106C113.031 12.0797 113.817 12.9583 115.144 12.9583C115.831 12.9583 116.322 12.8118 116.593 12.6898L116.445 12.1529C116.175 12.2749 115.831 12.3725 115.266 12.3725ZM114.996 9.0535C115.88 9.0535 116.077 9.83445 116.077 10.3225H113.793C113.866 9.78564 114.186 9.0535 114.996 9.0535Z" fill="#1A1A28"/>
<path fill-rule="evenodd" clip-rule="evenodd" d="M30.8491 32.3125L36.1298 16.9131H38.7579L44.0386 32.3125H41.5579L39.9368 27.578H34.8281L33.2561 32.3125H30.8491ZM37.9965 21.6232C37.7509 20.8423 37.5544 20.1345 37.3825 19.4512C37.2105 20.2077 36.9895 20.9399 36.7684 21.5744L35.3684 25.6988H39.4211L37.9965 21.6232Z" fill="#1A1A28"/>
<path fill-rule="evenodd" clip-rule="evenodd" d="M47.133 22.6966C47.9927 21.5252 49.2699 20.915 50.8664 20.915C52.2172 20.915 53.4453 21.4763 54.3541 22.4769C55.2629 23.5263 55.7295 24.9418 55.7295 26.5769C55.7295 28.4317 55.1892 29.9936 54.1576 31.0674C53.2243 32.0436 51.9716 32.5805 50.5962 32.5805C49.2699 32.5805 48.1155 32.068 47.3787 31.2138V36.7537H45.0208V24.8686C45.0208 23.3555 44.9962 22.3061 44.9225 21.3543L44.8979 21.1591H47.0348L47.133 22.6966ZM53.2979 26.6746C53.2979 24.771 52.3646 22.843 50.2769 22.843C48.9751 22.843 47.7962 23.7704 47.4278 25.0883C47.4278 25.1249 47.4216 25.1554 47.4155 25.1859C47.4094 25.2164 47.4032 25.2469 47.4032 25.2835C47.3937 25.3685 47.3805 25.4498 47.3679 25.5275C47.348 25.6506 47.3295 25.7645 47.3295 25.8692V27.724C47.3295 28.0168 47.3541 28.2853 47.4032 28.4805C47.7225 29.774 48.8769 30.6525 50.1787 30.6525C52.0944 30.6525 53.2979 29.1394 53.2979 26.6746Z" fill="#1A1A28"/>
<path fill-rule="evenodd" clip-rule="evenodd" d="M59.2175 22.6966C60.0772 21.5252 61.3544 20.915 62.9508 20.915C64.3017 20.915 65.5298 21.4763 66.414 22.4769C67.3228 23.5263 67.7894 24.9418 67.7894 26.5769C67.7894 28.4317 67.2491 29.9936 66.2175 31.0674C65.2842 32.0436 64.0315 32.5805 62.6561 32.5805C61.3298 32.5805 60.1754 32.068 59.4386 31.2138V36.7537H57.0807V24.8686C57.0807 23.3555 57.0561 22.3061 56.9824 21.3543V21.1591H59.1193L59.2175 22.6966ZM65.3824 26.6746C65.3824 24.771 64.4491 22.843 62.3614 22.843C61.0596 22.843 59.8807 23.7704 59.5122 25.0883C59.5122 25.1249 59.5061 25.1554 59.5 25.1859C59.4938 25.2164 59.4877 25.2469 59.4877 25.2835C59.4782 25.3685 59.465 25.4498 59.4524 25.5275C59.4325 25.6506 59.414 25.7645 59.414 25.8692V27.724C59.414 28.0168 59.4386 28.2853 59.4877 28.4805C59.807 29.774 60.9614 30.6525 62.2631 30.6525C64.1789 30.6525 65.3824 29.1394 65.3824 26.6746Z" fill="#1A1A28"/>
<path fill-rule="evenodd" clip-rule="evenodd" d="M78.0808 23.4535C75.8948 22.5993 75.1826 21.9404 75.1826 20.7201C75.1826 19.6951 76.0177 18.6457 77.8598 18.6457C79.3826 18.6457 80.365 19.1826 80.6106 19.3291L80.8071 19.4511L81.4703 17.4987L81.3475 17.4255C80.9545 17.2059 79.8247 16.6689 77.9334 16.6689C74.9369 16.6689 72.8492 18.4261 72.8492 20.9398C72.8492 22.9654 74.151 24.3809 76.9755 25.4059C78.965 26.138 79.7019 26.8945 79.7019 28.2124C79.7019 29.6767 78.5475 30.6041 76.7299 30.6041C75.5264 30.6041 74.2984 30.2624 73.3405 29.6523L73.144 29.5303L72.5054 31.5314L72.6282 31.6047C73.5124 32.1904 75.1826 32.6297 76.5826 32.6297C80.6106 32.6297 82.0352 30.1892 82.0352 28.0904C82.0598 25.8695 80.9054 24.5517 78.0808 23.4535Z" fill="#1A1A28"/>
<path fill-rule="evenodd" clip-rule="evenodd" d="M86.2843 18.499L83.9755 19.2068V21.1347H82.2808V22.9895H83.9755V28.7002C83.9755 30.0913 84.2457 31.0431 84.786 31.6532C85.3018 32.2145 86.1123 32.5318 87.0457 32.5318C87.9299 32.5318 88.5685 32.3609 88.8632 32.2633L88.986 32.2145L88.8632 30.3597L88.6422 30.433C88.3474 30.5306 88.0527 30.555 87.5615 30.555C86.6527 30.555 86.2597 29.9937 86.2597 28.6514V23.0139H89.0843V21.1591H86.2597V18.499H86.2843Z" fill="#1A1A28"/>
<path fill-rule="evenodd" clip-rule="evenodd" d="M89.3545 26.8454C89.3545 23.3555 91.6387 20.915 94.9299 20.915C96.5019 20.915 97.8527 21.4763 98.8598 22.5258C99.8422 23.5752 100.358 24.9906 100.358 26.6502C100.358 30.7258 97.4598 32.5805 94.7826 32.5805H94.758C91.565 32.5805 89.3545 30.2377 89.3545 26.8454ZM97.9264 26.699C97.9264 24.7954 96.9685 22.7454 94.8562 22.7454C92.6948 22.7454 91.7124 24.771 91.7124 26.7478C91.7124 29.0662 93.0141 30.7258 94.7826 30.7258H94.8071C96.6247 30.7258 97.9264 29.0418 97.9264 26.699Z" fill="#1A1A28"/>
<path fill-rule="evenodd" clip-rule="evenodd" d="M107.53 21.0127L107.382 20.9883C107.186 20.9394 107.014 20.915 106.793 20.915C105.565 20.915 104.46 21.6228 103.845 22.7942L103.772 21.1591H101.684L101.709 21.3543C101.782 22.2817 101.807 23.3067 101.807 24.7222L101.782 32.3365H104.14V26.4061C104.14 26.0888 104.165 25.7716 104.214 25.5031C104.484 24.0633 105.442 23.1603 106.695 23.1603C106.94 23.1603 107.112 23.1847 107.333 23.2091L107.579 23.2335V21.0127H107.53Z" fill="#1A1A28"/>
<path fill-rule="evenodd" clip-rule="evenodd" d="M107.505 26.9186C107.505 23.3799 109.691 20.8906 112.811 20.8906C116.225 20.8906 117.453 23.7216 117.453 26.1376C117.453 26.5525 117.428 26.8698 117.379 27.1138L117.354 27.2603L109.79 27.2359C109.937 30.2865 112.27 30.6281 113.302 30.6281C114.751 30.6281 115.611 30.3841 116.249 30.1156L116.446 30.0424L116.888 31.7751L116.74 31.8484C116.028 32.1656 114.8 32.5561 113.032 32.5561C109.667 32.5561 107.505 30.3353 107.505 26.9186ZM114.358 23.3311C113.94 22.8918 113.351 22.6722 112.639 22.6722C110.895 22.6722 110.035 24.1365 109.814 25.5031H115.169C115.144 25.015 115.021 24.0144 114.358 23.3311Z" fill="#1A1A28"/>
</svg>
