<svg width="270" height="88" viewBox="0 0 270 88" fill="none" xmlns="http://www.w3.org/2000/svg">
<path fill-rule="evenodd" clip-rule="evenodd" d="M269.526 75.8475C269.526 82.3951 264.211 87.6856 257.632 87.6856H12.2631C5.6842 87.6856 0.368408 82.3951 0.368408 75.8475V11.8903C0.368408 5.34272 5.6842 0.0522461 12.2631 0.0522461H257.684C264.263 0.0522461 269.579 5.34272 269.579 11.8903V75.8475H269.526Z" fill="#B2B2B2"/>
<path fill-rule="evenodd" clip-rule="evenodd" d="M46.8422 15.0332H24.8948C22.2632 15.0332 20.158 17.1284 20.158 19.7475V68.0951C20.158 70.7142 22.2632 72.8094 24.8948 72.8094H46.8422C49.4737 72.8094 51.579 70.7142 51.579 68.0951V19.7475C51.579 17.1284 49.4737 15.0332 46.8422 15.0332ZM35.8422 69.3522C34.1053 69.3522 32.6843 67.938 32.6843 66.2094C32.6843 64.4808 34.1053 63.0665 35.8422 63.0665C37.579 63.0665 39.0001 64.4808 39.0001 66.2094C39.0527 67.938 37.6316 69.3522 35.8422 69.3522ZM23.8948 61.5475H47.8422V25.8761H23.8948V61.5475Z" fill="white"/>
<path fill-rule="evenodd" clip-rule="evenodd" d="M68.2105 27.6574L69.5263 23.6241H74.0526L75.421 27.6574H77.2105L72.8421 14.8765H70.8421L66.4736 27.6574H68.2105ZM72.4736 18.7003L73.7368 22.3669V22.4193H69.8947L71.1578 18.7003C71.421 17.9146 71.6315 17.1288 71.7894 16.3955H71.8421C71.9999 17.1288 72.2105 17.8622 72.4736 18.7003Z" fill="white"/>
<path fill-rule="evenodd" clip-rule="evenodd" d="M78.9473 18.4907L80.7368 23.6241C81.0526 24.4622 81.3158 25.2479 81.4736 25.9812H81.5263C81.7368 25.2479 82 24.4622 82.3158 23.6241L84.1052 18.4907H85.8421L82.2105 27.6574H80.6315L77.1052 18.4907H78.9473Z" fill="white"/>
<path fill-rule="evenodd" clip-rule="evenodd" d="M93.7367 27.6573C93.6315 27.0287 93.5788 26.243 93.5788 25.4573H93.5262V22.1049C93.5262 20.2716 92.842 18.3335 89.9999 18.3335C88.842 18.3335 87.6841 18.6478 86.9473 19.1192L87.3157 20.2192C87.9473 19.8002 88.842 19.5383 89.7367 19.5383C91.6315 19.4859 91.842 20.9002 91.842 21.6335V21.843C88.3157 21.843 86.3157 23.0478 86.3157 25.2478C86.3157 26.5573 87.3157 27.8668 89.1578 27.8668C90.4736 27.8668 91.5262 27.2383 91.9999 26.5049H92.0525L92.2104 27.6573H93.7367ZM88.0525 25.0383C88.0525 23.2573 90.1051 22.943 91.9473 22.9954V24.5668C91.9473 24.724 91.9473 24.9335 91.8946 25.0906C91.6315 25.8764 90.842 26.6097 89.6315 26.6097C88.7894 26.6097 88.0525 26.1383 88.0525 25.0383Z" fill="white"/>
<path fill-rule="evenodd" clip-rule="evenodd" d="M95.9473 15.7146C95.9473 16.3432 96.3683 16.8146 96.9999 16.8146C97.6841 16.8146 98.1052 16.2908 98.1052 15.7146C98.1052 15.1384 97.6841 14.667 97.0525 14.667C96.3683 14.667 95.9473 15.1384 95.9473 15.7146ZM96.2104 18.4908V27.6575H97.8946V18.4908H96.2104Z" fill="white"/>
<path fill-rule="evenodd" clip-rule="evenodd" d="M100.526 14.1953H102.21V27.6572H100.526V14.1953Z" fill="white"/>
<path fill-rule="evenodd" clip-rule="evenodd" d="M111.579 27.6573C111.474 27.0287 111.421 26.243 111.421 25.4573H111.368V22.1049C111.368 20.2716 110.684 18.3335 107.842 18.3335C106.684 18.3335 105.526 18.6478 104.789 19.1192L105.158 20.2192C105.789 19.8002 106.684 19.5383 107.579 19.5383C109.474 19.4859 109.684 20.9002 109.684 21.6335V21.843C106.158 21.843 104.158 23.0478 104.158 25.2478C104.158 26.5573 105.158 27.8668 107 27.8668C108.316 27.8668 109.368 27.2383 109.842 26.5049H109.895L110.052 27.6573H111.579ZM105.895 25.0383C105.895 23.2573 107.947 22.943 109.789 22.9954V24.5668C109.789 24.724 109.789 24.9335 109.737 25.0906C109.474 25.8764 108.684 26.6097 107.474 26.6097C106.631 26.6097 105.895 26.1383 105.895 25.0383Z" fill="white"/>
<path fill-rule="evenodd" clip-rule="evenodd" d="M115.684 14.1953H114V25.3001C114 26.0858 114 27.0286 113.947 27.6572H115.368L115.474 26.1382H115.526C116.263 27.3429 117.316 27.8667 118.631 27.8667C120.684 27.8667 122.789 26.2429 122.789 22.9429C122.789 20.1667 121.158 18.281 118.895 18.281C117.368 18.281 116.316 18.9096 115.737 19.9572H115.684V14.1953ZM115.737 24.6191C115.684 24.4096 115.684 24.2001 115.684 23.9906V22.3667C115.684 22.1048 115.737 21.8953 115.789 21.6858C116.105 20.4286 117.158 19.6429 118.316 19.6429C120.105 19.6429 121.053 21.2144 121.053 23.0477C121.053 25.1429 120.053 26.5572 118.263 26.5572C117.053 26.5572 116.053 25.7715 115.737 24.6191Z" fill="white"/>
<path fill-rule="evenodd" clip-rule="evenodd" d="M124.737 14.1953H126.421V27.6572H124.737V14.1953Z" fill="white"/>
<path fill-rule="evenodd" clip-rule="evenodd" d="M133.21 26.5576C131.526 26.5576 130.105 25.6147 130.052 23.3623L136.526 23.31C136.579 23.1528 136.579 22.8909 136.579 22.5242C136.579 20.8481 135.789 18.229 132.789 18.229C130.052 18.229 128.421 20.429 128.421 23.2052C128.421 25.929 130.105 27.8147 132.947 27.8147C134.421 27.8147 135.474 27.5004 136.052 27.2385L135.737 26.0861C135.158 26.3481 134.421 26.5576 133.21 26.5576ZM132.631 19.4338C134.526 19.4338 134.947 21.11 134.947 22.1576H130.052C130.21 21.0052 130.895 19.4338 132.631 19.4338Z" fill="white"/>
<path fill-rule="evenodd" clip-rule="evenodd" d="M141.789 23.1527C141.789 26.0336 143.737 27.867 146.21 27.867C148.421 27.867 150.789 26.4003 150.789 22.9955C150.789 20.2193 149 18.2812 146.368 18.2812C143.842 18.2812 141.789 20.0622 141.789 23.1527ZM149.052 23.0479C149.052 25.0908 147.842 26.6098 146.263 26.6098C144.631 26.6098 143.526 25.0908 143.474 23.1003C143.474 21.3717 144.368 19.5384 146.316 19.5384C148.263 19.5384 149.052 21.4765 149.052 23.0479Z" fill="white"/>
<path fill-rule="evenodd" clip-rule="evenodd" d="M152.842 20.9527C152.842 20.0098 152.842 19.2241 152.737 18.4908H154.211L154.316 20.0098H154.368C154.842 19.1717 155.895 18.2812 157.421 18.2812C158.684 18.2812 160.684 19.0146 160.684 22.2098V27.7098H159V22.4193C159 20.9527 158.474 19.6955 156.842 19.6955C155.737 19.6955 154.895 20.4812 154.579 21.4241C154.526 21.6336 154.474 21.9479 154.474 22.2098V27.7622H152.789V20.9527H152.842Z" fill="white"/>
<path fill-rule="evenodd" clip-rule="evenodd" d="M169.263 16.2905V18.4905H171.684V19.7477H169.263V24.6715C169.263 25.8239 169.579 26.4524 170.526 26.4524C171 26.4524 171.263 26.4001 171.474 26.3477L171.526 27.6048C171.21 27.7096 170.684 27.8143 170.053 27.8143C169.263 27.8143 168.632 27.5524 168.263 27.1334C167.789 26.6096 167.632 25.8239 167.632 24.7239V19.6953H166.21V18.4381H167.632V16.762L169.263 16.2905Z" fill="white"/>
<path fill-rule="evenodd" clip-rule="evenodd" d="M173.474 14.1953H175.158V19.9048H175.21C175.474 19.4334 175.895 19.0144 176.421 18.7525C176.895 18.4382 177.526 18.281 178.158 18.281C179.368 18.281 181.368 19.0144 181.368 22.2096V27.6572H179.684V22.3667C179.684 20.8477 179.105 19.6429 177.526 19.6429C176.421 19.6429 175.579 20.3763 175.263 21.3191C175.158 21.5286 175.158 21.7906 175.158 22.1048V27.6572H173.474V14.1953H173.474Z" fill="white"/>
<path fill-rule="evenodd" clip-rule="evenodd" d="M188.052 26.5576C186.368 26.5576 184.947 25.6147 184.894 23.3623L191.368 23.31C191.421 23.1528 191.421 22.8909 191.421 22.5242C191.421 20.8481 190.631 18.229 187.631 18.229C184.947 18.229 183.315 20.429 183.315 23.2052C183.315 25.929 185 27.8147 187.842 27.8147C189.315 27.8147 190.368 27.5004 190.947 27.2385L190.631 26.0861C190 26.3481 189.263 26.5576 188.052 26.5576ZM187.473 19.4338C189.368 19.4338 189.789 21.11 189.789 22.1576H184.894C185.052 21.0052 185.736 19.4338 187.473 19.4338Z" fill="white"/>
<path fill-rule="evenodd" clip-rule="evenodd" d="M197.053 15.7146C197.053 16.3432 197.474 16.8146 198.105 16.8146C198.79 16.8146 199.211 16.2908 199.211 15.7146C199.211 15.1384 198.79 14.667 198.158 14.667C197.474 14.667 197.053 15.1384 197.053 15.7146ZM197.316 18.4908V27.6575H199V18.4908H197.316Z" fill="white"/>
<path fill-rule="evenodd" clip-rule="evenodd" d="M204.895 14.7715C203.579 14.7715 202.526 14.8762 201.737 15.0334V27.6572H203.368V22.5239C203.737 22.6286 204.211 22.6286 204.684 22.6286C206.316 22.6286 207.737 22.1572 208.632 21.2143C209.263 20.5334 209.632 19.6429 209.632 18.4905C209.632 17.3382 209.158 16.4477 208.474 15.8191C207.737 15.1382 206.526 14.7715 204.895 14.7715ZM204.737 21.3715C204.211 21.3715 203.737 21.3191 203.368 21.2143H203.316V16.2905C203.632 16.1858 204.158 16.1334 204.895 16.1334C206.737 16.1334 207.947 16.9191 207.947 18.6477C207.947 20.3762 206.737 21.3715 204.737 21.3715Z" fill="white"/>
<path fill-rule="evenodd" clip-rule="evenodd" d="M211.631 14.1953H213.316V19.9048H213.368C213.631 19.4334 214.052 19.0144 214.579 18.7525C215.052 18.4382 215.684 18.281 216.316 18.281C217.579 18.281 219.526 19.0144 219.526 22.2096V27.6572H217.842V22.3667C217.842 20.8477 217.263 19.6429 215.684 19.6429C214.579 19.6429 213.737 20.3763 213.421 21.3191C213.316 21.5286 213.316 21.7906 213.316 22.1048V27.6572H211.631V14.1953Z" fill="white"/>
<path fill-rule="evenodd" clip-rule="evenodd" d="M221.421 23.1527C221.421 26.0336 223.368 27.867 225.842 27.867C228.052 27.867 230.421 26.4003 230.421 22.9955C230.421 20.2193 228.631 18.2812 226 18.2812C223.474 18.2812 221.421 20.0622 221.421 23.1527ZM228.684 23.0479C228.684 25.0908 227.474 26.6098 225.895 26.6098C224.263 26.6098 223.105 25.0908 223.105 23.1003C223.105 21.3717 224 19.5384 225.947 19.5384C227.895 19.5384 228.684 21.4765 228.684 23.0479Z" fill="white"/>
<path fill-rule="evenodd" clip-rule="evenodd" d="M232.421 20.9527C232.421 20.0098 232.421 19.2241 232.368 18.4908H233.842L233.947 20.0098H234C234.473 19.1717 235.526 18.2812 237.052 18.2812C238.316 18.2812 240.316 19.0146 240.316 22.2098V27.7098H238.631V22.4193C238.631 20.9527 238.052 19.6955 236.473 19.6955C235.368 19.6955 234.526 20.4812 234.21 21.4241C234.158 21.6336 234.105 21.9479 234.105 22.2098V27.7622H232.421V20.9527Z" fill="white"/>
<path fill-rule="evenodd" clip-rule="evenodd" d="M247 26.5576C245.316 26.5576 243.895 25.6147 243.842 23.3623L250.263 23.31C250.316 23.1528 250.316 22.8909 250.316 22.5242C250.316 20.8481 249.526 18.229 246.526 18.229C243.842 18.229 242.21 20.429 242.21 23.2052C242.21 25.929 243.895 27.8147 246.737 27.8147C248.21 27.8147 249.263 27.5004 249.842 27.2385L249.526 26.0861C248.947 26.3481 248.21 26.5576 247 26.5576ZM246.421 19.4338C248.316 19.4338 248.737 21.11 248.737 22.1576H243.842C244 21.0052 244.684 19.4338 246.421 19.4338Z" fill="white"/>
<path fill-rule="evenodd" clip-rule="evenodd" d="M66.1052 69.3527L77.421 36.3003H83.0526L94.3684 69.3527H89.0526L85.5789 59.1908H74.6315L71.2631 69.3527H66.1052ZM81.421 46.4098C80.8947 44.7336 80.4736 43.2146 80.1052 41.7479C79.7368 43.3717 79.2631 44.9431 78.7894 46.3051L75.7894 55.1574H84.4736L81.421 46.4098Z" fill="white"/>
<path fill-rule="evenodd" clip-rule="evenodd" d="M101 48.7144C102.842 46.2001 105.579 44.8906 109 44.8906C111.895 44.8906 114.526 46.0954 116.474 48.243C118.421 50.4954 119.421 53.5335 119.421 57.043C119.421 61.024 118.263 64.3763 116.053 66.6811C114.053 68.7763 111.369 69.9287 108.421 69.9287C105.579 69.9287 103.105 68.8287 101.526 66.9954V78.8859H96.4739V53.3763C96.4739 50.1287 96.4212 47.8763 96.2633 45.8335L96.2107 45.4144H100.79L101 48.7144ZM114.211 57.2525C114.211 53.1668 112.211 49.0287 107.737 49.0287C104.948 49.0287 102.421 51.0192 101.632 53.8478C101.632 53.9263 101.619 53.9918 101.605 54.0573C101.592 54.1228 101.579 54.1882 101.579 54.2668C101.559 54.4493 101.53 54.6239 101.504 54.7906C101.461 55.0548 101.421 55.2992 101.421 55.524V59.5049C101.421 60.1335 101.474 60.7097 101.579 61.1287C102.263 63.9049 104.737 65.7906 107.526 65.7906C111.632 65.7906 114.211 62.543 114.211 57.2525Z" fill="white"/>
<path fill-rule="evenodd" clip-rule="evenodd" d="M126.895 48.7144C128.737 46.2001 131.474 44.8906 134.895 44.8906C137.789 44.8906 140.421 46.0954 142.316 48.243C144.263 50.4954 145.263 53.5335 145.263 57.043C145.263 61.024 144.105 64.3763 141.895 66.6811C139.895 68.7763 137.21 69.9287 134.263 69.9287C131.421 69.9287 128.947 68.8287 127.368 66.9954V78.8859H122.316V53.3763C122.316 50.1287 122.263 47.8763 122.105 45.8335V45.4144H126.684L126.895 48.7144ZM140.105 57.2525C140.105 53.1668 138.105 49.0287 133.632 49.0287C130.842 49.0287 128.316 51.0192 127.526 53.8478C127.526 53.9263 127.513 53.9918 127.5 54.0573C127.487 54.1228 127.474 54.1882 127.474 54.2668C127.453 54.4493 127.425 54.6239 127.398 54.7906C127.355 55.0548 127.316 55.2992 127.316 55.524V59.5049C127.316 60.1335 127.368 60.7097 127.474 61.1287C128.158 63.9049 130.632 65.7906 133.421 65.7906C137.526 65.7906 140.105 62.543 140.105 57.2525Z" fill="white"/>
<path fill-rule="evenodd" clip-rule="evenodd" d="M167.316 50.3383C162.632 48.5049 161.105 47.0907 161.105 44.4716C161.105 42.2716 162.895 40.0192 166.842 40.0192C170.105 40.0192 172.211 41.1716 172.737 41.4859L173.158 41.7478L174.579 37.5573L174.316 37.4002C173.474 36.9287 171.053 35.7764 167 35.7764C160.579 35.7764 156.105 39.5478 156.105 44.943C156.105 49.2907 158.895 52.3287 164.948 54.5287C169.211 56.1002 170.79 57.724 170.79 60.5526C170.79 63.6954 168.316 65.6859 164.421 65.6859C161.842 65.6859 159.211 64.9526 157.158 63.643L156.737 63.3811L155.369 67.6764L155.632 67.8335C157.527 69.0907 161.105 70.0335 164.105 70.0335C172.737 70.0335 175.79 64.7954 175.79 60.2907C175.842 55.524 173.369 52.6954 167.316 50.3383Z" fill="white"/>
<path fill-rule="evenodd" clip-rule="evenodd" d="M184.895 39.7051L179.947 41.2241V45.3622H176.316V49.3432H179.947V61.6003C179.947 64.586 180.526 66.6289 181.684 67.9384C182.79 69.1432 184.526 69.8241 186.526 69.8241C188.421 69.8241 189.79 69.4575 190.421 69.2479L190.684 69.1432L190.421 65.1622L189.947 65.3194C189.316 65.5289 188.684 65.5813 187.632 65.5813C185.684 65.5813 184.842 64.3765 184.842 61.4956V49.3956H190.895V45.4146H184.842V39.7051H184.895Z" fill="white"/>
<path fill-rule="evenodd" clip-rule="evenodd" d="M191.474 57.6192C191.474 50.1287 196.368 44.8906 203.421 44.8906C206.789 44.8906 209.684 46.0954 211.842 48.3478C213.947 50.6001 215.053 53.6382 215.053 57.2001C215.053 65.9478 208.842 69.9287 203.105 69.9287H203.053C196.21 69.9287 191.474 64.9002 191.474 57.6192ZM209.842 57.3049C209.842 53.2192 207.789 48.8192 203.263 48.8192C198.632 48.8192 196.526 53.1668 196.526 57.4097C196.526 62.3859 199.316 65.9478 203.105 65.9478H203.158C207.053 65.9478 209.842 62.3335 209.842 57.3049Z" fill="white"/>
<path fill-rule="evenodd" clip-rule="evenodd" d="M230.421 45.1001L230.106 45.0478C229.684 44.943 229.316 44.8906 228.842 44.8906C226.211 44.8906 223.842 46.4097 222.527 48.924L222.369 45.4144H217.895L217.948 45.8335C218.106 47.824 218.158 50.024 218.158 53.0621L218.106 69.4049H223.158V56.6763C223.158 55.9954 223.211 55.3144 223.316 54.7382C223.895 51.6478 225.948 49.7097 228.632 49.7097C229.158 49.7097 229.527 49.7621 230 49.8144L230.527 49.8668V45.1001H230.421Z" fill="white"/>
<path fill-rule="evenodd" clip-rule="evenodd" d="M230.369 57.7765C230.369 50.1812 235.053 44.8384 241.737 44.8384C249.053 44.8384 251.684 50.9146 251.684 56.1003C251.684 56.9908 251.632 57.6717 251.527 58.1955L251.474 58.5098L235.263 58.4574C235.579 65.005 240.579 65.7384 242.79 65.7384C245.895 65.7384 247.737 65.2146 249.105 64.6384L249.527 64.4812L250.474 68.2003L250.158 68.3574C248.632 69.0384 246 69.8765 242.211 69.8765C235 69.8765 230.369 65.1098 230.369 57.7765ZM245.053 50.0765C244.158 49.1336 242.895 48.6622 241.369 48.6622C237.632 48.6622 235.79 51.805 235.316 54.7384H246.79C246.737 53.6908 246.474 51.5431 245.053 50.0765Z" fill="white"/>
</svg>
