<svg width="247" height="189" viewBox="0 0 247 189" fill="none" xmlns="http://www.w3.org/2000/svg">
<g opacity="0.3">
<g opacity="0.26">
<path fill-rule="evenodd" clip-rule="evenodd" d="M200.158 7.99371C210.86 -2.66457 228.273 -2.66457 238.974 7.99371C249.675 18.6512 249.675 35.9949 238.974 46.6539L104.09 180.994C98.9049 186.157 92.0125 189 84.6819 189C77.3512 189 70.4588 186.157 65.2742 180.994L8.02611 123.978C-2.67537 113.319 -2.67537 95.9763 8.02611 85.318C18.7276 74.6597 36.1408 74.6597 46.8422 85.318L84.6819 123.003L200.158 7.99371ZM92.4497 169.563L227.554 35.0242C232.148 30.4487 232.148 23.0057 227.555 18.431C222.961 13.8563 215.486 13.8563 210.891 18.431L89.6725 139.143C86.6042 142.197 81.6321 142.197 78.563 139.143L35.1077 95.8697C32.8119 93.5827 29.7936 92.4384 26.7769 92.4384C23.7595 92.4384 20.742 93.5819 18.4454 95.8689C13.8514 100.444 13.8514 107.887 18.4462 112.462L75.7874 169.563C78.0124 171.779 80.9713 173 84.1182 173C87.265 173 90.224 171.778 92.4497 169.563Z" fill="url(#paint0_linear)"/>
</g>
</g>
<defs>
<linearGradient id="paint0_linear" x1="123.5" y1="-94.5" x2="-58.9271" y2="143.91" gradientUnits="userSpaceOnUse">
<stop stop-color="#FCC400"/>
<stop offset="1" stop-color="#CA4522"/>
</linearGradient>
</defs>
</svg>
