<svg width="67" height="68" viewBox="0 0 67 68" fill="none" xmlns="http://www.w3.org/2000/svg">
<path fill-rule="evenodd" clip-rule="evenodd" d="M33.9168 3.32707C17.0075 3.32707 3.25054 17.1515 3.25054 34.1439C3.25054 41.1932 5.67937 48.0837 10.0897 53.5462C10.5002 54.0545 10.4228 54.8009 9.91692 55.2134C9.69827 55.3916 9.43555 55.4783 9.17444 55.4783C8.83121 55.4783 8.49094 55.3285 8.25784 55.0397C3.50767 49.1564 0.891602 41.7355 0.891602 34.1439C0.891602 25.2797 4.32696 16.9457 10.5649 10.6773C16.8028 4.40877 25.096 0.956543 33.9168 0.956543C42.0556 0.956543 49.8746 3.95762 55.9336 9.40716C56.4189 9.84363 56.4602 10.593 56.0257 11.0808C55.5915 11.5683 54.8458 11.6101 54.3603 11.1734C48.7345 6.11362 41.4743 3.32707 33.9168 3.32707ZM57.0839 12.7868C57.5899 12.3742 58.3326 12.452 58.743 12.9604C63.493 18.8442 66.1091 26.2648 66.1091 33.8556C66.1091 42.7215 62.674 51.0561 56.4366 57.3241C50.1994 63.5918 41.9059 67.0435 33.0839 67.0435C24.9451 67.0435 17.1261 64.0425 11.0672 58.5934C10.5818 58.1569 10.5405 57.4075 10.9749 56.9197C11.4092 56.432 12.1549 56.3905 12.6403 56.827C18.2661 61.8865 25.5264 64.673 33.0839 64.673C41.2758 64.673 48.9768 61.4678 54.7686 55.6479C60.5604 49.8278 63.7502 42.0885 63.7502 33.8556C63.7502 26.8069 61.3213 19.9166 56.9111 14.4539C56.5007 13.9457 56.5781 13.1993 57.0839 12.7868Z" fill="#A81E1E"/>
</svg>
