<svg width="32" height="32" viewBox="0 0 32 32" fill="none" xmlns="http://www.w3.org/2000/svg">
<path fill-rule="evenodd" clip-rule="evenodd" d="M0 15.889C0 7.115 7.113 0 15.887 0C24.66 0 31.771 7.115 31.771 15.889C31.771 24.659 24.66 31.772 15.887 31.772C7.113 31.772 0 24.659 0 15.889ZM4.823 15.888C4.823 21.986 9.787 26.947 15.887 26.947C21.987 26.947 26.948 21.986 26.948 15.888C26.948 9.785 21.988 4.82 15.887 4.82C9.787 4.82 4.823 9.784 4.823 15.888Z" fill="white"/>
<path fill-rule="evenodd" clip-rule="evenodd" d="M16.719 15.0308L16.7198 10.0966C16.7198 9.48996 16.2282 9 15.6199 9C15.01 9 14.5176 9.48996 14.5176 10.0966V15.0308V17.2304V17.232H16.719V17.2304L21.6545 17.232C22.2595 17.232 22.7536 16.7404 22.7536 16.1322C22.7536 15.5224 22.2595 15.0308 21.6545 15.0308C21.6553 15.0308 16.719 15.0308 16.719 15.0308Z" fill="white"/>
</svg>
