<svg width="25" height="23" viewBox="0 0 25 23" fill="none" xmlns="http://www.w3.org/2000/svg">
<path fill-rule="evenodd" clip-rule="evenodd" d="M4.61641 0H20.3836C22.9291 0 25 2.0756 25 4.62722V14.2493C25 16.7665 22.9843 18.8206 20.4858 18.8754V22.3832C20.4858 22.6325 20.3359 22.8579 20.1058 22.9531C20.0298 22.9848 19.9496 23 19.8705 23C19.7103 23 19.5528 22.9375 19.4351 22.8193L15.501 18.8766H4.61641C2.07093 18.8766 0 16.8009 0 14.2493V4.62716C0 2.0756 2.07093 0 4.61641 0ZM20.3835 17.6426C22.2504 17.6426 23.769 16.1201 23.769 14.2492H23.7691V4.62722C23.7691 2.75584 22.2503 1.23388 20.3836 1.23388H4.61641C2.74974 1.23388 1.23099 2.75589 1.23099 4.62722V14.2492C1.23099 16.1201 2.74974 17.6426 4.61641 17.6426H15.756C15.9192 17.6426 16.0758 17.7077 16.1911 17.8233L19.2547 20.8938V18.2595C19.2547 17.9186 19.5302 17.6426 19.8701 17.6426H20.3835Z" fill="#6F7F91"/>
<path fill-rule="evenodd" clip-rule="evenodd" d="M6.49997 8C5.6715 8 5 8.67186 5 9.5C5 10.3288 5.6715 11 6.49997 11C7.32807 11 8 10.3287 8 9.5C8 8.67186 7.32807 8 6.49997 8Z" fill="#6F7F91"/>
<path fill-rule="evenodd" clip-rule="evenodd" d="M12.5 8C11.6716 8 11 8.67186 11 9.5C11 10.3288 11.6716 11 12.5 11C13.3281 11 14 10.3287 14 9.5C13.9999 8.67186 13.3281 8 12.5 8Z" fill="#6F7F91"/>
<path fill-rule="evenodd" clip-rule="evenodd" d="M18.5001 8C17.6716 8 17 8.67186 17 9.5C17 10.3288 17.6716 11 18.5001 11C19.3282 11 20 10.3287 20 9.5C20 8.67186 19.3282 8 18.5001 8Z" fill="#6F7F91"/>
</svg>
