<svg width="33" height="739" viewBox="0 0 33 739" fill="none" xmlns="http://www.w3.org/2000/svg">
<path fill-rule="evenodd" clip-rule="evenodd" d="M12.4575 81.7655L18.9806 94.1153C19.9652 96.1736 18.7345 97.0211 18.3652 97.2633C17.7498 97.6265 16.8883 97.5054 16.396 96.9C16.2729 96.779 16.2729 96.5368 16.2729 96.2947C16.2729 96.0525 16.396 95.9314 16.6422 95.8104C17.1345 95.5682 17.2575 94.9628 17.0114 94.4785C16.7652 93.9942 16.0268 93.8731 15.6575 94.1153C15.0422 94.4785 14.5498 95.0839 14.4268 95.8104C14.3037 96.5368 14.4268 97.2633 14.796 97.8687C15.7806 99.4426 17.8729 99.9269 19.4729 98.8373C21.4422 97.6265 21.9345 95.4471 20.8268 93.1467L14.3037 80.7969C13.196 78.3754 12.4575 75.1063 16.0268 72.9269C17.8729 71.7162 20.3345 72.3216 21.5652 74.1377C22.3037 75.3485 21.9345 77.0435 20.7037 77.77C19.8422 78.2543 18.8575 78.0121 18.3652 77.2857C18.1191 76.8014 18.2422 76.196 18.7345 75.9539C19.2268 75.7117 19.3498 75.1063 18.9806 74.622C18.7345 74.1377 18.1191 74.0166 17.6268 74.3799C16.2729 75.2274 15.7806 77.0435 16.7652 78.4965C17.2575 79.344 18.1191 79.9494 19.1037 80.0704C20.0883 80.3126 21.0729 80.0704 21.9345 79.5861C23.0422 78.9808 23.7806 77.8911 24.0268 76.6803C24.2729 75.4695 24.0268 74.2588 23.4114 73.1691C22.796 72.3216 22.0575 71.5951 21.196 71.1108C22.0575 70.6265 22.796 70.0211 23.4114 69.1736C24.0268 68.0839 24.2729 66.8731 24.0268 65.6624C23.7806 64.4516 23.0422 63.483 21.9345 62.7565C21.0729 62.2722 20.0883 62.0301 19.1037 62.2722C18.1191 62.5144 17.2575 62.9987 16.7652 63.8462C15.9037 65.1781 16.2729 67.1153 17.6268 67.9628C18.1191 68.205 18.7345 68.0839 18.9806 67.7207C19.2268 67.2364 19.1037 66.631 18.7345 66.3888C18.2422 66.1467 18.1191 65.4202 18.3652 65.057C18.8575 64.3305 19.9652 64.0884 20.7037 64.5727C21.9345 65.2991 22.3037 66.9942 21.5652 68.205C20.3345 70.0211 17.8729 70.5054 16.0268 69.4157C12.5806 67.2364 13.196 63.9673 14.3037 61.5458L20.9498 49.196C22.0575 46.8956 21.5652 44.7162 19.596 43.5054C19.1037 43.1422 18.3652 43.0211 17.7498 43.0211C17.5037 43.0211 17.2575 43.0211 17.0114 43.1422C16.1498 43.3843 15.4114 43.8687 14.9191 44.5951C14.5498 45.2005 14.4268 45.9269 14.5498 46.6534C14.6729 47.3799 15.1652 47.9852 15.7806 48.3485C16.2729 48.5906 16.8883 48.4695 17.1345 47.9852C17.3806 47.5009 17.2575 46.8956 16.7652 46.6534C16.6422 46.5323 16.5191 46.4113 16.396 46.1691C16.396 45.9269 16.396 45.8059 16.5191 45.5637C16.8883 44.9583 17.7498 44.7162 18.4883 45.2005C18.8575 45.4426 20.0883 46.2902 19.1037 48.3485L12.4575 60.5772C10.3652 64.9359 11.2268 68.6893 14.9191 70.9897C15.0422 71.1108 15.1652 71.1108 15.4114 71.2319C15.2883 71.353 15.1652 71.353 14.9191 71.474C11.2268 73.6534 10.3652 77.4068 12.4575 81.7655Z" fill="#AA2424"/>
<path fill-rule="evenodd" clip-rule="evenodd" d="M12.4554 147.994L18.9785 160.344C19.9631 162.402 18.7323 163.25 18.3631 163.492C17.9938 163.734 17.6246 163.734 17.2554 163.734C16.8861 163.613 16.64 163.492 16.3938 163.129C16.2708 163.008 16.2708 162.766 16.2708 162.523C16.2708 162.281 16.3938 162.16 16.64 162.039C17.1323 161.797 17.2554 161.192 16.8861 160.707C16.64 160.223 15.9015 160.102 15.5323 160.465C14.9169 160.828 14.4246 161.434 14.3015 162.16C14.1785 162.887 14.3015 163.613 14.6708 164.218C15.6554 165.792 17.7477 166.277 19.3477 165.187C21.3169 163.976 21.8092 161.797 20.7015 159.496L14.1785 147.147C13.0708 144.725 12.3323 141.456 15.9015 139.277C17.7477 138.066 20.2092 138.671 21.44 140.487C22.1785 141.698 21.8092 143.393 20.5785 144.12C19.7169 144.604 18.7323 144.362 18.24 143.635C18.1169 143.393 17.9938 143.151 18.1169 142.909C18.1169 142.667 18.3631 142.425 18.6092 142.304C19.1015 142.061 19.2246 141.456 18.9785 140.972C18.7323 140.487 17.9938 140.366 17.6246 140.609C16.8861 141.093 16.5169 141.698 16.2708 142.425C16.1477 143.151 16.2708 143.999 16.64 144.604C17.7477 146.299 20.0861 146.783 21.8092 145.694C24.0246 144.362 24.64 141.456 23.2861 139.277C22.6708 138.429 21.9323 137.703 21.0708 137.218C21.9323 136.734 22.6708 136.129 23.2861 135.281C24.64 133.102 24.0246 130.317 21.8092 128.864C20.0861 127.774 17.7477 128.259 16.64 129.954C15.7785 131.286 16.1477 133.223 17.5015 134.07C17.9938 134.313 18.6092 134.192 18.8554 133.828C19.1015 133.344 18.9785 132.739 18.6092 132.496C18.1169 132.254 17.9938 131.528 18.24 131.165C18.7323 130.438 19.84 130.196 20.5785 130.68C21.8092 131.407 22.1785 133.102 21.44 134.313C20.2092 136.129 17.7477 136.613 15.9015 135.523C12.4554 133.344 13.0708 130.075 14.1785 127.653L20.8246 115.304C21.9323 113.003 21.44 110.824 19.4708 109.613C18.8554 109.25 18.24 109.129 17.6246 109.129C16.5169 109.129 15.4092 109.734 14.7938 110.703C14.4246 111.308 14.3015 112.035 14.4246 112.761C14.5477 113.487 15.04 114.093 15.6554 114.456C16.1477 114.698 16.7631 114.577 17.0092 114.093C17.2554 113.609 17.1323 113.003 16.64 112.761C16.5169 112.64 16.3938 112.519 16.2708 112.277C16.2708 112.035 16.2708 111.914 16.3938 111.671C16.7631 111.066 17.6246 110.824 18.3631 111.308C18.7323 111.55 19.9631 112.398 18.9785 114.456L12.3323 126.806C10.24 131.165 11.1015 134.918 14.7938 137.218C14.9169 137.34 15.04 137.34 15.2861 137.461C15.1631 137.582 15.04 137.582 14.7938 137.703C11.2246 139.882 10.3631 143.635 12.4554 147.994Z" fill="#AA2424"/>
<path fill-rule="evenodd" clip-rule="evenodd" d="M12.4575 214.223L18.9806 226.573C19.9652 228.631 18.7345 229.479 18.3652 229.721C17.7498 230.084 16.8883 229.963 16.396 229.357C16.2729 229.236 16.2729 228.994 16.2729 228.752C16.2729 228.51 16.396 228.389 16.6422 228.268C17.1345 228.026 17.2575 227.42 17.0114 226.936C16.7652 226.452 16.0268 226.331 15.6575 226.573C15.0422 226.936 14.5498 227.541 14.4268 228.268C14.3037 228.994 14.4268 229.721 14.796 230.326C15.7806 231.9 17.8729 232.384 19.4729 231.295C21.4422 230.084 21.9345 227.905 20.8268 225.604L14.3037 213.254C13.196 210.833 12.4575 207.564 16.0268 205.384C17.8729 204.174 20.3345 204.779 21.5652 206.595C22.3037 207.806 21.9345 209.501 20.7037 210.227C19.8422 210.712 18.8575 210.47 18.3652 209.743C18.1191 209.259 18.2422 208.653 18.7345 208.411C19.2268 208.169 19.3498 207.564 18.9806 207.079C18.7345 206.595 18.1191 206.474 17.6268 206.837C16.2729 207.685 15.7806 209.501 16.7652 210.954C17.8729 212.649 20.2114 213.133 21.9345 212.044C23.0422 211.438 23.7806 210.348 24.0268 209.138C24.2729 207.927 24.0268 206.716 23.4114 205.626C22.796 204.779 22.0575 204.053 21.196 203.568C22.0575 203.084 22.796 202.479 23.4114 201.631C24.0268 200.541 24.2729 199.331 24.0268 198.12C23.7806 196.909 23.0422 195.94 21.9345 195.214C20.2114 194.124 17.8729 194.609 16.7652 196.304C15.9037 197.635 16.2729 199.573 17.6268 200.42C18.1191 200.662 18.7345 200.541 18.9806 200.178C19.2268 199.694 19.1037 199.088 18.7345 198.846C18.2422 198.604 18.1191 197.878 18.3652 197.514C18.8575 196.788 19.9652 196.546 20.7037 197.03C21.9345 197.757 22.3037 199.452 21.5652 200.662C20.3345 202.479 17.8729 202.963 16.0268 201.873C12.5806 199.694 13.196 196.425 14.3037 194.003L20.9498 181.653C22.0575 179.353 21.5652 177.174 19.596 175.963C18.9806 175.6 18.3652 175.479 17.7498 175.479C17.5037 175.479 17.2575 175.479 17.0114 175.6C16.1498 175.842 15.4114 176.326 14.9191 177.053C14.5498 177.658 14.4268 178.384 14.5498 179.111C14.6729 179.837 15.1652 180.443 15.7806 180.806C16.2729 181.048 16.8883 180.927 17.1345 180.564C17.3806 180.079 17.2575 179.474 16.8883 179.232C16.7652 179.111 16.6422 178.99 16.5191 178.748C16.5191 178.505 16.5191 178.384 16.6422 178.142C16.8883 177.779 17.1345 177.658 17.5037 177.537C17.8729 177.416 18.2422 177.537 18.6114 177.779C18.9806 178.021 20.2114 178.869 19.2268 180.927L12.5806 193.277C10.4883 197.635 11.3498 201.389 15.0422 203.689C15.1652 203.81 15.2883 203.81 15.4114 203.931C15.2883 204.053 15.1652 204.053 14.9191 204.174C11.2268 206.111 10.3652 209.864 12.4575 214.223Z" fill="#AA2424"/>
<path fill-rule="evenodd" clip-rule="evenodd" d="M17.0114 293.044C16.7652 292.559 16.1498 292.438 15.6575 292.801C15.0422 293.165 14.5498 293.77 14.4268 294.496C14.3037 295.223 14.4268 295.949 14.796 296.555C15.7806 298.129 17.8729 298.613 19.4729 297.523C21.4422 296.313 21.9345 294.133 20.8268 291.833L14.3037 279.483C13.196 277.061 12.4575 273.792 16.0268 271.613C17.8729 270.402 20.3345 271.008 21.5652 272.824C22.3037 274.035 21.9345 275.73 20.7037 276.456C19.8422 276.94 18.8575 276.698 18.3652 275.972C18.1191 275.487 18.2422 274.882 18.7345 274.64C19.2268 274.398 19.3498 273.792 18.9806 273.308C18.7345 272.824 18.1191 272.703 17.6268 273.066C16.2729 273.913 15.7806 275.73 16.7652 277.183C17.2575 278.03 18.1191 278.635 19.1037 278.757C20.0883 278.999 21.0729 278.757 21.9345 278.272C23.0422 277.667 23.7806 276.577 24.0268 275.366C24.2729 274.156 24.0268 272.945 23.4114 271.855C22.796 271.008 22.0575 270.281 21.196 269.797C22.0575 269.313 22.796 268.707 23.4114 267.86C24.0268 266.77 24.2729 265.559 24.0268 264.348C23.7806 263.138 23.0422 262.169 21.9345 261.443C20.2114 260.353 17.8729 260.837 16.7652 262.532C15.9037 263.864 16.2729 265.801 17.6268 266.649C18.1191 266.891 18.7345 266.77 18.9806 266.407C19.2268 265.922 19.1037 265.317 18.7345 265.075C18.2422 264.833 18.1191 264.106 18.3652 263.743C18.8575 262.896 19.9652 262.774 20.7037 263.259C21.9345 263.985 22.3037 265.68 21.5652 266.891C20.3345 268.707 17.8729 269.192 16.0268 268.102C12.5806 265.922 13.196 262.653 14.3037 260.232L20.9498 247.882C22.0575 245.582 21.5652 243.402 19.596 242.192C18.9806 241.828 18.3652 241.707 17.7498 241.707C16.6422 241.707 15.5345 242.313 14.9191 243.281C14.5498 243.887 14.4268 244.613 14.5498 245.34C14.6729 246.066 15.1652 246.671 15.7806 247.035C16.2729 247.277 16.8883 247.156 17.1345 246.671C17.3806 246.187 17.2575 245.582 16.7652 245.34C16.6422 245.218 16.5191 245.097 16.396 244.855C16.396 244.613 16.396 244.492 16.5191 244.25C16.8883 243.644 17.7498 243.402 18.4883 243.887C18.8575 244.129 20.0883 244.976 19.1037 247.035L12.4575 259.142C10.3652 263.501 11.2268 267.254 14.9191 269.555C15.0422 269.676 15.1652 269.676 15.4114 269.797C15.2883 269.918 15.1652 269.918 14.9191 270.039C11.2268 272.34 10.3652 276.093 12.4575 280.452L18.9806 292.801C19.9652 294.86 18.7345 295.707 18.3652 295.949C17.7498 296.313 16.8883 296.192 16.396 295.586C16.2729 295.465 16.2729 295.223 16.2729 294.981C16.2729 294.739 16.396 294.618 16.6422 294.496C17.2575 294.133 17.3806 293.528 17.0114 293.044Z" fill="#AA2424"/>
<path fill-rule="evenodd" clip-rule="evenodd" d="M12.4554 346.68L18.9785 359.03C19.9631 361.088 18.7323 361.936 18.3631 362.178C17.7477 362.541 16.8861 362.42 16.3938 361.815C16.2708 361.694 16.2708 361.452 16.2708 361.209C16.2708 360.967 16.3938 360.846 16.64 360.725C17.1323 360.483 17.2554 359.878 16.8861 359.393C16.64 358.909 16.0246 358.788 15.5323 359.151C14.9169 359.514 14.4246 360.12 14.3015 360.846C14.1785 361.573 14.3015 362.299 14.6708 362.905C15.6554 364.479 17.7477 364.963 19.3477 363.873C21.3169 362.662 21.8092 360.483 20.7015 358.183L14.1785 345.833C13.0708 343.411 12.3323 340.142 15.9015 337.963C17.7477 336.752 20.2092 337.357 21.44 339.174C22.1785 340.384 21.8092 342.079 20.5785 342.806C19.7169 343.29 18.7323 343.048 18.24 342.322C17.9938 341.837 18.1169 341.232 18.6092 340.99C19.1015 340.748 19.2246 340.142 18.8554 339.658C18.6092 339.174 17.9938 339.053 17.5015 339.416C16.1477 340.263 15.6554 342.079 16.64 343.532C17.7477 345.227 20.0861 345.712 21.8092 344.622C24.0246 343.29 24.64 340.384 23.2861 338.205C22.6708 337.357 21.9323 336.631 21.0708 336.147C21.9323 335.662 22.6708 335.057 23.2861 334.209C24.64 332.03 24.0246 329.245 21.8092 327.792C20.0861 326.703 17.7477 327.187 16.64 328.882C15.7785 330.214 16.1477 332.151 17.5015 332.999C17.9938 333.241 18.6092 333.12 18.8554 332.757C19.1015 332.272 18.9785 331.667 18.6092 331.425C18.1169 331.183 17.9938 330.456 18.24 330.093C18.7323 329.366 19.84 329.124 20.5785 329.609C21.8092 330.335 22.1785 332.03 21.44 333.241C20.2092 335.057 17.7477 335.541 15.9015 334.452C12.4554 332.272 13.0708 329.003 14.1785 326.582L20.8246 314.232C21.9323 311.931 21.44 309.752 19.4708 308.541C18.8554 308.178 18.24 308.057 17.6246 308.057C17.3785 308.057 17.1323 308.057 16.8861 308.178C16.0246 308.42 15.2861 308.905 14.7938 309.631C14.4246 310.236 14.3015 310.963 14.4246 311.689C14.5477 312.416 15.04 313.021 15.6554 313.384C16.1477 313.627 16.7631 313.505 17.0092 313.142C17.2554 312.658 17.1323 312.053 16.7631 311.81C16.64 311.689 16.5169 311.568 16.3938 311.326C16.3938 311.084 16.3938 310.963 16.5169 310.721C16.7631 310.357 17.0092 310.236 17.3785 310.115C17.7477 309.994 18.1169 310.115 18.4861 310.357C18.8554 310.6 20.0861 311.447 19.1015 313.505L12.4554 325.855C10.3631 330.214 11.2246 333.967 14.9169 336.268C15.04 336.389 15.1631 336.389 15.4092 336.51C15.2861 336.631 15.1631 336.631 14.9169 336.752C11.2246 338.447 10.3631 342.322 12.4554 346.68Z" fill="#AA2424"/>
<path fill-rule="evenodd" clip-rule="evenodd" d="M12.4556 412.788L18.9787 425.138C19.9633 427.196 18.7325 428.044 18.3633 428.286C17.9941 428.528 17.6248 428.528 17.2556 428.528C16.8864 428.407 16.6402 428.286 16.3941 427.922C16.271 427.801 16.271 427.559 16.271 427.317C16.271 427.075 16.3941 426.954 16.6402 426.833C17.1325 426.591 17.2556 425.985 16.8864 425.501C16.6402 425.017 16.0248 424.896 15.5325 425.259C14.9172 425.622 14.4248 426.227 14.3018 426.954C14.1787 427.68 14.3018 428.407 14.671 429.012C15.1633 429.739 15.9018 430.344 16.7633 430.465C17.6248 430.707 18.6095 430.465 19.3479 429.981C21.3172 428.77 21.8095 426.591 20.7018 424.29L14.1787 411.94C13.071 409.519 12.3325 406.25 15.9018 404.07C17.7479 402.86 20.2095 403.465 21.4402 405.281C21.8095 405.887 21.9325 406.613 21.8095 407.218C21.6864 407.945 21.1941 408.55 20.5787 408.913C19.7172 409.398 18.7325 409.156 18.2402 408.429C17.9941 407.945 18.1172 407.34 18.6095 407.097C19.1018 406.855 19.2248 406.25 18.8556 405.766C18.6095 405.281 17.9941 405.16 17.5018 405.523C16.1479 406.371 15.6556 408.187 16.6402 409.64C17.7479 411.335 20.0864 411.819 21.8095 410.73C22.9172 410.124 23.6556 409.035 23.9018 407.824C24.1479 406.613 23.9018 405.402 23.2864 404.313C22.671 403.465 21.9325 402.739 21.071 402.254C21.9325 401.77 22.671 401.165 23.2864 400.317C23.9018 399.227 24.1479 398.017 23.9018 396.806C23.6556 395.595 22.9172 394.626 21.8095 393.9C20.0864 392.81 17.7479 393.295 16.6402 394.99C15.7787 396.322 16.1479 398.259 17.5018 399.106C17.9941 399.348 18.6095 399.227 18.8556 398.864C19.1018 398.38 18.9787 397.774 18.6095 397.532C18.1172 397.29 17.9941 396.564 18.2402 396.2C18.7325 395.353 19.8402 395.232 20.5787 395.716C21.1941 396.079 21.5633 396.685 21.8095 397.411C21.9325 398.138 21.8095 398.743 21.4402 399.348C20.2095 401.165 17.7479 401.649 15.9018 400.559C12.4556 398.38 13.071 395.111 14.1787 392.689L20.8248 380.339C21.9325 378.039 21.4402 375.86 19.471 374.649C18.8556 374.286 18.2402 374.165 17.6248 374.165C16.5172 374.165 15.4095 374.77 14.7941 375.739C14.4248 376.344 14.3018 377.07 14.4248 377.797C14.5479 378.523 15.0402 379.129 15.6556 379.492C16.1479 379.734 16.7633 379.613 17.0095 379.25C17.2556 378.766 17.1325 378.16 16.7633 377.918C16.6402 377.797 16.5172 377.676 16.3941 377.434C16.3941 377.192 16.3941 377.07 16.5172 376.828C16.8864 376.223 17.7479 375.981 18.4864 376.465C18.8556 376.707 20.0864 377.555 19.1018 379.613L12.4556 391.963C10.3633 396.322 11.2248 400.075 14.9172 402.375C15.0402 402.496 15.1633 402.496 15.2864 402.618C15.1633 402.739 15.0402 402.739 14.7941 402.86C11.2248 404.676 10.3633 408.429 12.4556 412.788Z" fill="#AA2424"/>
<path fill-rule="evenodd" clip-rule="evenodd" d="M12.4573 457.828C10.365 462.187 11.2265 465.94 14.9188 468.241C15.0419 468.362 15.165 468.362 15.4111 468.483C15.2881 468.604 15.165 468.604 14.9188 468.725C11.2265 471.026 10.365 474.779 12.4573 479.138L18.9804 491.487C19.965 493.546 18.7342 494.393 18.365 494.635C17.9958 494.878 17.6265 494.878 17.2573 494.878C16.8881 494.757 16.6419 494.635 16.3958 494.272C16.2727 494.151 16.2727 493.909 16.2727 493.667C16.2727 493.425 16.3958 493.304 16.6419 493.183C17.1342 492.94 17.2573 492.335 17.0111 491.851C16.765 491.366 16.0265 491.245 15.6573 491.609C15.0419 491.972 14.5496 492.577 14.4265 493.304C14.3035 494.03 14.4265 494.757 14.7958 495.362C15.2881 496.088 16.0265 496.694 16.8881 496.815C17.7496 497.057 18.7342 496.815 19.4727 496.331C21.4419 495.12 21.9342 492.94 20.8265 490.64L14.3035 478.29C13.1958 475.869 12.4573 472.6 16.0265 470.42C17.8727 469.209 20.3342 469.815 21.565 471.631C22.3035 472.842 21.9342 474.537 20.7035 475.263C19.8419 475.748 18.8573 475.505 18.365 474.779C18.1188 474.295 18.2419 473.689 18.7342 473.447C19.2265 473.205 19.3496 472.6 18.9804 472.115C18.7342 471.631 18.1188 471.51 17.6265 471.873C16.2727 472.721 15.7804 474.537 16.765 475.99C17.8727 477.685 20.2111 478.169 21.9342 477.079C24.1496 475.748 24.765 472.842 23.4111 470.662C22.7958 469.815 22.0573 469.088 21.1958 468.604C22.0573 468.12 22.7958 467.514 23.4111 466.667C24.765 464.487 24.1496 461.703 21.9342 460.25C20.2111 459.16 17.8727 459.644 16.765 461.34C15.9035 462.671 16.2727 464.609 17.7496 465.456C18.2419 465.698 18.8573 465.577 19.1035 465.214C19.3496 464.73 19.2265 464.124 18.7342 463.882C18.2419 463.64 18.1188 462.914 18.365 462.55C18.8573 461.824 19.965 461.582 20.7035 462.066C21.9342 462.792 22.3035 464.487 21.565 465.698C20.3342 467.514 17.8727 467.999 16.0265 466.909C12.5804 464.73 13.1958 461.461 14.3035 459.039L20.9496 446.689C22.0573 444.389 21.565 442.209 19.5958 440.999C18.9804 440.635 18.365 440.514 17.7496 440.514C16.6419 440.514 15.5342 441.12 14.9188 442.088C14.5496 442.694 14.4265 443.42 14.5496 444.147C14.6727 444.873 15.165 445.479 15.7804 445.842C16.2727 446.084 16.8881 445.963 17.1342 445.6C17.3804 445.115 17.2573 444.51 16.8881 444.268C16.765 444.147 16.6419 444.026 16.5188 443.783C16.5188 443.541 16.5188 443.42 16.6419 443.178C17.0111 442.573 17.8727 442.331 18.6111 442.815C18.9804 443.057 20.2111 443.905 19.2265 445.963L12.4573 457.828Z" fill="#AA2424"/>
<path fill-rule="evenodd" clip-rule="evenodd" d="M21.6888 526.236C19.9657 525.147 17.6273 525.631 16.5196 527.326C15.658 528.658 16.0273 530.595 17.5042 531.443C17.9965 531.685 18.6119 531.564 18.858 531.201C19.1042 530.716 18.9811 530.111 18.4888 529.869C17.9965 529.627 17.8734 528.9 18.1196 528.537C18.6119 527.81 19.7196 527.568 20.458 528.053C21.6888 528.779 22.058 530.474 21.3196 531.685C20.0888 533.501 17.6273 533.985 15.7811 532.896C12.3349 530.716 12.9503 527.447 14.058 525.026L20.7042 512.676C21.8119 510.375 21.3196 508.196 19.3503 506.985C18.7349 506.622 18.1196 506.501 17.5042 506.501C16.3965 506.501 15.2888 507.106 14.6734 508.075C14.3042 508.68 14.1811 509.407 14.3042 510.133C14.4273 510.86 14.9196 511.465 15.5349 511.828C16.0273 512.07 16.6426 511.949 16.8888 511.586C17.1349 511.102 17.0119 510.496 16.6426 510.254C16.5196 510.133 16.3965 510.012 16.2734 509.77C16.2734 509.528 16.2734 509.407 16.3965 509.165C16.7657 508.559 17.6273 508.317 18.3657 508.801C18.7349 509.044 19.9657 509.891 18.9811 511.949L12.3349 524.299C10.2426 528.658 11.1042 532.411 14.7965 534.712C17.6273 536.407 21.3196 535.68 23.0426 532.896C24.5196 530.474 23.9042 527.568 21.6888 526.236Z" fill="#AA2424"/>
<path fill-rule="evenodd" clip-rule="evenodd" d="M29.1602 466.228L31.684 468.711L29.1602 471.194L26.6364 468.711L29.1602 466.228Z" fill="#AA2424"/>
<path fill-rule="evenodd" clip-rule="evenodd" d="M29.1562 400.002L31.6801 402.484L29.1562 404.967L26.6324 402.484L29.1562 400.002Z" fill="#AA2424"/>
<path fill-rule="evenodd" clip-rule="evenodd" d="M29.1289 333.786L31.6527 336.269L29.1289 338.751L26.6051 336.269L29.1289 333.786Z" fill="#AA2424"/>
<path fill-rule="evenodd" clip-rule="evenodd" d="M29.1992 267.65L31.723 270.133L29.1992 272.616L26.6754 270.133L29.1992 267.65Z" fill="#AA2424"/>
<path fill-rule="evenodd" clip-rule="evenodd" d="M29.1953 201.424L31.7191 203.907L29.1953 206.39L26.6715 203.907L29.1953 201.424Z" fill="#AA2424"/>
<path fill-rule="evenodd" clip-rule="evenodd" d="M29.168 135.222L31.6921 137.704L29.1683 140.188L26.6442 137.705L29.168 135.222Z" fill="#AA2424"/>
<path fill-rule="evenodd" clip-rule="evenodd" d="M29.1445 68.9859L31.6683 71.4686L29.1445 73.9514L26.6207 71.4686L29.1445 68.9859Z" fill="#AA2424"/>
<path fill-rule="evenodd" clip-rule="evenodd" d="M29.2031 532.434L31.7269 534.917L29.2031 537.399L26.6793 534.917L29.2031 532.434Z" fill="#AA2424"/>
<path fill-rule="evenodd" clip-rule="evenodd" d="M12.7007 501.9L7.53143 514.734C7.28528 515.461 5.93143 515.461 5.5622 514.734L0.392969 501.9C0.269892 501.658 0.269892 501.416 0.392969 501.174L5.5622 488.34C5.80835 487.976 6.17758 487.734 6.54681 487.734C7.03912 487.734 7.40835 487.976 7.53143 488.34L12.7007 501.174C12.8237 501.416 12.8237 501.658 12.7007 501.9ZM10.8545 501.537L6.66989 491.366L2.48528 501.537L6.66989 511.707L10.8545 501.537Z" fill="#AA2424"/>
<path fill-rule="evenodd" clip-rule="evenodd" d="M7.53143 448.626C7.28528 449.353 5.93143 449.353 5.68528 448.626L0.392969 435.792C0.269892 435.55 0.269892 435.308 0.392969 435.066L5.5622 422.232C5.80835 421.869 6.17758 421.626 6.54681 421.626C7.03912 421.626 7.40835 421.869 7.53143 422.232L12.7007 435.066C12.8237 435.308 12.8237 435.55 12.7007 435.792L7.53143 448.626ZM10.8545 435.429L6.66989 425.259L2.48528 435.429L6.66989 445.6L10.8545 435.429Z" fill="#AA2424"/>
<path fill-rule="evenodd" clip-rule="evenodd" d="M7.53143 382.64C7.28528 383.366 5.93143 383.366 5.68528 382.64L0.392969 369.806C0.269892 369.564 0.269892 369.322 0.392969 369.079L5.5622 356.245C5.80835 355.882 6.17758 355.64 6.54681 355.64C7.03912 355.64 7.40835 355.882 7.53143 356.245L12.7007 369.079C12.8237 369.322 12.8237 369.564 12.7007 369.806L7.53143 382.64ZM10.8545 369.443L6.66989 359.272L2.48528 369.443L6.66989 379.613L10.8545 369.443Z" fill="#AA2424"/>
<path fill-rule="evenodd" clip-rule="evenodd" d="M7.53143 316.532C7.28528 317.259 5.93143 317.259 5.68528 316.532L0.392969 303.698C0.269892 303.456 0.269892 303.214 0.392969 302.972L5.5622 290.138C5.80835 289.775 6.17758 289.532 6.54681 289.532C7.03912 289.532 7.40835 289.775 7.53143 290.138L12.7007 302.972C12.8237 303.214 12.8237 303.456 12.7007 303.698L7.53143 316.532ZM10.8545 303.335L6.66989 293.165L2.48528 303.335L6.66989 313.505L10.8545 303.335Z" fill="#AA2424"/>
<path fill-rule="evenodd" clip-rule="evenodd" d="M7.53143 250.546C7.28528 251.272 5.93143 251.272 5.68528 250.546L0.392969 237.712C0.269892 237.47 0.269892 237.227 0.392969 236.985L5.5622 224.151C5.80835 223.788 6.17758 223.546 6.54681 223.546C7.03912 223.546 7.40835 223.788 7.53143 224.151L12.7007 236.985C12.8237 237.227 12.8237 237.47 12.7007 237.712L7.53143 250.546ZM10.8545 237.348L6.66989 227.178L2.48528 237.348L6.66989 247.519L10.8545 237.348Z" fill="#AA2424"/>
<path fill-rule="evenodd" clip-rule="evenodd" d="M7.53143 184.438C7.28528 185.165 5.93143 185.165 5.68528 184.438L0.392969 171.604C0.269892 171.362 0.269892 171.12 0.392969 170.878L5.5622 158.044C5.80835 157.68 6.17758 157.438 6.54681 157.438C7.03912 157.438 7.40835 157.68 7.53143 158.044L12.7007 170.878C12.8237 171.12 12.8237 171.362 12.7007 171.604L7.53143 184.438ZM10.8545 171.241L6.66989 161.07L2.48528 171.241L6.66989 181.411L10.8545 171.241Z" fill="#AA2424"/>
<path fill-rule="evenodd" clip-rule="evenodd" d="M7.53143 118.452C7.28528 119.178 5.93143 119.178 5.68528 118.452L0.392969 105.618C0.269892 105.375 0.269892 105.133 0.392969 104.891L5.5622 92.057C5.80835 91.6938 6.17758 91.4516 6.54681 91.4516C7.03912 91.4516 7.40835 91.6938 7.53143 92.057L12.7007 104.891C12.8237 105.133 12.8237 105.375 12.7007 105.618L7.53143 118.452ZM10.8545 105.254L6.66989 95.0839L2.48528 105.254L6.66989 115.425L10.8545 105.254Z" fill="#AA2424"/>
<path fill-rule="evenodd" clip-rule="evenodd" d="M2.36214 469.088C2.23906 468.967 2.11599 468.846 2.11599 468.604C2.11599 468.483 2.23906 468.241 2.48522 467.999L6.17752 464.366C6.3006 464.245 6.42368 464.124 6.66983 464.124C6.79291 464.124 7.03906 464.245 7.16214 464.366L10.8544 467.999C11.1006 468.362 11.1006 468.846 10.8544 469.088L7.16214 472.721C6.79291 472.963 6.3006 472.963 6.05445 472.721L2.36214 469.088ZM9.25445 468.604L6.66983 466.061L4.08522 468.604L6.66983 471.147L9.25445 468.604Z" fill="#AA2424"/>
<path fill-rule="evenodd" clip-rule="evenodd" d="M7.16237 398.259L10.8547 401.891C11.1008 402.254 11.1008 402.739 10.9778 402.86L7.28544 406.492C6.91621 406.734 6.4239 406.734 6.17775 406.492L2.48544 402.86C2.36236 402.739 2.23929 402.618 2.23929 402.375C2.23929 402.254 2.36236 402.012 2.48544 401.891L6.17775 398.259C6.30083 398.138 6.4239 398.017 6.67006 398.017C6.79313 398.017 7.03929 398.138 7.16237 398.259ZM4.08544 402.496L6.67006 405.039L9.25467 402.496L6.67006 399.954L4.08544 402.496Z" fill="#AA2424"/>
<path fill-rule="evenodd" clip-rule="evenodd" d="M7.16237 332.03L10.8547 335.662C11.1008 336.026 11.1008 336.51 10.9778 336.631L7.28544 340.263C6.91621 340.505 6.4239 340.505 6.17775 340.263L2.48544 336.631C2.36236 336.51 2.23929 336.389 2.23929 336.147C2.23929 336.026 2.36236 335.783 2.48544 335.662L6.17775 332.03C6.30083 331.909 6.4239 331.788 6.67006 331.788C6.79313 331.788 7.03929 331.909 7.16237 332.03ZM4.08544 336.268L6.67006 338.81L9.25467 336.268L6.67006 333.725L4.08544 336.268Z" fill="#AA2424"/>
<path fill-rule="evenodd" clip-rule="evenodd" d="M7.16237 265.922L10.8547 269.555C11.1008 269.797 11.1008 270.281 10.9778 270.523L7.28544 274.156C6.91621 274.398 6.4239 274.398 6.17775 274.156L2.48544 270.523C2.36236 270.402 2.23929 270.281 2.23929 270.039C2.23929 269.918 2.36236 269.676 2.48544 269.555L6.17775 265.922C6.30083 265.801 6.4239 265.68 6.67006 265.68C6.79313 265.68 7.03929 265.801 7.16237 265.922ZM4.08544 270.039L6.67006 272.582L9.25467 270.039L6.67006 267.496L4.08544 270.039Z" fill="#AA2424"/>
<path fill-rule="evenodd" clip-rule="evenodd" d="M7.16237 199.694L10.8547 203.326C11.1008 203.568 11.1008 204.052 10.9778 204.295L7.28544 207.927C6.91621 208.169 6.4239 208.169 6.17775 207.927L2.48544 204.295C2.36236 204.174 2.23929 204.052 2.23929 203.81C2.23929 203.689 2.36236 203.447 2.48544 203.326L6.17775 199.694C6.30083 199.573 6.4239 199.452 6.67006 199.452C6.79313 199.452 7.03929 199.573 7.16237 199.694ZM4.08544 203.931L6.67006 206.474L9.25467 203.931L6.67006 201.389L4.08544 203.931Z" fill="#AA2424"/>
<path fill-rule="evenodd" clip-rule="evenodd" d="M7.16237 133.465L10.8547 137.097C11.1008 137.34 11.1008 137.824 10.9778 138.066L7.28544 141.698C6.91621 141.94 6.4239 141.94 6.17775 141.698L2.48544 138.066C2.36236 137.945 2.23929 137.824 2.23929 137.582C2.23929 137.461 2.36236 137.218 2.48544 137.097L6.17775 133.465C6.30083 133.344 6.4239 133.223 6.67006 133.223C6.79313 133.223 7.03929 133.344 7.16237 133.465ZM4.08544 137.703L6.67006 140.245L9.25467 137.703L6.67006 135.16L4.08544 137.703Z" fill="#AA2424"/>
<path fill-rule="evenodd" clip-rule="evenodd" d="M6.60547 483.207L8.34602 484.92L6.60547 486.632L4.86491 484.92L6.60547 483.207Z" fill="#AA2424"/>
<path fill-rule="evenodd" clip-rule="evenodd" d="M6.63281 478.516L8.37336 480.229L6.63256 481.941L4.89201 480.228L6.63281 478.516Z" fill="#AA2424"/>
<path fill-rule="evenodd" clip-rule="evenodd" d="M6.63672 473.749L8.37727 475.461L6.63672 477.174L4.89616 475.461L6.63672 473.749Z" fill="#AA2424"/>
<path fill-rule="evenodd" clip-rule="evenodd" d="M6.61328 459.958L8.35384 461.671L6.61328 463.383L4.87273 461.671L6.61328 459.958Z" fill="#AA2424"/>
<path fill-rule="evenodd" clip-rule="evenodd" d="M6.64062 455.264L8.38118 456.977L6.64038 458.689L4.89982 456.977L6.64062 455.264Z" fill="#AA2424"/>
<path fill-rule="evenodd" clip-rule="evenodd" d="M6.60938 450.519L8.34993 452.231L6.60938 453.944L4.86882 452.231L6.60938 450.519Z" fill="#AA2424"/>
<path fill-rule="evenodd" clip-rule="evenodd" d="M6.65234 526.538L8.3929 528.25L6.65234 529.962L4.91179 528.25L6.65234 526.538Z" fill="#AA2424"/>
<path fill-rule="evenodd" clip-rule="evenodd" d="M6.67578 521.803L8.41634 523.515L6.67578 525.228L4.93523 523.515L6.67578 521.803Z" fill="#AA2424"/>
<path fill-rule="evenodd" clip-rule="evenodd" d="M6.69531 517.069L8.43587 518.781L6.69531 520.494L4.95476 518.781L6.69531 517.069Z" fill="#AA2424"/>
<path fill-rule="evenodd" clip-rule="evenodd" d="M6.69141 417.064L8.43196 418.776L6.69141 420.488L4.95085 418.776L6.69141 417.064Z" fill="#AA2424"/>
<path fill-rule="evenodd" clip-rule="evenodd" d="M6.66797 412.356L8.40852 414.068L6.66797 415.78L4.92741 414.068L6.66797 412.356Z" fill="#AA2424"/>
<path fill-rule="evenodd" clip-rule="evenodd" d="M6.58594 407.546L8.32649 409.258L6.58594 410.971L4.84538 409.258L6.58594 407.546Z" fill="#AA2424"/>
<path fill-rule="evenodd" clip-rule="evenodd" d="M6.68359 393.822L8.42415 395.535L6.68359 397.247L4.94304 395.535L6.68359 393.822Z" fill="#AA2424"/>
<path fill-rule="evenodd" clip-rule="evenodd" d="M6.60156 389.013L8.34212 390.725L6.60156 392.437L4.86101 390.725L6.60156 389.013Z" fill="#AA2424"/>
<path fill-rule="evenodd" clip-rule="evenodd" d="M6.625 384.316L8.3658 386.028L6.62525 387.741L4.88445 386.028L6.625 384.316Z" fill="#AA2424"/>
<path fill-rule="evenodd" clip-rule="evenodd" d="M6.66016 350.85L8.40071 352.563L6.66016 354.275L4.9196 352.563L6.66016 350.85Z" fill="#AA2424"/>
<path fill-rule="evenodd" clip-rule="evenodd" d="M6.65234 346.133L8.39265 347.845L6.65185 349.557L4.91154 347.845L6.65234 346.133Z" fill="#AA2424"/>
<path fill-rule="evenodd" clip-rule="evenodd" d="M6.68359 341.397L8.42415 343.109L6.68359 344.821L4.94304 343.109L6.68359 341.397Z" fill="#AA2424"/>
<path fill-rule="evenodd" clip-rule="evenodd" d="M6.67969 327.626L8.42024 329.339L6.67944 331.051L4.93889 329.338L6.67969 327.626Z" fill="#AA2424"/>
<path fill-rule="evenodd" clip-rule="evenodd" d="M6.68359 322.901L8.42415 324.614L6.68335 326.326L4.94279 324.614L6.68359 322.901Z" fill="#AA2424"/>
<path fill-rule="evenodd" clip-rule="evenodd" d="M6.6875 318.178L8.4283 319.89L6.68775 321.602L4.94695 319.89L6.6875 318.178Z" fill="#AA2424"/>
<path fill-rule="evenodd" clip-rule="evenodd" d="M6.64453 284.629L8.38509 286.341L6.64453 288.054L4.90398 286.341L6.64453 284.629Z" fill="#AA2424"/>
<path fill-rule="evenodd" clip-rule="evenodd" d="M6.66016 279.901L8.40071 281.613L6.66016 283.325L4.9196 281.613L6.66016 279.901Z" fill="#AA2424"/>
<path fill-rule="evenodd" clip-rule="evenodd" d="M6.66406 275.204L8.40461 276.916L6.66381 278.628L4.92326 276.916L6.66406 275.204Z" fill="#AA2424"/>
<path fill-rule="evenodd" clip-rule="evenodd" d="M6.66015 261.401L8.40071 263.114L6.65991 264.826L4.91935 263.114L6.66015 261.401Z" fill="#AA2424"/>
<path fill-rule="evenodd" clip-rule="evenodd" d="M6.66406 256.677L8.40461 258.39L6.66381 260.102L4.92326 258.39L6.66406 256.677Z" fill="#AA2424"/>
<path fill-rule="evenodd" clip-rule="evenodd" d="M6.66797 251.953L8.40877 253.665L6.66822 255.377L4.92742 253.665L6.66797 251.953Z" fill="#AA2424"/>
<path fill-rule="evenodd" clip-rule="evenodd" d="M6.63672 218.405L8.37727 220.117L6.63672 221.829L4.89616 220.117L6.63672 218.405Z" fill="#AA2424"/>
<path fill-rule="evenodd" clip-rule="evenodd" d="M6.625 213.687L8.36555 215.399L6.625 217.111L4.88445 215.399L6.625 213.687Z" fill="#AA2424"/>
<path fill-rule="evenodd" clip-rule="evenodd" d="M6.62891 208.962L8.36946 210.675L6.62891 212.387L4.88835 210.675L6.62891 208.962Z" fill="#AA2424"/>
<path fill-rule="evenodd" clip-rule="evenodd" d="M6.625 195.161L8.3653 196.873L6.6245 198.585L4.8842 196.873L6.625 195.161Z" fill="#AA2424"/>
<path fill-rule="evenodd" clip-rule="evenodd" d="M6.64453 190.452L8.38508 192.165L6.64428 193.877L4.90373 192.165L6.64453 190.452Z" fill="#AA2424"/>
<path fill-rule="evenodd" clip-rule="evenodd" d="M6.64844 185.728L8.38924 187.441L6.64869 189.153L4.90789 187.441L6.64844 185.728Z" fill="#AA2424"/>
<path fill-rule="evenodd" clip-rule="evenodd" d="M6.61328 152.186L8.35384 153.899L6.61328 155.611L4.87273 153.899L6.61328 152.186Z" fill="#AA2424"/>
<path fill-rule="evenodd" clip-rule="evenodd" d="M6.61719 147.463L8.35774 149.175L6.61719 150.887L4.87663 149.175L6.61719 147.463Z" fill="#AA2424"/>
<path fill-rule="evenodd" clip-rule="evenodd" d="M6.62891 142.738L8.36946 144.45L6.62891 146.162L4.88835 144.45L6.62891 142.738Z" fill="#AA2424"/>
<path fill-rule="evenodd" clip-rule="evenodd" d="M6.61719 128.937L8.35774 130.65L6.61719 132.362L4.87663 130.65L6.61719 128.937Z" fill="#AA2424"/>
<path fill-rule="evenodd" clip-rule="evenodd" d="M6.625 124.213L8.3653 125.926L6.6245 127.638L4.8842 125.925L6.625 124.213Z" fill="#AA2424"/>
<path fill-rule="evenodd" clip-rule="evenodd" d="M6.62891 119.49L8.36946 121.202L6.62891 122.914L4.88835 121.202L6.62891 119.49Z" fill="#AA2424"/>
<path fill-rule="evenodd" clip-rule="evenodd" d="M6.68359 86.0507L8.42415 87.7629L6.68359 89.4752L4.94304 87.7629L6.68359 86.0507Z" fill="#AA2424"/>
<path fill-rule="evenodd" clip-rule="evenodd" d="M6.6875 81.3269L8.42805 83.0392L6.6875 84.7514L4.94695 83.0392L6.6875 81.3269Z" fill="#AA2424"/>
<path fill-rule="evenodd" clip-rule="evenodd" d="M6.60547 76.5174L8.34602 78.2296L6.60547 79.9419L4.86491 78.2296L6.60547 76.5174Z" fill="#AA2424"/>
<path fill-rule="evenodd" clip-rule="evenodd" d="M19.1037 27.8866C20.0883 29.9449 18.8575 30.7924 18.4883 31.0346C18.1191 31.2767 17.7498 31.2767 17.3806 31.2767C17.0114 31.1557 16.7652 31.0346 16.5191 30.6714C16.396 30.5503 16.396 30.3081 16.396 30.066C16.396 29.8238 16.5191 29.7027 16.7652 29.5817C17.2575 29.3395 17.3806 28.7341 17.0114 28.2498C16.7652 27.7655 16.0268 27.6444 15.6575 28.0077C15.0422 28.3709 14.5498 28.9763 14.4268 29.7027C14.3037 30.4292 14.4268 31.1557 14.796 31.761C15.7806 33.335 17.8729 33.8193 19.4729 32.7296C21.4422 31.5189 21.9345 29.3395 20.8268 27.0391L14.3037 14.6893C13.196 12.2678 12.4575 8.99871 16.0268 6.81933C17.8729 5.60857 20.3345 6.21395 21.5652 8.0301C22.3037 9.24086 21.9345 10.9359 20.7037 11.6624C19.9652 12.1467 18.8575 11.9045 18.3652 11.1781C18.1191 10.6938 18.2422 10.0884 18.7345 9.84624C19.2268 9.60409 19.3498 8.99871 19.1037 8.5144C18.8575 8.0301 18.1191 7.90902 17.7498 8.15117C16.396 8.99871 15.9037 10.8148 16.7652 12.2678C17.8729 13.9628 20.2114 14.4471 21.9345 13.3575C23.0422 12.7521 23.7806 11.6624 24.0268 10.4516C24.2729 9.24086 24.0268 8.0301 23.4114 6.94041C22.3037 5.12427 20.3345 4.27673 18.3652 4.27673C17.2575 4.27673 16.1498 4.51889 15.1652 5.24534C11.4729 7.54579 10.6114 11.2992 12.7037 15.6579L19.1037 27.8866Z" fill="#AA2424"/>
<path fill-rule="evenodd" clip-rule="evenodd" d="M29.1289 2.7635L31.6527 5.24628L29.1289 7.72905L26.6051 5.24628L29.1289 2.7635Z" fill="#AA2424"/>
<path fill-rule="evenodd" clip-rule="evenodd" d="M7.53143 51.2543C7.28528 51.9808 5.93143 51.9808 5.68528 51.2543L0.392969 38.4202C0.269892 38.1781 0.269892 37.9359 0.392969 37.6938L5.5622 24.8597C5.80835 24.4965 6.17758 24.2543 6.54681 24.2543C7.03912 24.2543 7.40835 24.4965 7.53143 24.8597L12.7007 37.6938C12.8237 37.9359 12.8237 38.1781 12.7007 38.4202L7.53143 51.2543ZM10.8545 38.057L6.66989 27.8866L2.48528 38.057L6.66989 48.2274L10.8545 38.057Z" fill="#AA2424"/>
<path fill-rule="evenodd" clip-rule="evenodd" d="M7.16214 9.36193C6.79291 9.60408 6.3006 9.60408 6.05445 9.36193L2.48522 5.60857C2.36214 5.48749 2.23906 5.36642 2.23906 5.12426C2.23906 5.00319 2.36214 4.76103 2.48522 4.63996L6.17752 1.00767C6.3006 0.886594 6.42368 0.765518 6.66983 0.765518C6.79291 0.765518 7.03906 0.886594 7.16214 1.00767L10.8544 4.63996C11.1006 5.00319 11.1006 5.48749 10.8544 5.72964L7.16214 9.36193ZM9.25445 5.12426L6.66983 2.58166L4.08522 5.12426L6.66983 7.66686L9.25445 5.12426Z" fill="#AA2424"/>
<path fill-rule="evenodd" clip-rule="evenodd" d="M7.16237 67.2364L10.8547 70.8687C11.1008 71.2319 11.1008 71.7162 10.9778 71.8373L7.28544 75.4696C6.91621 75.7117 6.4239 75.7117 6.17775 75.4696L2.48544 71.8373C2.36236 71.7162 2.23929 71.5951 2.23929 71.353C2.23929 71.2319 2.36236 70.9897 2.48544 70.8687L6.17775 67.2364C6.30083 67.1153 6.4239 66.9942 6.67006 66.9942C6.79313 66.9942 7.03929 67.1153 7.16237 67.2364ZM4.08544 71.474L6.67006 74.0166L9.25467 71.474L6.67006 68.9314L4.08544 71.474Z" fill="#AA2424"/>
<path fill-rule="evenodd" clip-rule="evenodd" d="M6.66406 19.8295L8.40462 21.5418L6.66406 23.254L4.92351 21.5418L6.66406 19.8295Z" fill="#AA2424"/>
<path fill-rule="evenodd" clip-rule="evenodd" d="M6.66406 15.1147L8.40461 16.8272L6.66381 18.5395L4.92326 16.827L6.66406 15.1147Z" fill="#AA2424"/>
<path fill-rule="evenodd" clip-rule="evenodd" d="M6.67969 10.3839L8.42024 12.0962L6.67969 13.8084L4.93913 12.0962L6.67969 10.3839Z" fill="#AA2424"/>
<path fill-rule="evenodd" clip-rule="evenodd" d="M6.63281 63.0625L8.37312 64.775L6.63232 66.487L4.89201 64.7745L6.63281 63.0625Z" fill="#AA2424"/>
<path fill-rule="evenodd" clip-rule="evenodd" d="M6.65234 58.3406L8.3929 60.0528L6.65234 61.7651L4.91179 60.0528L6.65234 58.3406Z" fill="#AA2424"/>
<path fill-rule="evenodd" clip-rule="evenodd" d="M6.64453 53.6145L8.38509 55.3268L6.64453 57.039L4.90398 55.3268L6.64453 53.6145Z" fill="#AA2424"/>
<path fill-rule="evenodd" clip-rule="evenodd" d="M6.67175 530.474C6.79483 530.474 7.04099 530.595 7.16406 530.716L10.9794 534.227C11.2256 534.591 11.2256 535.075 10.9794 535.317L7.28714 538.949C6.91791 539.192 6.4256 539.192 6.17945 538.949L2.48714 535.317C2.36406 535.196 2.24099 535.075 2.24099 534.833C2.24099 534.712 2.36406 534.47 2.48714 534.348L6.17945 530.716C6.30252 530.595 6.4256 530.474 6.67175 530.474ZM4.08714 534.954L6.67175 537.496L9.25637 534.954L6.67175 532.411L4.08714 534.954Z" fill="#AA2424"/>
<path fill-rule="evenodd" clip-rule="evenodd" d="M12.4575 279.766L18.9806 292.115C19.9652 294.174 18.7345 295.021 18.3652 295.263C17.7498 295.626 16.8883 295.505 16.396 294.9C16.2729 294.779 16.2729 294.537 16.2729 294.295C16.2729 294.053 16.396 293.931 16.6422 293.81C17.1345 293.568 17.2575 292.963 17.0114 292.479C16.7652 291.994 16.0268 291.873 15.6575 292.115C15.0422 292.479 14.5498 293.084 14.4268 293.81C14.3037 294.537 14.4268 295.263 14.796 295.869C15.7806 297.443 17.8729 297.927 19.4729 296.837C21.4422 295.626 21.9345 293.447 20.8268 291.147L14.3037 278.797C13.196 276.375 12.4575 273.106 16.0268 270.927C17.8729 269.716 20.3345 270.322 21.5652 272.138C22.3037 273.348 21.9345 275.044 20.7037 275.77C19.8422 276.254 18.8575 276.012 18.3652 275.286C18.1191 274.801 18.2422 274.196 18.7345 273.954C19.2268 273.712 19.3498 273.106 18.9806 272.622C18.7345 272.138 18.1191 272.017 17.6268 272.38C16.2729 273.227 15.7806 275.044 16.7652 276.496C17.2575 277.344 18.1191 277.949 19.1037 278.07C20.0883 278.313 21.0729 278.07 21.9345 277.586C23.0422 276.981 23.7806 275.891 24.0268 274.68C24.2729 273.47 24.0268 272.259 23.4114 271.169C22.796 270.322 22.0575 269.595 21.196 269.111C22.0575 268.626 22.796 268.021 23.4114 267.174C24.0268 266.084 24.2729 264.873 24.0268 263.662C23.7806 262.452 23.0422 261.483 21.9345 260.757C21.0729 260.272 20.0883 260.03 19.1037 260.272C18.1191 260.514 17.2575 260.999 16.7652 261.846C15.9037 263.178 16.2729 265.115 17.6268 265.963C18.1191 266.205 18.7345 266.084 18.9806 265.721C19.2268 265.236 19.1037 264.631 18.7345 264.389C18.2422 264.147 18.1191 263.42 18.3652 263.057C18.8575 262.331 19.9652 262.088 20.7037 262.573C21.9345 263.299 22.3037 264.994 21.5652 266.205C20.3345 268.021 17.8729 268.505 16.0268 267.416C12.5806 265.236 13.196 261.967 14.3037 259.546L20.9498 247.196C22.0575 244.896 21.5652 242.716 19.596 241.505C19.1037 241.142 18.3652 241.021 17.7498 241.021C17.5037 241.021 17.2575 241.021 17.0114 241.142C16.1498 241.384 15.4114 241.869 14.9191 242.595C14.5498 243.2 14.4268 243.927 14.5498 244.653C14.6729 245.38 15.1652 245.985 15.7806 246.348C16.2729 246.591 16.8883 246.47 17.1345 245.985C17.3806 245.501 17.2575 244.896 16.7652 244.653C16.6422 244.532 16.5191 244.411 16.396 244.169C16.396 243.927 16.396 243.806 16.5191 243.564C16.8883 242.958 17.7498 242.716 18.4883 243.2C18.8575 243.443 20.0883 244.29 19.1037 246.348L12.4575 258.577C10.3652 262.936 11.2268 266.689 14.9191 268.99C15.0422 269.111 15.1652 269.111 15.4114 269.232C15.2883 269.353 15.1652 269.353 14.9191 269.474C11.2268 271.653 10.3652 275.407 12.4575 279.766Z" fill="#AA2424"/>
<path fill-rule="evenodd" clip-rule="evenodd" d="M12.4554 345.994L18.9785 358.344C19.9631 360.402 18.7323 361.25 18.3631 361.492C17.9938 361.734 17.6246 361.734 17.2554 361.734C16.8861 361.613 16.64 361.492 16.3938 361.129C16.2708 361.008 16.2708 360.766 16.2708 360.523C16.2708 360.281 16.3938 360.16 16.64 360.039C17.1323 359.797 17.2554 359.192 16.8861 358.707C16.64 358.223 15.9015 358.102 15.5323 358.465C14.9169 358.828 14.4246 359.434 14.3015 360.16C14.1785 360.887 14.3015 361.613 14.6708 362.218C15.6554 363.792 17.7477 364.277 19.3477 363.187C21.3169 361.976 21.8092 359.797 20.7015 357.496L14.1785 345.147C13.0708 342.725 12.3323 339.456 15.9015 337.277C17.7477 336.066 20.2092 336.671 21.44 338.487C22.1785 339.698 21.8092 341.393 20.5785 342.12C19.7169 342.604 18.7323 342.362 18.24 341.635C18.1169 341.393 17.9938 341.151 18.1169 340.909C18.1169 340.667 18.3631 340.425 18.6092 340.304C19.1015 340.061 19.2246 339.456 18.9785 338.972C18.7323 338.487 17.9938 338.366 17.6246 338.609C16.8861 339.093 16.5169 339.698 16.2708 340.425C16.1477 341.151 16.2708 341.999 16.64 342.604C17.7477 344.299 20.0861 344.783 21.8092 343.694C24.0246 342.362 24.64 339.456 23.2861 337.277C22.6708 336.429 21.9323 335.703 21.0708 335.218C21.9323 334.734 22.6708 334.129 23.2861 333.281C24.64 331.102 24.0246 328.317 21.8092 326.864C20.0861 325.774 17.7477 326.259 16.64 327.954C15.7785 329.286 16.1477 331.223 17.5015 332.07C17.9938 332.313 18.6092 332.192 18.8554 331.828C19.1015 331.344 18.9785 330.739 18.6092 330.496C18.1169 330.254 17.9938 329.528 18.24 329.165C18.7323 328.438 19.84 328.196 20.5785 328.68C21.8092 329.407 22.1785 331.102 21.44 332.313C20.2092 334.129 17.7477 334.613 15.9015 333.523C12.4554 331.344 13.0708 328.075 14.1785 325.653L20.8246 313.304C21.9323 311.003 21.44 308.824 19.4708 307.613C18.8554 307.25 18.24 307.129 17.6246 307.129C16.5169 307.129 15.4092 307.734 14.7938 308.703C14.4246 309.308 14.3015 310.035 14.4246 310.761C14.5477 311.487 15.04 312.093 15.6554 312.456C16.1477 312.698 16.7631 312.577 17.0092 312.093C17.2554 311.609 17.1323 311.003 16.64 310.761C16.5169 310.64 16.3938 310.519 16.2708 310.277C16.2708 310.035 16.2708 309.914 16.3938 309.671C16.7631 309.066 17.6246 308.824 18.3631 309.308C18.7323 309.55 19.9631 310.398 18.9785 312.456L12.3323 324.806C10.24 329.165 11.1015 332.918 14.7938 335.218C14.9169 335.34 15.04 335.34 15.2861 335.461C15.1631 335.582 15.04 335.582 14.7938 335.703C11.2246 337.882 10.3631 341.635 12.4554 345.994Z" fill="#AA2424"/>
<path fill-rule="evenodd" clip-rule="evenodd" d="M12.4575 412.223L18.9806 424.573C19.9652 426.631 18.7345 427.479 18.3652 427.721C17.7498 428.084 16.8883 427.963 16.396 427.357C16.2729 427.236 16.2729 426.994 16.2729 426.752C16.2729 426.51 16.396 426.389 16.6422 426.268C17.1345 426.026 17.2575 425.42 17.0114 424.936C16.7652 424.452 16.0268 424.331 15.6575 424.573C15.0422 424.936 14.5498 425.541 14.4268 426.268C14.3037 426.994 14.4268 427.721 14.796 428.326C15.7806 429.9 17.8729 430.384 19.4729 429.295C21.4422 428.084 21.9345 425.905 20.8268 423.604L14.3037 411.254C13.196 408.833 12.4575 405.564 16.0268 403.384C17.8729 402.174 20.3345 402.779 21.5652 404.595C22.3037 405.806 21.9345 407.501 20.7037 408.227C19.8422 408.712 18.8575 408.47 18.3652 407.743C18.1191 407.259 18.2422 406.653 18.7345 406.411C19.2268 406.169 19.3498 405.564 18.9806 405.079C18.7345 404.595 18.1191 404.474 17.6268 404.837C16.2729 405.685 15.7806 407.501 16.7652 408.954C17.8729 410.649 20.2114 411.133 21.9345 410.044C23.0422 409.438 23.7806 408.348 24.0268 407.138C24.2729 405.927 24.0268 404.716 23.4114 403.626C22.796 402.779 22.0575 402.053 21.196 401.568C22.0575 401.084 22.796 400.479 23.4114 399.631C24.0268 398.541 24.2729 397.331 24.0268 396.12C23.7806 394.909 23.0422 393.94 21.9345 393.214C20.2114 392.124 17.8729 392.609 16.7652 394.304C15.9037 395.635 16.2729 397.573 17.6268 398.42C18.1191 398.662 18.7345 398.541 18.9806 398.178C19.2268 397.694 19.1037 397.088 18.7345 396.846C18.2422 396.604 18.1191 395.878 18.3652 395.514C18.8575 394.788 19.9652 394.546 20.7037 395.03C21.9345 395.757 22.3037 397.452 21.5652 398.662C20.3345 400.479 17.8729 400.963 16.0268 399.873C12.5806 397.694 13.196 394.425 14.3037 392.003L20.9498 379.653C22.0575 377.353 21.5652 375.174 19.596 373.963C18.9806 373.6 18.3652 373.479 17.7498 373.479C17.5037 373.479 17.2575 373.479 17.0114 373.6C16.1498 373.842 15.4114 374.326 14.9191 375.053C14.5498 375.658 14.4268 376.384 14.5498 377.111C14.6729 377.837 15.1652 378.443 15.7806 378.806C16.2729 379.048 16.8883 378.927 17.1345 378.564C17.3806 378.079 17.2575 377.474 16.8883 377.232C16.7652 377.111 16.6422 376.99 16.5191 376.748C16.5191 376.505 16.5191 376.384 16.6422 376.142C16.8883 375.779 17.1345 375.658 17.5037 375.537C17.8729 375.416 18.2422 375.537 18.6114 375.779C18.9806 376.021 20.2114 376.869 19.2268 378.927L12.5806 391.277C10.4883 395.635 11.3498 399.389 15.0422 401.689C15.1652 401.81 15.2883 401.81 15.4114 401.931C15.2883 402.053 15.1652 402.053 14.9191 402.174C11.2268 404.111 10.3652 407.864 12.4575 412.223Z" fill="#AA2424"/>
<path fill-rule="evenodd" clip-rule="evenodd" d="M17.0114 491.044C16.7652 490.559 16.1498 490.438 15.6575 490.801C15.0422 491.165 14.5498 491.77 14.4268 492.496C14.3037 493.223 14.4268 493.949 14.796 494.555C15.7806 496.129 17.8729 496.613 19.4729 495.523C21.4422 494.313 21.9345 492.133 20.8268 489.833L14.3037 477.483C13.196 475.061 12.4575 471.792 16.0268 469.613C17.8729 468.402 20.3345 469.008 21.5652 470.824C22.3037 472.035 21.9345 473.73 20.7037 474.456C19.8422 474.94 18.8575 474.698 18.3652 473.972C18.1191 473.487 18.2422 472.882 18.7345 472.64C19.2268 472.398 19.3498 471.792 18.9806 471.308C18.7345 470.824 18.1191 470.703 17.6268 471.066C16.2729 471.913 15.7806 473.73 16.7652 475.183C17.2575 476.03 18.1191 476.635 19.1037 476.757C20.0883 476.999 21.0729 476.757 21.9345 476.272C23.0422 475.667 23.7806 474.577 24.0268 473.366C24.2729 472.156 24.0268 470.945 23.4114 469.855C22.796 469.008 22.0575 468.281 21.196 467.797C22.0575 467.313 22.796 466.707 23.4114 465.86C24.0268 464.77 24.2729 463.559 24.0268 462.348C23.7806 461.138 23.0422 460.169 21.9345 459.443C20.2114 458.353 17.8729 458.837 16.7652 460.532C15.9037 461.864 16.2729 463.801 17.6268 464.649C18.1191 464.891 18.7345 464.77 18.9806 464.407C19.2268 463.922 19.1037 463.317 18.7345 463.075C18.2422 462.833 18.1191 462.106 18.3652 461.743C18.8575 460.896 19.9652 460.774 20.7037 461.259C21.9345 461.985 22.3037 463.68 21.5652 464.891C20.3345 466.707 17.8729 467.192 16.0268 466.102C12.5806 463.922 13.196 460.653 14.3037 458.232L20.9498 445.882C22.0575 443.582 21.5652 441.402 19.596 440.192C18.9806 439.828 18.3652 439.707 17.7498 439.707C16.6422 439.707 15.5345 440.313 14.9191 441.281C14.5498 441.887 14.4268 442.613 14.5498 443.34C14.6729 444.066 15.1652 444.671 15.7806 445.035C16.2729 445.277 16.8883 445.156 17.1345 444.671C17.3806 444.187 17.2575 443.582 16.7652 443.34C16.6422 443.218 16.5191 443.097 16.396 442.855C16.396 442.613 16.396 442.492 16.5191 442.25C16.8883 441.644 17.7498 441.402 18.4883 441.887C18.8575 442.129 20.0883 442.976 19.1037 445.035L12.4575 457.142C10.3652 461.501 11.2268 465.254 14.9191 467.555C15.0422 467.676 15.1652 467.676 15.4114 467.797C15.2883 467.918 15.1652 467.918 14.9191 468.039C11.2268 470.34 10.3652 474.093 12.4575 478.452L18.9806 490.801C19.9652 492.86 18.7345 493.707 18.3652 493.949C17.7498 494.313 16.8883 494.192 16.396 493.586C16.2729 493.465 16.2729 493.223 16.2729 492.981C16.2729 492.739 16.396 492.618 16.6422 492.496C17.2575 492.133 17.3806 491.528 17.0114 491.044Z" fill="#AA2424"/>
<path fill-rule="evenodd" clip-rule="evenodd" d="M12.4554 544.68L18.9785 557.03C19.9631 559.088 18.7323 559.936 18.3631 560.178C17.7477 560.541 16.8861 560.42 16.3938 559.815C16.2708 559.694 16.2708 559.452 16.2708 559.209C16.2708 558.967 16.3938 558.846 16.64 558.725C17.1323 558.483 17.2554 557.878 16.8861 557.393C16.64 556.909 16.0246 556.788 15.5323 557.151C14.9169 557.514 14.4246 558.12 14.3015 558.846C14.1785 559.573 14.3015 560.299 14.6708 560.905C15.6554 562.479 17.7477 562.963 19.3477 561.873C21.3169 560.662 21.8092 558.483 20.7015 556.183L14.1785 543.833C13.0708 541.411 12.3323 538.142 15.9015 535.963C17.7477 534.752 20.2092 535.357 21.44 537.174C22.1785 538.384 21.8092 540.079 20.5785 540.806C19.7169 541.29 18.7323 541.048 18.24 540.322C17.9938 539.837 18.1169 539.232 18.6092 538.99C19.1015 538.748 19.2246 538.142 18.8554 537.658C18.6092 537.174 17.9938 537.053 17.5015 537.416C16.1477 538.263 15.6554 540.079 16.64 541.532C17.7477 543.227 20.0861 543.712 21.8092 542.622C24.0246 541.29 24.64 538.384 23.2861 536.205C22.6708 535.357 21.9323 534.631 21.0708 534.147C21.9323 533.662 22.6708 533.057 23.2861 532.209C24.64 530.03 24.0246 527.245 21.8092 525.792C20.0861 524.703 17.7477 525.187 16.64 526.882C15.7785 528.214 16.1477 530.151 17.5015 530.999C17.9938 531.241 18.6092 531.12 18.8554 530.757C19.1015 530.272 18.9785 529.667 18.6092 529.425C18.1169 529.183 17.9938 528.456 18.24 528.093C18.7323 527.366 19.84 527.124 20.5785 527.609C21.8092 528.335 22.1785 530.03 21.44 531.241C20.2092 533.057 17.7477 533.541 15.9015 532.452C12.4554 530.272 13.0708 527.003 14.1785 524.582L20.8246 512.232C21.9323 509.931 21.44 507.752 19.4708 506.541C18.8554 506.178 18.24 506.057 17.6246 506.057C17.3785 506.057 17.1323 506.057 16.8861 506.178C16.0246 506.42 15.2861 506.905 14.7938 507.631C14.4246 508.236 14.3015 508.963 14.4246 509.689C14.5477 510.416 15.04 511.021 15.6554 511.384C16.1477 511.627 16.7631 511.505 17.0092 511.142C17.2554 510.658 17.1323 510.053 16.7631 509.81C16.64 509.689 16.5169 509.568 16.3938 509.326C16.3938 509.084 16.3938 508.963 16.5169 508.721C16.7631 508.357 17.0092 508.236 17.3785 508.115C17.7477 507.994 18.1169 508.115 18.4861 508.357C18.8554 508.6 20.0861 509.447 19.1015 511.505L12.4554 523.855C10.3631 528.214 11.2246 531.967 14.9169 534.268C15.04 534.389 15.1631 534.389 15.4092 534.51C15.2861 534.631 15.1631 534.631 14.9169 534.752C11.2246 536.447 10.3631 540.322 12.4554 544.68Z" fill="#AA2424"/>
<path fill-rule="evenodd" clip-rule="evenodd" d="M12.4556 610.788L18.9787 623.138C19.9633 625.196 18.7325 626.044 18.3633 626.286C17.9941 626.528 17.6248 626.528 17.2556 626.528C16.8864 626.407 16.6402 626.286 16.3941 625.922C16.271 625.801 16.271 625.559 16.271 625.317C16.271 625.075 16.3941 624.954 16.6402 624.833C17.1325 624.591 17.2556 623.985 16.8864 623.501C16.6402 623.017 16.0248 622.896 15.5325 623.259C14.9172 623.622 14.4248 624.227 14.3018 624.954C14.1787 625.68 14.3018 626.407 14.671 627.012C15.1633 627.739 15.9018 628.344 16.7633 628.465C17.6248 628.707 18.6095 628.465 19.3479 627.981C21.3172 626.77 21.8095 624.591 20.7018 622.29L14.1787 609.94C13.071 607.519 12.3325 604.25 15.9018 602.07C17.7479 600.86 20.2095 601.465 21.4402 603.281C21.8095 603.887 21.9325 604.613 21.8095 605.218C21.6864 605.945 21.1941 606.55 20.5787 606.913C19.7172 607.398 18.7325 607.156 18.2402 606.429C17.9941 605.945 18.1172 605.34 18.6095 605.097C19.1018 604.855 19.2248 604.25 18.8556 603.766C18.6095 603.281 17.9941 603.16 17.5018 603.523C16.1479 604.371 15.6556 606.187 16.6402 607.64C17.7479 609.335 20.0864 609.819 21.8095 608.73C22.9172 608.124 23.6556 607.035 23.9018 605.824C24.1479 604.613 23.9018 603.402 23.2864 602.313C22.671 601.465 21.9325 600.739 21.071 600.254C21.9325 599.77 22.671 599.165 23.2864 598.317C23.9018 597.227 24.1479 596.017 23.9018 594.806C23.6556 593.595 22.9172 592.626 21.8095 591.9C20.0864 590.81 17.7479 591.295 16.6402 592.99C15.7787 594.322 16.1479 596.259 17.5018 597.106C17.9941 597.348 18.6095 597.227 18.8556 596.864C19.1018 596.38 18.9787 595.774 18.6095 595.532C18.1172 595.29 17.9941 594.564 18.2402 594.2C18.7325 593.353 19.8402 593.232 20.5787 593.716C21.1941 594.079 21.5633 594.685 21.8095 595.411C21.9325 596.138 21.8095 596.743 21.4402 597.348C20.2095 599.165 17.7479 599.649 15.9018 598.559C12.4556 596.38 13.071 593.111 14.1787 590.689L20.8248 578.339C21.9325 576.039 21.4402 573.86 19.471 572.649C18.8556 572.286 18.2402 572.165 17.6248 572.165C16.5172 572.165 15.4095 572.77 14.7941 573.739C14.4248 574.344 14.3018 575.07 14.4248 575.797C14.5479 576.523 15.0402 577.129 15.6556 577.492C16.1479 577.734 16.7633 577.613 17.0095 577.25C17.2556 576.766 17.1325 576.16 16.7633 575.918C16.6402 575.797 16.5172 575.676 16.3941 575.434C16.3941 575.192 16.3941 575.07 16.5172 574.828C16.8864 574.223 17.7479 573.981 18.4864 574.465C18.8556 574.707 20.0864 575.555 19.1018 577.613L12.4556 589.963C10.3633 594.322 11.2248 598.075 14.9172 600.375C15.0402 600.496 15.1633 600.496 15.2864 600.618C15.1633 600.739 15.0402 600.739 14.7941 600.86C11.2248 602.676 10.3633 606.429 12.4556 610.788Z" fill="#AA2424"/>
<path fill-rule="evenodd" clip-rule="evenodd" d="M12.4573 655.828C10.365 660.187 11.2265 663.94 14.9188 666.241C15.0419 666.362 15.165 666.362 15.4111 666.483C15.2881 666.604 15.165 666.604 14.9188 666.725C11.2265 669.026 10.365 672.779 12.4573 677.138L18.9804 689.487C19.965 691.546 18.7342 692.393 18.365 692.635C17.9958 692.878 17.6265 692.878 17.2573 692.878C16.8881 692.757 16.6419 692.635 16.3958 692.272C16.2727 692.151 16.2727 691.909 16.2727 691.667C16.2727 691.425 16.3958 691.304 16.6419 691.183C17.1342 690.94 17.2573 690.335 17.0111 689.851C16.765 689.366 16.0265 689.245 15.6573 689.609C15.0419 689.972 14.5496 690.577 14.4265 691.304C14.3035 692.03 14.4265 692.757 14.7958 693.362C15.2881 694.088 16.0265 694.694 16.8881 694.815C17.7496 695.057 18.7342 694.815 19.4727 694.331C21.4419 693.12 21.9342 690.94 20.8265 688.64L14.3035 676.29C13.1958 673.869 12.4573 670.6 16.0265 668.42C17.8727 667.209 20.3342 667.815 21.565 669.631C22.3035 670.842 21.9342 672.537 20.7035 673.263C19.8419 673.748 18.8573 673.505 18.365 672.779C18.1188 672.295 18.2419 671.689 18.7342 671.447C19.2265 671.205 19.3496 670.6 18.9804 670.115C18.7342 669.631 18.1188 669.51 17.6265 669.873C16.2727 670.721 15.7804 672.537 16.765 673.99C17.8727 675.685 20.2111 676.169 21.9342 675.079C24.1496 673.748 24.765 670.842 23.4111 668.662C22.7958 667.815 22.0573 667.088 21.1958 666.604C22.0573 666.12 22.7958 665.514 23.4111 664.667C24.765 662.487 24.1496 659.703 21.9342 658.25C20.2111 657.16 17.8727 657.644 16.765 659.34C15.9035 660.671 16.2727 662.609 17.7496 663.456C18.2419 663.698 18.8573 663.577 19.1035 663.214C19.3496 662.73 19.2265 662.124 18.7342 661.882C18.2419 661.64 18.1188 660.914 18.365 660.55C18.8573 659.824 19.965 659.582 20.7035 660.066C21.9342 660.792 22.3035 662.487 21.565 663.698C20.3342 665.514 17.8727 665.999 16.0265 664.909C12.5804 662.73 13.1958 659.461 14.3035 657.039L20.9496 644.689C22.0573 642.389 21.565 640.209 19.5958 638.999C18.9804 638.635 18.365 638.514 17.7496 638.514C16.6419 638.514 15.5342 639.12 14.9188 640.088C14.5496 640.694 14.4265 641.42 14.5496 642.147C14.6727 642.873 15.165 643.479 15.7804 643.842C16.2727 644.084 16.8881 643.963 17.1342 643.6C17.3804 643.115 17.2573 642.51 16.8881 642.268C16.765 642.147 16.6419 642.026 16.5188 641.783C16.5188 641.541 16.5188 641.42 16.6419 641.178C17.0111 640.573 17.8727 640.331 18.6111 640.815C18.9804 641.057 20.2111 641.905 19.2265 643.963L12.4573 655.828Z" fill="#AA2424"/>
<path fill-rule="evenodd" clip-rule="evenodd" d="M21.6888 724.236C19.9657 723.147 17.6273 723.631 16.5196 725.326C15.658 726.658 16.0273 728.595 17.5042 729.443C17.9965 729.685 18.6119 729.564 18.858 729.201C19.1042 728.716 18.9811 728.111 18.4888 727.869C17.9965 727.627 17.8734 726.9 18.1196 726.537C18.6119 725.81 19.7196 725.568 20.458 726.053C21.6888 726.779 22.058 728.474 21.3196 729.685C20.0888 731.501 17.6273 731.985 15.7811 730.896C12.3349 728.716 12.9503 725.447 14.058 723.026L20.7042 710.676C21.8119 708.375 21.3196 706.196 19.3503 704.985C18.7349 704.622 18.1196 704.501 17.5042 704.501C16.3965 704.501 15.2888 705.106 14.6734 706.075C14.3042 706.68 14.1811 707.407 14.3042 708.133C14.4273 708.86 14.9196 709.465 15.5349 709.828C16.0273 710.07 16.6426 709.949 16.8888 709.586C17.1349 709.102 17.0119 708.496 16.6426 708.254C16.5196 708.133 16.3965 708.012 16.2734 707.77C16.2734 707.528 16.2734 707.407 16.3965 707.165C16.7657 706.559 17.6273 706.317 18.3657 706.801C18.7349 707.044 19.9657 707.891 18.9811 709.949L12.3349 722.299C10.2426 726.658 11.1042 730.411 14.7965 732.712C17.6273 734.407 21.3196 733.68 23.0426 730.896C24.5196 728.474 23.9042 725.568 21.6888 724.236Z" fill="#AA2424"/>
<path fill-rule="evenodd" clip-rule="evenodd" d="M29.1602 664.228L31.684 666.711L29.1602 669.194L26.6364 666.711L29.1602 664.228Z" fill="#AA2424"/>
<path fill-rule="evenodd" clip-rule="evenodd" d="M29.1562 598.002L31.6801 600.484L29.1562 602.967L26.6324 600.484L29.1562 598.002Z" fill="#AA2424"/>
<path fill-rule="evenodd" clip-rule="evenodd" d="M29.1289 531.786L31.6527 534.269L29.1289 536.751L26.6051 534.269L29.1289 531.786Z" fill="#AA2424"/>
<path fill-rule="evenodd" clip-rule="evenodd" d="M29.1992 465.65L31.723 468.133L29.1992 470.616L26.6754 468.133L29.1992 465.65Z" fill="#AA2424"/>
<path fill-rule="evenodd" clip-rule="evenodd" d="M29.1953 399.424L31.7191 401.907L29.1953 404.39L26.6715 401.907L29.1953 399.424Z" fill="#AA2424"/>
<path fill-rule="evenodd" clip-rule="evenodd" d="M29.168 333.222L31.6921 335.704L29.1683 338.188L26.6442 335.705L29.168 333.222Z" fill="#AA2424"/>
<path fill-rule="evenodd" clip-rule="evenodd" d="M29.1445 266.986L31.6683 269.469L29.1445 271.951L26.6207 269.469L29.1445 266.986Z" fill="#AA2424"/>
<path fill-rule="evenodd" clip-rule="evenodd" d="M29.2031 730.434L31.7269 732.917L29.2031 735.399L26.6793 732.917L29.2031 730.434Z" fill="#AA2424"/>
<path fill-rule="evenodd" clip-rule="evenodd" d="M12.7007 699.9L7.53143 712.734C7.28528 713.461 5.93143 713.461 5.5622 712.734L0.392969 699.9C0.269892 699.658 0.269892 699.416 0.392969 699.174L5.5622 686.34C5.80835 685.976 6.17758 685.734 6.54681 685.734C7.03912 685.734 7.40835 685.976 7.53143 686.34L12.7007 699.174C12.8237 699.416 12.8237 699.658 12.7007 699.9ZM10.8545 699.537L6.66989 689.366L2.48528 699.537L6.66989 709.707L10.8545 699.537Z" fill="#AA2424"/>
<path fill-rule="evenodd" clip-rule="evenodd" d="M7.53143 646.626C7.28528 647.353 5.93143 647.353 5.68528 646.626L0.392969 633.792C0.269892 633.55 0.269892 633.308 0.392969 633.066L5.5622 620.232C5.80835 619.869 6.17758 619.626 6.54681 619.626C7.03912 619.626 7.40835 619.869 7.53143 620.232L12.7007 633.066C12.8237 633.308 12.8237 633.55 12.7007 633.792L7.53143 646.626ZM10.8545 633.429L6.66989 623.259L2.48528 633.429L6.66989 643.6L10.8545 633.429Z" fill="#AA2424"/>
<path fill-rule="evenodd" clip-rule="evenodd" d="M7.53143 580.64C7.28528 581.366 5.93143 581.366 5.68528 580.64L0.392969 567.806C0.269892 567.564 0.269892 567.322 0.392969 567.079L5.5622 554.245C5.80835 553.882 6.17758 553.64 6.54681 553.64C7.03912 553.64 7.40835 553.882 7.53143 554.245L12.7007 567.079C12.8237 567.322 12.8237 567.564 12.7007 567.806L7.53143 580.64ZM10.8545 567.443L6.66989 557.272L2.48528 567.443L6.66989 577.613L10.8545 567.443Z" fill="#AA2424"/>
<path fill-rule="evenodd" clip-rule="evenodd" d="M7.53143 514.532C7.28528 515.259 5.93143 515.259 5.68528 514.532L0.392969 501.698C0.269892 501.456 0.269892 501.214 0.392969 500.972L5.5622 488.138C5.80835 487.775 6.17758 487.532 6.54681 487.532C7.03912 487.532 7.40835 487.775 7.53143 488.138L12.7007 500.972C12.8237 501.214 12.8237 501.456 12.7007 501.698L7.53143 514.532ZM10.8545 501.335L6.66989 491.165L2.48528 501.335L6.66989 511.505L10.8545 501.335Z" fill="#AA2424"/>
<path fill-rule="evenodd" clip-rule="evenodd" d="M7.53143 448.546C7.28528 449.272 5.93143 449.272 5.68528 448.546L0.392969 435.712C0.269892 435.47 0.269892 435.227 0.392969 434.985L5.5622 422.151C5.80835 421.788 6.17758 421.546 6.54681 421.546C7.03912 421.546 7.40835 421.788 7.53143 422.151L12.7007 434.985C12.8237 435.227 12.8237 435.47 12.7007 435.712L7.53143 448.546ZM10.8545 435.348L6.66989 425.178L2.48528 435.348L6.66989 445.519L10.8545 435.348Z" fill="#AA2424"/>
<path fill-rule="evenodd" clip-rule="evenodd" d="M7.53143 382.438C7.28528 383.165 5.93143 383.165 5.68528 382.438L0.392969 369.604C0.269892 369.362 0.269892 369.12 0.392969 368.878L5.5622 356.044C5.80835 355.68 6.17758 355.438 6.54681 355.438C7.03912 355.438 7.40835 355.68 7.53143 356.044L12.7007 368.878C12.8237 369.12 12.8237 369.362 12.7007 369.604L7.53143 382.438ZM10.8545 369.241L6.66989 359.07L2.48528 369.241L6.66989 379.411L10.8545 369.241Z" fill="#AA2424"/>
<path fill-rule="evenodd" clip-rule="evenodd" d="M7.53143 316.452C7.28528 317.178 5.93143 317.178 5.68528 316.452L0.392969 303.618C0.269892 303.375 0.269892 303.133 0.392969 302.891L5.5622 290.057C5.80835 289.694 6.17758 289.452 6.54681 289.452C7.03912 289.452 7.40835 289.694 7.53143 290.057L12.7007 302.891C12.8237 303.133 12.8237 303.375 12.7007 303.618L7.53143 316.452ZM10.8545 303.254L6.66989 293.084L2.48528 303.254L6.66989 313.425L10.8545 303.254Z" fill="#AA2424"/>
<path fill-rule="evenodd" clip-rule="evenodd" d="M2.36214 667.088C2.23906 666.967 2.11599 666.846 2.11599 666.604C2.11599 666.483 2.23906 666.241 2.48522 665.999L6.17752 662.366C6.3006 662.245 6.42368 662.124 6.66983 662.124C6.79291 662.124 7.03906 662.245 7.16214 662.366L10.8544 665.999C11.1006 666.362 11.1006 666.846 10.8544 667.088L7.16214 670.721C6.79291 670.963 6.3006 670.963 6.05445 670.721L2.36214 667.088ZM9.25445 666.604L6.66983 664.061L4.08522 666.604L6.66983 669.147L9.25445 666.604Z" fill="#AA2424"/>
<path fill-rule="evenodd" clip-rule="evenodd" d="M7.16237 596.259L10.8547 599.891C11.1008 600.254 11.1008 600.739 10.9778 600.86L7.28544 604.492C6.91621 604.734 6.4239 604.734 6.17775 604.492L2.48544 600.86C2.36236 600.739 2.23929 600.617 2.23929 600.375C2.23929 600.254 2.36236 600.012 2.48544 599.891L6.17775 596.259C6.30083 596.138 6.4239 596.017 6.67006 596.017C6.79313 596.017 7.03929 596.138 7.16237 596.259ZM4.08544 600.496L6.67006 603.039L9.25467 600.496L6.67006 597.954L4.08544 600.496Z" fill="#AA2424"/>
<path fill-rule="evenodd" clip-rule="evenodd" d="M7.16237 530.03L10.8547 533.662C11.1008 534.026 11.1008 534.51 10.9778 534.631L7.28544 538.263C6.91621 538.505 6.4239 538.505 6.17775 538.263L2.48544 534.631C2.36236 534.51 2.23929 534.389 2.23929 534.147C2.23929 534.026 2.36236 533.783 2.48544 533.662L6.17775 530.03C6.30083 529.909 6.4239 529.788 6.67006 529.788C6.79313 529.788 7.03929 529.909 7.16237 530.03ZM4.08544 534.268L6.67006 536.81L9.25467 534.268L6.67006 531.725L4.08544 534.268Z" fill="#AA2424"/>
<path fill-rule="evenodd" clip-rule="evenodd" d="M7.16237 463.922L10.8547 467.555C11.1008 467.797 11.1008 468.281 10.9778 468.523L7.28544 472.156C6.91621 472.398 6.4239 472.398 6.17775 472.156L2.48544 468.523C2.36236 468.402 2.23929 468.281 2.23929 468.039C2.23929 467.918 2.36236 467.676 2.48544 467.555L6.17775 463.922C6.30083 463.801 6.4239 463.68 6.67006 463.68C6.79313 463.68 7.03929 463.801 7.16237 463.922ZM4.08544 468.039L6.67006 470.582L9.25467 468.039L6.67006 465.496L4.08544 468.039Z" fill="#AA2424"/>
<path fill-rule="evenodd" clip-rule="evenodd" d="M7.16237 397.694L10.8547 401.326C11.1008 401.568 11.1008 402.052 10.9778 402.295L7.28544 405.927C6.91621 406.169 6.4239 406.169 6.17775 405.927L2.48544 402.295C2.36236 402.174 2.23929 402.052 2.23929 401.81C2.23929 401.689 2.36236 401.447 2.48544 401.326L6.17775 397.694C6.30083 397.573 6.4239 397.452 6.67006 397.452C6.79313 397.452 7.03929 397.573 7.16237 397.694ZM4.08544 401.931L6.67006 404.474L9.25467 401.931L6.67006 399.389L4.08544 401.931Z" fill="#AA2424"/>
<path fill-rule="evenodd" clip-rule="evenodd" d="M7.16237 331.465L10.8547 335.097C11.1008 335.339 11.1008 335.824 10.9778 336.066L7.28544 339.698C6.91621 339.94 6.4239 339.94 6.17775 339.698L2.48544 336.066C2.36236 335.945 2.23929 335.824 2.23929 335.582C2.23929 335.461 2.36236 335.218 2.48544 335.097L6.17775 331.465C6.30083 331.344 6.4239 331.223 6.67006 331.223C6.79313 331.223 7.03929 331.344 7.16237 331.465ZM4.08544 335.703L6.67006 338.245L9.25467 335.703L6.67006 333.16L4.08544 335.703Z" fill="#AA2424"/>
<path fill-rule="evenodd" clip-rule="evenodd" d="M6.60547 681.207L8.34602 682.92L6.60547 684.632L4.86491 682.92L6.60547 681.207Z" fill="#AA2424"/>
<path fill-rule="evenodd" clip-rule="evenodd" d="M6.63281 676.516L8.37336 678.229L6.63256 679.941L4.89201 678.228L6.63281 676.516Z" fill="#AA2424"/>
<path fill-rule="evenodd" clip-rule="evenodd" d="M6.63672 671.749L8.37727 673.461L6.63672 675.174L4.89616 673.461L6.63672 671.749Z" fill="#AA2424"/>
<path fill-rule="evenodd" clip-rule="evenodd" d="M6.61328 657.958L8.35384 659.671L6.61328 661.383L4.87273 659.671L6.61328 657.958Z" fill="#AA2424"/>
<path fill-rule="evenodd" clip-rule="evenodd" d="M6.64062 653.264L8.38118 654.977L6.64038 656.689L4.89982 654.977L6.64062 653.264Z" fill="#AA2424"/>
<path fill-rule="evenodd" clip-rule="evenodd" d="M6.60938 648.519L8.34993 650.231L6.60938 651.944L4.86882 650.231L6.60938 648.519Z" fill="#AA2424"/>
<path fill-rule="evenodd" clip-rule="evenodd" d="M6.65234 724.538L8.3929 726.25L6.65234 727.962L4.91179 726.25L6.65234 724.538Z" fill="#AA2424"/>
<path fill-rule="evenodd" clip-rule="evenodd" d="M6.67578 719.803L8.41634 721.515L6.67578 723.228L4.93523 721.515L6.67578 719.803Z" fill="#AA2424"/>
<path fill-rule="evenodd" clip-rule="evenodd" d="M6.69531 715.069L8.43587 716.781L6.69531 718.494L4.95476 716.781L6.69531 715.069Z" fill="#AA2424"/>
<path fill-rule="evenodd" clip-rule="evenodd" d="M6.69141 615.064L8.43196 616.776L6.69141 618.488L4.95085 616.776L6.69141 615.064Z" fill="#AA2424"/>
<path fill-rule="evenodd" clip-rule="evenodd" d="M6.66797 610.356L8.40852 612.068L6.66797 613.78L4.92741 612.068L6.66797 610.356Z" fill="#AA2424"/>
<path fill-rule="evenodd" clip-rule="evenodd" d="M6.58594 605.546L8.32649 607.258L6.58594 608.971L4.84538 607.258L6.58594 605.546Z" fill="#AA2424"/>
<path fill-rule="evenodd" clip-rule="evenodd" d="M6.68359 591.822L8.42415 593.535L6.68359 595.247L4.94304 593.535L6.68359 591.822Z" fill="#AA2424"/>
<path fill-rule="evenodd" clip-rule="evenodd" d="M6.60156 587.013L8.34212 588.725L6.60156 590.437L4.86101 588.725L6.60156 587.013Z" fill="#AA2424"/>
<path fill-rule="evenodd" clip-rule="evenodd" d="M6.625 582.316L8.3658 584.028L6.62525 585.741L4.88445 584.028L6.625 582.316Z" fill="#AA2424"/>
<path fill-rule="evenodd" clip-rule="evenodd" d="M6.66016 548.85L8.40071 550.563L6.66016 552.275L4.9196 550.563L6.66016 548.85Z" fill="#AA2424"/>
<path fill-rule="evenodd" clip-rule="evenodd" d="M6.65234 544.133L8.39265 545.845L6.65185 547.557L4.91154 545.845L6.65234 544.133Z" fill="#AA2424"/>
<path fill-rule="evenodd" clip-rule="evenodd" d="M6.68359 539.397L8.42415 541.109L6.68359 542.821L4.94304 541.109L6.68359 539.397Z" fill="#AA2424"/>
<path fill-rule="evenodd" clip-rule="evenodd" d="M6.67969 525.626L8.42024 527.339L6.67944 529.051L4.93889 527.338L6.67969 525.626Z" fill="#AA2424"/>
<path fill-rule="evenodd" clip-rule="evenodd" d="M6.68359 520.901L8.42415 522.614L6.68335 524.326L4.94279 522.614L6.68359 520.901Z" fill="#AA2424"/>
<path fill-rule="evenodd" clip-rule="evenodd" d="M6.6875 516.178L8.4283 517.89L6.68775 519.602L4.94695 517.89L6.6875 516.178Z" fill="#AA2424"/>
<path fill-rule="evenodd" clip-rule="evenodd" d="M6.64453 482.629L8.38509 484.341L6.64453 486.054L4.90398 484.341L6.64453 482.629Z" fill="#AA2424"/>
<path fill-rule="evenodd" clip-rule="evenodd" d="M6.66016 477.901L8.40071 479.613L6.66016 481.325L4.9196 479.613L6.66016 477.901Z" fill="#AA2424"/>
<path fill-rule="evenodd" clip-rule="evenodd" d="M6.66406 473.204L8.40461 474.916L6.66381 476.628L4.92326 474.916L6.66406 473.204Z" fill="#AA2424"/>
<path fill-rule="evenodd" clip-rule="evenodd" d="M6.66015 459.401L8.40071 461.114L6.65991 462.826L4.91935 461.114L6.66015 459.401Z" fill="#AA2424"/>
<path fill-rule="evenodd" clip-rule="evenodd" d="M6.66406 454.677L8.40461 456.39L6.66381 458.102L4.92326 456.39L6.66406 454.677Z" fill="#AA2424"/>
<path fill-rule="evenodd" clip-rule="evenodd" d="M6.66797 449.953L8.40877 451.665L6.66822 453.377L4.92742 451.665L6.66797 449.953Z" fill="#AA2424"/>
<path fill-rule="evenodd" clip-rule="evenodd" d="M6.63672 416.405L8.37727 418.117L6.63672 419.829L4.89616 418.117L6.63672 416.405Z" fill="#AA2424"/>
<path fill-rule="evenodd" clip-rule="evenodd" d="M6.625 411.687L8.36555 413.399L6.625 415.111L4.88445 413.399L6.625 411.687Z" fill="#AA2424"/>
<path fill-rule="evenodd" clip-rule="evenodd" d="M6.62891 406.962L8.36946 408.675L6.62891 410.387L4.88835 408.675L6.62891 406.962Z" fill="#AA2424"/>
<path fill-rule="evenodd" clip-rule="evenodd" d="M6.625 393.161L8.3653 394.873L6.6245 396.585L4.8842 394.873L6.625 393.161Z" fill="#AA2424"/>
<path fill-rule="evenodd" clip-rule="evenodd" d="M6.64453 388.452L8.38508 390.165L6.64428 391.877L4.90373 390.165L6.64453 388.452Z" fill="#AA2424"/>
<path fill-rule="evenodd" clip-rule="evenodd" d="M6.64844 383.728L8.38924 385.441L6.64869 387.153L4.90789 385.441L6.64844 383.728Z" fill="#AA2424"/>
<path fill-rule="evenodd" clip-rule="evenodd" d="M6.61328 350.186L8.35384 351.899L6.61328 353.611L4.87273 351.899L6.61328 350.186Z" fill="#AA2424"/>
<path fill-rule="evenodd" clip-rule="evenodd" d="M6.61719 345.463L8.35774 347.175L6.61719 348.887L4.87663 347.175L6.61719 345.463Z" fill="#AA2424"/>
<path fill-rule="evenodd" clip-rule="evenodd" d="M6.62891 340.738L8.36946 342.45L6.62891 344.162L4.88835 342.45L6.62891 340.738Z" fill="#AA2424"/>
<path fill-rule="evenodd" clip-rule="evenodd" d="M6.61719 326.937L8.35774 328.65L6.61719 330.362L4.87663 328.65L6.61719 326.937Z" fill="#AA2424"/>
<path fill-rule="evenodd" clip-rule="evenodd" d="M6.625 322.213L8.3653 323.926L6.6245 325.638L4.8842 323.925L6.625 322.213Z" fill="#AA2424"/>
<path fill-rule="evenodd" clip-rule="evenodd" d="M6.62891 317.49L8.36946 319.202L6.62891 320.914L4.88835 319.202L6.62891 317.49Z" fill="#AA2424"/>
<path fill-rule="evenodd" clip-rule="evenodd" d="M6.68359 284.051L8.42415 285.763L6.68359 287.475L4.94304 285.763L6.68359 284.051Z" fill="#AA2424"/>
<path fill-rule="evenodd" clip-rule="evenodd" d="M6.6875 279.327L8.42805 281.039L6.6875 282.751L4.94695 281.039L6.6875 279.327Z" fill="#AA2424"/>
<path fill-rule="evenodd" clip-rule="evenodd" d="M6.60547 274.517L8.34602 276.23L6.60547 277.942L4.86491 276.23L6.60547 274.517Z" fill="#AA2424"/>
<path fill-rule="evenodd" clip-rule="evenodd" d="M19.1037 225.887C20.0883 227.945 18.8575 228.792 18.4883 229.035C18.1191 229.277 17.7498 229.277 17.3806 229.277C17.0114 229.156 16.7652 229.035 16.5191 228.671C16.396 228.55 16.396 228.308 16.396 228.066C16.396 227.824 16.5191 227.703 16.7652 227.582C17.2575 227.34 17.3806 226.734 17.0114 226.25C16.7652 225.766 16.0268 225.644 15.6575 226.008C15.0422 226.371 14.5498 226.976 14.4268 227.703C14.3037 228.429 14.4268 229.156 14.796 229.761C15.7806 231.335 17.8729 231.819 19.4729 230.73C21.4422 229.519 21.9345 227.34 20.8268 225.039L14.3037 212.689C13.196 210.268 12.4575 206.999 16.0268 204.819C17.8729 203.609 20.3345 204.214 21.5652 206.03C22.3037 207.241 21.9345 208.936 20.7037 209.662C19.9652 210.147 18.8575 209.905 18.3652 209.178C18.1191 208.694 18.2422 208.088 18.7345 207.846C19.2268 207.604 19.3498 206.999 19.1037 206.514C18.8575 206.03 18.1191 205.909 17.7498 206.151C16.396 206.999 15.9037 208.815 16.7652 210.268C17.8729 211.963 20.2114 212.447 21.9345 211.357C23.0422 210.752 23.7806 209.662 24.0268 208.452C24.2729 207.241 24.0268 206.03 23.4114 204.94C22.3037 203.124 20.3345 202.277 18.3652 202.277C17.2575 202.277 16.1498 202.519 15.1652 203.245C11.4729 205.546 10.6114 209.299 12.7037 213.658L19.1037 225.887Z" fill="#AA2424"/>
<path fill-rule="evenodd" clip-rule="evenodd" d="M29.1289 200.763L31.6527 203.246L29.1289 205.729L26.6051 203.246L29.1289 200.763Z" fill="#AA2424"/>
<path fill-rule="evenodd" clip-rule="evenodd" d="M7.53143 249.254C7.28528 249.981 5.93143 249.981 5.68528 249.254L0.392969 236.42C0.269892 236.178 0.269892 235.936 0.392969 235.694L5.5622 222.86C5.80835 222.496 6.17758 222.254 6.54681 222.254C7.03912 222.254 7.40835 222.496 7.53143 222.86L12.7007 235.694C12.8237 235.936 12.8237 236.178 12.7007 236.42L7.53143 249.254ZM10.8545 236.057L6.66989 225.887L2.48528 236.057L6.66989 246.227L10.8545 236.057Z" fill="#AA2424"/>
<path fill-rule="evenodd" clip-rule="evenodd" d="M7.16214 207.362C6.79291 207.604 6.3006 207.604 6.05445 207.362L2.48522 203.609C2.36214 203.488 2.23906 203.366 2.23906 203.124C2.23906 203.003 2.36214 202.761 2.48522 202.64L6.17752 199.008C6.3006 198.887 6.42368 198.766 6.66983 198.766C6.79291 198.766 7.03906 198.887 7.16214 199.008L10.8544 202.64C11.1006 203.003 11.1006 203.488 10.8544 203.73L7.16214 207.362ZM9.25445 203.124L6.66983 200.582L4.08522 203.124L6.66983 205.667L9.25445 203.124Z" fill="#AA2424"/>
<path fill-rule="evenodd" clip-rule="evenodd" d="M7.16237 265.236L10.8547 268.869C11.1008 269.232 11.1008 269.716 10.9778 269.837L7.28544 273.47C6.91621 273.712 6.4239 273.712 6.17775 273.47L2.48544 269.837C2.36236 269.716 2.23929 269.595 2.23929 269.353C2.23929 269.232 2.36236 268.99 2.48544 268.869L6.17775 265.236C6.30083 265.115 6.4239 264.994 6.67006 264.994C6.79313 264.994 7.03929 265.115 7.16237 265.236ZM4.08544 269.474L6.67006 272.017L9.25467 269.474L6.67006 266.931L4.08544 269.474Z" fill="#AA2424"/>
<path fill-rule="evenodd" clip-rule="evenodd" d="M6.66406 217.83L8.40462 219.542L6.66406 221.254L4.92351 219.542L6.66406 217.83Z" fill="#AA2424"/>
<path fill-rule="evenodd" clip-rule="evenodd" d="M6.66406 213.115L8.40461 214.827L6.66381 216.539L4.92326 214.827L6.66406 213.115Z" fill="#AA2424"/>
<path fill-rule="evenodd" clip-rule="evenodd" d="M6.67969 208.384L8.42024 210.096L6.67969 211.808L4.93913 210.096L6.67969 208.384Z" fill="#AA2424"/>
<path fill-rule="evenodd" clip-rule="evenodd" d="M6.63281 261.063L8.37312 262.775L6.63232 264.487L4.89201 262.775L6.63281 261.063Z" fill="#AA2424"/>
<path fill-rule="evenodd" clip-rule="evenodd" d="M6.65234 256.341L8.3929 258.053L6.65234 259.765L4.91179 258.053L6.65234 256.341Z" fill="#AA2424"/>
<path fill-rule="evenodd" clip-rule="evenodd" d="M6.64453 251.615L8.38509 253.327L6.64453 255.039L4.90398 253.327L6.64453 251.615Z" fill="#AA2424"/>
<path fill-rule="evenodd" clip-rule="evenodd" d="M6.67175 728.474C6.79483 728.474 7.04099 728.595 7.16406 728.716L10.9794 732.227C11.2256 732.591 11.2256 733.075 10.9794 733.317L7.28714 736.949C6.91791 737.192 6.4256 737.192 6.17945 736.949L2.48714 733.317C2.36406 733.196 2.24099 733.075 2.24099 732.833C2.24099 732.712 2.36406 732.47 2.48714 732.348L6.17945 728.716C6.30252 728.595 6.4256 728.474 6.67175 728.474ZM4.08714 732.954L6.67175 735.496L9.25637 732.954L6.67175 730.411L4.08714 732.954Z" fill="#AA2424"/>
</svg>
