<svg width="451" height="29" viewBox="0 0 451 29" fill="none" xmlns="http://www.w3.org/2000/svg">
<path fill-rule="evenodd" clip-rule="evenodd" d="M68.4968 17.6641L78.7693 12.327C80.4814 11.5214 81.1864 12.5284 81.3878 12.8305C81.6899 13.334 81.5892 14.0389 81.0856 14.4417C80.9849 14.5424 80.7835 14.5424 80.5821 14.5424C80.3807 14.5424 80.28 14.4417 80.1792 14.2403C79.9778 13.8375 79.4743 13.7368 79.0714 13.9382C78.6686 14.1396 78.5679 14.7438 78.7693 15.0459C79.0714 15.5494 79.575 15.9522 80.1792 16.0529C80.7835 16.1536 81.3878 16.0529 81.8913 15.7508C83.2006 14.9452 83.6034 13.2333 82.697 11.9242C81.6899 10.313 79.8771 9.91022 77.9636 10.8165L67.6912 16.1536C65.677 17.0599 62.9578 17.6641 61.145 14.7438C60.1379 13.2333 60.6414 11.2193 62.1521 10.2123C63.1592 9.60812 64.5691 9.91022 65.1734 10.9172C65.5762 11.6221 65.3748 12.4277 64.7706 12.8305C64.3677 13.0319 63.8642 12.9312 63.6627 12.5284C63.4613 12.1256 62.9578 12.0249 62.5549 12.327C62.1521 12.5284 62.0514 13.0319 62.3535 13.4347C63.0585 14.5424 64.5691 14.9452 65.7777 14.1396C66.4826 13.7368 66.9862 13.0319 67.0869 12.2263C67.2883 11.4207 67.0869 10.6151 66.6841 9.91022C66.1805 9.00393 65.2741 8.39973 64.267 8.19833C63.2599 7.99693 62.2528 8.19833 61.3464 8.70183C60.6414 9.20532 60.0372 9.80952 59.6343 10.5144C59.2315 9.80952 58.7279 9.20532 58.023 8.70183C57.1166 8.19833 56.1095 7.99693 55.1024 8.19833C54.0953 8.39973 53.2896 9.00393 52.6853 9.91022C52.2825 10.6151 52.0811 11.4207 52.2825 12.2263C52.4839 13.0319 52.8867 13.7368 53.5917 14.1396C54.6995 14.8445 56.3109 14.5424 57.0159 13.4347C57.2173 13.0319 57.1166 12.5284 56.8144 12.327C56.4116 12.1256 55.9081 12.2263 55.7066 12.5284C55.5052 12.9312 54.9009 13.0319 54.5988 12.8305C53.9946 12.4277 53.7931 11.5214 54.196 10.9172C54.8002 9.91022 56.2102 9.60812 57.2173 10.2123C58.7279 11.2193 59.1308 13.2333 58.2244 14.7438C56.4116 17.5634 53.6924 17.0599 51.6782 16.1536L41.4058 10.7158C39.4923 9.80952 37.6795 10.2123 36.6724 11.8235C36.3702 12.2263 36.2695 12.8305 36.2695 13.334C36.2695 13.5354 36.2695 13.7368 36.3702 13.9382C36.5717 14.6431 36.9745 15.2473 37.5788 15.6501C38.0823 15.9522 38.6866 16.0529 39.2908 15.9522C39.8951 15.8515 40.3987 15.4487 40.7008 14.9452C40.9022 14.5424 40.8015 14.0389 40.3987 13.8375C39.9958 13.6361 39.4923 13.7368 39.2908 14.1396C39.1901 14.2403 39.0894 14.341 38.888 14.4417C38.6866 14.4417 38.5859 14.4417 38.3844 14.341C37.8809 14.0389 37.6795 13.334 38.0823 12.7298C38.2837 12.4277 38.9887 11.4207 40.7008 12.2263L50.8725 17.6641C54.4981 19.376 57.6201 18.6711 59.5336 15.6501C59.6343 15.5494 59.6343 15.4487 59.735 15.2473C59.8358 15.348 59.8358 15.4487 59.9365 15.6501C61.7493 18.6711 64.8713 19.376 68.4968 17.6641Z" fill="#AA2424"/>
<path fill-rule="evenodd" clip-rule="evenodd" d="M123.586 17.6641L133.858 12.327C135.57 11.5214 136.275 12.5284 136.477 12.8305C136.678 13.1326 136.678 13.4347 136.678 13.7368C136.577 14.0389 136.477 14.2403 136.175 14.4417C136.074 14.5424 135.873 14.5424 135.671 14.5424C135.47 14.5424 135.369 14.4417 135.268 14.2403C135.067 13.8375 134.563 13.7368 134.16 14.0389C133.758 14.2403 133.657 14.8445 133.959 15.1466C134.261 15.6501 134.765 16.0529 135.369 16.1536C135.973 16.2543 136.577 16.1536 137.081 15.8515C138.39 15.0459 138.793 13.334 137.887 12.0249C136.88 10.4138 135.067 10.011 133.153 10.9173L122.881 16.2543C120.867 17.1606 118.147 17.7648 116.335 14.8445C115.328 13.334 115.831 11.32 117.342 10.3131C118.349 9.70886 119.759 10.011 120.363 11.0179C120.766 11.7228 120.565 12.5284 119.96 12.9312C119.759 13.0319 119.557 13.1326 119.356 13.0319C119.155 13.0319 118.953 12.8305 118.852 12.6291C118.651 12.2263 118.147 12.1256 117.745 12.327C117.342 12.5284 117.241 13.1326 117.443 13.4347C117.845 14.0389 118.349 14.341 118.953 14.5424C119.557 14.6431 120.262 14.5424 120.766 14.2403C122.176 13.334 122.579 11.4207 121.672 10.011C120.565 8.19837 118.147 7.69487 116.335 8.80257C115.63 9.30606 115.025 9.91026 114.623 10.6152C114.22 9.91026 113.716 9.30606 113.011 8.80257C111.198 7.69487 108.882 8.19837 107.674 10.011C106.767 11.4207 107.17 13.334 108.58 14.2403C109.688 14.9452 111.299 14.6431 112.004 13.5354C112.206 13.1326 112.105 12.6291 111.803 12.4277C111.4 12.2263 110.896 12.327 110.695 12.6291C110.493 13.0319 109.889 13.1326 109.587 12.9312C108.983 12.5284 108.781 11.6221 109.184 11.0179C109.789 10.011 111.198 9.70886 112.206 10.3131C113.716 11.32 114.119 13.334 113.213 14.8445C111.4 17.6641 108.681 17.1606 106.666 16.2543L96.394 10.8166C94.4805 9.91026 92.6678 10.3131 91.6607 11.9242C91.3585 12.4277 91.2578 12.9312 91.2578 13.4347C91.2578 14.341 91.7614 15.2473 92.567 15.7508C93.0706 16.0529 93.6749 16.1536 94.2791 16.0529C94.8834 15.9522 95.3869 15.5494 95.6891 15.0459C95.8905 14.6431 95.7898 14.1396 95.3869 13.9382C94.9841 13.7368 94.4805 13.8375 94.2791 14.2403C94.1784 14.341 94.0777 14.4417 93.8763 14.5424C93.6749 14.5424 93.5742 14.5424 93.3727 14.4417C92.8692 14.1396 92.6678 13.4347 93.0706 12.8305C93.272 12.5284 93.977 11.5214 95.6891 12.327L105.962 17.7648C109.587 19.4767 112.709 18.7718 114.623 15.7508C114.723 15.6501 114.723 15.5494 114.824 15.348C114.925 15.4487 114.925 15.5494 115.025 15.7508C116.838 18.6711 119.96 19.376 123.586 17.6641Z" fill="#AA2424"/>
<path fill-rule="evenodd" clip-rule="evenodd" d="M178.675 17.6641L188.947 12.327C190.659 11.5214 191.364 12.5284 191.566 12.8305C191.868 13.334 191.767 14.0389 191.263 14.4417C191.163 14.5424 190.961 14.5424 190.76 14.5424C190.558 14.5424 190.458 14.4417 190.357 14.2403C190.156 13.8375 189.652 13.7368 189.249 13.9382C188.846 14.1396 188.746 14.7438 188.947 15.0459C189.249 15.5494 189.753 15.9522 190.357 16.0529C190.961 16.1536 191.566 16.0529 192.069 15.7508C193.378 14.9452 193.781 13.2333 192.875 11.9242C191.868 10.313 190.055 9.91022 188.141 10.8165L177.869 16.1536C175.855 17.0599 173.136 17.6641 171.323 14.7438C170.316 13.2333 170.819 11.2193 172.33 10.2123C173.337 9.60812 174.747 9.91022 175.351 10.9172C175.754 11.6221 175.553 12.4277 174.948 12.8305C174.545 13.0319 174.042 12.9312 173.84 12.5284C173.639 12.1256 173.136 12.0249 172.733 12.327C172.33 12.5284 172.229 13.0319 172.531 13.4347C173.236 14.5424 174.747 14.9452 175.955 14.1396C177.365 13.2333 177.768 11.32 176.862 9.91022C176.358 9.00393 175.452 8.39973 174.445 8.19833C173.438 7.99693 172.431 8.19833 171.524 8.70183C170.819 9.20532 170.215 9.80952 169.812 10.5144C169.409 9.80952 168.906 9.20532 168.201 8.70183C167.294 8.19833 166.287 7.99693 165.28 8.19833C164.273 8.39973 163.467 9.00393 162.863 9.91022C161.957 11.32 162.36 13.2333 163.769 14.1396C164.877 14.8445 166.489 14.5424 167.194 13.4347C167.395 13.0319 167.294 12.5284 166.992 12.327C166.589 12.1256 166.086 12.2263 165.884 12.5284C165.683 12.9312 165.079 13.0319 164.777 12.8305C164.172 12.4277 163.971 11.5214 164.374 10.9172C164.978 9.91022 166.388 9.60812 167.395 10.2123C168.906 11.2193 169.309 13.2333 168.402 14.7438C166.589 17.5634 163.87 17.0599 161.856 16.1536L151.583 10.7158C149.67 9.80952 147.857 10.2123 146.85 11.8235C146.548 12.327 146.447 12.8305 146.447 13.334C146.447 13.5354 146.447 13.7368 146.548 13.9382C146.749 14.6431 147.152 15.2473 147.757 15.6501C148.26 15.9522 148.864 16.0529 149.469 15.9522C150.073 15.8515 150.576 15.4487 150.879 14.9452C151.08 14.5424 150.979 14.0389 150.677 13.8375C150.274 13.6361 149.771 13.7368 149.569 14.0389C149.469 14.1396 149.368 14.2403 149.166 14.341C148.965 14.341 148.864 14.341 148.663 14.2403C148.361 14.0389 148.26 13.8375 148.159 13.5354C148.059 13.2333 148.159 12.9312 148.361 12.6291C148.562 12.327 149.267 11.32 150.979 12.1256L161.252 17.5634C164.877 19.2753 167.999 18.5704 169.913 15.5494C170.013 15.4487 170.013 15.348 170.114 15.2473C170.215 15.348 170.215 15.4487 170.316 15.6501C171.927 18.6711 175.049 19.376 178.675 17.6641Z" fill="#AA2424"/>
<path fill-rule="evenodd" clip-rule="evenodd" d="M244.236 13.9382C243.834 14.1396 243.733 14.6431 244.035 15.0459C244.337 15.5494 244.841 15.9522 245.445 16.0529C246.049 16.1536 246.653 16.0529 247.157 15.7508C248.466 14.9452 248.869 13.2333 247.963 11.9242C246.956 10.313 245.143 9.91022 243.229 10.8165L232.957 16.1536C230.943 17.0599 228.223 17.6641 226.411 14.7438C225.404 13.2333 225.907 11.2193 227.418 10.2123C228.425 9.60812 229.835 9.91022 230.439 10.9172C230.842 11.6221 230.64 12.4277 230.036 12.8305C229.633 13.0319 229.13 12.9312 228.928 12.5284C228.727 12.1256 228.223 12.0249 227.821 12.327C227.418 12.5284 227.317 13.0319 227.619 13.4347C228.324 14.5424 229.835 14.9452 231.043 14.1396C231.748 13.7368 232.252 13.0319 232.353 12.2263C232.554 11.4207 232.353 10.6151 231.95 9.91022C231.446 9.00393 230.54 8.39973 229.533 8.19833C228.526 7.99693 227.518 8.19833 226.612 8.70183C225.907 9.20532 225.303 9.80952 224.9 10.5144C224.497 9.80952 223.994 9.20532 223.289 8.70183C222.382 8.19833 221.375 7.99693 220.368 8.19833C219.361 8.39973 218.555 9.00393 217.951 9.91022C217.045 11.32 217.447 13.2333 218.857 14.1396C219.965 14.8445 221.577 14.5424 222.281 13.4347C222.483 13.0319 222.382 12.5284 222.08 12.327C221.677 12.1256 221.174 12.2263 220.972 12.5284C220.771 12.9312 220.167 13.0319 219.864 12.8305C219.159 12.4277 219.059 11.5214 219.462 10.9172C220.066 9.91022 221.476 9.60812 222.483 10.2123C223.994 11.2193 224.396 13.2333 223.49 14.7438C221.677 17.5634 218.958 17.0599 216.944 16.1536L206.671 10.7158C204.758 9.80952 202.945 10.2123 201.938 11.8235C201.636 12.327 201.535 12.8305 201.535 13.334C201.535 14.2403 202.039 15.1466 202.844 15.6501C203.348 15.9522 203.952 16.0529 204.556 15.9522C205.161 15.8515 205.664 15.4487 205.966 14.9452C206.168 14.5424 206.067 14.0389 205.664 13.8375C205.261 13.6361 204.758 13.7368 204.556 14.1396C204.456 14.2403 204.355 14.341 204.154 14.4417C203.952 14.4417 203.851 14.4417 203.65 14.341C203.147 14.0389 202.945 13.334 203.348 12.7298C203.549 12.4277 204.254 11.4207 205.966 12.2263L216.037 17.6641C219.663 19.376 222.785 18.6711 224.699 15.6501C224.799 15.5494 224.799 15.4487 224.9 15.2473C225.001 15.348 225.001 15.4487 225.101 15.6501C227.015 18.6711 230.137 19.376 233.762 17.6641L244.035 12.327C245.747 11.5214 246.452 12.5284 246.653 12.8305C246.956 13.334 246.855 14.0389 246.351 14.4417C246.251 14.5424 246.049 14.5424 245.848 14.5424C245.646 14.5424 245.546 14.4417 245.445 14.2403C245.143 13.7368 244.639 13.6361 244.236 13.9382Z" fill="#AA2424"/>
<path fill-rule="evenodd" clip-rule="evenodd" d="M288.851 17.6641L299.124 12.327C300.836 11.5214 301.541 12.5284 301.742 12.8305C302.044 13.334 301.944 14.0389 301.44 14.4417C301.339 14.5424 301.138 14.5424 300.936 14.5424C300.735 14.5424 300.634 14.4417 300.534 14.2403C300.332 13.8375 299.829 13.7368 299.426 14.0389C299.023 14.2403 298.922 14.7438 299.224 15.1466C299.527 15.6501 300.03 16.0529 300.634 16.1536C301.239 16.2543 301.843 16.1536 302.346 15.8515C303.656 15.0459 304.058 13.334 303.152 12.0249C302.145 10.4138 300.332 10.011 298.419 10.9173L288.146 16.2543C286.132 17.1606 283.413 17.7648 281.6 14.8445C280.593 13.334 281.097 11.32 282.607 10.3131C283.614 9.70886 285.024 10.011 285.628 11.0179C286.031 11.7228 285.83 12.5284 285.226 12.9312C284.823 13.1326 284.319 13.0319 284.118 12.6291C283.916 12.2263 283.413 12.1256 283.01 12.4277C282.607 12.6291 282.506 13.1326 282.809 13.5354C283.514 14.6431 285.024 15.0459 286.233 14.2403C287.643 13.334 288.046 11.4207 287.139 10.011C286.031 8.19837 283.614 7.69487 281.801 8.80257C281.097 9.30606 280.492 9.91026 280.089 10.6152C279.687 9.91026 279.183 9.30606 278.478 8.80257C276.665 7.69487 274.349 8.19837 273.14 10.011C272.234 11.4207 272.637 13.334 274.047 14.2403C275.155 14.9452 276.766 14.6431 277.471 13.5354C277.672 13.1326 277.572 12.6291 277.27 12.4277C276.867 12.2263 276.363 12.327 276.162 12.6291C275.96 13.0319 275.356 13.1326 275.054 12.9312C274.45 12.5284 274.248 11.6221 274.651 11.0179C275.255 10.011 276.665 9.70886 277.672 10.3131C279.183 11.32 279.586 13.334 278.679 14.8445C276.867 17.6641 274.148 17.1606 272.133 16.2543L261.861 10.8166C259.947 9.91026 258.135 10.3131 257.127 11.9242C256.825 12.4277 256.725 12.9312 256.725 13.4347C256.725 13.6361 256.725 13.8375 256.825 14.0389C257.027 14.7438 257.43 15.348 258.034 15.7508C258.537 16.0529 259.142 16.1536 259.746 16.0529C260.35 15.9522 260.854 15.5494 261.156 15.0459C261.357 14.6431 261.257 14.1396 260.954 13.9382C260.552 13.7368 260.048 13.8375 259.847 14.1396C259.746 14.2403 259.645 14.341 259.444 14.4417C259.242 14.4417 259.142 14.4417 258.94 14.341C258.638 14.1396 258.537 13.9382 258.437 13.6361C258.336 13.334 258.437 13.0319 258.638 12.7298C258.84 12.4277 259.544 11.4207 261.257 12.2263L271.529 17.6641C275.155 19.376 278.277 18.6711 280.19 15.6501C280.291 15.5494 280.291 15.4487 280.392 15.2473C280.492 15.348 280.492 15.4487 280.593 15.6501C282.003 18.6711 285.226 19.376 288.851 17.6641Z" fill="#AA2424"/>
<path fill-rule="evenodd" clip-rule="evenodd" d="M343.839 17.6641L354.112 12.327C355.824 11.5214 356.529 12.5284 356.73 12.8305C356.932 13.1326 356.932 13.4347 356.932 13.7368C356.831 14.0389 356.73 14.2403 356.428 14.4417C356.328 14.5424 356.126 14.5424 355.925 14.5424C355.723 14.5424 355.623 14.4417 355.522 14.2403C355.32 13.8375 354.817 13.7368 354.414 14.0389C354.011 14.2403 353.911 14.7438 354.213 15.1466C354.515 15.6501 355.018 16.0529 355.623 16.1536C356.227 16.2543 356.831 16.1536 357.335 15.8515C357.939 15.4487 358.442 14.8445 358.543 14.1396C358.745 13.4347 358.543 12.6291 358.14 12.0249C357.133 10.4137 355.32 10.0109 353.407 10.9172L343.135 16.2543C341.12 17.1606 338.401 17.7648 336.588 14.8445C335.581 13.334 336.085 11.32 337.595 10.313C338.099 10.0109 338.703 9.91023 339.207 10.0109C339.811 10.1116 340.315 10.5144 340.617 11.0179C341.02 11.7228 340.818 12.5284 340.214 12.9312C339.811 13.1326 339.308 13.0319 339.106 12.6291C338.905 12.2263 338.401 12.1256 337.998 12.4277C337.595 12.6291 337.495 13.1326 337.797 13.5354C338.502 14.6431 340.013 15.0459 341.221 14.2403C342.631 13.334 343.034 11.4207 342.127 10.0109C341.624 9.10463 340.717 8.50044 339.71 8.29904C338.703 8.09764 337.696 8.29904 336.79 8.80254C336.085 9.30603 335.481 9.91023 335.078 10.6151C334.675 9.91023 334.171 9.30603 333.466 8.80254C332.56 8.29904 331.553 8.09764 330.546 8.29904C329.539 8.50044 328.733 9.10463 328.129 10.0109C327.222 11.4207 327.625 13.334 329.035 14.2403C330.143 14.9452 331.754 14.6431 332.459 13.5354C332.661 13.1326 332.56 12.6291 332.258 12.4277C331.855 12.2263 331.351 12.327 331.15 12.6291C330.949 13.0319 330.344 13.1326 330.042 12.9312C329.337 12.5284 329.236 11.6221 329.639 11.0179C329.941 10.5144 330.445 10.2123 331.049 10.0109C331.654 9.91023 332.157 10.0109 332.661 10.313C334.171 11.32 334.574 13.334 333.668 14.8445C331.855 17.6641 329.136 17.1606 327.122 16.2543L316.849 10.8165C314.936 9.91023 313.123 10.313 312.116 11.9242C311.814 12.4277 311.713 12.9312 311.713 13.4347C311.713 14.341 312.216 15.2473 313.022 15.7508C313.526 16.0529 314.13 16.1536 314.734 16.0529C315.338 15.9522 315.842 15.5494 316.144 15.0459C316.346 14.6431 316.245 14.1396 315.943 13.9382C315.54 13.7368 315.036 13.8375 314.835 14.1396C314.734 14.2403 314.633 14.341 314.432 14.4417C314.231 14.4417 314.13 14.4417 313.929 14.341C313.425 14.0389 313.224 13.334 313.626 12.7298C313.828 12.4277 314.533 11.4207 316.245 12.2263L326.517 17.6641C330.143 19.376 333.265 18.6711 335.178 15.6501C335.279 15.5494 335.279 15.4487 335.38 15.348C335.481 15.4487 335.481 15.5494 335.581 15.7508C337.092 18.6711 340.214 19.376 343.839 17.6641Z" fill="#AA2424"/>
<path fill-rule="evenodd" clip-rule="evenodd" d="M381.304 17.6641C384.929 19.376 388.052 18.6711 389.965 15.6501C390.066 15.5494 390.066 15.4487 390.166 15.2473C390.267 15.348 390.267 15.4487 390.368 15.6501C392.281 18.6711 395.403 19.376 399.029 17.6641L409.301 12.327C411.013 11.5214 411.718 12.5284 411.92 12.8305C412.121 13.1326 412.121 13.4347 412.121 13.7368C412.021 14.0389 411.92 14.2403 411.618 14.4417C411.517 14.5424 411.316 14.5424 411.114 14.5424C410.913 14.5424 410.812 14.4417 410.711 14.2403C410.51 13.8375 410.006 13.7368 409.604 13.9382C409.201 14.1396 409.1 14.7438 409.402 15.0459C409.704 15.5494 410.208 15.9522 410.812 16.0529C411.416 16.1536 412.021 16.0529 412.524 15.7508C413.128 15.348 413.632 14.7438 413.733 14.0389C413.934 13.334 413.733 12.5284 413.33 11.9242C412.323 10.313 410.51 9.91025 408.596 10.8165L398.324 16.1536C396.31 17.0599 393.591 17.6641 391.778 14.7438C390.771 13.2333 391.274 11.2193 392.785 10.2123C393.792 9.60815 395.202 9.91025 395.806 10.9172C396.209 11.6221 396.008 12.4277 395.403 12.8305C395.001 13.0319 394.497 12.9312 394.296 12.5284C394.094 12.1256 393.591 12.0249 393.188 12.327C392.785 12.5284 392.684 13.0319 392.986 13.4347C393.691 14.5424 395.202 14.9452 396.41 14.1396C397.82 13.2333 398.223 11.32 397.317 9.91025C396.209 8.09766 393.792 7.59416 391.979 8.70186C391.274 9.20535 390.67 9.80955 390.267 10.5144C389.864 9.80955 389.361 9.20535 388.656 8.70186C386.843 7.59416 384.527 8.09766 383.318 9.91025C382.412 11.32 382.815 13.2333 384.225 14.1396C385.332 14.8445 386.944 14.5424 387.649 13.334C387.85 12.9312 387.749 12.4277 387.447 12.2263C387.044 12.0249 386.541 12.1256 386.339 12.5284C386.138 12.9312 385.534 13.0319 385.232 12.8305C384.627 12.4277 384.426 11.5214 384.829 10.9172C385.433 9.91025 386.843 9.60815 387.85 10.2123C389.361 11.2193 389.764 13.2333 388.857 14.7438C387.044 17.5634 384.325 17.0599 382.311 16.1536L372.039 10.7158C370.125 9.80955 368.312 10.2123 367.305 11.8235C367.003 12.327 366.902 12.8305 366.902 13.334C366.902 14.2403 367.406 15.1466 368.212 15.6501C368.715 15.9522 369.319 16.0529 369.924 15.9522C370.528 15.8515 371.031 15.4487 371.334 14.9452C371.535 14.5424 371.434 14.0389 371.132 13.8375C370.729 13.6361 370.226 13.7368 370.024 14.0389C369.924 14.1396 369.823 14.2403 369.622 14.341C369.42 14.341 369.319 14.341 369.118 14.2403C368.614 13.9382 368.413 13.2333 368.816 12.6291C369.017 12.327 369.722 11.32 371.434 12.1256L381.304 17.6641Z" fill="#AA2424"/>
<path fill-rule="evenodd" clip-rule="evenodd" d="M438.205 10.1116C437.298 11.5214 437.701 13.4347 439.111 14.341C440.219 15.0459 441.83 14.7438 442.535 13.5354C442.737 13.1326 442.636 12.6291 442.334 12.4277C441.931 12.2263 441.428 12.327 441.226 12.7298C441.025 13.1326 440.42 13.2333 440.118 13.0319C439.514 12.6291 439.313 11.7228 439.716 11.1186C440.32 10.1116 441.73 9.80952 442.737 10.4137C444.247 11.4207 444.65 13.4347 443.744 14.9452C441.931 17.7648 439.212 17.2613 437.198 16.355L426.925 10.9172C425.012 10.0109 423.199 10.4137 422.192 12.0249C421.89 12.5284 421.789 13.0319 421.789 13.5354C421.789 14.4417 422.293 15.348 423.098 15.8515C423.602 16.1536 424.206 16.2543 424.81 16.1536C425.415 16.0529 425.918 15.6501 426.22 15.1466C426.422 14.7438 426.321 14.2403 426.019 14.0389C425.616 13.8375 425.113 13.9382 424.911 14.2403C424.81 14.341 424.71 14.4417 424.508 14.5424C424.307 14.5424 424.206 14.5424 424.005 14.4417C423.501 14.1396 423.3 13.4347 423.703 12.8305C423.904 12.5284 424.609 11.5214 426.321 12.327L436.593 17.7648C440.219 19.4767 443.341 18.7718 445.255 15.7508C446.665 13.4347 446.06 10.4137 443.744 9.00393C441.73 7.79553 439.313 8.29903 438.205 10.1116Z" fill="#AA2424"/>
<path fill-rule="evenodd" clip-rule="evenodd" d="M388.291 3.99628L390.356 1.93135L392.421 3.99628L390.356 6.06121L388.291 3.99628Z" fill="#AA2424"/>
<path fill-rule="evenodd" clip-rule="evenodd" d="M333.203 4.00189L335.268 1.93696L337.333 4.00189L335.268 6.06682L333.203 4.00189Z" fill="#AA2424"/>
<path fill-rule="evenodd" clip-rule="evenodd" d="M278.125 4.02332L280.19 1.95839L282.255 4.02332L280.19 6.08825L278.125 4.02332Z" fill="#AA2424"/>
<path fill-rule="evenodd" clip-rule="evenodd" d="M223.115 3.9657L225.18 1.90077L227.246 3.9657L225.18 6.03063L223.115 3.9657Z" fill="#AA2424"/>
<path fill-rule="evenodd" clip-rule="evenodd" d="M168.029 3.96906L170.094 1.90413L172.16 3.96906L170.094 6.03398L168.029 3.96906Z" fill="#AA2424"/>
<path fill-rule="evenodd" clip-rule="evenodd" d="M112.961 3.99139L115.026 1.92617L117.092 3.9911L115.026 6.05632L112.961 3.99139Z" fill="#AA2424"/>
<path fill-rule="evenodd" clip-rule="evenodd" d="M57.8672 4.0094L59.9323 1.94447L61.9975 4.0094L59.9323 6.07433L57.8672 4.0094Z" fill="#AA2424"/>
<path fill-rule="evenodd" clip-rule="evenodd" d="M443.359 3.96301L445.425 1.89808L447.49 3.96301L445.425 6.02794L443.359 3.96301Z" fill="#AA2424"/>
<path fill-rule="evenodd" clip-rule="evenodd" d="M417.963 17.4627L428.638 21.692C429.242 21.8934 429.242 23.0011 428.638 23.3032L417.963 27.5326C417.761 27.6333 417.56 27.6333 417.359 27.5326L406.683 23.3032C406.381 23.1018 406.18 22.7997 406.18 22.4976C406.18 22.0948 406.381 21.7927 406.683 21.692L417.359 17.4627C417.56 17.362 417.761 17.362 417.963 17.4627ZM417.661 18.9732L409.201 22.3969L417.661 25.8207L426.12 22.3969L417.661 18.9732Z" fill="#AA2424"/>
<path fill-rule="evenodd" clip-rule="evenodd" d="M373.65 21.692C374.254 21.8934 374.254 23.0011 373.65 23.2025L362.975 27.5326C362.773 27.6333 362.572 27.6333 362.37 27.5326L351.695 23.3032C351.393 23.1018 351.191 22.7997 351.191 22.4976C351.191 22.0948 351.393 21.7927 351.695 21.692L362.37 17.4627C362.572 17.362 362.773 17.362 362.975 17.4627L373.65 21.692ZM362.672 18.9732L354.213 22.3969L362.672 25.8207L371.132 22.3969L362.672 18.9732Z" fill="#AA2424"/>
<path fill-rule="evenodd" clip-rule="evenodd" d="M318.763 21.692C319.367 21.8934 319.367 23.0011 318.763 23.2025L308.088 27.5326C307.886 27.6333 307.685 27.6333 307.484 27.5326L296.808 23.3032C296.506 23.1018 296.305 22.7997 296.305 22.4976C296.305 22.0948 296.506 21.7927 296.808 21.692L307.484 17.4627C307.685 17.362 307.886 17.362 308.088 17.4627L318.763 21.692ZM307.786 18.9732L299.326 22.3969L307.786 25.8207L316.245 22.3969L307.786 18.9732Z" fill="#AA2424"/>
<path fill-rule="evenodd" clip-rule="evenodd" d="M263.775 21.692C264.379 21.8934 264.379 23.0011 263.775 23.2025L253.1 27.5326C252.898 27.6333 252.697 27.6333 252.495 27.5326L241.82 23.3032C241.518 23.1018 241.316 22.7997 241.316 22.4976C241.316 22.0948 241.518 21.7927 241.82 21.692L252.495 17.4627C252.697 17.362 252.898 17.362 253.1 17.4627L263.775 21.692ZM252.797 18.9732L244.338 22.3969L252.797 25.8207L261.257 22.3969L252.797 18.9732Z" fill="#AA2424"/>
<path fill-rule="evenodd" clip-rule="evenodd" d="M208.888 21.692C209.492 21.8934 209.492 23.0011 208.888 23.2025L198.213 27.5326C198.011 27.6333 197.81 27.6333 197.609 27.5326L186.933 23.3032C186.631 23.1018 186.43 22.7997 186.43 22.4976C186.43 22.0948 186.631 21.7927 186.933 21.692L197.609 17.4627C197.81 17.362 198.011 17.362 198.213 17.4627L208.888 21.692ZM197.911 18.9732L189.451 22.3969L197.911 25.8207L206.37 22.3969L197.911 18.9732Z" fill="#AA2424"/>
<path fill-rule="evenodd" clip-rule="evenodd" d="M153.9 21.692C154.504 21.8934 154.504 23.0011 153.9 23.2025L143.225 27.5326C143.023 27.6333 142.822 27.6333 142.62 27.5326L131.945 23.3032C131.643 23.1018 131.441 22.7997 131.441 22.4976C131.441 22.0948 131.643 21.7927 131.945 21.692L142.62 17.4627C142.822 17.362 143.023 17.362 143.225 17.4627L153.9 21.692ZM142.922 18.9732L134.463 22.3969L142.922 25.8207L151.382 22.3969L142.922 18.9732Z" fill="#AA2424"/>
<path fill-rule="evenodd" clip-rule="evenodd" d="M99.0131 21.692C99.6174 21.8934 99.6174 23.0011 99.0131 23.2025L88.3378 27.5326C88.1364 27.6333 87.935 27.6333 87.7335 27.5326L77.0582 23.3032C76.7561 23.1018 76.5547 22.7997 76.5547 22.4976C76.5547 22.0948 76.7561 21.7927 77.0582 21.692L87.7335 17.4627C87.935 17.362 88.1364 17.362 88.3378 17.4627L99.0131 21.692ZM88.0357 18.9732L79.576 22.3969L88.0357 25.8207L96.4953 22.3969L88.0357 18.9732Z" fill="#AA2424"/>
<path fill-rule="evenodd" clip-rule="evenodd" d="M390.67 25.9214C390.569 26.0221 390.469 26.1228 390.267 26.1228C390.167 26.1228 389.965 26.0221 389.764 25.8207L386.742 22.7998C386.642 22.6991 386.541 22.5984 386.541 22.397C386.541 22.2963 386.642 22.0949 386.742 21.9942L389.764 18.9732C390.066 18.7718 390.469 18.7718 390.67 18.9732L393.691 21.9942C393.893 22.2963 393.893 22.6991 393.691 22.9005L390.67 25.9214ZM390.267 20.2823L388.152 22.397L390.267 24.5117L392.382 22.397L390.267 20.2823Z" fill="#AA2424"/>
<path fill-rule="evenodd" clip-rule="evenodd" d="M331.754 21.9942L334.775 18.9732C335.078 18.7718 335.48 18.7718 335.581 18.8725L338.602 21.8935C338.804 22.1956 338.804 22.5984 338.602 22.7998L335.581 25.8207C335.48 25.9214 335.38 26.0221 335.178 26.0221C335.078 26.0221 334.876 25.9214 334.775 25.8207L331.754 22.7998C331.653 22.6991 331.553 22.5984 331.553 22.397C331.553 22.2963 331.653 22.0949 331.754 21.9942ZM335.279 24.5116L337.394 22.397L335.279 20.2823L333.164 22.397L335.279 24.5116Z" fill="#AA2424"/>
<path fill-rule="evenodd" clip-rule="evenodd" d="M276.666 21.9942L279.688 18.9732C279.99 18.7718 280.393 18.7718 280.493 18.8725L283.515 21.8935C283.716 22.1956 283.716 22.5984 283.515 22.7998L280.493 25.8207C280.393 25.9214 280.292 26.0221 280.09 26.0221C279.99 26.0221 279.788 25.9214 279.688 25.8207L276.666 22.7998C276.566 22.6991 276.465 22.5984 276.465 22.397C276.465 22.2963 276.566 22.0949 276.666 21.9942ZM280.191 24.5116L282.306 22.397L280.191 20.2823L278.076 22.397L280.191 24.5116Z" fill="#AA2424"/>
<path fill-rule="evenodd" clip-rule="evenodd" d="M221.678 21.9942L224.699 18.9732C224.901 18.7718 225.304 18.7718 225.505 18.8725L228.526 21.8935C228.728 22.1956 228.728 22.5984 228.526 22.7998L225.505 25.8207C225.404 25.9214 225.304 26.0221 225.102 26.0221C225.001 26.0221 224.8 25.9214 224.699 25.8207L221.678 22.7998C221.577 22.6991 221.477 22.5984 221.477 22.397C221.477 22.2963 221.577 22.0949 221.678 21.9942ZM225.102 24.5116L227.217 22.397L225.102 20.2823L222.987 22.397L225.102 24.5116Z" fill="#AA2424"/>
<path fill-rule="evenodd" clip-rule="evenodd" d="M166.588 21.9942L169.609 18.9732C169.811 18.7718 170.214 18.7718 170.415 18.8725L173.436 21.8935C173.638 22.1956 173.638 22.5984 173.436 22.7998L170.415 25.8207C170.314 25.9214 170.214 26.0221 170.012 26.0221C169.912 26.0221 169.71 25.9214 169.609 25.8207L166.588 22.7998C166.487 22.6991 166.387 22.5984 166.387 22.397C166.387 22.2963 166.487 22.0949 166.588 21.9942ZM170.113 24.5116L172.228 22.397L170.113 20.2823L167.998 22.397L170.113 24.5116Z" fill="#AA2424"/>
<path fill-rule="evenodd" clip-rule="evenodd" d="M111.5 21.9942L114.522 18.9732C114.723 18.7718 115.126 18.7718 115.327 18.8725L118.349 21.8935C118.55 22.1956 118.55 22.5984 118.349 22.7998L115.327 25.8207C115.227 25.9214 115.126 26.0221 114.924 26.0221C114.824 26.0221 114.622 25.9214 114.522 25.8207L111.5 22.7998C111.4 22.6991 111.299 22.5984 111.299 22.397C111.299 22.2963 111.4 22.0949 111.5 21.9942ZM115.025 24.5116L117.14 22.397L115.025 20.2823L112.91 22.397L115.025 24.5116Z" fill="#AA2424"/>
<path fill-rule="evenodd" clip-rule="evenodd" d="M402.414 22.4495L403.838 21.0254L405.263 22.4495L403.838 23.8736L402.414 22.4495Z" fill="#AA2424"/>
<path fill-rule="evenodd" clip-rule="evenodd" d="M398.512 22.4302L399.936 21.0061L401.36 22.4304L399.936 23.8545L398.512 22.4302Z" fill="#AA2424"/>
<path fill-rule="evenodd" clip-rule="evenodd" d="M394.547 22.4266L395.971 21.0025L397.395 22.4266L395.971 23.8507L394.547 22.4266Z" fill="#AA2424"/>
<path fill-rule="evenodd" clip-rule="evenodd" d="M383.074 22.4438L384.498 21.0197L385.923 22.4438L384.498 23.8679L383.074 22.4438Z" fill="#AA2424"/>
<path fill-rule="evenodd" clip-rule="evenodd" d="M379.17 22.4236L380.594 20.9996L382.019 22.4238L380.594 23.8479L379.17 22.4236Z" fill="#AA2424"/>
<path fill-rule="evenodd" clip-rule="evenodd" d="M375.225 22.4489L376.649 21.0248L378.073 22.4489L376.649 23.873L375.225 22.4489Z" fill="#AA2424"/>
<path fill-rule="evenodd" clip-rule="evenodd" d="M438.455 22.4131L439.879 20.989L441.304 22.4131L439.879 23.8372L438.455 22.4131Z" fill="#AA2424"/>
<path fill-rule="evenodd" clip-rule="evenodd" d="M434.518 22.3948L435.942 20.9707L437.366 22.3948L435.942 23.8189L434.518 22.3948Z" fill="#AA2424"/>
<path fill-rule="evenodd" clip-rule="evenodd" d="M430.58 22.3768L432.004 20.9527L433.429 22.3768L432.004 23.8009L430.58 22.3768Z" fill="#AA2424"/>
<path fill-rule="evenodd" clip-rule="evenodd" d="M347.396 22.3797L348.821 20.9556L350.245 22.3797L348.821 23.8038L347.396 22.3797Z" fill="#AA2424"/>
<path fill-rule="evenodd" clip-rule="evenodd" d="M343.48 22.3999L344.905 20.9758L346.329 22.3999L344.905 23.824L343.48 22.3999Z" fill="#AA2424"/>
<path fill-rule="evenodd" clip-rule="evenodd" d="M339.479 22.4672L340.903 21.0431L342.327 22.4672L340.903 23.8913L339.479 22.4672Z" fill="#AA2424"/>
<path fill-rule="evenodd" clip-rule="evenodd" d="M328.064 22.3862L329.489 20.9621L330.913 22.3862L329.489 23.8103L328.064 22.3862Z" fill="#AA2424"/>
<path fill-rule="evenodd" clip-rule="evenodd" d="M324.062 22.4534L325.487 21.0293L326.911 22.4534L325.487 23.8775L324.062 22.4534Z" fill="#AA2424"/>
<path fill-rule="evenodd" clip-rule="evenodd" d="M320.156 22.4364L321.58 21.0121L323.005 22.4362L321.581 23.8605L320.156 22.4364Z" fill="#AA2424"/>
<path fill-rule="evenodd" clip-rule="evenodd" d="M292.32 22.4053L293.745 20.9812L295.169 22.4053L293.745 23.8294L292.32 22.4053Z" fill="#AA2424"/>
<path fill-rule="evenodd" clip-rule="evenodd" d="M288.396 22.4123L289.821 20.9884L291.245 22.4127L289.821 23.8366L288.396 22.4123Z" fill="#AA2424"/>
<path fill-rule="evenodd" clip-rule="evenodd" d="M284.457 22.3871L285.881 20.963L287.306 22.3871L285.881 23.8112L284.457 22.3871Z" fill="#AA2424"/>
<path fill-rule="evenodd" clip-rule="evenodd" d="M273.002 22.3903L274.426 20.9662L275.851 22.3905L274.426 23.8146L273.002 22.3903Z" fill="#AA2424"/>
<path fill-rule="evenodd" clip-rule="evenodd" d="M269.072 22.3856L270.497 20.9615L271.921 22.3858L270.497 23.8099L269.072 22.3856Z" fill="#AA2424"/>
<path fill-rule="evenodd" clip-rule="evenodd" d="M265.143 22.3829L266.567 20.9586L267.991 22.3827L266.567 23.807L265.143 22.3829Z" fill="#AA2424"/>
<path fill-rule="evenodd" clip-rule="evenodd" d="M237.238 22.4189L238.663 20.9948L240.087 22.4189L238.663 23.843L237.238 22.4189Z" fill="#AA2424"/>
<path fill-rule="evenodd" clip-rule="evenodd" d="M233.305 22.4058L234.729 20.9817L236.153 22.4058L234.729 23.8299L233.305 22.4058Z" fill="#AA2424"/>
<path fill-rule="evenodd" clip-rule="evenodd" d="M229.398 22.4039L230.823 20.9798L232.247 22.4041L230.823 23.8282L229.398 22.4039Z" fill="#AA2424"/>
<path fill-rule="evenodd" clip-rule="evenodd" d="M217.916 22.4066L219.34 20.9825L220.765 22.4068L219.34 23.8309L217.916 22.4066Z" fill="#AA2424"/>
<path fill-rule="evenodd" clip-rule="evenodd" d="M213.988 22.403L215.413 20.9789L216.837 22.4032L215.413 23.8272L213.988 22.403Z" fill="#AA2424"/>
<path fill-rule="evenodd" clip-rule="evenodd" d="M210.057 22.3983L211.481 20.974L212.905 22.3981L211.481 23.8224L210.057 22.3983Z" fill="#AA2424"/>
<path fill-rule="evenodd" clip-rule="evenodd" d="M182.152 22.4244L183.577 21.0003L185.001 22.4244L183.577 23.8485L182.152 22.4244Z" fill="#AA2424"/>
<path fill-rule="evenodd" clip-rule="evenodd" d="M178.229 22.4365L179.653 21.0124L181.077 22.4365L179.653 23.8606L178.229 22.4365Z" fill="#AA2424"/>
<path fill-rule="evenodd" clip-rule="evenodd" d="M174.299 22.4318L175.723 21.0077L177.147 22.4318L175.723 23.8559L174.299 22.4318Z" fill="#AA2424"/>
<path fill-rule="evenodd" clip-rule="evenodd" d="M162.818 22.4343L164.243 21.0104L165.667 22.4347L164.242 23.8586L162.818 22.4343Z" fill="#AA2424"/>
<path fill-rule="evenodd" clip-rule="evenodd" d="M158.902 22.4186L160.327 20.9945L161.751 22.4188L160.327 23.8429L158.902 22.4186Z" fill="#AA2424"/>
<path fill-rule="evenodd" clip-rule="evenodd" d="M154.973 22.4155L156.397 20.9912L157.821 22.4153L156.397 23.8396L154.973 22.4155Z" fill="#AA2424"/>
<path fill-rule="evenodd" clip-rule="evenodd" d="M127.072 22.4454L128.497 21.0213L129.921 22.4454L128.497 23.8695L127.072 22.4454Z" fill="#AA2424"/>
<path fill-rule="evenodd" clip-rule="evenodd" d="M123.143 22.4421L124.567 21.018L125.991 22.4421L124.567 23.8662L123.143 22.4421Z" fill="#AA2424"/>
<path fill-rule="evenodd" clip-rule="evenodd" d="M119.213 22.4317L120.637 21.0076L122.061 22.4317L120.637 23.8558L119.213 22.4317Z" fill="#AA2424"/>
<path fill-rule="evenodd" clip-rule="evenodd" d="M107.734 22.4403L109.159 21.0162L110.583 22.4403L109.159 23.8644L107.734 22.4403Z" fill="#AA2424"/>
<path fill-rule="evenodd" clip-rule="evenodd" d="M103.805 22.4365L105.229 21.0126L106.653 22.4369L105.229 23.8608L103.805 22.4365Z" fill="#AA2424"/>
<path fill-rule="evenodd" clip-rule="evenodd" d="M99.875 22.4326L101.299 21.0085L102.723 22.4326L101.299 23.8566L99.875 22.4326Z" fill="#AA2424"/>
<path fill-rule="evenodd" clip-rule="evenodd" d="M72.0605 22.3883L73.4848 20.9642L74.909 22.3883L73.4848 23.8124L72.0605 22.3883Z" fill="#AA2424"/>
<path fill-rule="evenodd" clip-rule="evenodd" d="M68.1328 22.3843L69.5571 20.9602L70.9813 22.3843L69.5571 23.8084L68.1328 22.3843Z" fill="#AA2424"/>
<path fill-rule="evenodd" clip-rule="evenodd" d="M64.1309 22.4517L65.5551 21.0276L66.9794 22.4517L65.5551 23.8758L64.1309 22.4517Z" fill="#AA2424"/>
<path fill-rule="evenodd" clip-rule="evenodd" d="M23.6815 12.2263C25.3936 11.4207 26.0985 12.4277 26.3 12.7298C26.5014 13.0319 26.5014 13.334 26.5014 13.6361C26.4007 13.9382 26.3 14.1396 25.9978 14.341C25.8971 14.4417 25.6957 14.4417 25.4943 14.4417C25.2929 14.4417 25.1921 14.341 25.0914 14.1396C24.89 13.7368 24.3865 13.6361 23.9836 13.9382C23.5808 14.1396 23.4801 14.7438 23.7822 15.0459C24.0843 15.5494 24.5879 15.9522 25.1921 16.0529C25.7964 16.1536 26.4007 16.0529 26.9042 15.7508C28.2135 14.9452 28.6163 13.2333 27.7099 11.9242C26.7028 10.313 24.89 9.91022 22.9765 10.8165L12.7041 16.1536C10.6899 17.0599 7.97067 17.6641 6.15789 14.7438C5.15078 13.2333 5.65433 11.2193 7.16499 10.2123C8.17209 9.60812 9.58204 9.91022 10.1863 10.9172C10.5891 11.5214 10.3877 12.4277 9.78346 12.8305C9.38062 13.0319 8.87707 12.9312 8.67565 12.5284C8.47422 12.1256 7.97067 12.0249 7.56783 12.2263C7.16499 12.4277 7.06428 13.0319 7.2657 13.334C7.97067 14.4417 9.48133 14.8445 10.6899 14.1396C12.0998 13.2333 12.5026 11.32 11.5962 9.91022C11.0927 9.00393 10.1863 8.39973 9.1792 8.19833C8.17209 7.99693 7.16499 8.19833 6.2586 8.70183C4.74794 9.60812 4.04297 11.2193 4.04297 12.8305C4.04297 13.7368 4.24439 14.6431 4.84865 15.4487C6.76215 18.4697 9.88417 19.1746 13.5097 17.4627L23.6815 12.2263Z" fill="#AA2424"/>
<path fill-rule="evenodd" clip-rule="evenodd" d="M2.7832 4.02197L4.84836 1.95704L6.91352 4.02197L4.84836 6.0869L2.7832 4.02197Z" fill="#AA2424"/>
<path fill-rule="evenodd" clip-rule="evenodd" d="M43.1186 21.692C43.7228 21.8934 43.7228 23.0011 43.1186 23.2025L32.4433 27.5326C32.2418 27.6333 32.0404 27.6333 31.839 27.5326L21.1637 23.3032C20.8616 23.1018 20.6602 22.7997 20.6602 22.4976C20.6602 22.0948 20.8616 21.7927 21.1637 21.692L31.839 17.4627C32.0404 17.362 32.2418 17.362 32.4433 17.4627L43.1186 21.692ZM32.1411 18.9732L23.6815 22.3969L32.1411 25.8207L40.6008 22.3969L32.1411 18.9732Z" fill="#AA2424"/>
<path fill-rule="evenodd" clip-rule="evenodd" d="M8.27153 21.9942C8.47295 22.2963 8.47295 22.6991 8.27153 22.9005L5.14951 25.8207C5.0488 25.9214 4.94809 26.0221 4.74667 26.0221C4.64596 26.0221 4.44454 25.9214 4.34383 25.8207L1.32251 22.7998C1.2218 22.6991 1.12109 22.5984 1.12109 22.397C1.12109 22.2963 1.2218 22.0949 1.32251 21.9942L4.34383 18.9732C4.64596 18.7718 5.0488 18.7718 5.25022 18.9732L8.27153 21.9942ZM4.74667 20.2823L2.63175 22.397L4.74667 24.5117L6.86158 22.397L4.74667 20.2823Z" fill="#AA2424"/>
<path fill-rule="evenodd" clip-rule="evenodd" d="M56.4124 21.9942L59.4337 18.9732C59.7358 18.7718 60.1386 18.7718 60.2394 18.8725L63.2607 21.8935C63.4621 22.1956 63.4621 22.5984 63.2607 22.7998L60.2394 25.8207C60.1386 25.9214 60.0379 26.0221 59.8365 26.0221C59.7358 26.0221 59.5344 25.9214 59.4337 25.8207L56.4124 22.7998C56.3116 22.6991 56.2109 22.5984 56.2109 22.397C56.2109 22.2963 56.3116 22.0949 56.4124 21.9942ZM59.9372 24.5116L62.0521 22.397L59.9372 20.2823L57.8223 22.397L59.9372 24.5116Z" fill="#AA2424"/>
<path fill-rule="evenodd" clip-rule="evenodd" d="M16.9785 22.4017L18.4028 20.9776L19.827 22.4017L18.4028 23.8258L16.9785 22.4017Z" fill="#AA2424"/>
<path fill-rule="evenodd" clip-rule="evenodd" d="M13.0566 22.4016L14.4811 20.9775L15.9053 22.4018L14.4809 23.8258L13.0566 22.4016Z" fill="#AA2424"/>
<path fill-rule="evenodd" clip-rule="evenodd" d="M9.12305 22.3904L10.5473 20.9663L11.9715 22.3904L10.5473 23.8145L9.12305 22.3904Z" fill="#AA2424"/>
<path fill-rule="evenodd" clip-rule="evenodd" d="M52.9395 22.4271L54.3639 21.0032L55.7879 22.4275L54.3635 23.8514L52.9395 22.4271Z" fill="#AA2424"/>
<path fill-rule="evenodd" clip-rule="evenodd" d="M49.0117 22.4137L50.436 20.9896L51.8602 22.4137L50.436 23.8378L49.0117 22.4137Z" fill="#AA2424"/>
<path fill-rule="evenodd" clip-rule="evenodd" d="M45.082 22.4194L46.5063 20.9953L47.9305 22.4194L46.5063 23.8435L45.082 22.4194Z" fill="#AA2424"/>
<path fill-rule="evenodd" clip-rule="evenodd" d="M441.73 22.397C441.73 22.2963 441.831 22.0949 441.932 21.9942L444.852 18.8725C445.155 18.6711 445.557 18.6711 445.759 18.8725L448.78 21.8935C448.982 22.1956 448.982 22.5984 448.78 22.7998L445.759 25.8207C445.658 25.9214 445.557 26.0221 445.356 26.0221C445.255 26.0221 445.054 25.9214 444.953 25.8207L441.932 22.7998C441.831 22.6991 441.73 22.5984 441.73 22.397ZM445.457 24.5116L447.572 22.397L445.457 20.2823L443.342 22.397L445.457 24.5116Z" fill="#AA2424"/>
</svg>
