<svg width="34" height="542" viewBox="0 0 34 542" fill="none" xmlns="http://www.w3.org/2000/svg">
<path fill-rule="evenodd" clip-rule="evenodd" d="M20.6924 459.273L14.1693 446.924C13.1847 444.865 14.4154 444.018 14.7847 443.776C15.4001 443.412 16.2616 443.534 16.7539 444.139C16.877 444.26 16.877 444.502 16.877 444.744C16.877 444.986 16.7539 445.108 16.5078 445.229C16.0154 445.471 15.8924 446.076 16.1385 446.56C16.3847 447.045 17.1231 447.166 17.4924 446.924C18.1078 446.56 18.6001 445.955 18.7231 445.229C18.8462 444.502 18.7231 443.776 18.3539 443.17C17.3693 441.596 15.277 441.112 13.677 442.202C11.7078 443.412 11.2154 445.592 12.3231 447.892L18.8462 460.242C19.9539 462.664 20.6924 465.933 17.1231 468.112C15.277 469.323 12.8154 468.717 11.5847 466.901C10.8462 465.69 11.2154 463.995 12.4462 463.269C13.3078 462.785 14.2924 463.027 14.7847 463.753C15.0308 464.238 14.9078 464.843 14.4154 465.085C13.9231 465.327 13.8001 465.933 14.1693 466.417C14.4154 466.901 15.0308 467.022 15.5231 466.659C16.877 465.812 17.3693 463.995 16.3847 462.542C15.8924 461.695 15.0308 461.09 14.0462 460.968C13.0616 460.726 12.077 460.968 11.2154 461.453C10.1078 462.058 9.36929 463.148 9.12314 464.359C8.87698 465.569 9.12314 466.78 9.73852 467.87C10.3539 468.717 11.0924 469.444 11.9539 469.928C11.0924 470.412 10.3539 471.018 9.73852 471.865C9.12314 472.955 8.87698 474.166 9.12314 475.377C9.36929 476.587 10.1078 477.556 11.2154 478.282C12.077 478.767 13.0616 479.009 14.0462 478.767C15.0308 478.525 15.8924 478.04 16.3847 477.193C17.2462 475.861 16.877 473.924 15.5231 473.076C15.0308 472.834 14.4154 472.955 14.1693 473.318C13.9231 473.803 14.0462 474.408 14.4154 474.65C14.9078 474.892 15.0308 475.619 14.7847 475.982C14.2924 476.708 13.1847 476.951 12.4462 476.466C11.2154 475.74 10.8462 474.045 11.5847 472.834C12.8154 471.018 15.277 470.534 17.1231 471.623C20.5693 473.803 19.9539 477.072 18.8462 479.493L12.2001 491.843C11.0924 494.143 11.5847 496.323 13.5539 497.534C14.0462 497.897 14.7847 498.018 15.4001 498.018C15.6462 498.018 15.8924 498.018 16.1385 497.897C17.0001 497.655 17.7385 497.17 18.2308 496.444C18.6001 495.838 18.7231 495.112 18.6001 494.386C18.477 493.659 17.9847 493.054 17.3693 492.69C16.877 492.448 16.2616 492.569 16.0154 493.054C15.7693 493.538 15.8924 494.143 16.3847 494.386C16.5078 494.507 16.6308 494.628 16.7539 494.87C16.7539 495.112 16.7539 495.233 16.6308 495.475C16.2616 496.081 15.4001 496.323 14.6616 495.838C14.2924 495.596 13.0616 494.749 14.0462 492.69L20.6924 480.462C22.7847 476.103 21.9231 472.35 18.2308 470.049C18.1078 469.928 17.9847 469.928 17.7385 469.807C17.8616 469.686 17.9847 469.686 18.2308 469.565C21.9231 467.386 22.7847 463.632 20.6924 459.273Z" fill="#AA2424"/>
<path fill-rule="evenodd" clip-rule="evenodd" d="M20.6923 393.045L14.1692 380.695C13.1846 378.637 14.4154 377.789 14.7846 377.547C15.1539 377.305 15.5231 377.305 15.8923 377.305C16.2616 377.426 16.5077 377.547 16.7539 377.91C16.8769 378.031 16.8769 378.274 16.8769 378.516C16.8769 378.758 16.7539 378.879 16.5077 379C16.0154 379.242 15.8923 379.847 16.2616 380.332C16.5077 380.816 17.2462 380.937 17.6154 380.574C18.2308 380.211 18.7231 379.605 18.8462 378.879C18.9692 378.152 18.8462 377.426 18.4769 376.821C17.4923 375.247 15.4 374.762 13.8 375.852C11.8308 377.063 11.3385 379.242 12.4462 381.543L18.9692 393.892C20.0769 396.314 20.8154 399.583 17.2462 401.762C15.4 402.973 12.9385 402.368 11.7077 400.552C10.9692 399.341 11.3385 397.646 12.5692 396.919C13.4308 396.435 14.4154 396.677 14.9077 397.404C15.0308 397.646 15.1539 397.888 15.0308 398.13C15.0308 398.372 14.7846 398.614 14.5385 398.735C14.0462 398.978 13.9231 399.583 14.1692 400.067C14.4154 400.552 15.1539 400.673 15.5231 400.43C16.2616 399.946 16.6308 399.341 16.8769 398.614C17 397.888 16.8769 397.04 16.5077 396.435C15.4 394.74 13.0616 394.256 11.3385 395.345C9.12309 396.677 8.50771 399.583 9.86156 401.762C10.4769 402.61 11.2154 403.336 12.0769 403.821C11.2154 404.305 10.4769 404.91 9.86156 405.758C8.50771 407.937 9.12309 410.722 11.3385 412.175C13.0616 413.265 15.4 412.78 16.5077 411.085C17.3692 409.753 17 407.816 15.6462 406.969C15.1539 406.726 14.5385 406.847 14.2923 407.211C14.0462 407.695 14.1692 408.3 14.5385 408.543C15.0308 408.785 15.1539 409.511 14.9077 409.874C14.4154 410.601 13.3077 410.843 12.5692 410.359C11.3385 409.632 10.9692 407.937 11.7077 406.726C12.9385 404.91 15.4 404.426 17.2462 405.516C20.6923 407.695 20.0769 410.964 18.9692 413.386L12.3231 425.735C11.2154 428.036 11.7077 430.215 13.6769 431.426C14.2923 431.789 14.9077 431.91 15.5231 431.91C16.6308 431.91 17.7385 431.305 18.3539 430.336C18.7231 429.731 18.8462 429.004 18.7231 428.278C18.6 427.552 18.1077 426.946 17.4923 426.583C17 426.341 16.3846 426.462 16.1385 426.946C15.8923 427.43 16.0154 428.036 16.5077 428.278C16.6308 428.399 16.7539 428.52 16.8769 428.762C16.8769 429.004 16.8769 429.126 16.7539 429.368C16.3846 429.973 15.5231 430.215 14.7846 429.731C14.4154 429.489 13.1846 428.641 14.1692 426.583L20.8154 414.233C22.9077 409.874 22.0462 406.121 18.3539 403.821C18.2308 403.7 18.1077 403.7 17.8616 403.578C17.9846 403.457 18.1077 403.457 18.3539 403.336C21.9231 401.157 22.7846 397.404 20.6923 393.045Z" fill="#AA2424"/>
<path fill-rule="evenodd" clip-rule="evenodd" d="M20.6924 326.816L14.1693 314.466C13.1847 312.408 14.4154 311.561 14.7847 311.318C15.4001 310.955 16.2616 311.076 16.7539 311.682C16.877 311.803 16.877 312.045 16.877 312.287C16.877 312.529 16.7539 312.65 16.5078 312.771C16.0154 313.013 15.8924 313.619 16.1385 314.103C16.3847 314.587 17.1231 314.709 17.4924 314.466C18.1078 314.103 18.6001 313.498 18.7231 312.771C18.8462 312.045 18.7231 311.318 18.3539 310.713C17.3693 309.139 15.277 308.655 13.677 309.744C11.7078 310.955 11.2154 313.135 12.3231 315.435L18.8462 327.785C19.9539 330.206 20.6924 333.475 17.1231 335.655C15.277 336.865 12.8154 336.26 11.5847 334.444C10.8462 333.233 11.2154 331.538 12.4462 330.812C13.3078 330.327 14.2924 330.57 14.7847 331.296C15.0308 331.78 14.9078 332.386 14.4154 332.628C13.9231 332.87 13.8001 333.475 14.1693 333.96C14.4154 334.444 15.0308 334.565 15.5231 334.202C16.877 333.354 17.3693 331.538 16.3847 330.085C15.277 328.39 12.9385 327.906 11.2154 328.996C10.1078 329.601 9.36929 330.691 9.12314 331.901C8.87698 333.112 9.12314 334.323 9.73852 335.413C10.3539 336.26 11.0924 336.987 11.9539 337.471C11.0924 337.955 10.3539 338.561 9.73852 339.408C9.12314 340.498 8.87698 341.709 9.12314 342.919C9.36929 344.13 10.1078 345.099 11.2154 345.825C12.9385 346.915 15.277 346.431 16.3847 344.735C17.2462 343.404 16.877 341.466 15.5231 340.619C15.0308 340.377 14.4154 340.498 14.1693 340.861C13.9231 341.345 14.0462 341.951 14.4154 342.193C14.9078 342.435 15.0308 343.161 14.7847 343.525C14.2924 344.251 13.1847 344.493 12.4462 344.009C11.2154 343.283 10.8462 341.587 11.5847 340.377C12.8154 338.561 15.277 338.076 17.1231 339.166C20.5693 341.345 19.9539 344.614 18.8462 347.036L12.2001 359.386C11.0924 361.686 11.5847 363.865 13.5539 365.076C14.1693 365.439 14.7847 365.561 15.4001 365.561C15.6462 365.561 15.8924 365.561 16.1385 365.439C17.0001 365.197 17.7385 364.713 18.2308 363.987C18.6001 363.381 18.7231 362.655 18.6001 361.928C18.477 361.202 17.9847 360.596 17.3693 360.233C16.877 359.991 16.2616 360.112 16.0154 360.475C15.7693 360.96 15.8924 361.565 16.2616 361.807C16.3847 361.928 16.5078 362.049 16.6308 362.291C16.6308 362.534 16.6308 362.655 16.5078 362.897C16.2616 363.26 16.0154 363.381 15.6462 363.502C15.277 363.623 14.9078 363.502 14.5385 363.26C14.1693 363.018 12.9385 362.17 13.9231 360.112L20.5693 347.762C22.6616 343.404 21.8001 339.65 18.1078 337.35C17.9847 337.229 17.8616 337.229 17.7385 337.108C17.8616 336.987 17.9847 336.987 18.2308 336.865C21.9231 334.928 22.7847 331.175 20.6924 326.816Z" fill="#AA2424"/>
<path fill-rule="evenodd" clip-rule="evenodd" d="M16.1385 247.995C16.3847 248.48 17.0001 248.601 17.4924 248.238C18.1078 247.874 18.6001 247.269 18.7231 246.543C18.8462 245.816 18.7231 245.09 18.3539 244.484C17.3693 242.91 15.277 242.426 13.677 243.516C11.7078 244.726 11.2154 246.906 12.3231 249.206L18.8462 261.556C19.9539 263.978 20.6924 267.247 17.1231 269.426C15.277 270.637 12.8154 270.031 11.5847 268.215C10.8462 267.004 11.2154 265.309 12.4462 264.583C13.3078 264.099 14.2924 264.341 14.7847 265.067C15.0308 265.552 14.9078 266.157 14.4154 266.399C13.9231 266.641 13.8001 267.247 14.1693 267.731C14.4154 268.215 15.0308 268.336 15.5231 267.973C16.877 267.126 17.3693 265.309 16.3847 263.856C15.8924 263.009 15.0308 262.404 14.0462 262.282C13.0616 262.04 12.077 262.282 11.2154 262.767C10.1078 263.372 9.36929 264.462 9.12314 265.673C8.87698 266.883 9.12314 268.094 9.73852 269.184C10.3539 270.031 11.0924 270.758 11.9539 271.242C11.0924 271.726 10.3539 272.332 9.73852 273.179C9.12314 274.269 8.87698 275.48 9.12314 276.691C9.36929 277.901 10.1078 278.87 11.2154 279.596C12.9385 280.686 15.277 280.202 16.3847 278.507C17.2462 277.175 16.877 275.238 15.5231 274.39C15.0308 274.148 14.4154 274.269 14.1693 274.632C13.9231 275.117 14.0462 275.722 14.4154 275.964C14.9078 276.206 15.0308 276.933 14.7847 277.296C14.2924 278.143 13.1847 278.265 12.4462 277.78C11.2154 277.054 10.8462 275.359 11.5847 274.148C12.8154 272.332 15.277 271.847 17.1231 272.937C20.5693 275.117 19.9539 278.386 18.8462 280.807L12.2001 293.157C11.0924 295.457 11.5847 297.637 13.5539 298.847C14.1693 299.211 14.7847 299.332 15.4001 299.332C16.5078 299.332 17.6154 298.726 18.2308 297.758C18.6001 297.152 18.7231 296.426 18.6001 295.7C18.477 294.973 17.9847 294.368 17.3693 294.004C16.877 293.762 16.2616 293.883 16.0154 294.368C15.7693 294.852 15.8924 295.457 16.3847 295.7C16.5078 295.821 16.6308 295.942 16.7539 296.184C16.7539 296.426 16.7539 296.547 16.6308 296.789C16.2616 297.395 15.4001 297.637 14.6616 297.152C14.2924 296.91 13.0616 296.063 14.0462 294.004L20.6924 281.897C22.7847 277.538 21.9231 273.785 18.2308 271.484C18.1078 271.363 17.9847 271.363 17.7385 271.242C17.8616 271.121 17.9847 271.121 18.2308 271C21.9231 268.7 22.7847 264.946 20.6924 260.587L14.1693 248.238C13.1847 246.179 14.4154 245.332 14.7847 245.09C15.4001 244.726 16.2616 244.847 16.7539 245.453C16.877 245.574 16.877 245.816 16.877 246.058C16.877 246.3 16.7539 246.421 16.5078 246.543C15.8924 246.906 15.7693 247.511 16.1385 247.995Z" fill="#AA2424"/>
<path fill-rule="evenodd" clip-rule="evenodd" d="M20.6923 194.359L14.1692 182.009C13.1846 179.951 14.4154 179.103 14.7846 178.861C15.4 178.498 16.2616 178.619 16.7539 179.224C16.8769 179.345 16.8769 179.587 16.8769 179.83C16.8769 180.072 16.7539 180.193 16.5077 180.314C16.0154 180.556 15.8923 181.161 16.2616 181.646C16.5077 182.13 17.1231 182.251 17.6154 181.888C18.2308 181.525 18.7231 180.919 18.8462 180.193C18.9692 179.466 18.8462 178.74 18.4769 178.135C17.4923 176.561 15.4 176.076 13.8 177.166C11.8308 178.377 11.3385 180.556 12.4462 182.856L18.9692 195.206C20.0769 197.628 20.8154 200.897 17.2462 203.076C15.4 204.287 12.9385 203.682 11.7077 201.865C10.9692 200.655 11.3385 198.96 12.5692 198.233C13.4308 197.749 14.4154 197.991 14.9077 198.717C15.1539 199.202 15.0308 199.807 14.5385 200.049C14.0462 200.291 13.9231 200.897 14.2923 201.381C14.5385 201.865 15.1539 201.987 15.6462 201.623C17 200.776 17.4923 198.96 16.5077 197.507C15.4 195.812 13.0616 195.327 11.3385 196.417C9.12309 197.749 8.50771 200.655 9.86156 202.834C10.4769 203.682 11.2154 204.408 12.0769 204.892C11.2154 205.377 10.4769 205.982 9.86156 206.83C8.50771 209.009 9.12309 211.794 11.3385 213.247C13.0616 214.336 15.4 213.852 16.5077 212.157C17.3692 210.825 17 208.888 15.6462 208.04C15.1539 207.798 14.5385 207.919 14.2923 208.283C14.0462 208.767 14.1692 209.372 14.5385 209.614C15.0308 209.856 15.1539 210.583 14.9077 210.946C14.4154 211.673 13.3077 211.915 12.5692 211.43C11.3385 210.704 10.9692 209.009 11.7077 207.798C12.9385 205.982 15.4 205.498 17.2462 206.587C20.6923 208.767 20.0769 212.036 18.9692 214.457L12.3231 226.807C11.2154 229.108 11.7077 231.287 13.6769 232.498C14.2923 232.861 14.9077 232.982 15.5231 232.982C15.7692 232.982 16.0154 232.982 16.2616 232.861C17.1231 232.619 17.8616 232.135 18.3539 231.408C18.7231 230.803 18.8462 230.076 18.7231 229.35C18.6 228.623 18.1077 228.018 17.4923 227.655C17 227.413 16.3846 227.534 16.1385 227.897C15.8923 228.381 16.0154 228.987 16.3846 229.229C16.5077 229.35 16.6308 229.471 16.7539 229.713C16.7539 229.955 16.7539 230.076 16.6308 230.318C16.3846 230.682 16.1385 230.803 15.7692 230.924C15.4 231.045 15.0308 230.924 14.6616 230.682C14.2923 230.439 13.0616 229.592 14.0462 227.534L20.6923 215.184C22.7846 210.825 21.9231 207.072 18.2308 204.771C18.1077 204.65 17.9846 204.65 17.7385 204.529C17.8616 204.408 17.9846 204.408 18.2308 204.287C21.9231 202.592 22.7846 198.717 20.6923 194.359Z" fill="#AA2424"/>
<path fill-rule="evenodd" clip-rule="evenodd" d="M20.6923 128.251L14.1693 115.901C13.1846 113.843 14.4154 112.996 14.7846 112.753C15.1539 112.511 15.5231 112.511 15.8923 112.511C16.2616 112.632 16.5077 112.753 16.7539 113.117C16.877 113.238 16.877 113.48 16.877 113.722C16.877 113.964 16.7539 114.085 16.5077 114.206C16.0154 114.449 15.8923 115.054 16.2616 115.538C16.5077 116.022 17.1231 116.144 17.6154 115.78C18.2308 115.417 18.7231 114.812 18.8462 114.085C18.9693 113.359 18.8462 112.632 18.477 112.027C17.9846 111.301 17.2462 110.695 16.3846 110.574C15.5231 110.332 14.5385 110.574 13.8 111.058C11.8308 112.269 11.3385 114.449 12.4462 116.749L18.9693 129.099C20.077 131.52 20.8154 134.789 17.2462 136.969C15.4 138.179 12.9385 137.574 11.7077 135.758C11.3385 135.153 11.2154 134.426 11.3385 133.821C11.4616 133.094 11.9539 132.489 12.5693 132.126C13.4308 131.641 14.4154 131.883 14.9077 132.61C15.1539 133.094 15.0308 133.7 14.5385 133.942C14.0462 134.184 13.9231 134.789 14.2923 135.274C14.5385 135.758 15.1539 135.879 15.6462 135.516C17 134.668 17.4923 132.852 16.5077 131.399C15.4 129.704 13.0616 129.22 11.3385 130.309C10.2308 130.915 9.49234 132.005 9.24618 133.215C9.00003 134.426 9.24618 135.637 9.86157 136.727C10.477 137.574 11.2154 138.301 12.077 138.785C11.2154 139.269 10.477 139.875 9.86157 140.722C9.24618 141.812 9.00003 143.022 9.24618 144.233C9.49234 145.444 10.2308 146.413 11.3385 147.139C13.0616 148.229 15.4 147.744 16.5077 146.049C17.3693 144.718 17 142.78 15.6462 141.933C15.1539 141.691 14.5385 141.812 14.2923 142.175C14.0462 142.659 14.1693 143.265 14.5385 143.507C15.0308 143.749 15.1539 144.475 14.9077 144.839C14.4154 145.686 13.3077 145.807 12.5693 145.323C11.9539 144.96 11.5846 144.354 11.3385 143.628C11.2154 142.901 11.3385 142.296 11.7077 141.691C12.9385 139.875 15.4 139.39 17.2462 140.48C20.6923 142.659 20.077 145.928 18.9693 148.35L12.3231 160.7C11.2154 163 11.7077 165.179 13.677 166.39C14.2923 166.753 14.9077 166.875 15.5231 166.875C16.6308 166.875 17.7385 166.269 18.3539 165.301C18.7231 164.695 18.8462 163.969 18.7231 163.242C18.6 162.516 18.1077 161.91 17.4923 161.547C17 161.305 16.3846 161.426 16.1385 161.789C15.8923 162.274 16.0154 162.879 16.3846 163.121C16.5077 163.242 16.6308 163.363 16.7539 163.605C16.7539 163.848 16.7539 163.969 16.6308 164.211C16.2616 164.816 15.4 165.058 14.6616 164.574C14.2923 164.332 13.0616 163.484 14.0462 161.426L20.6923 149.076C22.7846 144.718 21.9231 140.964 18.2308 138.664C18.1077 138.543 17.9846 138.543 17.8616 138.422C17.9846 138.301 18.1077 138.301 18.3539 138.179C21.9231 136.363 22.7846 132.61 20.6923 128.251Z" fill="#AA2424"/>
<path fill-rule="evenodd" clip-rule="evenodd" d="M20.6924 83.2108C22.7847 78.852 21.9231 75.0986 18.2308 72.7982C18.1077 72.6771 17.9847 72.6771 17.7385 72.556C17.8616 72.435 17.9847 72.435 18.2308 72.3139C21.9231 70.0134 22.7847 66.2601 20.6924 61.9013L14.1693 49.5516C13.1847 47.4933 14.4154 46.6457 14.7847 46.4036C15.1539 46.1614 15.5231 46.1614 15.8924 46.1614C16.2616 46.2825 16.5077 46.4036 16.7539 46.7668C16.877 46.8879 16.877 47.13 16.877 47.3722C16.877 47.6143 16.7539 47.7354 16.5077 47.8565C16.0154 48.0986 15.8924 48.704 16.1385 49.1883C16.3847 49.6726 17.1231 49.7937 17.4924 49.4305C18.1077 49.0673 18.6 48.4619 18.7231 47.7354C18.8462 47.009 18.7231 46.2825 18.3539 45.6771C17.8616 44.9507 17.1231 44.3453 16.2616 44.2242C15.4 43.9821 14.4154 44.2242 13.677 44.7085C11.7077 45.9193 11.2154 48.0986 12.3231 50.3991L18.8462 62.7489C19.9539 65.1704 20.6924 68.4395 17.1231 70.6188C15.277 71.8296 12.8154 71.2242 11.5847 69.4081C10.8462 68.1973 11.2154 66.5022 12.4462 65.7758C13.3077 65.2915 14.2924 65.5336 14.7847 66.2601C15.0308 66.7444 14.9077 67.3498 14.4154 67.5919C13.9231 67.8341 13.8 68.4395 14.1693 68.9238C14.4154 69.4081 15.0308 69.5291 15.5231 69.1659C16.877 68.3184 17.3693 66.5022 16.3847 65.0493C15.277 63.3543 12.9385 62.8699 11.2154 63.9596C9.00005 65.2915 8.38466 68.1973 9.73851 70.3767C10.3539 71.2242 11.0924 71.9507 11.9539 72.435C11.0924 72.9193 10.3539 73.5247 9.73851 74.3722C8.38466 76.5516 9.00005 79.3363 11.2154 80.7892C12.9385 81.8789 15.277 81.3946 16.3847 79.6995C17.2462 78.3677 16.877 76.4305 15.4 75.583C14.9077 75.3408 14.2924 75.4619 14.0462 75.8251C13.8 76.3094 13.9231 76.9148 14.4154 77.1569C14.9077 77.3991 15.0308 78.1256 14.7847 78.4888C14.2924 79.2152 13.1847 79.4574 12.4462 78.9731C11.2154 78.2466 10.8462 76.5516 11.5847 75.3408C12.8154 73.5247 15.277 73.0404 17.1231 74.13C20.5693 76.3094 19.9539 79.5785 18.8462 82L12.2 94.3498C11.0924 96.6502 11.5847 98.8296 13.5539 100.04C14.1693 100.404 14.7847 100.525 15.4 100.525C16.5077 100.525 17.6154 99.9193 18.2308 98.9507C18.6 98.3453 18.7231 97.6188 18.6 96.8924C18.477 96.1659 17.9847 95.5605 17.3693 95.1973C16.877 94.9552 16.2616 95.0762 16.0154 95.4395C15.7693 95.9238 15.8924 96.5291 16.2616 96.7713C16.3847 96.8924 16.5077 97.0134 16.6308 97.2556C16.6308 97.4978 16.6308 97.6188 16.5077 97.861C16.1385 98.4664 15.277 98.7085 14.5385 98.2242C14.1693 97.9821 12.9385 97.1345 13.9231 95.0762L20.6924 83.2108Z" fill="#AA2424"/>
<path fill-rule="evenodd" clip-rule="evenodd" d="M11.4616 14.8027C13.1847 15.8923 15.5231 15.408 16.6308 13.713C17.4924 12.3811 17.1231 10.4439 15.6462 9.59638C15.1539 9.35423 14.5385 9.47531 14.2924 9.83854C14.0462 10.3228 14.1693 10.9282 14.6616 11.1704C15.1539 11.4125 15.277 12.139 15.0308 12.5022C14.5385 13.2287 13.4308 13.4708 12.6924 12.9865C11.4616 12.2601 11.0924 10.565 11.8308 9.35423C13.0616 7.53809 15.5231 7.05378 17.3693 8.14347C20.8154 10.3228 20.2001 13.5919 19.0924 16.0134L12.4462 28.3632C11.3385 30.6636 11.8308 32.843 13.8001 34.0538C14.4154 34.417 15.0308 34.5381 15.6462 34.5381C16.7539 34.5381 17.8616 33.9327 18.477 32.9641C18.8462 32.3587 18.9693 31.6323 18.8462 30.9058C18.7231 30.1793 18.2308 29.574 17.6154 29.2107C17.1231 28.9686 16.5078 29.0897 16.2616 29.4529C16.0154 29.9372 16.1385 30.5426 16.5078 30.7847C16.6308 30.9058 16.7539 31.0269 16.877 31.269C16.877 31.5112 16.877 31.6323 16.7539 31.8744C16.3847 32.4798 15.5231 32.7219 14.7847 32.2376C14.4154 31.9955 13.1847 31.148 14.1693 29.0897L20.8154 16.7399C22.9078 12.3811 22.0462 8.62777 18.3539 6.32732C15.5231 4.63226 11.8308 5.35871 10.1078 8.14347C8.63083 10.565 9.24621 13.4708 11.4616 14.8027Z" fill="#AA2424"/>
<path fill-rule="evenodd" clip-rule="evenodd" d="M3.9873 74.8107L1.4635 72.3279L3.9873 69.8451L6.51111 72.3279L3.9873 74.8107Z" fill="#AA2424"/>
<path fill-rule="evenodd" clip-rule="evenodd" d="M3.99414 141.037L1.47034 138.555L3.99414 136.072L6.51794 138.555L3.99414 141.037Z" fill="#AA2424"/>
<path fill-rule="evenodd" clip-rule="evenodd" d="M4.02026 207.253L1.49646 204.77L4.02026 202.288L6.54407 204.77L4.02026 207.253Z" fill="#AA2424"/>
<path fill-rule="evenodd" clip-rule="evenodd" d="M3.94995 273.389L1.42615 270.906L3.94995 268.423L6.47375 270.906L3.94995 273.389Z" fill="#AA2424"/>
<path fill-rule="evenodd" clip-rule="evenodd" d="M3.9541 339.615L1.4303 337.132L3.9541 334.649L6.4779 337.132L3.9541 339.615Z" fill="#AA2424"/>
<path fill-rule="evenodd" clip-rule="evenodd" d="M3.9812 405.817L1.45704 403.335L3.98084 400.851L6.505 403.334L3.9812 405.817Z" fill="#AA2424"/>
<path fill-rule="evenodd" clip-rule="evenodd" d="M4.00317 472.053L1.47937 469.57L4.00317 467.088L6.52698 469.57L4.00317 472.053Z" fill="#AA2424"/>
<path fill-rule="evenodd" clip-rule="evenodd" d="M3.94653 8.60521L1.42273 6.12244L3.94653 3.63966L6.47034 6.12244L3.94653 8.60521Z" fill="#AA2424"/>
<path fill-rule="evenodd" clip-rule="evenodd" d="M20.4461 39.139L25.6153 26.3049C25.8615 25.5785 27.2153 25.5785 27.5845 26.3049L32.7538 39.139C32.8768 39.3812 32.8768 39.6233 32.7538 39.8655L27.5845 52.6996C27.3384 53.0628 26.9691 53.3049 26.5999 53.3049C26.1076 53.3049 25.7384 53.0628 25.6153 52.6996L20.4461 39.8655C20.323 39.6233 20.323 39.3812 20.4461 39.139ZM22.2922 39.5022L26.4768 49.6726L30.6615 39.5022L26.4768 29.3318L22.2922 39.5022Z" fill="#AA2424"/>
<path fill-rule="evenodd" clip-rule="evenodd" d="M25.6153 92.4126C25.8615 91.6861 27.2153 91.6861 27.4615 92.4126L32.7538 105.247C32.8768 105.489 32.8768 105.731 32.7538 105.973L27.5845 118.807C27.3384 119.17 26.9691 119.413 26.5999 119.413C26.1076 119.413 25.7384 119.17 25.6153 118.807L20.4461 105.973C20.323 105.731 20.323 105.489 20.4461 105.247L25.6153 92.4126ZM22.2922 105.61L26.4768 115.78L30.6615 105.61L26.4768 95.4395L22.2922 105.61Z" fill="#AA2424"/>
<path fill-rule="evenodd" clip-rule="evenodd" d="M25.6153 158.399C25.8615 157.673 27.2153 157.673 27.4615 158.399L32.7538 171.233C32.8768 171.475 32.8768 171.718 32.7538 171.96L27.5845 184.794C27.3384 185.157 26.9691 185.399 26.5999 185.399C26.1076 185.399 25.7384 185.157 25.6153 184.794L20.4461 171.96C20.323 171.718 20.323 171.475 20.4461 171.233L25.6153 158.399ZM22.2922 171.596L26.4768 181.767L30.6615 171.596L26.4768 161.426L22.2922 171.596Z" fill="#AA2424"/>
<path fill-rule="evenodd" clip-rule="evenodd" d="M25.6153 224.507C25.8615 223.78 27.2153 223.78 27.4615 224.507L32.7538 237.341C32.8768 237.583 32.8768 237.825 32.7538 238.067L27.5845 250.901C27.3384 251.265 26.9691 251.507 26.5999 251.507C26.1076 251.507 25.7384 251.265 25.6153 250.901L20.4461 238.067C20.323 237.825 20.323 237.583 20.4461 237.341L25.6153 224.507ZM22.2922 237.704L26.4768 247.874L30.6615 237.704L26.4768 227.534L22.2922 237.704Z" fill="#AA2424"/>
<path fill-rule="evenodd" clip-rule="evenodd" d="M25.6153 290.493C25.8615 289.767 27.2153 289.767 27.4615 290.493L32.7538 303.327C32.8768 303.57 32.8768 303.812 32.7538 304.054L27.5845 316.888C27.3384 317.251 26.9691 317.493 26.5999 317.493C26.1076 317.493 25.7384 317.251 25.6153 316.888L20.4461 304.054C20.323 303.812 20.323 303.57 20.4461 303.327L25.6153 290.493ZM22.2922 303.691L26.4768 313.861L30.6615 303.691L26.4768 293.52L22.2922 303.691Z" fill="#AA2424"/>
<path fill-rule="evenodd" clip-rule="evenodd" d="M25.6153 356.601C25.8615 355.874 27.2153 355.874 27.4615 356.601L32.7538 369.435C32.8768 369.677 32.8768 369.919 32.7538 370.161L27.5845 382.995C27.3384 383.359 26.9691 383.601 26.5999 383.601C26.1076 383.601 25.7384 383.359 25.6153 382.995L20.4461 370.161C20.323 369.919 20.323 369.677 20.4461 369.435L25.6153 356.601ZM22.2922 369.798L26.4768 379.969L30.6615 369.798L26.4768 359.628L22.2922 369.798Z" fill="#AA2424"/>
<path fill-rule="evenodd" clip-rule="evenodd" d="M25.6153 422.587C25.8615 421.861 27.2153 421.861 27.4615 422.587L32.7538 435.421C32.8768 435.664 32.8768 435.906 32.7538 436.148L27.5845 448.982C27.3384 449.345 26.9691 449.587 26.5999 449.587C26.1076 449.587 25.7384 449.345 25.6153 448.982L20.4461 436.148C20.323 435.906 20.323 435.664 20.4461 435.421L25.6153 422.587ZM22.2922 435.785L26.4768 445.955L30.6615 435.785L26.4768 425.614L22.2922 435.785Z" fill="#AA2424"/>
<path fill-rule="evenodd" clip-rule="evenodd" d="M30.7846 71.9507C30.9077 72.0717 31.0307 72.1928 31.0307 72.435C31.0307 72.5561 30.9077 72.7982 30.6615 73.0404L26.9692 76.6726C26.8461 76.7937 26.7231 76.9148 26.4769 76.9148C26.3538 76.9148 26.1077 76.7937 25.9846 76.6726L22.2923 73.0404C22.0461 72.6771 22.0461 72.1928 22.2923 71.9507L25.9846 68.3184C26.3538 68.0762 26.8461 68.0762 27.0923 68.3184L30.7846 71.9507ZM23.8923 72.435L26.4769 74.9776L29.0615 72.435L26.4769 69.8924L23.8923 72.435Z" fill="#AA2424"/>
<path fill-rule="evenodd" clip-rule="evenodd" d="M25.9846 142.78L22.2923 139.148C22.0461 138.785 22.0461 138.3 22.1692 138.179L25.8615 134.547C26.2308 134.305 26.7231 134.305 26.9692 134.547L30.6615 138.179C30.7846 138.3 30.9077 138.422 30.9077 138.664C30.9077 138.785 30.7846 139.027 30.6615 139.148L26.9692 142.78C26.8461 142.901 26.7231 143.022 26.4769 143.022C26.3538 143.022 26.1077 142.901 25.9846 142.78ZM29.0615 138.543L26.4769 136L23.8923 138.543L26.4769 141.085L29.0615 138.543Z" fill="#AA2424"/>
<path fill-rule="evenodd" clip-rule="evenodd" d="M25.9846 209.009L22.2923 205.377C22.0461 205.013 22.0461 204.529 22.1692 204.408L25.8615 200.776C26.2308 200.534 26.7231 200.534 26.9692 200.776L30.6615 204.408C30.7846 204.529 30.9077 204.65 30.9077 204.892C30.9077 205.013 30.7846 205.256 30.6615 205.377L26.9692 209.009C26.8461 209.13 26.7231 209.251 26.4769 209.251C26.3538 209.251 26.1077 209.13 25.9846 209.009ZM29.0615 204.771L26.4769 202.229L23.8923 204.771L26.4769 207.314L29.0615 204.771Z" fill="#AA2424"/>
<path fill-rule="evenodd" clip-rule="evenodd" d="M25.9846 275.117L22.2923 271.484C22.0461 271.242 22.0461 270.758 22.1692 270.516L25.8615 266.883C26.2308 266.641 26.7231 266.641 26.9692 266.883L30.6615 270.516C30.7846 270.637 30.9077 270.758 30.9077 271C30.9077 271.121 30.7846 271.363 30.6615 271.484L26.9692 275.117C26.8461 275.238 26.7231 275.359 26.4769 275.359C26.3538 275.359 26.1077 275.238 25.9846 275.117ZM29.0615 271L26.4769 268.457L23.8923 271L26.4769 273.543L29.0615 271Z" fill="#AA2424"/>
<path fill-rule="evenodd" clip-rule="evenodd" d="M25.9846 341.345L22.2923 337.713C22.0461 337.471 22.0461 336.987 22.1692 336.744L25.8615 333.112C26.2308 332.87 26.7231 332.87 26.9692 333.112L30.6615 336.744C30.7846 336.865 30.9077 336.987 30.9077 337.229C30.9077 337.35 30.7846 337.592 30.6615 337.713L26.9692 341.345C26.8461 341.466 26.7231 341.587 26.4769 341.587C26.3538 341.587 26.1077 341.466 25.9846 341.345ZM29.0615 337.108L26.4769 334.565L23.8923 337.108L26.4769 339.65L29.0615 337.108Z" fill="#AA2424"/>
<path fill-rule="evenodd" clip-rule="evenodd" d="M25.9846 407.574L22.2923 403.942C22.0461 403.7 22.0461 403.215 22.1692 402.973L25.8615 399.341C26.2308 399.099 26.7231 399.099 26.9692 399.341L30.6615 402.973C30.7846 403.094 30.9077 403.215 30.9077 403.457C30.9077 403.578 30.7846 403.821 30.6615 403.942L26.9692 407.574C26.8461 407.695 26.7231 407.816 26.4769 407.816C26.3538 407.816 26.1077 407.695 25.9846 407.574ZM29.0615 403.336L26.4769 400.794L23.8923 403.336L26.4769 405.879L29.0615 403.336Z" fill="#AA2424"/>
<path fill-rule="evenodd" clip-rule="evenodd" d="M26.5413 57.8316L24.8007 56.1193L26.5413 54.407L28.2818 56.1193L26.5413 57.8316Z" fill="#AA2424"/>
<path fill-rule="evenodd" clip-rule="evenodd" d="M26.5176 62.523L24.777 60.8105L26.5178 59.0982L28.2584 60.8107L26.5176 62.523Z" fill="#AA2424"/>
<path fill-rule="evenodd" clip-rule="evenodd" d="M26.5132 67.2899L24.7726 65.5777L26.5132 63.8654L28.2537 65.5777L26.5132 67.2899Z" fill="#AA2424"/>
<path fill-rule="evenodd" clip-rule="evenodd" d="M26.5342 81.0808L24.7936 79.3686L26.5342 77.6563L28.2747 79.3686L26.5342 81.0808Z" fill="#AA2424"/>
<path fill-rule="evenodd" clip-rule="evenodd" d="M26.5095 85.7747L24.769 84.0622L26.5098 82.3499L28.2503 84.0624L26.5095 85.7747Z" fill="#AA2424"/>
<path fill-rule="evenodd" clip-rule="evenodd" d="M26.5405 90.5198L24.8 88.8075L26.5405 87.0953L28.2811 88.8075L26.5405 90.5198Z" fill="#AA2424"/>
<path fill-rule="evenodd" clip-rule="evenodd" d="M26.4966 14.5015L24.756 12.7892L26.4966 11.077L28.2371 12.7892L26.4966 14.5015Z" fill="#AA2424"/>
<path fill-rule="evenodd" clip-rule="evenodd" d="M26.4744 19.2359L24.7338 17.5236L26.4744 15.8113L28.2149 17.5236L26.4744 19.2359Z" fill="#AA2424"/>
<path fill-rule="evenodd" clip-rule="evenodd" d="M26.4524 23.97L24.7118 22.2577L26.4524 20.5455L28.1929 22.2577L26.4524 23.97Z" fill="#AA2424"/>
<path fill-rule="evenodd" clip-rule="evenodd" d="M26.4558 123.975L24.7153 122.263L26.4558 120.551L28.1964 122.263L26.4558 123.975Z" fill="#AA2424"/>
<path fill-rule="evenodd" clip-rule="evenodd" d="M26.4805 128.683L24.7399 126.971L26.4805 125.259L28.221 126.971L26.4805 128.683Z" fill="#AA2424"/>
<path fill-rule="evenodd" clip-rule="evenodd" d="M26.5627 133.493L24.8222 131.781L26.5627 130.069L28.3033 131.781L26.5627 133.493Z" fill="#AA2424"/>
<path fill-rule="evenodd" clip-rule="evenodd" d="M26.4639 147.217L24.7233 145.504L26.4639 143.792L28.2044 145.504L26.4639 147.217Z" fill="#AA2424"/>
<path fill-rule="evenodd" clip-rule="evenodd" d="M26.5459 152.026L24.8053 150.314L26.5459 148.602L28.2865 150.314L26.5459 152.026Z" fill="#AA2424"/>
<path fill-rule="evenodd" clip-rule="evenodd" d="M26.5251 156.723L24.7843 155.011L26.5249 153.299L28.2657 155.011L26.5251 156.723Z" fill="#AA2424"/>
<path fill-rule="evenodd" clip-rule="evenodd" d="M26.4873 190.189L24.7468 188.476L26.4873 186.764L28.2279 188.476L26.4873 190.189Z" fill="#AA2424"/>
<path fill-rule="evenodd" clip-rule="evenodd" d="M26.4956 194.906L24.7553 193.194L26.4961 191.482L28.2364 193.194L26.4956 194.906Z" fill="#AA2424"/>
<path fill-rule="evenodd" clip-rule="evenodd" d="M26.4648 199.642L24.7243 197.93L26.4648 196.218L28.2054 197.93L26.4648 199.642Z" fill="#AA2424"/>
<path fill-rule="evenodd" clip-rule="evenodd" d="M26.4688 213.413L24.7282 211.7L26.469 209.988L28.2096 211.701L26.4688 213.413Z" fill="#AA2424"/>
<path fill-rule="evenodd" clip-rule="evenodd" d="M26.4631 218.138L24.7226 216.425L26.4634 214.713L28.2039 216.425L26.4631 218.138Z" fill="#AA2424"/>
<path fill-rule="evenodd" clip-rule="evenodd" d="M26.4597 222.861L24.7189 221.149L26.4595 219.437L28.2003 221.149L26.4597 222.861Z" fill="#AA2424"/>
<path fill-rule="evenodd" clip-rule="evenodd" d="M26.5037 256.41L24.7631 254.698L26.5037 252.985L28.2442 254.698L26.5037 256.41Z" fill="#AA2424"/>
<path fill-rule="evenodd" clip-rule="evenodd" d="M26.4878 261.138L24.7472 259.426L26.4878 257.714L28.2283 259.426L26.4878 261.138Z" fill="#AA2424"/>
<path fill-rule="evenodd" clip-rule="evenodd" d="M26.4856 265.835L24.745 264.123L26.4858 262.411L28.2264 264.123L26.4856 265.835Z" fill="#AA2424"/>
<path fill-rule="evenodd" clip-rule="evenodd" d="M26.4888 279.638L24.7482 277.925L26.489 276.213L28.2296 277.925L26.4888 279.638Z" fill="#AA2424"/>
<path fill-rule="evenodd" clip-rule="evenodd" d="M26.4844 284.362L24.7438 282.649L26.4846 280.937L28.2252 282.65L26.4844 284.362Z" fill="#AA2424"/>
<path fill-rule="evenodd" clip-rule="evenodd" d="M26.4785 289.086L24.7377 287.374L26.4783 285.662L28.2191 287.374L26.4785 289.086Z" fill="#AA2424"/>
<path fill-rule="evenodd" clip-rule="evenodd" d="M26.5105 322.634L24.7699 320.922L26.5105 319.21L28.2511 320.922L26.5105 322.634Z" fill="#AA2424"/>
<path fill-rule="evenodd" clip-rule="evenodd" d="M26.5254 327.352L24.7848 325.64L26.5254 323.928L28.2659 325.64L26.5254 327.352Z" fill="#AA2424"/>
<path fill-rule="evenodd" clip-rule="evenodd" d="M26.5195 332.077L24.779 330.364L26.5195 328.652L28.2601 330.364L26.5195 332.077Z" fill="#AA2424"/>
<path fill-rule="evenodd" clip-rule="evenodd" d="M26.5227 345.878L24.7824 344.166L26.5232 342.454L28.2635 344.166L26.5227 345.878Z" fill="#AA2424"/>
<path fill-rule="evenodd" clip-rule="evenodd" d="M26.5034 350.587L24.7629 348.874L26.5037 347.162L28.2442 348.874L26.5034 350.587Z" fill="#AA2424"/>
<path fill-rule="evenodd" clip-rule="evenodd" d="M26.4995 355.311L24.7587 353.598L26.4993 351.886L28.2401 353.598L26.4995 355.311Z" fill="#AA2424"/>
<path fill-rule="evenodd" clip-rule="evenodd" d="M26.5361 388.853L24.7956 387.14L26.5361 385.428L28.2767 387.14L26.5361 388.853Z" fill="#AA2424"/>
<path fill-rule="evenodd" clip-rule="evenodd" d="M26.5322 393.576L24.7917 391.864L26.5322 390.152L28.2728 391.864L26.5322 393.576Z" fill="#AA2424"/>
<path fill-rule="evenodd" clip-rule="evenodd" d="M26.5195 398.301L24.779 396.589L26.5195 394.877L28.2601 396.589L26.5195 398.301Z" fill="#AA2424"/>
<path fill-rule="evenodd" clip-rule="evenodd" d="M26.53 412.102L24.7895 410.39L26.53 408.677L28.2706 410.39L26.53 412.102Z" fill="#AA2424"/>
<path fill-rule="evenodd" clip-rule="evenodd" d="M26.5252 416.826L24.7848 415.113L26.5256 413.401L28.266 415.114L26.5252 416.826Z" fill="#AA2424"/>
<path fill-rule="evenodd" clip-rule="evenodd" d="M26.5205 421.549L24.78 419.837L26.5205 418.125L28.2611 419.837L26.5205 421.549Z" fill="#AA2424"/>
<path fill-rule="evenodd" clip-rule="evenodd" d="M26.4663 454.988L24.7258 453.276L26.4663 451.564L28.2069 453.276L26.4663 454.988Z" fill="#AA2424"/>
<path fill-rule="evenodd" clip-rule="evenodd" d="M26.4617 459.712L24.7211 458L26.4617 456.288L28.2022 458L26.4617 459.712Z" fill="#AA2424"/>
<path fill-rule="evenodd" clip-rule="evenodd" d="M26.5439 464.522L24.8034 462.809L26.5439 461.097L28.2845 462.809L26.5439 464.522Z" fill="#AA2424"/>
<path fill-rule="evenodd" clip-rule="evenodd" d="M14.0462 513.153C13.0616 511.094 14.2924 510.247 14.6616 510.005C15.0308 509.762 15.4001 509.762 15.7693 509.762C16.1385 509.884 16.3847 510.005 16.6308 510.368C16.7539 510.489 16.7539 510.731 16.7539 510.973C16.7539 511.215 16.6308 511.336 16.3847 511.458C15.8924 511.7 15.7693 512.305 16.1385 512.789C16.3847 513.274 17.1231 513.395 17.4924 513.032C18.1078 512.668 18.6001 512.063 18.7231 511.336C18.8462 510.61 18.7231 509.884 18.3539 509.278C17.3693 507.704 15.277 507.22 13.677 508.31C11.7078 509.52 11.2154 511.7 12.3231 514L18.8462 526.35C19.9539 528.771 20.6924 532.04 17.1231 534.22C15.277 535.431 12.8154 534.825 11.5847 533.009C10.8462 531.798 11.2154 530.103 12.4462 529.377C13.1847 528.892 14.2924 529.135 14.7847 529.861C15.0308 530.345 14.9078 530.951 14.4154 531.193C13.9231 531.435 13.8001 532.04 14.0462 532.525C14.2924 533.009 15.0308 533.13 15.4001 532.888C16.7539 532.04 17.2462 530.224 16.3847 528.771C15.277 527.076 12.9385 526.592 11.2154 527.682C10.1078 528.287 9.36929 529.377 9.12314 530.588C8.87698 531.798 9.12314 533.009 9.73852 534.099C10.8462 535.915 12.8154 536.762 14.7847 536.762C15.8924 536.762 17.0001 536.52 17.9847 535.794C21.677 533.493 22.5385 529.74 20.4462 525.381L14.0462 513.153Z" fill="#AA2424"/>
<path fill-rule="evenodd" clip-rule="evenodd" d="M4.01855 538.276L1.49475 535.793L4.01855 533.31L6.54236 535.793L4.01855 538.276Z" fill="#AA2424"/>
<path fill-rule="evenodd" clip-rule="evenodd" d="M25.6153 489.785C25.8615 489.058 27.2153 489.058 27.4615 489.785L32.7538 502.619C32.8768 502.861 32.8768 503.103 32.7538 503.345L27.5845 516.179C27.3384 516.543 26.9691 516.785 26.5999 516.785C26.1076 516.785 25.7384 516.543 25.6153 516.179L20.4461 503.345C20.323 503.103 20.323 502.861 20.4461 502.619L25.6153 489.785ZM22.2922 502.982L26.4768 513.152L30.6615 502.982L26.4768 492.812L22.2922 502.982Z" fill="#AA2424"/>
<path fill-rule="evenodd" clip-rule="evenodd" d="M25.9846 531.677C26.3538 531.435 26.8461 531.435 27.0923 531.677L30.6615 535.43C30.7846 535.551 30.9077 535.673 30.9077 535.915C30.9077 536.036 30.7846 536.278 30.6615 536.399L26.9692 540.031C26.8461 540.152 26.7231 540.273 26.4769 540.273C26.3538 540.273 26.1077 540.152 25.9846 540.031L22.2923 536.399C22.0461 536.036 22.0461 535.551 22.2923 535.309L25.9846 531.677ZM23.8923 535.915L26.4769 538.457L29.0615 535.915L26.4769 533.372L23.8923 535.915Z" fill="#AA2424"/>
<path fill-rule="evenodd" clip-rule="evenodd" d="M25.9846 473.803L22.2923 470.17C22.0461 469.807 22.0461 469.323 22.1692 469.202L25.8615 465.57C26.2308 465.327 26.7231 465.327 26.9692 465.57L30.6615 469.202C30.7846 469.323 30.9077 469.444 30.9077 469.686C30.9077 469.807 30.7846 470.049 30.6615 470.17L26.9692 473.803C26.8461 473.924 26.7231 474.045 26.4769 474.045C26.3538 474.045 26.1077 473.924 25.9846 473.803ZM29.0615 469.565L26.4769 467.023L23.8923 469.565L26.4769 472.108L29.0615 469.565Z" fill="#AA2424"/>
<path fill-rule="evenodd" clip-rule="evenodd" d="M26.4827 521.209L24.7421 519.497L26.4827 517.785L28.2232 519.497L26.4827 521.209Z" fill="#AA2424"/>
<path fill-rule="evenodd" clip-rule="evenodd" d="M26.4824 525.924L24.7419 524.212L26.4827 522.5L28.2232 524.212L26.4824 525.924Z" fill="#AA2424"/>
<path fill-rule="evenodd" clip-rule="evenodd" d="M26.469 530.655L24.7284 528.943L26.469 527.231L28.2095 528.943L26.469 530.655Z" fill="#AA2424"/>
<path fill-rule="evenodd" clip-rule="evenodd" d="M26.5137 477.977L24.7734 476.264L26.5142 474.552L28.2545 476.265L26.5137 477.977Z" fill="#AA2424"/>
<path fill-rule="evenodd" clip-rule="evenodd" d="M26.4973 482.699L24.7568 480.986L26.4973 479.274L28.2379 480.986L26.4973 482.699Z" fill="#AA2424"/>
<path fill-rule="evenodd" clip-rule="evenodd" d="M26.5044 487.425L24.7638 485.712L26.5044 484L28.2449 485.712L26.5044 487.425Z" fill="#AA2424"/>
<path fill-rule="evenodd" clip-rule="evenodd" d="M26.4769 10.5649C26.3538 10.5649 26.1077 10.4439 25.9846 10.3228L22.1692 6.81158C21.9231 6.44835 21.9231 5.96404 22.1692 5.72189L25.8615 2.08961C26.2308 1.84745 26.7231 1.84745 26.9692 2.08961L30.6615 5.72189C30.7846 5.84297 30.9077 5.96404 30.9077 6.2062C30.9077 6.32727 30.7846 6.56943 30.6615 6.6905L26.9692 10.3228C26.8462 10.4439 26.7231 10.5649 26.4769 10.5649ZM29.0615 6.08512L26.4769 3.54252L23.8923 6.08512L26.4769 8.62772L29.0615 6.08512Z" fill="#AA2424"/>
</svg>
