<svg width="19" height="19" viewBox="0 0 19 19" fill="none" xmlns="http://www.w3.org/2000/svg">
<path fill-rule="evenodd" clip-rule="evenodd" d="M9.5 8C8.67287 8 8 8.67287 8 9.5C8 10.3271 8.67287 11 9.5 11C10.3271 11 11 10.3271 11 9.5C11 8.67287 10.3271 8 9.5 8Z" fill="#595976"/>
<path fill-rule="evenodd" clip-rule="evenodd" d="M0 9.46289C0 4.24494 4.24494 0 9.46289 0C14.6808 0 19 4.24494 19 9.46289C19 14.6808 14.6808 19 9.46289 19C4.24494 19 0 14.6808 0 9.46289ZM11.6146 11.2962C12.0178 11.869 12.6813 12.2461 13.4336 12.2461C14.6616 12.2461 15.6602 11.2475 15.6602 10.0195C15.6602 5.60853 12.6134 3.33984 9.53711 3.33984C6.16086 3.33984 3.41406 6.08664 3.41406 9.46289C3.41406 12.8391 6.16086 15.5859 9.53711 15.5859C10.8977 15.5859 12.185 15.1494 13.2607 14.3237C13.8418 13.8775 13.1695 12.9927 12.5823 13.4409C11.7033 14.1161 10.6504 14.4727 9.53711 14.4727C6.77458 14.4727 4.52734 12.2254 4.52734 9.46289C4.52734 6.70036 6.77458 4.45312 9.53711 4.45312C12.0816 4.45312 14.5469 6.29408 14.5469 10.0195C14.5469 10.6332 14.0473 11.1328 13.4336 11.1328C12.8199 11.1328 12.3203 10.6332 12.3203 10.0195V7.23633C12.3203 6.92865 12.0713 6.67969 11.7637 6.67969C11.456 6.67969 11.207 6.92865 11.207 7.23633V7.25054C10.7404 6.89733 10.166 6.67969 9.53711 6.67969C8.00253 6.67969 6.75391 7.92831 6.75391 9.46289C6.75391 10.9975 8.00253 12.2461 9.53711 12.2461C10.3667 12.2461 11.1042 11.8739 11.6146 11.2962Z" fill="#595976"/>
</svg>
