<svg width="120" height="121" viewBox="0 0 120 121" fill="none" xmlns="http://www.w3.org/2000/svg">
<g id="005-global copy">
<path id="Shape" fill-rule="evenodd" clip-rule="evenodd" d="M62.3455 120.031C94.347 118.794 120 92.3606 120 60.04C120 51.8683 120 47 117.208 39.4891C116.756 38.2742 115.323 37.7436 114.13 38.2523C112.939 38.761 112.461 40.1094 112.894 41.331C114.91 47.0176 115.006 50.028 115.162 54.9482C115.189 55.7983 115.218 56.7053 115.258 57.693H90.4716C90.2801 47.6443 88.861 38.0236 86.3577 29.5541C90.9643 27.2975 95.2938 24.4394 99.2379 21.0219C101.936 23.7462 104.382 26.7719 106.513 30.0785C107.215 31.167 108.668 31.4804 109.754 30.7776C110.843 30.0761 111.157 28.6235 110.454 27.5338C99.3391 10.2934 80.4778 0 60 0C26.9155 0 0 26.9334 0 60.04C0 92.3606 25.6542 118.794 57.6545 120.031H62.3455ZM37.9862 101.866C40.3437 106.696 43.0542 110.632 46.0164 113.595C37.885 111.467 30.4801 107.529 24.2532 102.239C27.6058 99.3945 31.2522 96.9824 35.1155 95.0331C35.9793 97.4308 36.937 99.7163 37.9862 101.866ZM39.4029 93.096C40.2413 95.4587 41.1749 97.7032 42.2013 99.8067C47.1042 109.854 53.425 115.387 60 115.387C66.575 115.387 72.8958 109.854 77.7987 99.8067C78.8251 97.7032 79.7575 95.4587 80.5971 93.0972C74.1161 90.4958 67.1424 89.1276 59.9988 89.1276C52.8552 89.1276 45.8827 90.4946 39.4029 93.096ZM37.9657 88.6141C35.695 80.7208 34.4036 71.7655 34.2181 62.387H85.7819C85.5964 71.7655 84.3038 80.722 82.0331 88.6141C75.0919 85.8729 67.6339 84.4348 59.9988 84.4348C52.3637 84.4348 44.9081 85.8729 37.9657 88.6141ZM95.7456 102.241C92.393 99.3957 88.7478 96.9836 84.8845 95.0331C84.0195 97.432 83.0618 99.7163 82.0138 101.866C79.6563 106.696 76.9458 110.632 73.9836 113.595C82.1138 111.467 89.5199 107.529 95.7456 102.241ZM99.2114 99.0364C95.2734 95.6298 90.9535 92.7789 86.3577 90.5284C88.861 82.0588 90.2801 72.4369 90.4716 62.387H115.257C114.66 76.6548 108.641 89.5423 99.2114 99.0364ZM37.9657 31.4696C35.695 39.3617 34.4036 48.3158 34.2181 57.6942H85.7819C85.5964 48.3158 84.305 39.3605 82.0343 31.4684C75.0919 34.2108 67.6351 35.6489 59.9988 35.6489C52.3637 35.6489 44.9069 34.2108 37.9657 31.4696ZM60 4.69283C66.575 4.69283 72.8958 10.2271 77.7987 20.2745C78.8251 22.378 79.7587 24.6226 80.5971 26.9853C74.1173 29.5879 67.1436 30.9548 59.9988 30.9548C52.8552 30.9548 45.8827 29.5879 39.4029 26.9865C40.2413 24.6226 41.1749 22.378 42.2013 20.2733C47.1042 10.2271 53.425 4.69283 60 4.69283ZM84.8845 25.0493C88.7598 23.0929 92.4171 20.6723 95.7769 17.8154C89.4561 12.4403 82.015 8.56234 73.9703 6.47329C76.9374 9.4375 79.6527 13.3781 82.0138 18.2156C83.063 20.3649 84.0207 22.6505 84.8845 25.0493ZM37.9862 18.2156C36.937 20.3661 35.9793 22.6517 35.1143 25.0505C31.251 23.1001 27.6046 20.688 24.252 17.8431C30.4788 12.5536 37.885 8.61417 46.0164 6.48655C43.0542 9.44955 40.3437 13.3854 37.9862 18.2156ZM9.85135 62.387H4.74271C5.34021 76.6536 11.3586 89.5411 20.7886 99.0352C24.7254 95.6286 29.0465 92.7777 33.6423 90.5271C31.139 82.0576 29.7199 72.4369 29.5284 62.387H24.7956C23.5006 62.387 22.4501 61.3359 22.4501 60.04C22.4501 58.7442 23.5006 57.6942 24.7956 57.6942H29.5284C29.7199 47.6443 31.139 38.0236 33.6411 29.5565C29.0453 27.3047 24.7242 24.4538 20.7874 21.046C11.3574 30.5402 5.34021 43.4277 4.74271 57.6942H9.85135C11.1463 57.6942 12.1968 58.7442 12.1968 60.04C12.1968 61.3359 11.1463 62.387 9.85135 62.387ZM17.5 62.5C18.8807 62.5 20 61.3807 20 60C20 58.6193 18.8807 57.5 17.5 57.5C16.1193 57.5 15 58.6193 15 60C15 61.3807 16.1193 62.5 17.5 62.5ZM115 34.5C115 35.8807 113.881 37 112.5 37C111.119 37 110 35.8807 110 34.5C110 33.1193 111.119 32 112.5 32C113.881 32 115 33.1193 115 34.5Z" fill="#A81E1E"/>
</g>
</svg>
