<svg width="115" height="119" viewBox="0 0 115 119" fill="none" xmlns="http://www.w3.org/2000/svg">
<g id="shop">
<g id="002-sale">
<path id="Path" fill-rule="evenodd" clip-rule="evenodd" d="M103 89C104.104 89 105 88.1039 105 87C105 85.8961 104.104 85 103 85C101.896 85 101 85.8961 101 87C101 88.1039 101.896 89 103 89Z" fill="#6F7F91"/>
<path id="Shape" fill-rule="evenodd" clip-rule="evenodd" d="M108.262 119H6.73828C3.02258 119 0 115.872 0 112.027V54.8516C0 53.5678 1.00548 52.5273 2.24609 52.5273H32.793V25.5664C32.793 24.2826 33.7984 23.2422 35.0391 23.2422H52.1094C52.1094 10.3891 62.1589 0 74.5703 0C86.9554 0 97.0312 10.4263 97.0312 23.2422H112.754C113.995 23.2422 115 24.2826 115 25.5664V112.027C115 115.872 111.977 119 108.262 119ZM4.49219 103.66V112.027C4.49219 113.309 5.49942 114.352 6.73828 114.352H54.3555C55.5943 114.352 56.6016 113.309 56.6016 112.027V103.66H4.49219ZM108.262 114.352H60.7077C60.9569 113.624 61.0938 112.843 61.0938 112.027V103.66H110.508V112.027C110.508 113.309 109.501 114.352 108.262 114.352ZM92.5391 23.2422C92.5391 12.9893 84.4786 4.64844 74.5703 4.64844C64.634 4.64844 56.6016 12.9666 56.6016 23.2422H92.5391ZM37.2852 27.8906H52.1094V38.582H49.8633C48.6227 38.582 47.6172 39.6225 47.6172 40.9062C47.6172 42.19 48.6227 43.2305 49.8633 43.2305H58.8477C60.0883 43.2305 61.0938 42.19 61.0938 40.9062C61.0938 39.6225 60.0883 38.582 58.8477 38.582H56.6016V27.8906H92.5391V38.582H90.293C89.0524 38.582 88.0469 39.6225 88.0469 40.9062C88.0469 42.19 89.0524 43.2305 90.293 43.2305H99.2773C100.518 43.2305 101.523 42.19 101.523 40.9062C101.523 39.6225 100.518 38.582 99.2773 38.582H97.0312V27.8906H110.508V99.0117H61.0938V54.8516C61.0938 53.5678 60.0883 52.5273 58.8477 52.5273H37.2852V27.8906ZM56.6016 99.0117V57.1758H4.49219V99.0117H56.6016Z" fill="#6F7F91"/>
<path id="Path_2" fill-rule="evenodd" clip-rule="evenodd" d="M17.2857 72.6V77.2C17.2857 84.8241 23.4232 91 31 91C38.5625 91 44.7143 84.8098 44.7143 77.2V72.6C45.9768 72.6 47 71.5704 47 70.3C47 69.0296 45.9768 68 44.7143 68H40.1429C38.8804 68 37.8571 69.0296 37.8571 70.3C37.8571 71.5704 38.8804 72.6 40.1429 72.6V77.2C40.1429 82.2726 36.0411 86.4 31 86.4C25.95 86.4 21.8571 82.2816 21.8571 77.2V72.6C23.1196 72.6 24.1429 71.5704 24.1429 70.3C24.1429 69.0296 23.1196 68 21.8571 68H17.2857C16.0232 68 15 69.0296 15 70.3C15 71.5704 16.0232 72.6 17.2857 72.6Z" fill="#6F7F91"/>
<path id="Path_3" fill-rule="evenodd" clip-rule="evenodd" d="M103 81C104.105 81 105 79.9704 105 78.7V60.3C105 59.0296 104.105 58 103 58C101.895 58 101 59.0296 101 60.3V78.7C101 79.9704 101.895 81 103 81Z" fill="#6F7F91"/>
</g>
</g>
</svg>
