<svg width="118" height="118" viewBox="0 0 118 118" fill="none" xmlns="http://www.w3.org/2000/svg">
<g id="006-brain copy">
<path id="Shape" fill-rule="evenodd" clip-rule="evenodd" d="M116.033 7.86891H110.134C110.134 3.52438 106.612 0.00239081 102.267 0.00239081H96.3676C95.2816 0.00239081 94.4011 0.882949 94.4011 1.96902V9.83554H58.8257C57.7485 3.4172 51.6722 -0.912829 45.2541 0.164392C40.257 1.00316 36.3553 4.94256 35.565 9.94764C28.3732 10.7901 22.6827 16.4279 21.7734 23.6118C21.7508 23.6118 21.7282 23.6093 21.7055 23.6069L21.7055 23.6069C21.6829 23.6044 21.6603 23.6019 21.6377 23.6019C12.9489 23.6 5.90335 30.6422 5.90138 39.3313C5.90089 40.984 6.16097 42.6266 6.67204 44.1985C-0.424606 49.1915 -2.12987 58.9919 2.86277 66.0888C4.21898 68.0163 5.99111 69.6139 8.04864 70.7637C3.66883 78.2418 6.18015 87.8544 13.6578 92.2346C15.5374 93.3354 17.6254 94.0328 19.7891 94.2826C20.7331 102.194 27.4364 108.154 35.4037 108.167C35.4335 108.167 35.4632 108.164 35.4927 108.161C35.5217 108.158 35.5505 108.155 35.5788 108.155C36.6508 114.575 42.7233 118.909 49.1425 117.837C53.3741 117.13 56.8874 114.18 58.3144 110.134H116.033C117.119 110.134 118 109.253 118 108.167V9.83554C118 8.74922 117.119 7.86891 116.033 7.86891ZM55.0693 11.8024V48.9911C48.6451 47.8983 44.3229 41.8045 45.4153 35.3801C45.9913 31.9931 48.0149 29.0254 50.9574 27.252L48.9279 23.8851C42.1828 27.9371 39.4728 36.3521 42.5857 43.579C37.2371 44.8175 33.4465 49.5777 33.4372 55.068H37.3703C37.3811 50.9005 40.6447 47.467 44.8059 47.2448C47.3591 50.4066 51.0375 52.4571 55.0695 52.9657V74.7343H51.1364C50.4771 74.7383 49.8192 74.7975 49.1698 74.9113V74.7343C49.1634 69.3064 44.7646 64.9076 39.3369 64.9012V68.8344C42.5953 68.8344 45.2366 71.4759 45.2366 74.7343V76.3312C41.5908 78.4362 39.3425 82.3243 39.3369 86.5341H43.27C43.27 82.1896 46.7919 78.6676 51.1364 78.6676H55.0695V106.2C55.0695 110.545 51.5476 114.067 47.2032 114.067C42.8588 114.067 39.3369 110.545 39.3369 106.2C39.3369 103.724 40.5026 101.393 42.4834 99.9072L40.1235 96.7606C37.7049 98.5676 36.0797 101.241 35.5886 104.22C35.5581 104.22 35.5276 104.223 35.4972 104.227L35.4969 104.227C35.4665 104.23 35.4361 104.234 35.4057 104.234C29.5942 104.227 24.6527 99.99 23.7596 94.2472C24.5632 94.143 25.3577 93.9761 26.1353 93.7477L25.0104 89.9777C18.764 91.8354 12.1944 88.2777 10.3368 82.0312C8.47907 75.7847 12.0366 69.215 18.283 67.3572C21.0708 66.5281 24.0667 66.7579 26.6955 68.0025L28.3828 64.4508C22.3589 61.5916 15.1866 62.8431 10.4869 67.5738C4.65556 64.6893 2.26666 57.6234 5.15138 51.7919C7.14229 47.7672 11.2478 45.2243 15.7377 45.2349V41.3016C13.8562 41.3053 11.9909 41.6485 10.2313 42.3144C8.56192 36.0399 12.295 29.5999 18.5696 27.9303C19.5703 27.664 20.6018 27.531 21.6374 27.5352H21.7633C22.3417 32.2662 25.047 36.4748 29.1104 38.9653L31.1773 35.622C25.6316 32.1998 23.9098 24.9297 27.3319 19.3838C29.1512 16.4351 32.1749 14.4352 35.6001 13.9143C36.0709 16.4926 37.3853 18.8415 39.3366 20.591L41.962 17.6608C38.7223 14.7661 38.4423 9.79326 41.3369 6.55348C44.2315 3.3137 49.2042 3.0337 52.4439 5.92834C54.1162 7.42248 55.0715 9.55947 55.0693 11.8024ZM102.267 3.93565H98.3342V86.5341H102.267C103.649 86.5319 105.006 86.8964 106.201 87.5902V7.86891C106.201 5.69652 104.44 3.93565 102.267 3.93565ZM59.0027 13.7688H94.4011V88.5007C94.4011 89.5868 95.2816 90.4674 96.3676 90.4674H102.267C104.44 90.4674 106.201 92.2282 106.201 94.4006C106.201 96.573 104.44 98.3339 102.267 98.3339H59.0027V13.7688ZM59.0027 106.2H114.067V11.8022H110.134V94.4006C110.134 98.7451 106.612 102.267 102.267 102.267H59.0027V106.2Z" fill="#A81E1E"/>
<rect id="Rectangle" x="69" y="20" width="4" height="4" fill="#A81E1E"/>
<rect id="Rectangle_2" x="76" y="20" width="12" height="4" fill="#A81E1E"/>
<rect id="Rectangle_3" x="64" y="27" width="24" height="4" fill="#A81E1E"/>
<rect id="Rectangle_4" x="64" y="36" width="24" height="4" fill="#A81E1E"/>
<rect id="Rectangle_5" x="65" y="43" width="15" height="4" fill="#A81E1E"/>
<rect id="Rectangle_6" x="69" y="64" width="4" height="4" fill="#A81E1E"/>
<rect id="Rectangle_7" x="76" y="64" width="12" height="4" fill="#A81E1E"/>
<rect id="Rectangle_8" x="64" y="72" width="24" height="4" fill="#A81E1E"/>
<rect id="Rectangle_9" x="64" y="81" width="24" height="4" fill="#A81E1E"/>
<rect id="Rectangle_10" x="65" y="88" width="15" height="4" fill="#A81E1E"/>
<rect id="Rectangle_11" x="74" y="114" width="30" height="4" fill="#A81E1E"/>
<rect id="Rectangle_12" x="108" y="114" width="4" height="4" fill="#A81E1E"/>
</g>
</svg>
