<svg width="132" height="122" viewBox="0 0 132 122" fill="none" xmlns="http://www.w3.org/2000/svg">
<g id="faq copy">
<path id="Combined Shape" fill-rule="evenodd" clip-rule="evenodd" d="M87.2131 0H112.879C123.422 0 131.999 8.6754 132 19.3388V63.243C132 73.9067 123.423 82.5818 112.88 82.5818H108.521V87.7652C108.521 98.4288 99.9438 107.104 89.4009 107.104H51.6772V119.387C51.6772 120.442 51.0494 121.394 50.086 121.799C49.7653 121.934 49.428 122 49.0937 122C48.4239 122 47.7654 121.737 47.2717 121.241L33.2058 107.104H19.1203C8.57711 107.104 0 98.4286 0 87.7652V41.2505C0 30.5868 8.57711 21.9117 19.1203 21.9117H23.4788V19.3388C23.4788 8.67513 32.0562 0 42.5991 0H67.2314C68.6582 0 69.8152 1.17028 69.8152 2.61331C69.8152 4.05634 68.6582 5.22662 67.2314 5.22662H42.5991C34.9058 5.22662 28.6464 11.5575 28.6464 19.3388V63.243C28.6464 71.0243 34.9058 77.3552 42.5991 77.3552H82.9066C84.3333 77.3552 85.4904 78.5255 85.4904 79.9685V88.5837L95.9067 78.1145C96.3912 77.6282 97.0455 77.3552 97.7282 77.3552H112.879C120.572 77.3552 126.832 71.0243 126.832 63.243V19.3388C126.832 11.5575 120.572 5.22662 112.879 5.22662H87.2131C85.7863 5.22662 84.6293 4.05634 84.6293 2.61331C84.6293 1.17028 85.7863 0 87.2131 0ZM89.4001 101.877C97.0934 101.877 103.353 95.5464 103.353 87.7652H103.353V82.5818H98.7942L84.7283 96.7185C84.2343 97.2145 83.5761 97.4779 82.9063 97.4779C82.572 97.4779 82.235 97.4122 81.914 97.2771C80.9506 96.8721 80.3228 95.9201 80.3228 94.8645V82.5818H42.5991C32.056 82.5818 23.4788 73.9064 23.4788 63.243V27.1383H19.1206C11.4272 27.1383 5.16782 33.4692 5.16782 41.2505V87.7649C5.16782 93.0844 8.09372 97.7245 12.4025 100.129V86.2356C12.4025 84.7925 13.5596 83.6223 14.9863 83.6223C16.413 83.6223 17.5701 84.7925 17.5701 86.2356V101.788C18.0793 101.846 18.5962 101.877 19.1203 101.877H34.2711C34.9538 101.877 35.6083 102.15 36.0925 102.637L46.5088 113.106V104.491C46.5088 103.048 47.6659 101.877 49.0926 101.877H89.4001ZM79.3776 0.769212C78.9288 0.280857 78.3079 0 77.6707 0C77.0357 0 76.4129 0.280595 75.9636 0.769212C75.5144 1.25783 75.2561 1.93508 75.2561 2.6257C75.2561 3.31631 75.5141 3.99383 75.9636 4.48192C76.4127 4.97316 77.0357 5.25166 77.6707 5.25166C78.3058 5.25166 78.9288 4.97316 79.3776 4.48192C79.8266 3.99383 80.0854 3.31631 80.0854 2.6257C80.0851 1.93508 79.8269 1.25757 79.3776 0.769212ZM14.8902 73.9272C15.5253 73.9272 16.1484 74.208 16.5975 74.6967C17.0466 75.1848 17.3051 75.8623 17.3049 76.553C17.3049 77.2436 17.0464 77.9212 16.5975 78.4096C16.1484 78.8982 15.5253 79.1788 14.8902 79.1788C14.2551 79.1788 13.6321 78.8979 13.183 78.4096C12.7339 77.9212 12.4756 77.2436 12.4756 76.553C12.4756 75.8623 12.7341 75.1848 13.183 74.6967C13.6323 74.208 14.2551 73.9272 14.8902 73.9272ZM86.2187 41.6313L80.9477 46.9225C80.5015 47.3703 80.2508 47.9776 80.2508 48.611V51.4094C80.2508 52.7261 79.1837 53.7973 77.8719 53.7973C76.5602 53.7973 75.4931 52.7261 75.4931 51.4094V48.611C75.4931 46.6985 76.2358 44.8997 77.5841 43.5462L82.8572 38.253C84.2446 36.8569 85.0085 35.0034 85.0085 33.0335V32.5252C85.0085 28.4542 81.7092 25.1422 77.6537 25.1422C73.839 25.1422 70.7354 28.2575 70.7354 32.0867C70.7354 33.4035 69.6682 34.4747 68.3565 34.4747C67.0448 34.4747 65.9777 33.4035 65.9777 32.0867C65.9777 25.6241 71.2156 20.3663 77.6537 20.3663C83.8388 20.3663 89.7662 25.1463 89.7662 33.0335C89.7662 36.2814 88.5064 39.3349 86.2187 41.6313ZM75.4931 61.8484C75.4931 63.1651 76.5602 64.2363 77.8719 64.2363C79.1837 64.2363 80.2508 63.1651 80.2508 61.8484C80.2508 60.5317 79.1837 59.4605 77.8719 59.4605C76.5602 59.4605 75.4931 60.5317 75.4931 61.8484Z" fill="#A81E1E"/>
</g>
</svg>
