<svg width="328" height="302" viewBox="0 0 328 302" fill="none" xmlns="http://www.w3.org/2000/svg">
<path opacity="0.257975" fill-rule="evenodd" clip-rule="evenodd" d="M216.711 0H280.487C306.685 0 327.998 21.4752 328 47.8715V156.552C328 182.949 306.687 204.424 280.489 204.424H269.659V217.255C269.659 243.652 248.345 265.126 222.148 265.126H128.41V295.531C128.41 298.143 126.85 300.5 124.456 301.503C123.659 301.837 122.821 302 121.99 302C120.326 302 118.69 301.348 117.463 300.12L82.5114 265.126H47.511C21.3128 265.126 0 243.651 0 217.255V102.112C0 75.715 21.3128 54.2404 47.511 54.2404H58.3414V47.8715C58.3414 21.4745 79.6548 0 105.852 0H167.06C170.605 0 173.48 2.89692 173.48 6.46901C173.48 10.0411 170.605 12.938 167.06 12.938H105.852C86.7356 12.938 71.182 28.6097 71.182 47.8715V156.552C71.182 175.814 86.7356 191.486 105.852 191.486H206.01C209.556 191.486 212.431 194.383 212.431 197.955V219.281L238.314 193.366C239.517 192.162 241.143 191.486 242.84 191.486H280.487C299.604 191.486 315.157 175.814 315.157 156.552V47.8715C315.157 28.6097 299.604 12.938 280.487 12.938H216.711C213.166 12.938 210.291 10.0411 210.291 6.46901C210.291 2.89692 213.166 0 216.711 0ZM222.146 252.188C241.262 252.188 256.816 236.517 256.816 217.255H256.817V204.424H245.489L210.537 239.418C209.31 240.646 207.674 241.298 206.01 241.298C205.179 241.298 204.342 241.135 203.544 240.801C201.15 239.798 199.59 237.442 199.59 234.829V204.424H105.852C79.6542 204.424 58.3414 182.949 58.3414 156.552V67.1785H47.5117C28.3949 67.1785 12.8413 82.8501 12.8413 102.112V217.254C12.8413 230.422 20.1117 241.908 30.8184 247.86V213.468C30.8184 209.896 33.6935 206.999 37.2387 206.999C40.7839 206.999 43.659 209.896 43.659 213.468V251.967C44.9242 252.109 46.2087 252.188 47.511 252.188H85.1584C86.8548 252.188 88.4813 252.864 89.6844 254.068L115.567 279.983V258.657C115.567 255.085 118.443 252.188 121.988 252.188H222.146ZM197.241 1.90412C196.126 0.695236 194.583 0 193 0C191.422 0 189.875 0.694587 188.758 1.90412C187.642 3.11364 187 4.79012 187 6.49968C187 8.20923 187.641 9.88636 188.758 11.0946C189.874 12.3106 191.422 13 193 13C194.578 13 196.126 12.3106 197.241 11.0946C198.357 9.88636 199 8.20923 199 6.49968C198.999 4.79012 198.358 3.113 197.241 1.90412ZM37 183C38.5781 183 40.1263 183.695 41.2423 184.905C42.3582 186.113 43.0006 187.79 43 189.5C43 191.21 42.3576 192.887 41.2423 194.096C40.1263 195.305 38.5781 196 37 196C35.4219 196 33.8737 195.305 32.7577 194.096C31.6418 192.887 31 191.21 31 189.5C31 187.79 31.6424 186.113 32.7577 184.905C33.8743 183.695 35.4219 183 37 183ZM162 73.0869C162 55.9455 175.946 42 193.087 42C209.738 42 225 55.0341 225 74.871C225 83.3958 221.681 91.41 215.653 97.4373L207 106.09V109.5C207 116.944 200.944 123 193.5 123C186.056 123 180 116.944 180 109.5V104.227C180 98.2185 182.341 92.5686 186.592 88.3179L196.563 78.3468C197.488 77.4189 198 76.1832 198 74.871V73.9131C198 71.2041 195.796 69 193.087 69C190.833 69 189 70.8333 189 73.0869C189 80.5308 182.944 86.5869 175.5 86.5869C168.056 86.5869 162 80.5308 162 73.0869ZM199.318 101.044L209.289 91.0734C213.617 86.7459 216 80.9916 216 74.871C216 60.0078 204.787 51 193.087 51C180.908 51 171 60.9081 171 73.0869C171 75.5682 173.019 77.5869 175.5 77.5869C177.981 77.5869 180 75.5682 180 73.0869C180 65.8707 185.871 60 193.087 60C200.759 60 207 66.2415 207 73.9131V74.871C207 78.5832 205.555 82.0761 202.93 84.7071L192.956 94.6821C190.405 97.2327 189 100.622 189 104.227V109.5C189 111.981 191.019 114 193.5 114C195.981 114 198 111.981 198 109.5V104.227C198 103.033 198.474 101.888 199.318 101.044ZM193.5 133C186.056 133 180 139.056 180 146.5C180 153.944 186.056 160 193.5 160C200.944 160 207 153.944 207 146.5C207 139.056 200.944 133 193.5 133ZM193.5 151C191.019 151 189 148.981 189 146.5C189 144.019 191.019 142 193.5 142C195.981 142 198 144.019 198 146.5C198 148.981 195.981 151 193.5 151Z" fill="url(#paint0_linear)"/>
<defs>
<linearGradient id="paint0_linear" x1="164" y1="-135.521" x2="-103.744" y2="188.487" gradientUnits="userSpaceOnUse">
<stop stop-color="#FBC400"/>
<stop offset="1" stop-color="#CB4523"/>
</linearGradient>
</defs>
</svg>
