<svg width="40" height="40" viewBox="0 0 40 40" fill="none" xmlns="http://www.w3.org/2000/svg">
<g id="015-kyrgyzstan">
<path id="Oval" fill-rule="evenodd" clip-rule="evenodd" d="M20 40C31.0457 40 40 31.0457 40 20C40 8.9543 31.0457 0 20 0C8.9543 0 0 8.9543 0 20C0 31.0457 8.9543 40 20 40Z" fill="#D80027"/>
<path id="Path" fill-rule="evenodd" clip-rule="evenodd" d="M29.7808 20.0001L25.7843 21.8799L27.9125 25.7508L23.5724 24.9204L23.0227 29.3044L19.9997 26.0802L16.9769 29.3044L16.427 24.9204L12.0873 25.7506L14.2154 21.8797L10.2188 20.0001L14.2154 18.1203L12.0873 14.2494L16.4268 15.0798L16.977 10.6957L19.9997 13.92L23.0229 10.6957L23.5724 15.0798L27.9127 14.2494L25.7844 18.1205L29.7808 20.0001Z" fill="#FFDA44"/>
<path id="Oval_2" fill-rule="evenodd" clip-rule="evenodd" d="M20 26.087C23.3618 26.087 26.087 23.3618 26.087 20C26.087 16.6383 23.3618 13.9131 20 13.9131C16.6383 13.9131 13.9131 16.6383 13.9131 20C13.9131 23.3618 16.6383 26.087 20 26.087Z" fill="#D80027"/>
<g id="Group">
<path id="Path_2" fill-rule="evenodd" clip-rule="evenodd" d="M16.9563 20C16.8096 20 16.6649 20.0075 16.522 20.0217C16.5272 20.8648 16.8322 21.6364 17.336 22.2359C17.6047 21.5127 18.006 20.8532 18.512 20.2888C18.0287 20.103 17.5044 20 16.9563 20Z" fill="#FFDA44"/>
<path id="Path_3" fill-rule="evenodd" clip-rule="evenodd" d="M18.8301 23.276C19.1957 23.4067 19.5894 23.4783 20 23.4783C20.4106 23.4783 20.8043 23.4067 21.1699 23.276C20.9706 22.4939 20.5591 21.7956 20 21.2468C19.4409 21.7955 19.0294 22.4939 18.8301 23.276Z" fill="#FFDA44"/>
<path id="Path_4" fill-rule="evenodd" clip-rule="evenodd" d="M23.012 18.2614C22.4106 17.2219 21.2874 16.5217 19.9999 16.5217C18.7124 16.5217 17.5892 17.2218 16.9878 18.2614C18.0842 18.267 19.1123 18.5651 19.9999 19.0799C20.8875 18.5651 21.9154 18.267 23.012 18.2614Z" fill="#FFDA44"/>
<path id="Path_5" fill-rule="evenodd" clip-rule="evenodd" d="M21.4878 20.289C21.9938 20.8532 22.3951 21.5127 22.6638 22.236C23.1676 21.6365 23.4726 20.8649 23.4778 20.0218C23.3348 20.0075 23.1901 20.0001 23.0435 20.0001C22.4955 20 21.9712 20.103 21.4878 20.289Z" fill="#FFDA44"/>
</g>
</g>
</svg>
