<svg width="40" height="40" viewBox="0 0 40 40" fill="none" xmlns="http://www.w3.org/2000/svg">
<g id="013-uk">
<path id="Oval" fill-rule="evenodd" clip-rule="evenodd" d="M20 40C31.0457 40 40 31.0457 40 20C40 8.9543 31.0457 0 20 0C8.9543 0 0 8.9543 0 20C0 31.0457 8.9543 40 20 40Z" fill="#F0F0F0"/>
<g id="Group">
<path id="Path" fill-rule="evenodd" clip-rule="evenodd" d="M4.13436 7.82361C2.56334 9.86759 1.37873 12.2235 0.688965 14.7827H11.0935L4.13436 7.82361Z" fill="#0052B4"/>
<path id="Path_2" fill-rule="evenodd" clip-rule="evenodd" d="M39.3111 14.7828C38.6213 12.2236 37.4367 9.86771 35.8657 7.82373L28.9067 14.7828H39.3111Z" fill="#0052B4"/>
<path id="Path_3" fill-rule="evenodd" clip-rule="evenodd" d="M0.688965 25.2175C1.37881 27.7767 2.56342 30.1326 4.13436 32.1765L11.0933 25.2175H0.688965Z" fill="#0052B4"/>
<path id="Path_4" fill-rule="evenodd" clip-rule="evenodd" d="M32.1763 4.13443C30.1324 2.56342 27.7766 1.37881 25.2173 0.688965V11.0934L32.1763 4.13443Z" fill="#0052B4"/>
<path id="Path_5" fill-rule="evenodd" clip-rule="evenodd" d="M7.82373 35.8655C9.86771 37.4365 12.2236 38.6211 14.7828 39.311V28.9066L7.82373 35.8655Z" fill="#0052B4"/>
<path id="Path_6" fill-rule="evenodd" clip-rule="evenodd" d="M14.7827 0.688965C12.2235 1.37881 9.86764 2.56342 7.82373 4.13436L14.7827 11.0933V0.688965Z" fill="#0052B4"/>
<path id="Path_7" fill-rule="evenodd" clip-rule="evenodd" d="M25.2173 39.311C27.7765 38.6211 30.1324 37.4365 32.1763 35.8656L25.2173 28.9066V39.311Z" fill="#0052B4"/>
<path id="Path_8" fill-rule="evenodd" clip-rule="evenodd" d="M28.9067 25.2175L35.8657 32.1766C37.4367 30.1327 38.6213 27.7767 39.3111 25.2175H28.9067Z" fill="#0052B4"/>
</g>
<g id="Group_2">
<path id="Path_9" fill-rule="evenodd" clip-rule="evenodd" d="M39.8307 17.3913H22.6088H22.6087V0.169297C21.7548 0.058125 20.8841 0 20 0C19.1157 0 18.2452 0.058125 17.3913 0.169297V17.3912V17.3913H0.169297C0.058125 18.2452 0 19.1159 0 20C0 20.8843 0.058125 21.7548 0.169297 22.6087H17.3912H17.3913V39.8307C18.2452 39.9419 19.1157 40 20 40C20.8841 40 21.7548 39.942 22.6087 39.8307V22.6088V22.6087H39.8307C39.9419 21.7548 40 20.8843 40 20C40 19.1159 39.9419 18.2452 39.8307 17.3913Z" fill="#D80027"/>
<path id="Path_10" fill-rule="evenodd" clip-rule="evenodd" d="M25.2173 25.2175L34.142 34.1422C34.5524 33.7319 34.944 33.3029 35.3176 32.8582L27.6768 25.2174H25.2173V25.2175Z" fill="#D80027"/>
<path id="Path_11" fill-rule="evenodd" clip-rule="evenodd" d="M14.7827 25.2175H14.7825L5.85791 34.1421C6.26822 34.5526 6.69721 34.9442 7.14189 35.3178L14.7827 27.6768V25.2175Z" fill="#D80027"/>
<path id="Path_12" fill-rule="evenodd" clip-rule="evenodd" d="M14.7824 14.7827V14.7826L5.85775 5.85779C5.44729 6.2681 5.05572 6.69709 4.68213 7.14177L12.323 14.7826H14.7824V14.7827Z" fill="#D80027"/>
<path id="Path_13" fill-rule="evenodd" clip-rule="evenodd" d="M25.2173 14.7828L34.1421 5.85792C33.7317 5.44745 33.3028 5.05589 32.8581 4.68237L25.2173 12.3232V14.7828H25.2173Z" fill="#D80027"/>
</g>
</g>
</svg>
