<svg width="41" height="40" viewBox="0 0 41 40" fill="none" xmlns="http://www.w3.org/2000/svg">
<g id="003-czech-republic">
<path id="Oval" fill-rule="evenodd" clip-rule="evenodd" d="M20.0391 39.922C31.0633 39.922 40.0002 30.9852 40.0002 19.961C40.0002 8.93685 31.0633 0 20.0391 0C9.01498 0 0.078125 8.93685 0.078125 19.961C0.078125 30.9852 9.01498 39.922 20.0391 39.922Z" fill="#F0F0F0"/>
<path id="Path" fill-rule="evenodd" clip-rule="evenodd" d="M18.3032 19.9611C18.3032 19.9611 5.93601 34.0784 5.92432 34.0756C9.53648 37.6878 14.5268 39.9221 20.0389 39.9221C31.063 39.9221 40 30.9852 40 19.9611H18.3032Z" fill="#D80027"/>
<path id="Path_2" fill-rule="evenodd" clip-rule="evenodd" d="M5.92456 5.84644C-1.87069 13.6417 -1.87069 26.2804 5.92456 34.0757C9.14584 30.8544 12.2439 27.7563 20.0392 19.9611L5.92456 5.84644Z" fill="#0052B4"/>
</g>
</svg>
