<svg width="40" height="40" viewBox="0 0 40 40" fill="none" xmlns="http://www.w3.org/2000/svg">
<g id="010-romania">
<path id="Path" fill-rule="evenodd" clip-rule="evenodd" d="M26.9563 1.24391C24.7896 0.440078 22.4462 0 19.9998 0C17.5534 -7.8125e-05 15.21 0.440078 13.0433 1.24391L11.3042 19.9999L13.0433 38.7559C15.2099 39.56 17.5533 40 19.9998 40C22.4462 40 24.7897 39.56 26.9563 38.7559L28.6954 20L26.9563 1.24391Z" fill="#FFDA44"/>
<path id="Path_2" fill-rule="evenodd" clip-rule="evenodd" d="M40.0001 20C40.0001 11.4008 34.5726 4.0698 26.9565 1.24402V38.7562C34.5726 35.9301 40 28.5994 40.0001 20Z" fill="#D80027"/>
<path id="Path_3" fill-rule="evenodd" clip-rule="evenodd" d="M0 19.9999C0 28.5993 5.4275 35.93 13.0434 38.7561L13.0434 1.24402C5.4275 4.0698 0 11.4006 0 19.9999Z" fill="#0052B4"/>
</g>
</svg>
