<svg width="40" height="40" viewBox="0 0 40 40" fill="none" xmlns="http://www.w3.org/2000/svg">
<g id="017-greece">
<path id="Oval" fill-rule="evenodd" clip-rule="evenodd" d="M20 40C31.0457 40 40 31.0457 40 20C40 8.9543 31.0457 0 20 0C8.9543 0 0 8.9543 0 20C0 31.0457 8.9543 40 20 40Z" fill="#F0F0F0"/>
<g id="Group">
<path id="Path" fill-rule="evenodd" clip-rule="evenodd" d="M20 14.7826H39.311C38.8095 12.9221 38.0473 11.1689 37.0645 9.56519H20V14.7826Z" fill="#338AF3"/>
<path id="Path_2" fill-rule="evenodd" clip-rule="evenodd" d="M7.55031 35.6522H32.4498C34.275 34.1985 35.8403 32.4327 37.0645 30.4348H2.93555C4.15984 32.4326 5.72516 34.1985 7.55031 35.6522Z" fill="#338AF3"/>
<path id="Path_3" fill-rule="evenodd" clip-rule="evenodd" d="M6.95656 4.83899C5.38422 6.19297 4.02492 7.78743 2.93555 9.56524H6.95656V4.83899Z" fill="#338AF3"/>
<path id="Path_4" fill-rule="evenodd" clip-rule="evenodd" d="M20 20C20 17.9628 20 16.2579 20 14.7826H12.1739V20H6.95648V14.7826H0.688984C0.240625 16.4462 0 18.1948 0 20C0 21.8052 0.240625 23.5538 0.688984 25.2174H39.3111C39.7594 23.5538 40 21.8052 40 20H20Z" fill="#338AF3"/>
<path id="Path_5" fill-rule="evenodd" clip-rule="evenodd" d="M19.9999 0C17.2227 0 14.5777 0.566641 12.1738 1.58969V9.56523H19.9999C19.9999 7.74398 19.9999 6.195 19.9999 4.34781H32.4497C29.0332 1.62688 24.7069 0 19.9999 0Z" fill="#338AF3"/>
</g>
</g>
</svg>
