<svg width="40" height="40" viewBox="0 0 40 40" fill="none" xmlns="http://www.w3.org/2000/svg">
<g id="019-uzbekistan">
<path id="Path" fill-rule="evenodd" clip-rule="evenodd" d="M0.942534 13.886C0.331072 15.8016 -7.79589e-05 17.8424 1.37665e-08 19.9608C-7.79589e-05 22.0794 0.33115 24.1203 0.942612 26.0359L19.961 26.9039L38.9794 26.0361C39.5908 24.1204 39.9221 22.0794 39.9221 19.961C39.922 17.8425 39.5909 15.8016 38.9794 13.8859L19.961 13.0181L0.942534 13.886Z" fill="#F0F0F0"/>
<g id="Group">
<path id="Path_2" fill-rule="evenodd" clip-rule="evenodd" d="M38.9795 13.886L19.9611 13.0182L0.942602 13.886C0.761393 14.454 0.60537 15.0331 0.474609 15.6218H39.4472C39.3166 15.033 39.1607 14.4538 38.9795 13.886Z" fill="#D80027"/>
<path id="Path_3" fill-rule="evenodd" clip-rule="evenodd" d="M0.474609 24.3003C0.605214 24.889 0.761237 25.468 0.942446 26.036L0.944317 26.036L19.9608 26.9039L38.9792 26.036C39.1604 25.4681 39.3164 24.889 39.4471 24.3003H0.474609V24.3003Z" fill="#D80027"/>
</g>
<path id="Path_4" fill-rule="evenodd" clip-rule="evenodd" d="M19.9607 39.9219C28.8664 39.9219 36.4087 34.0893 38.9791 26.036H0.942383C3.51275 34.0893 11.0552 39.9219 19.9607 39.9219Z" fill="#6DA544"/>
<path id="Path_5" fill-rule="evenodd" clip-rule="evenodd" d="M19.9608 0.00012207C11.0552 0.000200043 3.51291 5.83279 0.942383 13.886L38.9791 13.8861C36.4089 5.83271 28.8665 4.40976e-05 19.9608 0.00012207Z" fill="#338AF3"/>
<g id="Group_2">
<path id="Path_6" fill-rule="evenodd" clip-rule="evenodd" d="M9.12152 8.24482C9.12152 6.37527 10.4354 4.81347 12.1901 4.43032C11.9204 4.37137 11.6406 4.33948 11.3532 4.33948C9.19629 4.33948 7.44775 6.08794 7.44775 8.2449C7.44775 10.4019 9.19614 12.1503 11.3532 12.1503C11.6406 12.1503 11.9203 12.1183 12.1901 12.0595C10.4355 11.6762 9.12152 10.1144 9.12152 8.24482Z" fill="#F0F0F0"/>
<path id="Path_7" fill-rule="evenodd" clip-rule="evenodd" d="M14.4984 10.02L14.7627 10.8337H15.6183L14.9262 11.3366L15.1905 12.1502L14.4984 11.6474L13.8062 12.1502L14.0706 11.3366L13.3784 10.8337H14.2339L14.4984 10.02Z" fill="#F0F0F0"/>
<path id="Path_8" fill-rule="evenodd" clip-rule="evenodd" d="M17.2292 10.02L17.4936 10.8337H18.3491L17.657 11.3366L17.9214 12.1502L17.2292 11.6474L16.5371 12.1502L16.8015 11.3366L16.1094 10.8337H16.9648L17.2292 10.02Z" fill="#F0F0F0"/>
<path id="Path_9" fill-rule="evenodd" clip-rule="evenodd" d="M19.9598 10.02L20.2242 10.8337H21.0798L20.3876 11.3366L20.6519 12.1502L19.9598 11.6474L19.2676 12.1502L19.5321 11.3366L18.8398 10.8337H19.6954L19.9598 10.02Z" fill="#F0F0F0"/>
<path id="Path_10" fill-rule="evenodd" clip-rule="evenodd" d="M22.6903 10.02L22.9547 10.8337H23.8102L23.1181 11.3366L23.3825 12.1502L22.6903 11.6474L21.9981 12.1502L22.2626 11.3366L21.5703 10.8337H22.4258L22.6903 10.02Z" fill="#F0F0F0"/>
<path id="Path_11" fill-rule="evenodd" clip-rule="evenodd" d="M25.4211 10.02L25.6855 10.8337H26.541L25.8489 11.3366L26.1134 12.1502L25.4211 11.6474L24.7289 12.1502L24.9934 11.3366L24.3013 10.8337H25.1567L25.4211 10.02Z" fill="#F0F0F0"/>
<path id="Path_12" fill-rule="evenodd" clip-rule="evenodd" d="M17.2292 7.17969L17.4936 7.99325H18.3491L17.657 8.49626L17.9214 9.30982L17.2292 8.80698L16.5371 9.30982L16.8015 8.49626L16.1094 7.99325H16.9648L17.2292 7.17969Z" fill="#F0F0F0"/>
<path id="Path_13" fill-rule="evenodd" clip-rule="evenodd" d="M19.9598 7.17969L20.2242 7.99325H21.0798L20.3876 8.49626L20.6519 9.30982L19.9598 8.80698L19.2676 9.30982L19.5321 8.49626L18.8398 7.99325H19.6954L19.9598 7.17969Z" fill="#F0F0F0"/>
<path id="Path_14" fill-rule="evenodd" clip-rule="evenodd" d="M22.6903 7.17969L22.9547 7.99325H23.8102L23.1181 8.49626L23.3825 9.30982L22.6903 8.80698L21.9981 9.30982L22.2626 8.49626L21.5703 7.99325H22.4258L22.6903 7.17969Z" fill="#F0F0F0"/>
<path id="Path_15" fill-rule="evenodd" clip-rule="evenodd" d="M25.4211 7.17969L25.6855 7.99325H26.541L25.8489 8.49626L26.1134 9.30982L25.4211 8.80698L24.7289 9.30982L24.9934 8.49626L24.3013 7.99325H25.1567L25.4211 7.17969Z" fill="#F0F0F0"/>
<path id="Path_16" fill-rule="evenodd" clip-rule="evenodd" d="M19.9598 4.33923L20.2242 5.15296H21.0798L20.3876 5.6558L20.6519 6.46953L19.9598 5.96668L19.2676 6.46953L19.5321 5.6558L18.8398 5.15296H19.6954L19.9598 4.33923Z" fill="#F0F0F0"/>
<path id="Path_17" fill-rule="evenodd" clip-rule="evenodd" d="M22.6903 4.33923L22.9547 5.15296H23.8102L23.1181 5.6558L23.3825 6.46953L22.6903 5.96668L21.9981 6.46953L22.2626 5.6558L21.5703 5.15296H22.4258L22.6903 4.33923Z" fill="#F0F0F0"/>
<path id="Path_18" fill-rule="evenodd" clip-rule="evenodd" d="M25.4211 4.33923L25.6855 5.15296H26.541L25.8489 5.6558L26.1134 6.46953L25.4211 5.96668L24.7289 6.46953L24.9934 5.6558L24.3013 5.15296H25.1567L25.4211 4.33923Z" fill="#F0F0F0"/>
</g>
</g>
</svg>
