<svg width="40" height="40" viewBox="0 0 40 40" fill="none" xmlns="http://www.w3.org/2000/svg">
<g id="011-flag">
<path id="Path" fill-rule="evenodd" clip-rule="evenodd" d="M1.46338 26.5997C4.25618 34.1391 11.5013 39.5122 20 39.5122C28.4987 39.5122 35.7438 34.1391 38.5365 26.5997L20 24.8781L1.46338 26.5997Z" fill="#FFDA44"/>
<path id="Path_2" fill-rule="evenodd" clip-rule="evenodd" d="M20 0.487793C11.5013 0.487793 4.25618 5.8608 1.46338 13.4003L20 15.1219L38.5365 13.4003C35.7438 5.8608 28.4987 0.487793 20 0.487793Z" fill="black"/>
<path id="Path_3" fill-rule="evenodd" clip-rule="evenodd" d="M1.51826 13.1708C0.726118 15.2978 0.29248 17.5984 0.29248 20C0.29248 22.4017 0.726118 24.7023 1.51826 26.8293H38.4814C39.2736 24.7023 39.7071 22.4017 39.7071 20C39.7071 17.5984 39.2736 15.2978 38.4813 13.1708H1.51826Z" fill="#D80027"/>
</g>
</svg>
