<svg width="40" height="40" viewBox="0 0 40 40" fill="none" xmlns="http://www.w3.org/2000/svg">
<g id="009-estonia">
<path id="Path" fill-rule="evenodd" clip-rule="evenodd" d="M0 20C0 22.4465 0.440078 24.7899 1.24398 26.9565L20 27.8261L38.756 26.9566C39.56 24.7899 40 22.4465 40 20C40 17.5536 39.56 15.2102 38.756 13.0436L20 12.174L1.24398 13.0435C0.440078 15.2102 0 17.5536 0 20Z" fill="black"/>
<path id="Path_2" fill-rule="evenodd" clip-rule="evenodd" d="M20.0002 0C11.4009 0 4.07 5.4275 1.24414 13.0435H38.7562C35.9303 5.4275 28.5995 0 20.0002 0Z" fill="#0052B4"/>
<path id="Path_3" fill-rule="evenodd" clip-rule="evenodd" d="M38.7562 26.9565H1.24414C4.07 34.5725 11.4009 40.0001 20.0002 40.0001C28.5995 40.0001 35.9303 34.5725 38.7562 26.9565Z" fill="#F0F0F0"/>
</g>
</svg>
