<svg width="40" height="40" viewBox="0 0 40 40" fill="none" xmlns="http://www.w3.org/2000/svg">
<g id="018-mongolia">
<path id="Path" fill-rule="evenodd" clip-rule="evenodd" d="M19.9999 40C22.4463 40 24.7898 39.56 26.9564 38.756L27.826 20L26.9565 1.24398C24.7898 0.440078 22.4463 0 19.9999 0C17.5535 0 15.21 0.440078 13.0434 1.24398L12.1738 20L13.0434 38.756C15.21 39.56 17.5535 40 19.9999 40Z" fill="#0052B4"/>
<g id="Group">
<path id="Path_2" fill-rule="evenodd" clip-rule="evenodd" d="M0 20C0 28.5993 5.4275 35.9302 13.0435 38.7561V1.24402C5.4275 4.06988 0 11.4007 0 20Z" fill="#A2001D"/>
<path id="Path_3" fill-rule="evenodd" clip-rule="evenodd" d="M26.9565 1.24402V38.7561C34.5726 35.9302 40.0001 28.5993 40.0001 20C40.0001 11.4007 34.5726 4.06988 26.9565 1.24402Z" fill="#A2001D"/>
</g>
<g id="Group_2">
<rect id="Rectangle" x="9.56543" y="20" width="1.73914" height="6.95648" fill="#FFDA44"/>
<rect id="Rectangle_2" x="2.60889" y="20" width="1.73914" height="6.95648" fill="#FFDA44"/>
<path id="Oval" fill-rule="evenodd" clip-rule="evenodd" d="M6.95643 24.3478C7.91693 24.3478 8.69557 23.5691 8.69557 22.6086C8.69557 21.6481 7.91693 20.8695 6.95643 20.8695C5.99592 20.8695 5.21729 21.6481 5.21729 22.6086C5.21729 23.5691 5.99592 24.3478 6.95643 24.3478Z" fill="#FFDA44"/>
<path id="Oval_2" fill-rule="evenodd" clip-rule="evenodd" d="M6.95645 17.3913C7.43667 17.3913 7.82598 17.002 7.82598 16.5218C7.82598 16.0415 7.43667 15.6522 6.95645 15.6522C6.47622 15.6522 6.08691 16.0415 6.08691 16.5218C6.08691 17.002 6.47622 17.3913 6.95645 17.3913Z" fill="#FFDA44"/>
<rect id="Rectangle_3" x="5.21729" y="25.2174" width="3.47828" height="1.73914" fill="#FFDA44"/>
<rect id="Rectangle_4" x="5.21729" y="18.2609" width="3.47828" height="1.73914" fill="#FFDA44"/>
<path id="Path_4" fill-rule="evenodd" clip-rule="evenodd" d="M6.95633 10.4348L7.57227 12.3301H9.56508L7.95297 13.5015L8.56844 15.3968L6.95633 14.2254L5.3443 15.3968L5.95977 13.5015L4.34766 12.3301H6.34047L6.95633 10.4348Z" fill="#FFDA44"/>
</g>
</g>
</svg>
