<svg width="40" height="40" viewBox="0 0 40 40" fill="none" xmlns="http://www.w3.org/2000/svg">
<g id="005-slovakia">
<path id="Oval" fill-rule="evenodd" clip-rule="evenodd" d="M20 40C31.0457 40 40 31.0457 40 20C40 8.9543 31.0457 0 20 0C8.9543 0 0 8.9543 0 20C0 31.0457 8.9543 40 20 40Z" fill="#F0F0F0"/>
<path id="Path" fill-rule="evenodd" clip-rule="evenodd" d="M20 39.9999C31.0456 39.9999 40 31.0456 40 19.9999C40 17.5535 39.56 15.21 38.756 13.0435H1.24398C0.440078 15.21 0 17.5535 0 19.9999C0 31.0456 8.95438 39.9999 20 39.9999Z" fill="#0052B4"/>
<path id="Path_2" fill-rule="evenodd" clip-rule="evenodd" d="M20.0002 40.0001C28.5995 40.0001 35.9303 34.5726 38.7562 26.9565H1.24414C4.07 34.5726 11.4009 40.0001 20.0002 40.0001Z" fill="#D80027"/>
<path id="Path_3" fill-rule="evenodd" clip-rule="evenodd" d="M5.17188 11.3043V21.2814C5.17188 26.9567 12.586 28.6957 12.586 28.6957C12.586 28.6957 20.0001 26.9567 20.0001 21.2814V11.3043H5.17188Z" fill="#F0F0F0"/>
<path id="Path_4" fill-rule="evenodd" clip-rule="evenodd" d="M6.91064 11.3043V21.2814C6.91064 21.9476 7.05861 22.5768 7.35174 23.1667C10.2606 23.1667 14.6085 23.1667 17.8195 23.1667C18.1126 22.5769 18.2606 21.9476 18.2606 21.2814V11.3043H6.91064Z" fill="#D80027"/>
<path id="Path_5" fill-rule="evenodd" clip-rule="evenodd" d="M16.0639 18.2608H13.4553V16.5217H15.1945V14.7825H13.4553V13.0435H11.7162V14.7825H9.97711V16.5217H11.7162V18.2608H9.10742V19.9999H11.7162V21.7391H13.4553V19.9999H16.0639V18.2608Z" fill="#F0F0F0"/>
<path id="Path_6" fill-rule="evenodd" clip-rule="evenodd" d="M9.72416 25.5946C10.8449 26.2988 11.9963 26.7078 12.5857 26.8896C13.1752 26.7078 14.3266 26.2988 15.4473 25.5946C16.5774 24.8842 17.3697 24.0719 17.8196 23.1668C17.3234 22.8158 16.718 22.6088 16.064 22.6088C15.8259 22.6088 15.5946 22.637 15.3721 22.6888C14.9008 21.6178 13.8309 20.8696 12.5858 20.8696C11.3407 20.8696 10.2707 21.6178 9.79947 22.6888C9.57705 22.637 9.34564 22.6088 9.1076 22.6088C8.45361 22.6088 7.84822 22.8158 7.35205 23.1668C7.80166 24.0718 8.59393 24.8842 9.72416 25.5946Z" fill="#0052B4"/>
</g>
</svg>
