<svg width="126" height="41" viewBox="0 0 126 41" fill="none" xmlns="http://www.w3.org/2000/svg">
<path fill-rule="evenodd" clip-rule="evenodd" d="M125.779 35.4358C125.779 38.4864 123.298 40.9512 120.228 40.9512H5.72275C2.65258 40.9512 0.171875 38.4864 0.171875 35.4358V5.63755C0.171875 2.58695 2.65258 0.12207 5.72275 0.12207H120.253C123.323 0.12207 125.803 2.58695 125.803 5.63755V35.4358H125.779Z" fill="#828282"/>
<path fill-rule="evenodd" clip-rule="evenodd" d="M9.5791 7.88281V21.6959V35.5334L23.6037 21.6959L9.5791 7.88281Z" fill="#1A1A28"/>
<path fill-rule="evenodd" clip-rule="evenodd" d="M27.3861 17.9863L21.7124 14.7405L9.5791 7.78516V7.88278L23.6037 21.6959L27.3861 17.9863Z" fill="#303049"/>
<path fill-rule="evenodd" clip-rule="evenodd" d="M9.5791 35.5328V35.6304L21.7124 28.6751L27.3861 25.4292L23.6037 21.6953L9.5791 35.5328Z" fill="#303049"/>
<path fill-rule="evenodd" clip-rule="evenodd" d="M27.386 17.9863L23.6035 21.6959L27.386 25.4298L33.8456 21.6959L27.386 17.9863Z" fill="#3E3E5A"/>
<path fill-rule="evenodd" clip-rule="evenodd" d="M96.4772 26.8212C96.9193 27.0164 97.4106 27.114 97.9264 27.114C98.9825 27.114 99.793 26.7479 100.432 26.0402C101.021 25.3081 101.316 24.2831 101.316 22.9652C101.316 21.6473 101.021 20.6223 100.432 19.8902C99.8421 19.1581 99.0316 18.792 97.9509 18.792C97.4106 18.792 96.9193 18.8896 96.5018 19.0848C96.0842 19.2801 95.7158 19.5973 95.3965 20.0366H95.3474L95.1755 18.9384H94.1685V30.5795H95.3965V27.2604C95.3965 26.8432 95.3522 26.4259 95.3057 25.9877C95.3032 25.9646 95.3007 25.9414 95.2983 25.9182H95.372C95.6667 26.3331 96.0351 26.6259 96.4772 26.8212ZM95.9614 20.5003C96.3299 20.0366 96.9193 19.817 97.7544 19.817C98.4667 19.817 99.0316 20.0854 99.4246 20.5979C99.8176 21.1348 100.014 21.9158 100.014 22.9164C100.014 23.8926 99.8176 24.6735 99.4246 25.2348C99.0316 25.7962 98.4667 26.089 97.779 26.089C96.9439 26.089 96.3299 25.845 95.9614 25.3569C95.593 24.8688 95.3965 24.0634 95.3965 22.9408V22.6723C95.3965 21.6718 95.593 20.964 95.9614 20.5003Z" fill="#1A1A28"/>
<path fill-rule="evenodd" clip-rule="evenodd" d="M104.116 26.9673H102.888V15.5459H104.116V26.9673Z" fill="#1A1A28"/>
<path fill-rule="evenodd" clip-rule="evenodd" d="M110.92 25.8206L111.165 26.9676H112.074V21.4765C112.074 20.5247 111.853 19.8414 111.386 19.4265C110.92 19.0116 110.207 18.792 109.249 18.792C108.783 18.792 108.292 18.8652 107.825 18.9872C107.358 19.1093 106.916 19.2801 106.523 19.4997L106.892 20.4271C107.727 20.0122 108.513 19.817 109.176 19.817C109.765 19.817 110.207 19.9634 110.478 20.2563C110.748 20.5491 110.895 21.0128 110.895 21.6473V22.1354L109.52 22.1843C106.892 22.2819 105.59 23.1116 105.59 24.7468C105.59 25.5033 105.811 26.089 106.278 26.5039C106.744 26.9188 107.358 27.114 108.169 27.114C108.758 27.114 109.274 27.0164 109.667 26.8456C110.06 26.6747 110.478 26.3331 110.871 25.8206H110.92ZM110.207 25.4789C109.765 25.8938 109.176 26.1134 108.414 26.1134C107.923 26.1134 107.555 25.9914 107.285 25.7473C107.014 25.5277 106.892 25.186 106.892 24.7468C106.892 24.1854 107.088 23.7706 107.53 23.5021C107.972 23.2337 108.66 23.0628 109.642 23.0384L110.871 22.9896V23.7218C110.871 24.4783 110.649 25.064 110.207 25.4789Z" fill="#1A1A28"/>
<path fill-rule="evenodd" clip-rule="evenodd" d="M112.786 18.9141H114.088L115.856 23.5022C116.249 24.5516 116.495 25.3081 116.569 25.7718H116.618C116.691 25.5278 116.814 25.0885 117.011 24.5028C117.207 23.8926 117.895 22.0379 119.025 18.9385H120.351L116.912 28.0903C116.569 28.9932 116.176 29.6278 115.709 30.0182C115.242 30.4087 114.677 30.5795 114.014 30.5795C113.646 30.5795 113.277 30.5307 112.909 30.4575V29.4813C113.179 29.5301 113.474 29.5789 113.818 29.5789C114.653 29.5789 115.267 29.1153 115.611 28.1635L116.053 27.0164L112.786 18.9141Z" fill="#1A1A28"/>
<path fill-rule="evenodd" clip-rule="evenodd" d="M75.2072 19.6697C75.6001 19.987 76.4107 20.6703 76.4107 21.9393C76.4107 23.184 75.6984 23.7697 74.9861 24.331C74.765 24.5506 74.5194 24.7947 74.5194 25.1608C74.5194 25.5103 74.7434 25.7041 74.9347 25.8696L74.9615 25.8929L75.5756 26.3566L75.631 26.4043C76.3465 27.0197 77.0001 27.5819 77.0001 28.7239C77.0001 30.3102 75.4528 31.8965 72.5545 31.8965C70.0984 31.8965 68.9194 30.725 68.9194 29.4804C68.9194 28.8703 69.2142 28.0161 70.2212 27.4304C71.2773 26.7959 72.7019 26.6983 73.4633 26.6495L73.4567 26.6416C73.2129 26.3509 72.9475 26.0345 72.9475 25.5024C72.9475 25.2096 73.0212 25.0387 73.1194 24.8435C72.9229 24.8679 72.751 24.8679 72.5791 24.8679C70.7861 24.8679 69.7791 23.55 69.7791 22.2322C69.7791 21.4512 70.1229 20.5971 70.8598 19.987C71.8177 19.206 72.9721 19.0596 73.8808 19.0596H77.3686L76.2879 19.6697H75.2072ZM74.0282 27.1375C73.8808 27.1131 73.8072 27.1131 73.6352 27.1131C73.4879 27.1131 72.5791 27.1375 71.8668 27.3816C71.4984 27.5036 70.4177 27.9185 70.4177 29.1143C70.4177 30.3102 71.5966 31.1643 73.3896 31.1643C75.0107 31.1643 75.8703 30.3834 75.8703 29.3584C75.8703 28.5042 75.3054 28.0405 74.0282 27.1375ZM74.937 22.7203C74.937 23.0131 74.9124 23.55 74.5194 23.9405C74.2247 24.209 73.7826 24.4042 73.365 24.4286C71.9159 24.4286 71.2528 22.5495 71.2528 21.4268C71.2528 20.9875 71.3265 20.5239 71.6212 20.1822C71.8914 19.8405 72.358 19.6209 72.8001 19.6209C74.2001 19.6209 74.937 21.5 74.937 22.7203Z" fill="#1A1A28"/>
<path fill-rule="evenodd" clip-rule="evenodd" d="M60.4458 22.9154C60.4458 24.7946 61.8949 26.869 64.5721 26.869C67.323 26.869 68.8458 24.7702 68.8458 22.7934C68.8458 20.7678 67.2984 18.8398 64.8177 18.8398C62.2633 18.8398 60.4458 20.719 60.4458 22.9154ZM67.2002 23.6476C67.2002 24.2821 67.1019 24.9654 66.6844 25.5023C66.2914 26.0392 65.6037 26.3565 64.9651 26.3565C62.9265 26.3565 62.0914 23.6232 62.0914 21.9637C62.0914 21.2315 62.2142 20.4994 62.8774 19.9137C63.2949 19.572 63.8353 19.3523 64.4002 19.3523C66.4879 19.3523 67.2002 22.1589 67.2002 23.6476Z" fill="#1A1A28"/>
<path fill-rule="evenodd" clip-rule="evenodd" d="M51.2842 22.9154C51.2842 24.7946 52.7333 26.869 55.4105 26.869C58.1614 26.869 59.6842 24.7702 59.6842 22.7934C59.6842 20.7678 58.1368 18.8398 55.6561 18.8398C53.1017 18.8398 51.2842 20.719 51.2842 22.9154ZM58.0386 23.6476C58.0386 24.2821 57.9403 24.9654 57.5228 25.5023C57.1298 26.0392 56.4421 26.3565 55.8035 26.3565C53.7649 26.3565 52.9298 23.6232 52.9298 21.9637C52.9298 21.2315 53.0526 20.4994 53.7158 19.9137C54.1333 19.572 54.6737 19.3523 55.2386 19.3523C57.3263 19.3523 58.0386 22.1589 58.0386 23.6476Z" fill="#1A1A28"/>
<path fill-rule="evenodd" clip-rule="evenodd" d="M49.9824 26.6011L47.5508 27.1624C46.5684 27.3088 45.6841 27.4552 44.7508 27.4552C40.0596 27.4552 38.2666 24.0386 38.2666 21.354C38.2666 18.0838 40.7964 15.0332 45.1192 15.0332C46.028 15.0332 46.9122 15.1796 47.7227 15.3993C48.9999 15.7653 49.5894 16.1802 49.9578 16.4487L48.5578 17.7909L47.9684 17.9374L48.3859 17.254C47.7964 16.6927 46.7648 15.6677 44.7508 15.6677C42.0736 15.6677 40.035 17.6933 40.035 20.6463C40.035 23.8189 42.3438 26.7963 46.0526 26.7963C47.1333 26.7963 47.6982 26.5767 48.214 26.3814V23.6725L45.6596 23.8189L47.0105 23.0868H50.621L50.1789 23.5017C50.0561 23.5993 50.0315 23.6481 50.007 23.7701C49.9824 23.9165 49.9824 24.4046 49.9824 24.5755V26.6011Z" fill="#1A1A28"/>
<path fill-rule="evenodd" clip-rule="evenodd" d="M80.5863 26.1128C80.0213 26.064 79.8985 25.9664 79.8985 25.3075V25.1122V15.7408C79.8985 15.7164 79.8985 15.6676 79.8985 15.6432C79.9722 15.0575 80.1442 14.9598 80.6599 14.6426H78.2284L76.9512 15.2527H78.2529V25.1122V25.6735C78.2529 26.0152 78.1792 26.064 77.7863 26.5765H80.7828L81.4213 26.2104C81.1757 26.1616 80.881 26.1616 80.5863 26.1128Z" fill="#1A1A28"/>
<path fill-rule="evenodd" clip-rule="evenodd" d="M87.2968 26.401C87.367 26.3609 87.438 26.3203 87.5126 26.2833L88.4213 25.4047C87.8319 25.6976 87.2178 25.9904 86.3582 25.9904C84.7371 25.9904 83.288 24.7458 82.8705 22.6226L84.1722 22.525L88.1266 20.9386L88.1257 20.9359C88.0028 20.5449 87.7808 19.8391 86.9477 19.2791C86.4319 18.9619 85.8178 18.8154 85.2038 18.8154C83.4845 18.8154 81.3477 20.1089 81.3477 22.6958C81.3477 23.9648 81.8634 25.4047 83.067 26.2345C83.9266 26.869 84.7617 26.8934 85.302 26.8934C85.8178 26.8934 86.3827 26.8202 86.9477 26.5761C87.0696 26.5307 87.182 26.4665 87.2968 26.401ZM86.4073 20.8166C86.4073 21.0607 86.2354 21.1583 85.9161 21.2803L82.8459 22.5738C82.8213 22.2809 82.7968 21.988 82.7968 21.6952C82.7968 19.8892 84.0494 19.3767 84.7371 19.3767C85.6459 19.3767 86.4073 20.1577 86.4073 20.8166Z" fill="#1A1A28"/>
<path fill-rule="evenodd" clip-rule="evenodd" d="M89.1335 18.9375V20.0357H88.9861V18.9375H88.6177V18.8154H89.4773V18.9375H89.1335Z" fill="#1A1A28"/>
<path fill-rule="evenodd" clip-rule="evenodd" d="M90.6563 20.0601V18.9375L90.3125 20.0601H90.2142L89.8704 18.9375V20.0601H89.7476V18.8398H89.9686L90.2879 19.816L90.6072 18.8398H90.8283V20.0601H90.6563Z" fill="#1A1A28"/>
<path fill-rule="evenodd" clip-rule="evenodd" d="M40.8212 11.7389H41.6563C41.6563 11.6656 41.5453 11.3302 41.3441 10.7226C41.2776 10.5218 41.2013 10.2912 41.1159 10.0306C40.7475 8.98119 40.551 8.41988 40.551 8.32227H39.544C39.544 8.41988 39.3475 9.0056 38.93 10.055C38.5124 11.1044 38.3159 11.6657 38.3159 11.7389H39.1019C39.1019 11.6169 39.1756 11.2996 39.3475 10.7627H40.5756C40.7475 11.2996 40.8212 11.6169 40.8212 11.7389ZM39.9861 8.78596C39.9861 8.85917 40.1335 9.34727 40.4282 10.2502H39.4703C39.7896 9.34727 39.937 8.85917 39.937 8.78596H39.9861Z" fill="#1A1A28"/>
<path fill-rule="evenodd" clip-rule="evenodd" d="M45.0458 11.7389H44.3826C44.3826 11.6657 44.137 11.2996 43.6458 10.5919C43.13 9.85976 42.8598 9.37166 42.7861 9.10321H42.737C42.7861 9.49368 42.8107 9.83535 42.8107 10.1526C42.8107 10.5919 42.8107 11.1044 42.8598 11.7389H42.2212C42.2458 11.202 42.2703 10.5919 42.2703 9.95738C42.2703 9.32285 42.2458 8.78595 42.2212 8.32226H43.0072C43.0072 8.41988 43.2282 8.78595 43.6703 9.42047C44.137 10.1038 44.4072 10.5675 44.4563 10.8115H44.5054C44.4563 10.4211 44.4317 10.0794 44.4317 9.76214C44.4317 9.29845 44.4072 8.81035 44.3826 8.29785H45.0458C45.0212 8.73714 44.9966 9.27404 44.9966 9.93297C45.0212 10.6163 45.0212 11.202 45.0458 11.7389Z" fill="#1A1A28"/>
<path fill-rule="evenodd" clip-rule="evenodd" d="M48.3862 11.202C48.7055 10.836 48.8774 10.3967 48.8774 9.90858C48.8774 9.46929 48.73 9.10322 48.4353 8.78596C48.1651 8.46869 47.6984 8.32227 47.0599 8.32227H46.7651H46.4213H45.9546C45.9792 8.78596 45.9792 9.32286 45.9792 9.95738C45.9792 10.6163 45.9792 11.202 45.9546 11.7389C46.4213 11.7633 46.7651 11.7633 47.0353 11.7633C47.6248 11.7633 48.0669 11.5681 48.3862 11.202ZM47.8704 9.17643C48.0669 9.42048 48.1651 9.68893 48.1651 10.0306C48.1651 10.3723 48.0669 10.6407 47.8704 10.8848C47.6984 11.1044 47.4037 11.2264 47.0353 11.2264C46.9125 11.2264 46.8142 11.2264 46.6914 11.202C46.6669 10.7871 46.6669 10.3723 46.6669 9.95738C46.6669 9.56691 46.6669 9.20084 46.6423 8.85917C46.7897 8.83477 46.8879 8.83477 46.9616 8.83477C47.3792 8.83477 47.6739 8.95679 47.8704 9.17643Z" fill="#1A1A28"/>
<path fill-rule="evenodd" clip-rule="evenodd" d="M51.6281 11.7389H52.4141C52.1685 11.1288 51.9966 10.7139 51.8738 10.5187C51.751 10.2991 51.579 10.1526 51.4071 10.1038V10.055C51.8738 9.88417 52.0948 9.59131 52.0948 9.15203C52.0948 8.59072 51.7018 8.32227 50.8913 8.32227H50.4246H50.1053H49.6387C49.6632 8.78596 49.6632 9.32286 49.6632 9.95738C49.6632 10.6163 49.6632 11.202 49.6387 11.7389H50.3755C50.351 11.2752 50.351 10.8116 50.351 10.3723H50.6457C50.8667 10.3723 51.0632 10.4455 51.1615 10.5919C51.2597 10.7383 51.4317 11.1288 51.6281 11.7389ZM50.7194 8.81036C51.186 8.81036 51.4071 8.98119 51.4071 9.32286C51.4071 9.71334 51.1369 9.90858 50.5474 9.90858H50.3018C50.3018 9.49369 50.3018 9.12762 50.2773 8.85917C50.4001 8.83477 50.5474 8.81036 50.7194 8.81036Z" fill="#1A1A28"/>
<path fill-rule="evenodd" clip-rule="evenodd" d="M55.7056 11.2996C56.0249 10.9335 56.1968 10.4943 56.1968 9.95735C56.1968 9.46925 56.0249 9.05437 55.7301 8.7127C55.4354 8.39544 55.0424 8.22461 54.5757 8.22461C54.0845 8.22461 53.667 8.41985 53.3477 8.76151C53.0284 9.12759 52.8564 9.56687 52.8564 10.1038C52.8564 10.6163 53.0038 11.0312 53.3231 11.3484C53.6178 11.6657 54.0108 11.8365 54.4775 11.8365C54.9687 11.8365 55.3863 11.6413 55.7056 11.2996ZM55.1898 9.1764C55.3617 9.39604 55.46 9.6889 55.46 10.055C55.46 10.3966 55.3617 10.6895 55.2143 10.9335C55.0178 11.1532 54.7968 11.2752 54.5512 11.2752C54.281 11.2752 54.06 11.1532 53.8635 10.9335C53.667 10.7139 53.5687 10.421 53.5687 10.055C53.5687 9.6889 53.667 9.39604 53.8389 9.1764C54.0354 8.95675 54.2564 8.83473 54.5021 8.83473C54.7722 8.83473 54.9933 8.95675 55.1898 9.1764Z" fill="#1A1A28"/>
<path fill-rule="evenodd" clip-rule="evenodd" d="M57.6704 11.7389H56.9336C56.9582 11.202 56.9582 10.5919 56.9582 9.95738C56.9582 9.32286 56.9582 8.78596 56.9336 8.32227H57.6704C57.6459 8.76155 57.6459 9.29846 57.6459 9.95738C57.6459 10.6163 57.6704 11.202 57.6704 11.7389Z" fill="#1A1A28"/>
<path fill-rule="evenodd" clip-rule="evenodd" d="M61.0107 11.202C61.33 10.836 61.5019 10.3967 61.5019 9.90858C61.5019 9.46929 61.3545 9.10322 61.0598 8.78596C60.7896 8.46869 60.323 8.32227 59.6844 8.32227H59.3896H59.0458H58.5791C58.6037 8.78596 58.6037 9.32286 58.6037 9.95738C58.6037 10.6163 58.6037 11.202 58.5791 11.7389C59.0458 11.7633 59.3896 11.7633 59.6598 11.7633C60.2493 11.7633 60.6914 11.5681 61.0107 11.202ZM60.4949 9.17643C60.6914 9.42048 60.7896 9.68893 60.7896 10.0306C60.7896 10.3723 60.6914 10.6407 60.4949 10.8848C60.323 11.1044 60.0282 11.2264 59.6598 11.2264C59.537 11.2264 59.4388 11.2264 59.3159 11.202C59.2914 10.7871 59.2914 10.3723 59.2914 9.95738C59.2914 9.56691 59.2914 9.20084 59.2668 8.85917C59.4142 8.83477 59.5124 8.83477 59.5861 8.83477C60.0037 8.83477 60.2984 8.95679 60.4949 9.17643Z" fill="#1A1A28"/>
<path fill-rule="evenodd" clip-rule="evenodd" d="M65.7509 11.7389H66.586C66.586 11.6656 66.475 11.3302 66.2738 10.7226C66.2073 10.5218 66.131 10.2912 66.0456 10.0306C65.6772 8.98119 65.4807 8.41988 65.4807 8.32227H64.4737C64.4737 8.41988 64.2772 9.0056 63.8596 10.055C63.4421 11.1044 63.2456 11.6657 63.2456 11.7389H64.0316C64.0316 11.6169 64.1053 11.2996 64.2772 10.7627H65.5053C65.6772 11.2996 65.7509 11.6169 65.7509 11.7389ZM64.9158 8.78596C64.9158 8.85917 65.0631 9.34727 65.3579 10.2502H64.4C64.7193 9.34727 64.8667 8.85917 64.8667 8.78596H64.9158Z" fill="#1A1A28"/>
<path fill-rule="evenodd" clip-rule="evenodd" d="M69.1895 10.1526C69.5088 9.95738 69.6561 9.64012 69.6561 9.22524C69.6561 8.90798 69.5333 8.68834 69.3123 8.54191C69.0912 8.39548 68.8211 8.32227 68.4772 8.32227H67.986H67.6175H67.1509C67.1754 8.78596 67.1754 9.32286 67.1754 9.95738C67.1754 10.6407 67.1754 11.2264 67.1509 11.7389H67.8877C67.8632 11.202 67.8632 10.7627 67.8632 10.4455H68.0351C68.5018 10.4455 68.8702 10.3479 69.1895 10.1526ZM68.207 8.81036C68.7228 8.81036 68.9684 9.0056 68.9684 9.37167C68.9684 9.76215 68.6491 9.95738 67.986 9.98179H67.8386C67.8386 9.56691 67.8386 9.20084 67.814 8.85917C67.8355 8.85561 67.8565 8.85205 67.877 8.84856C67.9972 8.82816 68.1021 8.81036 68.207 8.81036Z" fill="#1A1A28"/>
<path fill-rule="evenodd" clip-rule="evenodd" d="M72.3579 10.1526C72.6772 9.95738 72.8246 9.64012 72.8246 9.22524C72.8246 8.90798 72.7018 8.68834 72.4807 8.54191C72.2597 8.39548 71.9895 8.32227 71.6457 8.32227H71.1544H70.786H70.3193C70.3439 8.78596 70.3439 9.32286 70.3439 9.95738C70.3439 10.6407 70.3439 11.2264 70.3193 11.7389H71.0562C71.0316 11.202 71.0316 10.7627 71.0316 10.4455H71.2035C71.6702 10.4455 72.0386 10.3479 72.3579 10.1526ZM71.3755 8.81036C71.8913 8.81036 72.1369 9.0056 72.1369 9.37167C72.1369 9.76215 71.8176 9.95738 71.1544 9.98179H71.0071C71.0071 9.56691 71.0071 9.20084 70.9825 8.85917C71.004 8.85561 71.025 8.85205 71.0455 8.84856C71.1657 8.82816 71.2706 8.81036 71.3755 8.81036Z" fill="#1A1A28"/>
<path fill-rule="evenodd" clip-rule="evenodd" d="M77.4912 11.2996C77.8105 10.9335 77.9824 10.4943 77.9824 9.95735C77.9824 9.46925 77.8351 9.05437 77.5158 8.7127C77.221 8.39544 76.8281 8.22461 76.3614 8.22461C75.8702 8.22461 75.4526 8.41985 75.1333 8.76151C74.814 9.12759 74.6421 9.56687 74.6421 10.1038C74.6421 10.6163 74.7895 11.0312 75.1088 11.3484C75.4035 11.6657 75.7965 11.8365 76.2631 11.8365C76.7544 11.8365 77.1719 11.6413 77.4912 11.2996ZM77 9.1764C77.1719 9.39604 77.2702 9.6889 77.2702 10.055C77.2702 10.3966 77.1719 10.6895 77.0245 10.9335C76.8281 11.1532 76.607 11.2752 76.3614 11.2752C76.0912 11.2752 75.8702 11.1532 75.6737 10.9335C75.4772 10.7139 75.3789 10.421 75.3789 10.055C75.3789 9.6889 75.4772 9.39604 75.6491 9.1764C75.8456 8.95675 76.0667 8.83473 76.3123 8.83473C76.5824 8.83473 76.8035 8.95675 77 9.1764Z" fill="#1A1A28"/>
<path fill-rule="evenodd" clip-rule="evenodd" d="M81.5687 11.7389H80.9055C80.9055 11.6657 80.6599 11.2996 80.1687 10.5919C79.6529 9.85976 79.3827 9.37166 79.3091 9.10321H79.2599C79.3091 9.49368 79.3336 9.83535 79.3336 10.1526C79.3336 10.5919 79.3336 11.1044 79.3827 11.7389H78.7441C78.7687 11.202 78.7933 10.5919 78.7933 9.95738C78.7933 9.32285 78.7687 8.78595 78.7441 8.32226H79.5301C79.5301 8.41988 79.7512 8.78595 80.1933 9.42047C80.6599 10.1038 80.9301 10.5675 80.9792 10.8115H81.0284C80.9792 10.4211 80.9547 10.0794 80.9547 9.76214C80.9547 9.29845 80.9547 8.81035 80.9055 8.29785H81.5687C81.5441 8.73714 81.5196 9.27404 81.5196 9.93297C81.5441 10.6163 81.5441 11.202 81.5687 11.7389Z" fill="#1A1A28"/>
</svg>
