<svg width="270" height="88" viewBox="0 0 270 88" fill="none" xmlns="http://www.w3.org/2000/svg">
<path fill-rule="evenodd" clip-rule="evenodd" d="M269.526 76.057C269.526 82.6046 264.211 87.8951 257.632 87.8951H12.2631C5.6842 87.8951 0.368408 82.6046 0.368408 76.057V12.0998C0.368408 5.5522 5.6842 0.261719 12.2631 0.261719H257.684C264.263 0.261719 269.579 5.5522 269.579 12.0998V76.057H269.526Z" fill="#B2B2B2"/>
<path fill-rule="evenodd" clip-rule="evenodd" d="M20.5264 16.9194V46.5671V76.2671L50.579 46.5671L20.5264 16.9194Z" fill="url(#paint0_linear)"/>
<path fill-rule="evenodd" clip-rule="evenodd" d="M58.6843 38.6047L46.5264 31.638L20.5264 16.7095V16.919L50.579 46.5666L58.6843 38.6047Z" fill="url(#paint1_linear)"/>
<path fill-rule="evenodd" clip-rule="evenodd" d="M20.5264 76.2669V76.4764L46.5264 61.5478L58.6843 54.5812L50.579 46.5669L20.5264 76.2669Z" fill="url(#paint2_linear)"/>
<path fill-rule="evenodd" clip-rule="evenodd" d="M58.6844 38.605L50.5791 46.5669L58.6844 54.5812L72.5265 46.5669L58.6844 38.605Z" fill="url(#paint3_linear)"/>
<path fill-rule="evenodd" clip-rule="evenodd" d="M206.737 57.5668C207.684 57.9859 208.737 58.1954 209.842 58.1954C212.105 58.1954 213.842 57.4097 215.21 55.8906C216.474 54.3192 217.105 52.1192 217.105 49.2906C217.105 46.4621 216.474 44.2621 215.21 42.6906C213.947 41.1192 212.21 40.3335 209.895 40.3335C208.737 40.3335 207.684 40.543 206.789 40.9621C205.895 41.3811 205.105 42.0621 204.421 43.0049H204.316L203.947 40.6478H201.789V65.6335H204.421V58.5097C204.421 57.6141 204.326 56.7185 204.226 55.778C204.221 55.7284 204.216 55.6786 204.21 55.6287H204.368C205 56.5192 205.789 57.1478 206.737 57.5668ZM205.631 44.0002C206.421 43.0049 207.684 42.5335 209.474 42.5335C211 42.5335 212.21 43.1097 213.052 44.2097C213.895 45.3621 214.316 47.0383 214.316 49.1859C214.316 51.2811 213.895 52.9573 213.052 54.1621C212.21 55.3668 211 55.9954 209.526 55.9954C207.737 55.9954 206.421 55.4716 205.631 54.424C204.842 53.3764 204.421 51.6478 204.421 49.2383V48.6621C204.421 46.5144 204.842 44.9954 205.631 44.0002Z" fill="#F9F9F9"/>
<path fill-rule="evenodd" clip-rule="evenodd" d="M223.105 57.881H220.474V33.3667H223.105V57.881Z" fill="#F9F9F9"/>
<path fill-rule="evenodd" clip-rule="evenodd" d="M237.684 55.4192L238.211 57.8811H240.158V46.0954C240.158 44.0525 239.684 42.5859 238.684 41.6954C237.684 40.8049 236.158 40.3335 234.105 40.3335C233.105 40.3335 232.053 40.4906 231.053 40.7525C230.053 41.0144 229.105 41.3811 228.263 41.8525L229.053 43.843C230.842 42.9525 232.526 42.5335 233.947 42.5335C235.211 42.5335 236.158 42.8478 236.737 43.4764C237.316 44.1049 237.632 45.1002 237.632 46.4621V47.5097L234.684 47.6144C229.053 47.824 226.263 49.6049 226.263 53.1144C226.263 54.7383 226.737 55.9954 227.737 56.8859C228.737 57.7764 230.053 58.1954 231.789 58.1954C233.053 58.1954 234.158 57.9859 235 57.6192C235.842 57.2525 236.737 56.5192 237.579 55.4192H237.684ZM236.158 54.6859C235.211 55.5764 233.947 56.0478 232.316 56.0478C231.263 56.0478 230.474 55.7859 229.895 55.2621C229.316 54.7906 229.053 54.0573 229.053 53.1144C229.053 51.9097 229.474 51.0192 230.421 50.443C231.368 49.8668 232.842 49.5002 234.947 49.4478L237.579 49.343V50.9144C237.579 52.5383 237.105 53.7954 236.158 54.6859Z" fill="#F9F9F9"/>
<path fill-rule="evenodd" clip-rule="evenodd" d="M241.684 40.5952H244.474L248.263 50.4428C249.105 52.6952 249.631 54.319 249.789 55.3143H249.895C250.053 54.7905 250.316 53.8476 250.737 52.5905C251.158 51.2809 252.631 47.3 255.053 40.6476H257.895L250.526 60.2905C249.789 62.2285 248.947 63.5905 247.947 64.4285C246.947 65.2666 245.737 65.6333 244.316 65.6333C243.526 65.6333 242.737 65.5285 241.947 65.3714V63.2762C242.526 63.3809 243.158 63.4857 243.895 63.4857C245.684 63.4857 247 62.4905 247.737 60.4476L248.684 57.9857L241.684 40.5952Z" fill="#F9F9F9"/>
<path fill-rule="evenodd" clip-rule="evenodd" d="M161.158 42.2192C162 42.9001 163.737 44.3668 163.737 47.0906C163.737 49.762 162.21 51.0192 160.684 52.224C160.21 52.6954 159.684 53.2192 159.684 54.0049C159.684 54.7552 160.164 55.1711 160.574 55.5264L160.631 55.5763L161.947 56.5716L162.066 56.6739C163.599 57.9948 165 59.2014 165 61.6525C165 65.0573 161.684 68.462 155.474 68.462C150.21 68.462 147.684 65.9478 147.684 63.2763C147.684 61.9668 148.316 60.1335 150.474 58.8763C152.737 57.5144 155.789 57.3049 157.421 57.2001L157.407 57.1833C156.884 56.5594 156.316 55.8803 156.316 54.7382C156.316 54.1097 156.474 53.743 156.684 53.324C156.263 53.3763 155.895 53.3763 155.526 53.3763C151.684 53.3763 149.526 50.5478 149.526 47.7192C149.526 46.043 150.263 44.2097 151.842 42.9001C153.895 41.224 156.368 40.9097 158.316 40.9097H165.789L163.474 42.2192H161.158ZM158.631 58.2478C158.316 58.1954 158.158 58.1954 157.789 58.1954C157.474 58.1954 155.526 58.2478 154 58.7716C153.21 59.0335 150.895 59.924 150.895 62.4906C150.895 65.0573 153.421 66.8906 157.263 66.8906C160.737 66.8906 162.579 65.2144 162.579 63.0144C162.579 61.1811 161.368 60.1859 158.631 58.2478ZM160.579 48.7668C160.579 49.3954 160.526 50.5478 159.684 51.3859C159.053 51.962 158.105 52.3811 157.21 52.4335C154.105 52.4335 152.684 48.4001 152.684 45.9906C152.684 45.0478 152.842 44.0525 153.474 43.3192C154.053 42.5859 155.053 42.1144 156 42.1144C159 42.1144 160.579 46.1478 160.579 48.7668Z" fill="#F9F9F9"/>
<path fill-rule="evenodd" clip-rule="evenodd" d="M129.526 49.1861C129.526 53.2194 132.631 57.6718 138.368 57.6718C144.263 57.6718 147.526 53.167 147.526 48.9242C147.526 44.5766 144.21 40.4385 138.895 40.4385C133.421 40.4385 129.526 44.4718 129.526 49.1861ZM144 50.7575C144 52.1194 143.789 53.5861 142.895 54.7385C142.052 55.8909 140.579 56.5718 139.21 56.5718C134.842 56.5718 133.052 50.7051 133.052 47.1432C133.052 45.5718 133.316 44.0004 134.737 42.7432C135.631 42.0099 136.789 41.5385 138 41.5385C142.473 41.5385 144 47.5623 144 50.7575Z" fill="#F9F9F9"/>
<path fill-rule="evenodd" clip-rule="evenodd" d="M109.895 49.1861C109.895 53.2194 113 57.6718 118.737 57.6718C124.631 57.6718 127.895 53.167 127.895 48.9242C127.895 44.5766 124.579 40.4385 119.263 40.4385C113.789 40.4385 109.895 44.4718 109.895 49.1861ZM124.368 50.7575C124.368 52.1194 124.158 53.5861 123.263 54.7385C122.421 55.8909 120.947 56.5718 119.579 56.5718C115.21 56.5718 113.421 50.7051 113.421 47.1432C113.421 45.5718 113.684 44.0004 115.105 42.7432C116 42.0099 117.158 41.5385 118.368 41.5385C122.842 41.5385 124.368 47.5623 124.368 50.7575Z" fill="#F9F9F9"/>
<path fill-rule="evenodd" clip-rule="evenodd" d="M107.105 57.0952L101.895 58.2999C99.7895 58.6142 97.8947 58.9285 95.8947 58.9285C85.8421 58.9285 82 51.5952 82 45.8333C82 38.8142 87.4211 32.2666 96.6842 32.2666C98.6316 32.2666 100.526 32.5809 102.263 33.0523C105 33.838 106.263 34.7285 107.053 35.3047L104.053 38.1856L102.789 38.4999L103.684 37.0333C102.421 35.8285 100.211 33.6285 95.8947 33.6285C90.1579 33.6285 85.7895 37.9761 85.7895 44.3142C85.7895 51.1237 90.7368 57.5142 98.6842 57.5142C101 57.5142 102.211 57.0428 103.316 56.6237V50.8095L97.8421 51.1237L100.737 49.5523H108.474L107.526 50.4428C107.263 50.6523 107.211 50.7571 107.158 51.019C107.105 51.3333 107.105 52.3809 107.105 52.7476V57.0952Z" fill="#F9F9F9"/>
<path fill-rule="evenodd" clip-rule="evenodd" d="M172.684 56.0478C171.473 55.943 171.21 55.7335 171.21 54.3192V53.9001V33.7859C171.21 33.7335 171.21 33.6287 171.21 33.5763C171.368 32.3192 171.737 32.1097 172.842 31.4287H167.631L164.895 32.7382H167.684V53.9001V55.1049C167.684 55.8382 167.526 55.943 166.684 57.043H173.105L174.473 56.2573C173.947 56.1525 173.316 56.1525 172.684 56.0478Z" fill="#F9F9F9"/>
<path fill-rule="evenodd" clip-rule="evenodd" d="M187.064 56.6669C187.214 56.5809 187.366 56.4938 187.526 56.4143L189.474 54.5286C188.21 55.1572 186.895 55.7857 185.053 55.7857C181.579 55.7857 178.474 53.1143 177.579 48.5572L180.368 48.3476L188.842 44.9429L188.84 44.9371C188.577 44.0978 188.101 42.583 186.316 41.381C185.21 40.7 183.895 40.3857 182.579 40.3857C178.895 40.3857 174.316 43.1619 174.316 48.7143C174.316 51.4381 175.421 54.5286 178 56.3096C179.842 57.6715 181.631 57.7238 182.789 57.7238C183.895 57.7238 185.105 57.5667 186.316 57.0429C186.577 56.9454 186.818 56.8075 187.064 56.6669ZM185.158 44.681C185.158 45.2048 184.789 45.4143 184.105 45.6762L177.526 48.4524C177.474 47.8238 177.421 47.1953 177.421 46.5667C177.421 42.6905 180.105 41.5905 181.579 41.5905C183.526 41.5905 185.158 43.2667 185.158 44.681Z" fill="#F9F9F9"/>
<path fill-rule="evenodd" clip-rule="evenodd" d="M191 40.6476V43.0048H190.684V40.6476H189.895V40.3857H191.737V40.6476H191Z" fill="#F9F9F9"/>
<path fill-rule="evenodd" clip-rule="evenodd" d="M194.263 43.0575V40.648L193.526 43.0575H193.316L192.579 40.648V43.0575H192.316V40.4385H192.789L193.474 42.5337L194.158 40.4385H194.631V43.0575H194.263Z" fill="#F9F9F9"/>
<path fill-rule="evenodd" clip-rule="evenodd" d="M87.4736 25.1951H89.2631C89.2631 25.0377 89.0252 24.3179 88.5942 23.0137C88.4518 22.5827 88.2882 22.0879 88.1052 21.5285C87.3158 19.2761 86.8947 18.0713 86.8947 17.8618H84.7368C84.7368 18.0713 84.3158 19.3285 83.421 21.5809C82.5263 23.8332 82.1052 25.038 82.1052 25.1951H83.7894C83.7894 24.9332 83.9473 24.2523 84.3158 23.0999H86.9473C87.3158 24.2523 87.4736 24.9332 87.4736 25.1951ZM85.6842 18.8571C85.6842 19.0142 86 20.0618 86.6315 21.9999H84.5789C85.2631 20.0618 85.5789 19.0142 85.5789 18.8571H85.6842Z" fill="#FCFCFD"/>
<path fill-rule="evenodd" clip-rule="evenodd" d="M96.5263 25.1953H95.1052C95.1052 25.0381 94.5789 24.2524 93.5263 22.7334C92.421 21.162 91.8421 20.1143 91.6842 19.5381H91.5789C91.6842 20.3762 91.7368 21.1096 91.7368 21.7905C91.7368 22.7334 91.7368 23.8334 91.8421 25.1953H90.4736C90.5263 24.0429 90.5789 22.7334 90.5789 21.3715C90.5789 20.0096 90.5263 18.8572 90.4736 17.862H92.1578C92.1578 18.0715 92.6315 18.8572 93.5789 20.2191C94.5789 21.6858 95.1578 22.681 95.2631 23.2048H95.3684C95.2631 22.3667 95.2105 21.6334 95.2105 20.9524C95.2105 19.9572 95.1578 18.9096 95.1052 17.8096H96.5263C96.4736 18.7524 96.421 19.9048 96.421 21.3191C96.4736 22.7858 96.4736 24.0429 96.5263 25.1953Z" fill="#FCFCFD"/>
<path fill-rule="evenodd" clip-rule="evenodd" d="M103.684 24.0428C104.368 23.2571 104.737 22.3142 104.737 21.2666C104.737 20.3237 104.421 19.538 103.789 18.8571C103.21 18.1761 102.21 17.8618 100.842 17.8618H100.21H99.4736H98.4736C98.5263 18.8571 98.5263 20.0094 98.5263 21.3713C98.5263 22.7856 98.5263 24.0428 98.4736 25.1951C99.4736 25.2475 100.21 25.2475 100.789 25.2475H100.789C102.053 25.2475 103 24.8285 103.684 24.0428ZM102.579 19.6951C103 20.219 103.21 20.7951 103.21 21.5285C103.21 22.2618 103 22.838 102.579 23.3618C102.21 23.8332 101.579 24.0951 100.789 24.0951C100.526 24.0951 100.316 24.0951 100.053 24.0428C99.9999 23.1523 99.9999 22.2618 99.9999 21.3713C99.9999 20.5332 99.9999 19.7475 99.9473 19.0142C100.263 18.9618 100.474 18.9618 100.632 18.9618C101.526 18.9618 102.158 19.2237 102.579 19.6951Z" fill="#FCFCFD"/>
<path fill-rule="evenodd" clip-rule="evenodd" d="M110.632 25.1951H112.316C111.789 23.8856 111.421 22.9952 111.158 22.5761C110.895 22.1047 110.526 21.7904 110.158 21.6856V21.5809C111.158 21.2142 111.632 20.5856 111.632 19.6428C111.632 18.438 110.789 17.8618 109.053 17.8618H108.053H107.368H106.368C106.421 18.8571 106.421 20.0094 106.421 21.3713C106.421 22.7856 106.421 24.0428 106.368 25.1951H107.947C107.895 24.1999 107.895 23.2047 107.895 22.2618H108.526C109 22.2618 109.421 22.419 109.632 22.7332C109.842 23.0475 110.211 23.8856 110.632 25.1951ZM108.684 18.9094C109.684 18.9094 110.158 19.2761 110.158 20.0094C110.158 20.8475 109.579 21.2666 108.316 21.2666H107.789C107.789 20.3761 107.789 19.5904 107.737 19.0142C108 18.9618 108.316 18.9094 108.684 18.9094Z" fill="#FCFCFD"/>
<path fill-rule="evenodd" clip-rule="evenodd" d="M119.368 24.2523C120.053 23.4666 120.421 22.5238 120.421 21.3714C120.421 20.3238 120.053 19.4333 119.421 18.7C118.789 18.019 117.947 17.6523 116.947 17.6523C115.895 17.6523 115 18.0714 114.316 18.8047C113.632 19.5904 113.263 20.5333 113.263 21.6857C113.263 22.7857 113.579 23.6762 114.263 24.3571C114.895 25.0381 115.737 25.4047 116.737 25.4047C117.789 25.4047 118.684 24.9857 119.368 24.2523ZM118.263 19.6952C118.632 20.1666 118.842 20.7952 118.842 21.5809C118.842 22.3142 118.632 22.9428 118.316 23.4666C117.895 23.9381 117.421 24.2 116.895 24.2C116.316 24.2 115.842 23.9381 115.421 23.4666C115 22.9952 114.789 22.3666 114.789 21.5809C114.789 20.7952 115 20.1666 115.368 19.6952C115.789 19.2238 116.263 18.9619 116.789 18.9619C117.368 18.9619 117.842 19.2238 118.263 19.6952Z" fill="#FCFCFD"/>
<path fill-rule="evenodd" clip-rule="evenodd" d="M123.579 25.1951H122C122.053 24.0428 122.053 22.7332 122.053 21.3713C122.053 20.0094 122.053 18.8571 122 17.8618H123.579C123.526 18.8047 123.526 19.9571 123.526 21.3713C123.526 22.7856 123.579 24.0428 123.579 25.1951Z" fill="#FCFCFD"/>
<path fill-rule="evenodd" clip-rule="evenodd" d="M130.737 24.0428C131.421 23.2571 131.79 22.3142 131.79 21.2666C131.79 20.3237 131.474 19.538 130.842 18.8571C130.263 18.1761 129.263 17.8618 127.895 17.8618H127.263H126.526H125.526C125.579 18.8571 125.579 20.0094 125.579 21.3713C125.579 22.7856 125.579 24.0428 125.526 25.1951C126.526 25.2475 127.263 25.2475 127.842 25.2475H127.842C129.105 25.2475 130.053 24.8285 130.737 24.0428ZM129.632 19.6951C130.053 20.219 130.263 20.7951 130.263 21.5285C130.263 22.2618 130.053 22.838 129.632 23.3618C129.263 23.8332 128.632 24.0951 127.842 24.0951C127.579 24.0951 127.368 24.0951 127.105 24.0428C127.053 23.1523 127.053 22.2618 127.053 21.3713C127.053 20.5332 127.053 19.7475 127 19.0142C127.316 18.9618 127.526 18.9618 127.684 18.9618C128.579 18.9618 129.211 19.2237 129.632 19.6951Z" fill="#FCFCFD"/>
<path fill-rule="evenodd" clip-rule="evenodd" d="M140.895 25.1951H142.684C142.684 25.0377 142.446 24.3179 142.015 23.0137C141.873 22.5827 141.709 22.0879 141.526 21.5285C140.737 19.2761 140.316 18.0713 140.316 17.8618H138.158C138.158 18.0713 137.737 19.3285 136.842 21.5809C135.947 23.8332 135.526 25.038 135.526 25.1951H137.211C137.211 24.9332 137.368 24.2523 137.737 23.0999H140.368C140.737 24.2523 140.895 24.9332 140.895 25.1951ZM139.105 18.8571C139.105 19.0142 139.421 20.0618 140.053 21.9999H138C138.684 20.0618 139 19.0142 139 18.8571H139.105Z" fill="#FCFCFD"/>
<path fill-rule="evenodd" clip-rule="evenodd" d="M148.263 21.7904C148.947 21.3713 149.263 20.6904 149.263 19.7999C149.263 19.119 149 18.6475 148.526 18.3332C148.053 18.019 147.474 17.8618 146.737 17.8618H145.684H144.895H143.895C143.947 18.8571 143.947 20.0094 143.947 21.3713C143.947 22.838 143.947 24.0951 143.895 25.1951H145.474C145.421 24.0428 145.421 23.0999 145.421 22.419H145.79C146.79 22.419 147.579 22.2094 148.263 21.7904ZM146.158 18.9094C147.263 18.9094 147.79 19.3285 147.79 20.1142C147.79 20.9523 147.105 21.3713 145.684 21.4237H145.368C145.368 20.5332 145.368 19.7475 145.316 19.0142C145.362 19.0066 145.407 18.9989 145.451 18.9914C145.708 18.9476 145.933 18.9094 146.158 18.9094Z" fill="#FCFCFD"/>
<path fill-rule="evenodd" clip-rule="evenodd" d="M155.053 21.7904C155.737 21.3713 156.053 20.6904 156.053 19.7999C156.053 19.119 155.789 18.6475 155.316 18.3332C154.842 18.019 154.263 17.8618 153.526 17.8618H152.474H151.684H150.684C150.737 18.8571 150.737 20.0094 150.737 21.3713C150.737 22.838 150.737 24.0951 150.684 25.1951H152.263C152.21 24.0428 152.21 23.0999 152.21 22.419H152.579C153.579 22.419 154.368 22.2094 155.053 21.7904ZM152.947 18.9094C154.053 18.9094 154.579 19.3285 154.579 20.1142C154.579 20.9523 153.895 21.3713 152.474 21.4237H152.158C152.158 20.5332 152.158 19.7475 152.105 19.0142C152.151 19.0066 152.196 18.9989 152.24 18.9914C152.498 18.9476 152.722 18.9094 152.947 18.9094Z" fill="#FCFCFD"/>
<path fill-rule="evenodd" clip-rule="evenodd" d="M166.053 24.2523C166.737 23.4666 167.105 22.5238 167.105 21.3714C167.105 20.3238 166.789 19.4333 166.105 18.7C165.474 18.019 164.631 17.6523 163.631 17.6523C162.579 17.6523 161.684 18.0714 161 18.8047C160.316 19.5904 159.947 20.5333 159.947 21.6857C159.947 22.7857 160.263 23.6762 160.947 24.3571C161.579 25.0381 162.421 25.4047 163.421 25.4047C164.474 25.4047 165.368 24.9857 166.053 24.2523ZM165 19.6952C165.368 20.1666 165.579 20.7952 165.579 21.5809C165.579 22.3142 165.368 22.9428 165.053 23.4666C164.631 23.9381 164.158 24.2 163.631 24.2C163.053 24.2 162.579 23.9381 162.158 23.4666C161.737 22.9952 161.526 22.3666 161.526 21.5809C161.526 20.7952 161.737 20.1666 162.105 19.6952C162.526 19.2238 163 18.9619 163.526 18.9619C164.105 18.9619 164.579 19.2238 165 19.6952Z" fill="#FCFCFD"/>
<path fill-rule="evenodd" clip-rule="evenodd" d="M174.789 25.1953H173.368C173.368 25.0381 172.842 24.2524 171.789 22.7334C170.684 21.162 170.105 20.1143 169.947 19.5381H169.842C169.947 20.3762 170 21.1096 170 21.7905C170 22.7334 170 23.8334 170.105 25.1953H168.737C168.789 24.0429 168.842 22.7334 168.842 21.3715C168.842 20.0096 168.789 18.8572 168.737 17.862H170.421C170.421 18.0715 170.895 18.8572 171.842 20.2191C172.842 21.6858 173.421 22.681 173.526 23.2048H173.632C173.526 22.3667 173.474 21.6334 173.474 20.9524C173.474 19.9572 173.474 18.9096 173.368 17.8096H174.789C174.737 18.7524 174.684 19.9048 174.684 21.3191C174.737 22.7858 174.737 24.0429 174.789 25.1953Z" fill="#FCFCFD"/>
<defs>
<linearGradient id="paint0_linear" x1="20.5379" y1="16.9155" x2="20.5379" y2="76.2651" gradientUnits="userSpaceOnUse">
<stop stop-color="#2079B0"/>
<stop offset="0.2863" stop-color="#4A93B8"/>
<stop offset="0.767" stop-color="#83BEBF"/>
<stop offset="1" stop-color="#97CFBF"/>
</linearGradient>
<linearGradient id="paint1_linear" x1="20.5295" y1="46.5692" x2="58.6766" y2="46.5692" gradientUnits="userSpaceOnUse">
<stop stop-color="#5ABCAB"/>
<stop offset="1" stop-color="#E6E99A"/>
</linearGradient>
<linearGradient id="paint2_linear" x1="20.5365" y1="46.5906" x2="20.5365" y2="76.4802" gradientUnits="userSpaceOnUse">
<stop stop-color="#E53432"/>
<stop offset="0.1668" stop-color="#D73948"/>
<stop offset="0.5748" stop-color="#B33F72"/>
<stop offset="0.8619" stop-color="#9A4189"/>
<stop offset="1" stop-color="#904192"/>
</linearGradient>
<linearGradient id="paint3_linear" x1="50.6249" y1="38.6199" x2="50.6249" y2="54.5603" gradientUnits="userSpaceOnUse">
<stop stop-color="#F18779"/>
<stop offset="0.1194" stop-color="#F2917A"/>
<stop offset="0.7128" stop-color="#FABC77"/>
<stop offset="1" stop-color="#FDCB73"/>
</linearGradient>
</defs>
</svg>
