<svg width="19" height="17" viewBox="0 0 19 17" fill="none" xmlns="http://www.w3.org/2000/svg">
<path fill-rule="evenodd" clip-rule="evenodd" d="M2.5001 16.5647C2.5001 16.5647 2.48275 17 2.90916 17C3.43963 17 7.83157 16.9942 7.83157 16.9942L7.8388 12.9719C7.8388 12.9719 7.76942 12.3088 8.41481 12.3088H10.4572C11.2204 12.3088 11.1734 12.9719 11.1734 12.9719L11.1647 16.9813C11.1647 16.9813 15.329 16.9813 15.9831 16.9813C16.5244 16.9813 16.4998 16.4393 16.4998 16.4393V9.02378L9.70919 3L2.5001 9.02378V16.5647Z" fill="#595976"/>
<path fill-rule="evenodd" clip-rule="evenodd" d="M0 8.45751C0 8.45751 0.595596 9.67811 1.89437 8.45751L9.65611 2L16.9333 8.41216C18.4368 9.6179 19 8.41216 19 8.41216L9.65611 0L0 8.45751Z" fill="#595976"/>
<path fill-rule="evenodd" clip-rule="evenodd" d="M17 1H15L15.0083 4L17 5.7V1Z" fill="#595976"/>
</svg>
