<svg width="75" height="76" viewBox="0 0 75 76" fill="none" xmlns="http://www.w3.org/2000/svg">
<path fill-rule="evenodd" clip-rule="evenodd" d="M37.4636 0C47.4702 0 56.8789 3.94922 63.9543 11.1197C71.0299 18.2897 74.9272 27.823 74.9272 37.9631C74.9272 48.1047 71.0299 57.6378 63.9543 64.8078C56.8789 71.9777 47.471 75.9262 37.4636 75.9262C27.457 75.9262 18.049 71.9777 10.9734 64.8078C3.89726 57.6378 0 48.1047 0 37.9631C0 27.823 3.89726 18.2904 10.9734 11.1197C18.0498 3.94922 27.457 0 37.4636 0ZM37.4636 73.5534C46.8457 73.5534 55.6656 69.8518 62.2987 63.13C68.932 56.4085 72.5855 47.4711 72.5855 37.9631C72.5855 28.4566 68.932 19.5192 62.2987 12.7975C55.6648 6.075 46.845 2.37287 37.4636 2.37287C28.0829 2.37287 19.2631 6.075 12.6291 12.7975C5.99506 19.52 2.34165 28.4574 2.34165 37.9631C2.34165 47.4703 5.99506 56.4085 12.6291 63.13C19.2624 69.8518 28.0822 73.5534 37.4636 73.5534Z" fill="white"/>
<path fill-rule="evenodd" clip-rule="evenodd" d="M52.3849 19.9155L33.1823 28.7658C32.6823 28.9962 32.4657 29.5844 32.6985 30.0794C32.9313 30.5744 33.5253 30.789 34.025 30.5584L45.8704 25.0989L40.1116 29.7146L26.896 40.3067L19.6676 37.1756L29.7967 32.5072C30.2967 32.2766 30.5133 31.6886 30.2805 31.1936C30.0478 30.6987 29.4536 30.484 28.954 30.7146L18.0509 35.7398C17.4713 36.0069 17.1054 36.5913 17.1201 37.2239C17.1344 37.8429 17.5123 38.4001 18.0851 38.6482L26.1562 42.1441L28.52 56.1861C28.6655 57.0544 29.8529 57.3016 30.34 56.5653L37.0453 46.4325L49.7259 52.2914C50.7418 52.7612 51.9508 52.0433 52.0163 50.9391L53.8029 20.8694C53.8047 20.8415 53.8046 20.8129 53.804 20.7849C53.7841 20.0851 53.0248 19.6225 52.3849 19.9155ZM30.053 51.2174L28.5327 41.824L44.0218 28.9131L32.167 42.5992C32.0604 42.7224 31.9812 42.8773 31.9444 43.0383L30.053 51.2174ZM33.1861 44.6087L31.7935 50.3913L35.0544 45.4707L33.1861 44.6087ZM36.2277 44.6087L34.2392 43.5778L44.0218 31.3913L42.6068 33.791L36.2277 44.6087ZM38.3153 44.7572L49.8705 50.3913L51.3588 23.9565L38.3153 44.7572Z" fill="white"/>
</svg>
