<svg width="75" height="76" viewBox="0 0 75 76" fill="none" xmlns="http://www.w3.org/2000/svg">
<path fill-rule="evenodd" clip-rule="evenodd" d="M37.5 0C47.5167 0 56.9341 3.95289 64.0169 11.1304C71.0994 18.3077 75 27.8501 75 38C75 48.1515 71.0994 57.6945 64.0167 64.8713C56.9345 72.0479 47.5173 76 37.5 76C27.4835 76 18.0667 72.0479 10.984 64.8713C3.90088 57.6944 0 48.1513 0 38C0 27.8504 3.90088 18.308 10.984 11.1304C18.0671 3.95289 27.484 0 37.5 0ZM37.5 73.625C46.8913 73.625 55.7199 69.9199 62.3596 63.1919C68.9996 56.4637 72.6562 47.5171 72.6562 38C72.6562 28.4846 68.9996 19.5385 62.3596 12.8097C55.7194 6.08074 46.8908 2.375 37.5 2.375C28.1101 2.375 19.2817 6.08074 12.6412 12.8099C6.00073 19.5388 2.34375 28.4849 2.34375 38C2.34375 47.5168 6.00073 56.4635 12.6412 63.1919C19.2812 69.9199 28.1095 73.625 37.5 73.625Z" fill="#595976"/>
<path d="M37.9078 15.6957C31.8383 15.6957 26.9023 20.5122 26.9023 26.4348C26.9023 32.3574 31.8383 37.1739 37.9078 37.1739C43.9773 37.1739 48.9132 32.3574 48.9132 26.4348C48.9132 20.5122 43.9773 15.6957 37.9078 15.6957Z" stroke="#595976" stroke-width="2"/>
<path d="M37.9075 31.8044C34.8728 31.8044 32.4048 29.3961 32.4048 26.4348C32.4048 23.4735 34.8728 21.0652 37.9075 21.0652C40.9423 21.0652 43.4102 23.4735 43.4102 26.4348C43.4102 29.3961 40.9423 31.8044 37.9075 31.8044Z" stroke="#595976" stroke-width="2"/>
<path d="M52.1798 37.1549C51.0976 36.0788 49.3484 36.0788 48.2662 37.1549C42.3322 43.0555 32.6728 43.0555 26.736 37.1549C25.6538 36.0788 23.9046 36.0788 22.8224 37.1549C21.7402 38.231 21.7402 39.9704 22.8224 41.0492C26.2654 44.4729 30.6302 46.4241 35.1305 46.9333L27.2397 54.7797C26.1575 55.8558 26.1575 57.5951 27.2397 58.6712C28.3219 59.7473 30.0711 59.7473 31.1533 58.6712L37.4997 52.3605L43.8461 58.6712C44.3858 59.2079 45.0944 59.4776 45.8029 59.4776C46.5115 59.4776 47.22 59.2079 47.7597 58.6712C48.8419 57.5951 48.8419 55.8558 47.7597 54.7797L39.8689 46.9333C44.3692 46.4241 48.734 44.4729 52.177 41.0492C53.2592 39.9731 53.2592 38.231 52.1798 37.1549Z" stroke="#595976" stroke-width="2"/>
</svg>
