<svg width="60" height="60" viewBox="0 0 60 60" fill="none" xmlns="http://www.w3.org/2000/svg">
<path fill-rule="evenodd" clip-rule="evenodd" d="M30.0331 24.8572C32.8831 24.8468 35.153 22.5582 35.1426 19.7031C35.1322 16.8467 32.8575 14.574 30.0063 14.5715C27.1312 14.5685 24.8351 16.8834 24.8571 19.7653C24.8785 22.6101 27.174 24.8676 30.0331 24.8572Z" fill="#E59A05"/>
<path fill-rule="evenodd" clip-rule="evenodd" d="M30 0C13.4314 0 0 13.432 0 30C0 46.568 13.4314 60 30 60C46.5686 60 60 46.568 60 30C60 13.432 46.5686 0 30 0ZM30.043 9.12307C35.8864 9.13903 40.5766 13.9188 40.5465 19.8267C40.517 25.5984 35.7502 30.2762 29.9165 30.2566C24.1424 30.2369 19.4069 25.4498 19.4412 19.6665C19.4738 13.8199 24.2118 9.10711 30.043 9.12307ZM37.3037 37.3645C39.031 36.6948 40.5864 35.7348 41.8785 34.4084C42.7212 33.5423 42.7292 32.4546 42.0448 31.3393C41.447 30.3634 40.4059 29.9527 39.2913 30.24C38.7173 30.3867 38.222 30.6776 37.7592 31.0312C33.0844 34.1758 26.6873 34.088 22.0309 30.8882C21.8026 30.731 21.5644 30.5825 21.314 30.4653C20.0219 29.8558 18.7795 30.1393 18.0387 31.2C17.1738 32.4387 17.2837 33.6424 18.3781 34.6926C18.6068 34.9134 18.8601 35.1092 19.1132 35.3048C19.1725 35.3506 19.2319 35.3965 19.2908 35.4427C21.7897 37.3964 24.7083 38.1931 27.945 38.5314C27.8632 38.6191 27.792 38.6968 27.727 38.7677C27.6102 38.8953 27.5136 39.0008 27.4122 39.1022C27.0736 39.4418 26.735 39.7815 26.3965 40.1212C24.3621 42.1622 22.3273 44.2036 20.2871 46.2396C19.7948 46.7294 19.4425 47.2782 19.4069 47.9939C19.3565 49.0551 20.0133 50.1103 21.0463 50.6099C22.0186 51.0826 23.0154 50.9328 23.8533 50.1066C25.7187 48.267 27.5736 46.4176 29.3985 44.5381C29.8558 44.0679 30.1037 43.9648 30.6224 44.5062C31.8225 45.7627 33.0557 46.9887 34.289 48.2147C34.8812 48.8035 35.4734 49.3923 36.062 49.9845C36.5352 50.4614 37.0686 50.8008 37.7524 50.8481C38.8321 50.9224 39.9327 50.2324 40.4231 49.1828C40.8724 48.2234 40.7024 47.1996 39.886 46.3734C38.4063 44.8766 36.9191 43.3871 35.4318 41.8975C34.5111 40.9754 33.5903 40.0532 32.6713 39.1292C32.5488 39.0067 32.4484 38.897 32.2976 38.7324C32.243 38.6727 32.1817 38.6057 32.1103 38.5283C33.8817 38.3159 35.671 37.9973 37.3037 37.3645Z" fill="#E59A05"/>
</svg>
