<svg width="75" height="76" viewBox="0 0 75 76" fill="none" xmlns="http://www.w3.org/2000/svg">
<path fill-rule="evenodd" clip-rule="evenodd" d="M37.5 0C47.5167 0 56.9341 3.95289 64.0169 11.1304C71.0994 18.3077 75 27.8501 75 38C75 48.1515 71.0994 57.6945 64.0167 64.8713C56.9345 72.0479 47.5173 76 37.5 76C27.4835 76 18.0667 72.0479 10.984 64.8713C3.90088 57.6944 0 48.1513 0 38C0 27.8504 3.90088 18.308 10.984 11.1304C18.0671 3.95289 27.484 0 37.5 0ZM37.5 73.625C46.8913 73.625 55.7199 69.9199 62.3596 63.1919C68.9996 56.4637 72.6562 47.5171 72.6562 38C72.6562 28.4846 68.9996 19.5385 62.3596 12.8097C55.7194 6.08074 46.8908 2.375 37.5 2.375C28.1101 2.375 19.2817 6.08074 12.6412 12.8099C6.00073 19.5388 2.34375 28.4849 2.34375 38C2.34375 47.5168 6.00073 56.4635 12.6412 63.1919C19.2812 69.9199 28.1095 73.625 37.5 73.625Z" fill="#595976"/>
<path fill-rule="evenodd" clip-rule="evenodd" d="M33.9452 29.2748L46.401 35.9296C47.446 36.4879 48.0962 37.5873 48.0977 38.7987C48.0989 40.0109 47.4515 41.1122 46.408 41.673L33.9522 48.3709C33.5043 48.6117 33.0003 48.7391 32.4946 48.7391C31.9197 48.7391 31.3559 48.5772 30.8644 48.271C29.9286 47.6876 29.3477 46.6264 29.3477 45.5013V32.1481C29.3477 31.0245 29.9275 29.9644 30.8607 29.381C31.7945 28.7974 32.9762 28.7569 33.9452 29.2748ZM45.2838 39.4328H45.2839C45.5111 39.3101 45.6521 39.069 45.652 38.8035C45.6516 38.5388 45.5101 38.2982 45.2825 38.176L32.7943 31.4703C32.696 31.4175 32.5874 31.3913 32.479 31.3913C32.3549 31.3913 32.2313 31.4256 32.1227 31.4937C31.9196 31.6213 31.7933 31.8532 31.7933 32.099V45.554C31.7933 45.8004 31.9198 46.0327 32.1236 46.1604C32.324 46.2859 32.5876 46.2946 32.7956 46.1821L45.2838 39.4328Z" fill="#595976"/>
<path fill-rule="evenodd" clip-rule="evenodd" d="M58.404 24.6979V24.6978C60.1923 26.9451 60.326 30.1622 60.326 34.814V42.8382C60.326 48.2138 59.4831 51.3603 57.5079 53.3591C55.5862 55.3038 52.7232 56.097 47.6257 56.097H27.3739C22.2664 56.097 18.988 55.0108 17.0567 52.6789C14.9625 50.1502 14.6738 46.4549 14.6738 42.8382V34.814C14.6738 30.4107 14.6738 27.2292 16.4055 24.9029C18.1758 22.5251 21.3535 21.5552 27.3739 21.5552H47.6256C53.5055 21.5552 56.6283 22.4657 58.404 24.6979ZM56.2503 51.9697C57.8322 50.3689 58.5072 47.6379 58.5072 42.8382V34.814C58.5072 30.5859 58.4033 27.6839 57.0123 25.936V25.9359C55.6236 24.1903 52.9041 23.4783 47.6257 23.4783H27.374V23.4784C21.9807 23.4784 19.217 24.2358 17.8347 26.0927C16.4927 27.8954 16.4927 30.7975 16.4927 34.8141V42.8383C16.4927 50.6769 18.0637 54.1738 27.3739 54.1738H47.6258C52.2046 54.1738 54.7033 53.5351 56.2503 51.9697Z" fill="#595976"/>
<path fill-rule="evenodd" clip-rule="evenodd" d="M45.6238 50.3913H44.8648C44.399 50.3913 44.0215 50.946 44.0215 51.6304C44.0215 52.3148 44.399 52.8696 44.8648 52.8696H45.6238C46.0896 52.8696 46.4671 52.3148 46.4671 51.6304C46.4671 50.946 46.0896 50.3913 45.6238 50.3913Z" fill="#595976"/>
<path fill-rule="evenodd" clip-rule="evenodd" d="M40.6599 50.3913H26.1874C25.6816 50.3913 25.2715 50.946 25.2715 51.6304C25.2715 52.3148 25.6816 52.8696 26.1874 52.8696H40.6599C41.1658 52.8696 41.5758 52.3148 41.5758 51.6304C41.5758 50.946 41.1658 50.3913 40.6599 50.3913Z" fill="#595976"/>
</svg>
