<svg width="75" height="76" viewBox="0 0 75 76" fill="none" xmlns="http://www.w3.org/2000/svg">
<path fill-rule="evenodd" clip-rule="evenodd" d="M64.0169 11.1304C56.9341 3.95289 47.5167 0 37.5 0C27.484 0 18.0671 3.95289 10.984 11.1304C3.90088 18.308 0 27.8504 0 38C0 48.1513 3.90088 57.6944 10.984 64.8713C18.0667 72.0479 27.4835 76 37.5 76C47.5173 76 56.9345 72.0479 64.0167 64.8713C71.0994 57.6945 75 48.1515 75 38C75 27.8501 71.0994 18.3077 64.0169 11.1304ZM62.3596 63.1919C55.7199 69.9199 46.8913 73.625 37.5 73.625C28.1095 73.625 19.2812 69.9199 12.6412 63.1919C6.00073 56.4635 2.34375 47.5168 2.34375 38C2.34375 28.4849 6.00073 19.5388 12.6412 12.8099C19.2817 6.08074 28.1101 2.375 37.5 2.375C46.8908 2.375 55.7194 6.08074 62.3596 12.8097C68.9996 19.5385 72.6562 28.4846 72.6562 38C72.6562 47.5171 68.9996 56.4637 62.3596 63.1919ZM32.5608 57.8261H40.237C40.8956 57.8261 41.4296 57.2993 41.4296 56.6495V39.6033H45.4176C46.029 39.6033 46.5414 39.1472 46.604 38.5473L47.2763 32.1098C47.3109 31.7786 47.2016 31.4483 46.9753 31.2011C46.7492 30.9537 46.4275 30.8127 46.09 30.8127H41.4296V28.2052C41.4296 27.6666 41.6024 27.6263 41.8661 27.6263H45.9929C46.6515 27.6263 47.1855 27.0995 47.1855 26.4498V20.1993C47.1855 19.5514 46.6545 19.0254 45.9977 19.0228L40.3063 19C36.3182 19 34.1898 20.731 33.1066 22.183C31.594 24.2106 31.3682 26.5864 31.3682 27.8221V30.8125H28.91C28.2514 30.8125 27.7174 31.3393 27.7174 31.9891V38.4266C27.7174 39.0763 28.2514 39.6031 28.91 39.6031H31.3682V56.6495C31.3682 57.2993 31.902 57.8261 32.5608 57.8261ZM30.1025 37.2502V33.1658H32.5606C33.2193 33.1658 33.7533 32.639 33.7533 31.9892V27.8222C33.7533 27.0596 33.8775 25.1197 35.0275 23.5778C36.1285 22.1017 37.9047 21.3532 40.3012 21.3532L44.8 21.3712V25.2734H41.8658C40.4614 25.2734 39.0441 26.1799 39.0441 28.2053V31.9894C39.0441 32.6391 39.5781 33.1659 40.2367 33.1659H44.7679L44.3413 37.2503H40.2367C39.5781 37.2503 39.0441 37.7771 39.0441 38.4269V55.473H33.7531V38.4267C33.7531 37.777 33.2191 37.2502 32.5605 37.2502H30.1025Z" fill="white"/>
</svg>
