<svg width="25" height="25" viewBox="0 0 25 25" fill="none" xmlns="http://www.w3.org/2000/svg">
<path fill-rule="evenodd" clip-rule="evenodd" d="M0 12.4981C0 12.9876 0.379112 13.3844 0.846849 13.3844H16.9764L13.8302 16.672C13.5003 17.0172 13.5003 17.5789 13.8302 17.9242C13.9927 18.0942 14.2093 18.1818 14.426 18.1818C14.6426 18.1818 14.8592 18.0942 15.0217 17.9242L19.6055 13.1267C19.9354 12.7815 19.9354 12.2198 19.6055 11.8745L15.0217 7.07711C14.6918 6.73186 14.1552 6.73186 13.8253 7.07711C13.4954 7.42236 13.4954 7.98404 13.8253 8.32929L16.9665 11.6169H0.846849C0.379112 11.6169 0 12.0085 0 12.4981Z" fill="#E5EBF2"/>
<path fill-rule="evenodd" clip-rule="evenodd" d="M19.905 25C22.7179 25 25 22.6446 25 19.7476V5.2524C25 2.35541 22.7129 0 19.905 0H5.83033C3.01739 0 0.735291 2.35541 0.735291 5.2524V8.23115C0.735291 8.71653 1.11729 9.10484 1.58364 9.10484C2.05494 9.10484 2.43695 8.71142 2.43695 8.23115V5.2524C2.43695 3.32618 3.96 1.7525 5.83033 1.7525H19.905C21.7753 1.7525 23.2983 3.32107 23.2983 5.2524V19.7476C23.2983 21.6738 21.7753 23.2475 19.905 23.2475H5.83033C3.96 23.2475 2.43695 21.6789 2.43695 19.7476V16.8046C2.43695 16.3192 2.05494 15.9258 1.58364 15.9258C1.11233 15.9258 0.735291 16.3192 0.735291 16.8046V19.7476C0.735291 22.6446 3.02235 25 5.83033 25H19.905Z" fill="#E5EBF2"/>
</svg>
