<svg width="75" height="76" viewBox="0 0 75 76" fill="none" xmlns="http://www.w3.org/2000/svg">
<path fill-rule="evenodd" clip-rule="evenodd" d="M37.5 0C47.5167 0 56.9341 3.95289 64.0169 11.1304C71.0994 18.3077 75 27.8501 75 38C75 48.1515 71.0994 57.6945 64.0167 64.8713C56.9345 72.0479 47.5173 76 37.5 76C27.4835 76 18.0667 72.0479 10.984 64.8713C3.90088 57.6944 0 48.1513 0 38C0 27.8504 3.90088 18.308 10.984 11.1304C18.0671 3.95289 27.484 0 37.5 0ZM37.5 73.625C46.8913 73.625 55.7199 69.9199 62.3596 63.1919C68.9996 56.4637 72.6562 47.5171 72.6562 38C72.6562 28.4846 68.9996 19.5385 62.3596 12.8097C55.7194 6.08074 46.8908 2.375 37.5 2.375C28.1101 2.375 19.2817 6.08074 12.6412 12.8099C6.00073 19.5388 2.34375 28.4849 2.34375 38C2.34375 47.5168 6.00073 56.4635 12.6412 63.1919C19.2812 69.9199 28.1095 73.625 37.5 73.625ZM58.7588 50.2499L58.1146 49.1835C56.8557 47.0997 55.332 45.189 53.586 43.5042L51.4322 41.426C51.2275 41.2284 51.1968 40.9147 51.3592 40.6802L54.3001 36.4337C54.7242 35.8213 55.1155 35.1763 55.4634 34.5169L57.9764 29.752C58.4144 28.9217 58.391 27.9436 57.9137 27.1356C57.4366 26.3278 56.5967 25.8448 55.6676 25.8437L50.2281 25.8374H50.2248C49.0852 25.8374 48.0532 26.5204 47.5952 27.5779L47.0191 28.9082C45.5492 32.3021 43.5427 35.3967 41.0536 38.11V28.3985C41.0536 26.9856 39.9192 25.8361 38.5251 25.8361H30.8211C29.5561 25.8361 28.5271 26.879 28.5271 28.1609C28.5271 28.6504 28.676 29.1193 28.9576 29.5166L29.4967 30.2776C30.0252 31.0234 30.3045 31.9029 30.3045 32.8213V39.9175C29.3545 38.7994 28.1978 37.2811 27.2185 35.5354C25.719 32.862 24.6442 29.7447 24.137 28.1243C23.7085 26.7557 22.4689 25.8361 21.0522 25.8361H15.5429C14.7654 25.8361 14.0504 26.1964 13.5807 26.8244C13.1113 27.4526 12.9629 28.248 13.1738 29.0066L14.2015 32.7028C14.8313 34.9684 15.6972 37.174 16.7749 39.2584C17.1002 39.8877 17.8673 40.1307 18.4886 39.801C19.1098 39.4712 19.3494 38.6937 19.024 38.0643C18.028 36.1378 17.2278 34.0991 16.6456 32.0051L15.6458 28.4092H21.0523C21.3574 28.4092 21.6244 28.6073 21.7167 28.9023C22.2541 30.6189 23.3967 33.9287 25.0112 36.8067C26.3359 39.1683 27.9431 41.1356 29.0583 42.3701C29.6692 43.0465 30.6092 43.2692 31.453 42.9367C32.2978 42.6042 32.8437 41.7958 32.8437 40.8777V32.8213C32.8437 31.3612 32.3995 29.9626 31.5594 28.7768L31.2987 28.4092H38.5144V38.7263C38.5144 39.4811 38.8884 40.1752 39.515 40.5833C40.1414 40.9915 40.9198 41.048 41.5975 40.7345L42.1209 40.4923C42.3621 40.3809 42.5763 40.2254 42.758 40.03C45.5133 37.0651 47.7292 33.671 49.3444 29.942L49.9205 28.6118C49.9734 28.4893 50.0929 28.4103 50.2248 28.4103H50.2252L55.6647 28.4166C55.6833 28.4166 55.7113 28.4168 55.7352 28.4571C55.759 28.4974 55.7461 28.5223 55.7374 28.5388L55.7372 28.5392L53.2242 33.304C52.9245 33.8722 52.5871 34.4279 52.2217 34.9556L49.2809 39.2021C48.3906 40.4876 48.5591 42.2065 49.6813 43.2894L51.835 45.3676C53.4212 46.8981 54.8055 48.6342 55.9492 50.527L56.5934 51.5934C56.6089 51.619 56.656 51.6971 56.5974 51.8032C56.5387 51.9094 56.4483 51.9094 56.4187 51.9094H51.7227C51.1192 51.9094 50.5319 51.658 50.1113 51.2197L45.4156 46.3271C44.3091 45.1741 42.9048 44.3822 41.3545 44.0375C40.6596 43.8827 39.9423 44.0532 39.3875 44.5054C38.8327 44.9576 38.5145 45.6305 38.5145 46.3519V51.1591C38.5145 51.5728 38.1824 51.9095 37.774 51.9095C34.1351 51.9095 30.5393 50.6757 27.6488 48.4355C26.4843 47.533 25.3737 46.5377 24.3478 45.4773C23.8569 44.9702 23.0532 44.9618 22.5523 45.4593C22.0516 45.9568 22.0437 46.7714 22.5345 47.2787C23.6445 48.426 24.8462 49.5028 26.1061 50.4793C29.4369 53.0608 33.5806 54.4825 37.7739 54.4825C39.5823 54.4825 41.0536 52.9916 41.0536 51.1591V46.6107C42.0204 46.8723 42.8947 47.3911 43.5953 48.1211L48.291 53.0137C49.1868 53.9471 50.4376 54.4825 51.7227 54.4825H56.4187C57.4107 54.4825 58.3279 53.9378 58.8125 53.0609C59.2973 52.1842 59.2767 51.107 58.7588 50.2499ZM21.3258 41.8401L21.3399 41.86C21.7484 42.4374 21.6176 43.2411 21.0479 43.6552C20.8238 43.818 20.5652 43.8963 20.3092 43.8963C19.9139 43.8963 19.5242 43.7098 19.2763 43.3593L20.3081 42.6097L19.2708 43.3517L19.2622 43.3394C18.8536 42.762 18.9844 41.9583 19.5542 41.5442C20.1241 41.1301 20.9171 41.2627 21.3258 41.8401Z" fill="white"/>
</svg>
