<svg width="75" height="76" viewBox="0 0 75 76" fill="none" xmlns="http://www.w3.org/2000/svg">
<path fill-rule="evenodd" clip-rule="evenodd" d="M37.4636 0C47.4702 0 56.8789 3.94922 63.9543 11.1197C71.0299 18.2897 74.9272 27.823 74.9272 37.9631C74.9272 48.1047 71.0299 57.6378 63.9543 64.8078C56.8789 71.9777 47.471 75.9262 37.4636 75.9262C27.457 75.9262 18.049 71.9777 10.9734 64.8078C3.89726 57.6378 0 48.1047 0 37.9631C0 27.823 3.89726 18.2904 10.9734 11.1197C18.0498 3.94922 27.457 0 37.4636 0ZM37.4636 73.5534C46.8457 73.5534 55.6656 69.8518 62.2987 63.13C68.932 56.4085 72.5855 47.4711 72.5855 37.9631C72.5855 28.4566 68.932 19.5192 62.2987 12.7975C55.6648 6.075 46.845 2.37287 37.4636 2.37287C28.0829 2.37287 19.2631 6.075 12.6291 12.7975C5.99506 19.52 2.34165 28.4574 2.34165 37.9631C2.34165 47.4703 5.99506 56.4085 12.6291 63.13C19.2624 69.8518 28.0822 73.5534 37.4636 73.5534Z" fill="#595976"/>
<path fill-rule="evenodd" clip-rule="evenodd" d="M27.7447 19.0231H47.2557C52.2027 19.0231 56.2273 23.1016 56.2273 28.1147V47.8855C56.2273 52.8988 52.2027 56.9771 47.2557 56.9771H27.7447C22.7976 56.9771 18.7729 52.8988 18.7729 47.8855V28.1147C18.7729 23.1016 22.7976 19.0231 27.7447 19.0231ZM47.2557 54.5831C50.9001 54.5831 53.8651 51.5784 53.8651 47.8854V28.1147C53.8651 24.422 50.9001 21.4176 47.2557 21.4176H27.7447C24.1007 21.4176 21.1358 24.4218 21.1358 28.1147V47.8854C21.1358 51.5784 24.1005 54.5831 27.7447 54.5831H47.2557Z" fill="#595976"/>
<path fill-rule="evenodd" clip-rule="evenodd" d="M47.9676 25.9595C47.1743 25.9595 46.5288 26.6135 46.5288 27.417C46.5288 28.2205 47.1743 28.8743 47.9676 28.8743C48.7606 28.8743 49.4058 28.2205 49.4058 27.417C49.4058 26.6135 48.7606 25.9595 47.9676 25.9595Z" fill="#595976"/>
<path fill-rule="evenodd" clip-rule="evenodd" d="M28.3198 37.9996C28.3198 32.8704 32.4379 28.6974 37.4997 28.6974C42.5618 28.6974 46.6803 32.8704 46.6803 37.9996C46.6803 43.1293 42.5618 47.3026 37.4997 47.3026C32.4379 47.3026 28.3198 43.1293 28.3198 37.9996ZM30.6818 37.9996C30.6818 41.8094 33.7402 44.909 37.4997 44.909C41.2588 44.909 44.317 41.8094 44.3169 37.9996C44.3169 34.1908 41.2588 31.0921 37.4997 31.0921C33.7402 31.0921 30.6818 34.1908 30.6818 37.9996Z" fill="#595976"/>
</svg>
