<svg width="60" height="60" viewBox="0 0 60 60" fill="none" xmlns="http://www.w3.org/2000/svg">
<path fill-rule="evenodd" clip-rule="evenodd" d="M30 60C46.5685 60 60 46.5685 60 30C60 13.4315 46.5685 0 30 0C13.4315 0 0 13.4315 0 30C0 46.5685 13.4315 60 30 60Z" fill="#4D76A1"/>
<path fill-rule="evenodd" clip-rule="evenodd" d="M29.0898 42.4874H31.4615C31.4615 42.4874 32.1779 42.4101 32.5437 42.0223C32.8803 41.6664 32.8695 40.998 32.8695 40.998C32.8695 40.998 32.8232 37.8687 34.3002 37.4078C35.7562 36.9539 37.6258 40.4323 39.6075 41.7697C41.106 42.7819 42.2447 42.56 42.2447 42.56L47.5434 42.4874C47.5434 42.4874 50.3153 42.3195 49.001 40.1764C48.8933 40.0011 48.2356 38.5911 45.0613 35.6938C41.7389 32.6615 42.1838 33.1519 46.186 27.9066C48.6234 24.7122 49.5978 22.7619 49.2935 21.9266C49.0031 21.1311 47.2105 21.3414 47.2105 21.3414L41.2444 21.3779C41.2444 21.3779 40.8022 21.3186 40.4742 21.5114C40.1537 21.7005 39.9474 22.1412 39.9474 22.1412C39.9474 22.1412 39.0031 24.6131 37.7438 26.7154C35.0872 31.1514 34.0249 31.3855 33.5908 31.1101C32.5808 30.4681 32.8329 28.5311 32.8329 27.155C32.8329 22.8562 33.496 21.0638 31.5418 20.5998C30.8932 20.4457 30.416 20.344 28.7575 20.3276C26.6288 20.3059 24.827 20.3339 23.8068 20.8255C23.1281 21.1523 22.6045 21.8806 22.9234 21.9224C23.3177 21.9743 24.2108 22.1592 24.6842 22.7932C25.2956 23.611 25.2741 25.4479 25.2741 25.4479C25.2741 25.4479 25.6253 30.5084 24.4537 31.1371C23.6495 31.5682 22.5463 30.6879 20.1779 26.6635C18.9643 24.602 18.0481 22.3234 18.0481 22.3234C18.0481 22.3234 17.8714 21.8975 17.5563 21.6698C17.1739 21.3938 16.6395 21.3059 16.6395 21.3059L10.9703 21.3424C10.9703 21.3424 10.1192 21.3657 9.80677 21.7296C9.52883 22.0532 9.78469 22.7227 9.78469 22.7227C9.78469 22.7227 14.2232 32.9337 19.2487 38.0795C23.8569 42.7972 29.0898 42.4874 29.0898 42.4874Z" fill="white"/>
</svg>
