<svg width="60" height="60" viewBox="0 0 60 60" fill="none" xmlns="http://www.w3.org/2000/svg">
<path fill-rule="evenodd" clip-rule="evenodd" d="M29.787 59.5731C46.2377 59.5731 59.5736 46.2372 59.5736 29.7865C59.5736 13.3359 46.2377 0 29.787 0C13.3364 0 0.000488281 13.3359 0.000488281 29.7865C0.000488281 46.2372 13.3364 59.5731 29.787 59.5731Z" fill="#55ACEE"/>
<path fill-rule="evenodd" clip-rule="evenodd" d="M48.0325 21.4066C46.756 21.9726 45.3829 22.3555 43.9429 22.5265C45.4132 21.6456 46.5415 20.2518 47.0741 18.5882C45.6983 19.4043 44.1739 19.9964 42.5528 20.3155C41.2541 18.9323 39.4036 18.0679 37.3546 18.0679C33.4233 18.0679 30.2348 21.2564 30.2348 25.1877C30.2348 25.7457 30.298 26.2889 30.4201 26.8103C24.5029 26.5135 19.2564 23.6792 15.7445 19.3703C15.1318 20.4217 14.7803 21.6456 14.7803 22.9502C14.7803 25.4197 16.0381 27.5999 17.9475 28.8764C16.781 28.8397 15.6824 28.5196 14.7229 27.9849C14.7224 28.0151 14.7224 28.0454 14.7224 28.0751C14.7224 31.5249 17.1776 34.4022 20.4341 35.0558C19.8372 35.2194 19.207 35.3059 18.5587 35.3059C18.0988 35.3059 17.6533 35.2619 17.219 35.179C18.1249 38.007 20.7537 40.0656 23.87 40.1234C21.4328 42.0334 18.3633 43.1712 15.0266 43.1712C14.4532 43.1712 13.885 43.1378 13.3291 43.0714C16.4783 45.0923 20.2217 46.2705 24.2422 46.2705C37.3381 46.2705 44.4999 35.4217 44.4999 26.0123C44.4999 25.7038 44.493 25.3964 44.4792 25.0916C45.8714 24.088 47.0783 22.8344 48.0325 21.4066Z" fill="#F1F2F2"/>
</svg>
