<svg width="60" height="60" viewBox="0 0 60 60" fill="none" xmlns="http://www.w3.org/2000/svg">
<path fill-rule="evenodd" clip-rule="evenodd" d="M29.9301 0C46.3917 0 59.8603 13.4686 59.8603 29.9301C59.8603 46.3917 46.3917 59.8603 29.9301 59.8603C13.4686 59.8603 0 46.3915 0 29.9301C0 13.4688 13.4686 0 29.9301 0Z" fill="#DD4B39"/>
<path fill-rule="evenodd" clip-rule="evenodd" d="M45.082 24.8794V28.2466H48.449V31.6138H45.082V34.981H41.7148V31.6138H38.3477V28.2466H41.7148V24.8794H45.082Z" fill="white"/>
<path fill-rule="evenodd" clip-rule="evenodd" d="M14.7777 38.3478C10.2882 33.8583 10.2882 26.0016 14.9647 21.5122C18.3319 18.145 23.1954 17.3969 27.4979 19.0804L29.1814 20.0157L31.0521 21.3253L28.0591 24.3183L26.9368 23.5701C24.3179 21.8866 20.5766 22.2606 18.1449 24.6924C15.3389 27.4985 15.1519 32.5492 18.1449 35.5422C20.9509 38.5352 26.0016 38.5352 28.6205 35.5422C29.3686 34.794 30.117 33.6715 30.304 32.5492V32.175H23.5698V28.4338H34.2323L34.4193 29.3692V31.988C34.2323 34.4198 33.297 36.8517 31.6133 38.5352C27.124 42.8373 19.2672 42.8373 14.7777 38.3478Z" fill="white"/>
</svg>
