<svg width="38" height="113" viewBox="0 0 38 113" fill="none" xmlns="http://www.w3.org/2000/svg">
<g clip-path="url(#clip0)">
<g filter="url(#filter0_dd)">
<path fill-rule="evenodd" clip-rule="evenodd" d="M0 1H37V113L18.8164 100L0 113V1Z" fill="url(#paint0_linear)"/>
</g>
<path fill-rule="evenodd" clip-rule="evenodd" d="M33.7877 90.6659L32.517 88.2743C32.3252 87.8757 32.565 87.7116 32.6369 87.6647C32.7568 87.5943 32.9246 87.6178 33.0205 87.735C33.0445 87.7585 33.0445 87.8054 33.0445 87.8522C33.0445 87.8991 33.0205 87.9226 32.9726 87.946C32.8767 87.9929 32.8527 88.1102 32.9006 88.204C32.9486 88.2977 33.0924 88.3212 33.1644 88.2743C33.2843 88.204 33.3802 88.0867 33.4041 87.946C33.4281 87.8054 33.4041 87.6647 33.3322 87.5474C33.1404 87.2426 32.7328 87.1488 32.4211 87.3599C32.0375 87.5943 31.9416 88.0164 32.1574 88.4619L33.4281 90.8535C33.6439 91.3224 33.7877 91.9555 33.0924 92.3775C32.7328 92.612 32.2533 92.4948 32.0135 92.1431C31.8697 91.9086 31.9416 91.5803 32.1814 91.4396C32.3492 91.3459 32.541 91.3928 32.6369 91.5334C32.6848 91.6272 32.6609 91.7445 32.565 91.7914C32.4691 91.8382 32.4451 91.9555 32.517 92.0493C32.565 92.1431 32.6848 92.1665 32.7808 92.0962C33.0445 91.932 33.1404 91.5803 32.9486 91.299C32.8527 91.1348 32.6848 91.0176 32.493 90.9942C32.3012 90.9473 32.1094 90.9942 31.9416 91.0879C31.7258 91.2052 31.582 91.4162 31.534 91.6507C31.486 91.8851 31.534 92.1196 31.6539 92.3306C31.7738 92.4948 31.9176 92.6354 32.0854 92.7292C31.9176 92.823 31.7738 92.9403 31.6539 93.1044C31.534 93.3154 31.486 93.5499 31.534 93.7843C31.582 94.0188 31.7258 94.2064 31.9416 94.3471C32.1094 94.4409 32.3012 94.4878 32.493 94.4409C32.6848 94.394 32.8527 94.3002 32.9486 94.1361C33.1164 93.8781 33.0445 93.503 32.7808 93.3389C32.6848 93.292 32.565 93.3154 32.517 93.3857C32.4691 93.4795 32.493 93.5968 32.565 93.6437C32.6609 93.6906 32.6848 93.8312 32.6369 93.9016C32.541 94.0423 32.3252 94.0892 32.1814 93.9954C31.9416 93.8547 31.8697 93.5264 32.0135 93.292C32.2533 92.9403 32.7328 92.8465 33.0924 93.0575C33.7638 93.4795 33.6439 94.1126 33.4281 94.5815L32.1334 96.9731C31.9176 97.4186 32.0135 97.8407 32.3971 98.0752C32.493 98.1455 32.6369 98.1689 32.7568 98.1689C32.8047 98.1689 32.8527 98.1689 32.9006 98.1455C33.0685 98.0986 33.2123 98.0048 33.3082 97.8641C33.3802 97.7469 33.4041 97.6062 33.3802 97.4655C33.3562 97.3249 33.2603 97.2076 33.1404 97.1373C33.0445 97.0904 32.9246 97.1138 32.8767 97.2076C32.8287 97.3014 32.8527 97.4186 32.9486 97.4655C32.9726 97.489 32.9965 97.5124 33.0205 97.5593C33.0205 97.6062 33.0205 97.6297 32.9965 97.6766C32.9246 97.7938 32.7568 97.8407 32.6129 97.7469C32.541 97.7 32.3012 97.5359 32.493 97.1373L33.7877 94.7691C34.1953 93.925 34.0275 93.1982 33.3082 92.7527C33.2843 92.7292 33.2603 92.7292 33.2123 92.7058C33.2363 92.6823 33.2603 92.6823 33.3082 92.6589C34.0275 92.2368 34.1953 91.51 33.7877 90.6659Z" fill="#AA2424"/>
<path fill-rule="evenodd" clip-rule="evenodd" d="M33.7878 77.8402L32.517 75.4486C32.3252 75.05 32.565 74.8859 32.6369 74.839C32.7088 74.7921 32.7808 74.7921 32.8527 74.7921C32.9246 74.8155 32.9726 74.839 33.0205 74.9093C33.0445 74.9328 33.0445 74.9797 33.0445 75.0266C33.0445 75.0735 33.0205 75.0969 32.9726 75.1203C32.8767 75.1672 32.8527 75.2845 32.9246 75.3783C32.9726 75.472 33.1164 75.4955 33.1884 75.4252C33.3082 75.3548 33.4042 75.2376 33.4281 75.0969C33.4521 74.9562 33.4281 74.8155 33.3562 74.6983C33.1644 74.3935 32.7568 74.2997 32.4451 74.5107C32.0615 74.7452 31.9656 75.1672 32.1814 75.6127L33.4521 78.0043C33.6679 78.4733 33.8117 79.1063 33.1164 79.5284C32.7568 79.7629 32.2773 79.6456 32.0375 79.2939C31.8937 79.0594 31.9656 78.7312 32.2054 78.5905C32.3732 78.4967 32.565 78.5436 32.6609 78.6843C32.6849 78.7312 32.7088 78.7781 32.6849 78.825C32.6849 78.8719 32.6369 78.9188 32.589 78.9422C32.4931 78.9891 32.4691 79.1063 32.517 79.2001C32.565 79.2939 32.7088 79.3174 32.7808 79.2705C32.9246 79.1767 32.9966 79.0594 33.0445 78.9188C33.0685 78.7781 33.0445 78.614 32.9726 78.4967C32.7568 78.1685 32.3013 78.0747 31.9656 78.2857C31.534 78.5436 31.4141 79.1063 31.6779 79.5284C31.7978 79.6925 31.9416 79.8332 32.1094 79.927C31.9416 80.0208 31.7978 80.138 31.6779 80.3021C31.4141 80.7242 31.534 81.2635 31.9656 81.5448C32.3013 81.7559 32.7568 81.6621 32.9726 81.3338C33.1404 81.0759 33.0685 80.7007 32.8048 80.5366C32.7088 80.4897 32.589 80.5132 32.541 80.5835C32.4931 80.6773 32.517 80.7945 32.589 80.8414C32.6849 80.8883 32.7088 81.029 32.6609 81.0993C32.565 81.24 32.3492 81.2869 32.2054 81.1931C31.9656 81.0524 31.8937 80.7242 32.0375 80.4897C32.2773 80.138 32.7568 80.0442 33.1164 80.2552C33.7878 80.6773 33.6679 81.3104 33.4521 81.7793L32.1574 84.1709C31.9416 84.6164 32.0375 85.0384 32.4211 85.2729C32.541 85.3433 32.6609 85.3667 32.7808 85.3667C32.9966 85.3667 33.2123 85.2495 33.3322 85.0619C33.4042 84.9447 33.4281 84.804 33.4042 84.6633C33.3802 84.5226 33.2843 84.4054 33.1644 84.335C33.0685 84.2881 32.9486 84.3116 32.9007 84.4054C32.8527 84.4992 32.8767 84.6164 32.9726 84.6633C32.9966 84.6867 33.0205 84.7102 33.0445 84.7571C33.0445 84.804 33.0445 84.8274 33.0205 84.8743C32.9486 84.9915 32.7808 85.0384 32.6369 84.9447C32.565 84.8978 32.3252 84.7336 32.517 84.335L33.8117 81.9434C34.2193 81.0993 34.0515 80.3725 33.3322 79.927C33.3082 79.9035 33.2843 79.9035 33.2363 79.8801C33.2603 79.8566 33.2843 79.8566 33.3322 79.8332C34.0275 79.4112 34.1954 78.6843 33.7878 77.8402Z" fill="#AA2424"/>
<path fill-rule="evenodd" clip-rule="evenodd" d="M33.7877 65.015L32.517 62.6234C32.3252 62.2248 32.565 62.0607 32.6369 62.0138C32.7568 61.9435 32.9246 61.9669 33.0205 62.0841C33.0445 62.1076 33.0445 62.1545 33.0445 62.2014C33.0445 62.2483 33.0205 62.2717 32.9726 62.2952C32.8767 62.3421 32.8527 62.4593 32.9006 62.5531C32.9486 62.6469 33.0924 62.6703 33.1644 62.6234C33.2843 62.5531 33.3802 62.4358 33.4041 62.2952C33.4281 62.1545 33.4041 62.0138 33.3322 61.8966C33.1404 61.5917 32.7328 61.498 32.4211 61.709C32.0375 61.9435 31.9416 62.3655 32.1574 62.811L33.4281 65.2026C33.6439 65.6715 33.7877 66.3046 33.0924 66.7266C32.7328 66.9611 32.2533 66.8439 32.0135 66.4922C31.8697 66.2577 31.9416 65.9294 32.1814 65.7888C32.3492 65.695 32.541 65.7419 32.6369 65.8826C32.6848 65.9763 32.6609 66.0936 32.565 66.1405C32.4691 66.1874 32.4451 66.3046 32.517 66.3984C32.565 66.4922 32.6848 66.5156 32.7808 66.4453C33.0445 66.2812 33.1404 65.9294 32.9486 65.6481C32.7328 65.3198 32.2773 65.226 31.9416 65.4371C31.7258 65.5543 31.582 65.7653 31.534 65.9998C31.486 66.2343 31.534 66.4687 31.6539 66.6798C31.7738 66.8439 31.9176 66.9846 32.0854 67.0784C31.9176 67.1721 31.7738 67.2894 31.6539 67.4535C31.534 67.6645 31.486 67.899 31.534 68.1335C31.582 68.3679 31.7258 68.5555 31.9416 68.6962C32.2773 68.9072 32.7328 68.8134 32.9486 68.4852C33.1164 68.2273 33.0445 67.8521 32.7808 67.688C32.6848 67.6411 32.565 67.6645 32.517 67.7349C32.4691 67.8287 32.493 67.9459 32.565 67.9928C32.6609 68.0397 32.6848 68.1804 32.6369 68.2507C32.541 68.3914 32.3252 68.4383 32.1814 68.3445C31.9416 68.2038 31.8697 67.8756 32.0135 67.6411C32.2533 67.2894 32.7328 67.1956 33.0924 67.4066C33.7638 67.8287 33.6439 68.4617 33.4281 68.9307L32.1334 71.3223C31.9176 71.7678 32.0135 72.1898 32.3971 72.4243C32.517 72.4946 32.6369 72.5181 32.7568 72.5181C32.8047 72.5181 32.8527 72.5181 32.9006 72.4946C33.0685 72.4477 33.2123 72.3539 33.3082 72.2133C33.3802 72.096 33.4041 71.9553 33.3802 71.8147C33.3562 71.674 33.2603 71.5567 33.1404 71.4864C33.0445 71.4395 32.9246 71.4629 32.8767 71.5333C32.8287 71.6271 32.8527 71.7443 32.9246 71.7912C32.9486 71.8147 32.9726 71.8381 32.9965 71.885C32.9965 71.9319 32.9965 71.9553 32.9726 72.0022C32.9246 72.0726 32.8767 72.096 32.8047 72.1195C32.7328 72.1429 32.6609 72.1195 32.5889 72.0726C32.517 72.0257 32.2773 71.8615 32.4691 71.4629L33.7638 69.0714C34.1714 68.2273 34.0035 67.5004 33.2843 67.0549C33.2603 67.0315 33.2363 67.0315 33.2123 67.008C33.2363 66.9846 33.2603 66.9846 33.3082 66.9611C34.0275 66.586 34.1953 65.8591 33.7877 65.015Z" fill="#AA2424"/>
<path fill-rule="evenodd" clip-rule="evenodd" d="M32.9006 49.7508C32.9486 49.8446 33.0685 49.8681 33.1644 49.7977C33.2843 49.7274 33.3802 49.6102 33.4041 49.4695C33.4281 49.3288 33.4041 49.1881 33.3322 49.0709C33.1404 48.7661 32.7328 48.6723 32.4211 48.8833C32.0375 49.1178 31.9416 49.5398 32.1574 49.9853L33.4281 52.3769C33.6439 52.8458 33.7877 53.4789 33.0924 53.901C32.7328 54.1354 32.2533 54.0182 32.0135 53.6665C31.8697 53.432 31.9416 53.1038 32.1814 52.9631C32.3492 52.8693 32.541 52.9162 32.6369 53.0569C32.6848 53.1507 32.6609 53.2679 32.565 53.3148C32.4691 53.3617 32.4451 53.4789 32.517 53.5727C32.565 53.6665 32.6848 53.6899 32.7808 53.6196C33.0445 53.4555 33.1404 53.1038 32.9486 52.8224C32.8527 52.6583 32.6848 52.541 32.493 52.5176C32.3012 52.4707 32.1094 52.5176 31.9416 52.6114C31.7258 52.7286 31.582 52.9396 31.534 53.1741C31.486 53.4086 31.534 53.643 31.6539 53.8541C31.7738 54.0182 31.9176 54.1589 32.0854 54.2527C31.9176 54.3465 31.7738 54.4637 31.6539 54.6278C31.534 54.8388 31.486 55.0733 31.534 55.3078C31.582 55.5423 31.7258 55.7298 31.9416 55.8705C32.2773 56.0815 32.7328 55.9878 32.9486 55.6595C33.1164 55.4016 33.0445 55.0264 32.7808 54.8623C32.6848 54.8154 32.565 54.8388 32.517 54.9092C32.4691 55.003 32.493 55.1202 32.565 55.1671C32.6609 55.214 32.6848 55.3547 32.6369 55.425C32.541 55.5892 32.3252 55.6126 32.1814 55.5188C31.9416 55.3781 31.8697 55.0499 32.0135 54.8154C32.2533 54.4637 32.7328 54.3699 33.0924 54.5809C33.7638 55.003 33.6439 55.636 33.4281 56.105L32.1334 58.4966C31.9176 58.9421 32.0135 59.3641 32.3971 59.5986C32.517 59.6689 32.6369 59.6924 32.7568 59.6924C32.9726 59.6924 33.1883 59.5751 33.3082 59.3876C33.3802 59.2703 33.4041 59.1297 33.3802 58.989C33.3562 58.8483 33.2603 58.7311 33.1404 58.6607C33.0445 58.6138 32.9246 58.6373 32.8767 58.7311C32.8287 58.8248 32.8527 58.9421 32.9486 58.989C32.9726 59.0124 32.9965 59.0359 33.0205 59.0828C33.0205 59.1297 33.0205 59.1531 32.9965 59.2C32.9246 59.3172 32.7568 59.3641 32.6129 59.2703C32.541 59.2234 32.3012 59.0593 32.493 58.6607L33.7877 56.316C34.1953 55.4719 34.0275 54.7451 33.3082 54.2996C33.2843 54.2761 33.2603 54.2761 33.2123 54.2527C33.2363 54.2292 33.2603 54.2292 33.3082 54.2058C34.0275 53.7603 34.1953 53.0334 33.7877 52.1893L32.517 49.7977C32.3252 49.3991 32.565 49.235 32.6369 49.1881C32.7568 49.1178 32.9246 49.1412 33.0205 49.2585C33.0445 49.2819 33.0445 49.3288 33.0445 49.3757C33.0445 49.4226 33.0205 49.446 32.9726 49.4695C32.8527 49.5398 32.8287 49.6571 32.9006 49.7508Z" fill="#AA2424"/>
<path fill-rule="evenodd" clip-rule="evenodd" d="M33.7878 39.3637L32.517 36.9721C32.3252 36.5735 32.565 36.4093 32.6369 36.3624C32.7568 36.2921 32.9246 36.3155 33.0205 36.4328C33.0445 36.4562 33.0445 36.5031 33.0445 36.55C33.0445 36.5969 33.0205 36.6204 32.9726 36.6438C32.8767 36.6907 32.8527 36.8079 32.9246 36.9017C32.9726 36.9955 33.0925 37.019 33.1884 36.9486C33.3082 36.8783 33.4042 36.761 33.4281 36.6204C33.4521 36.4797 33.4281 36.339 33.3562 36.2218C33.1644 35.9169 32.7568 35.8232 32.4451 36.0342C32.0615 36.2686 31.9656 36.6907 32.1814 37.1362L33.4521 39.5278C33.6679 39.9967 33.8117 40.6298 33.1164 41.0518C32.7568 41.2863 32.2773 41.1691 32.0375 40.8174C31.8937 40.5829 31.9656 40.2546 32.2054 40.114C32.3732 40.0202 32.565 40.0671 32.6609 40.2078C32.7088 40.3015 32.6849 40.4188 32.589 40.4657C32.4931 40.5126 32.4691 40.6298 32.541 40.7236C32.589 40.8174 32.7088 40.8408 32.8048 40.7705C33.0685 40.6063 33.1644 40.2546 32.9726 39.9733C32.7568 39.645 32.3013 39.5512 31.9656 39.7623C31.534 40.0202 31.4141 40.5829 31.6779 41.0049C31.7978 41.1691 31.9416 41.3098 32.1094 41.4035C31.9416 41.4973 31.7978 41.6146 31.6779 41.7787C31.4141 42.2007 31.534 42.74 31.9656 43.0214C32.3013 43.2324 32.7568 43.1386 32.9726 42.8104C33.1404 42.5525 33.0685 42.1773 32.8048 42.0132C32.7088 41.9663 32.589 41.9897 32.541 42.0601C32.4931 42.1539 32.517 42.2711 32.589 42.318C32.6849 42.3649 32.7088 42.5056 32.6609 42.5759C32.565 42.7166 32.3492 42.7635 32.2054 42.6697C31.9656 42.529 31.8937 42.2007 32.0375 41.9663C32.2773 41.6146 32.7568 41.5208 33.1164 41.7318C33.7878 42.1539 33.6679 42.7869 33.4521 43.2559L32.1574 45.6475C31.9416 46.093 32.0375 46.515 32.4211 46.7495C32.541 46.8198 32.6609 46.8433 32.7808 46.8433C32.8287 46.8433 32.8767 46.8433 32.9246 46.8198C33.0925 46.7729 33.2363 46.6791 33.3322 46.5385C33.4042 46.4212 33.4281 46.2805 33.4042 46.1399C33.3802 45.9992 33.2843 45.8819 33.1644 45.8116C33.0685 45.7647 32.9486 45.7881 32.9007 45.8585C32.8527 45.9523 32.8767 46.0695 32.9486 46.1164C32.9726 46.1399 32.9966 46.1633 33.0205 46.2102C33.0205 46.2571 33.0205 46.2805 32.9966 46.3274C32.9486 46.3978 32.9007 46.4212 32.8287 46.4447C32.7568 46.4681 32.6849 46.4447 32.6129 46.3978C32.541 46.3509 32.3013 46.1867 32.4931 45.7881L33.7878 43.3965C34.1954 42.5525 34.0275 41.8256 33.3082 41.3801C33.2843 41.3567 33.2603 41.3567 33.2123 41.3332C33.2363 41.3098 33.2603 41.3098 33.3082 41.2863C34.0275 40.9581 34.1954 40.2078 33.7878 39.3637Z" fill="#AA2424"/>
<path fill-rule="evenodd" clip-rule="evenodd" d="M33.7877 26.5619L32.517 24.1703C32.3252 23.7717 32.5649 23.6076 32.6368 23.5607C32.7088 23.5138 32.7807 23.5138 32.8526 23.5138C32.9246 23.5372 32.9725 23.5607 33.0205 23.631C33.0444 23.6545 33.0444 23.7014 33.0444 23.7483C33.0444 23.7951 33.0205 23.8186 32.9725 23.842C32.8766 23.8889 32.8526 24.0062 32.9246 24.1C32.9725 24.1937 33.0924 24.2172 33.1883 24.1469C33.3082 24.0765 33.4041 23.9593 33.4281 23.8186C33.452 23.6779 33.4281 23.5372 33.3561 23.42C33.2602 23.2793 33.1164 23.1621 32.9485 23.1386C32.7807 23.0917 32.5889 23.1386 32.445 23.2324C32.0614 23.4669 31.9655 23.8889 32.1813 24.3344L33.452 26.726C33.6678 27.195 33.8117 27.828 33.1164 28.2501C32.7567 28.4846 32.2772 28.3673 32.0374 28.0156C31.9655 27.8984 31.9415 27.7577 31.9655 27.6405C31.9895 27.4998 32.0854 27.3825 32.2053 27.3122C32.3731 27.2184 32.5649 27.2653 32.6608 27.406C32.7088 27.4998 32.6848 27.617 32.5889 27.6639C32.493 27.7108 32.469 27.828 32.5409 27.9218C32.5889 28.0156 32.7088 28.0391 32.8047 27.9687C33.0684 27.8046 33.1643 27.4529 32.9725 27.1715C32.7567 26.8433 32.3012 26.7495 31.9655 26.9605C31.7497 27.0777 31.6059 27.2888 31.5579 27.5232C31.51 27.7577 31.5579 27.9922 31.6778 28.2032C31.7977 28.3673 31.9415 28.508 32.1094 28.6018C31.9415 28.6956 31.7977 28.8128 31.6778 28.9769C31.5579 29.188 31.51 29.4224 31.5579 29.6569C31.6059 29.8914 31.7497 30.079 31.9655 30.2196C32.3012 30.4307 32.7567 30.3369 32.9725 30.0086C33.1403 29.7507 33.0684 29.3755 32.8047 29.2114C32.7088 29.1645 32.5889 29.188 32.5409 29.2583C32.493 29.3521 32.517 29.4693 32.5889 29.5162C32.6848 29.5631 32.7088 29.7038 32.6608 29.7741C32.5649 29.9383 32.3491 29.9617 32.2053 29.8679C32.0854 29.7976 32.0135 29.6804 31.9655 29.5397C31.9415 29.399 31.9655 29.2818 32.0374 29.1645C32.2772 28.8128 32.7567 28.719 33.1164 28.93C33.7877 29.3521 33.6678 29.9852 33.452 30.4541L32.1573 32.8457C31.9415 33.2912 32.0374 33.7132 32.4211 33.9477C32.5409 34.0181 32.6608 34.0415 32.7807 34.0415C32.9965 34.0415 33.2123 33.9243 33.3322 33.7367C33.4041 33.6195 33.4281 33.4788 33.4041 33.3381C33.3801 33.1974 33.2842 33.0802 33.1643 33.0098C33.0684 32.9629 32.9485 32.9864 32.9006 33.0567C32.8526 33.1505 32.8766 33.2678 32.9485 33.3146C32.9725 33.3381 32.9965 33.3615 33.0205 33.4084C33.0205 33.4553 33.0205 33.4788 32.9965 33.5257C32.9246 33.6429 32.7567 33.6898 32.6129 33.596C32.5409 33.5491 32.3012 33.385 32.493 32.9864L33.7877 30.5948C34.1953 29.7507 34.0275 29.0238 33.3082 28.5783C33.2842 28.5549 33.2602 28.5549 33.2362 28.5315C33.2602 28.508 33.2842 28.508 33.3322 28.4846C34.0275 28.1329 34.1953 27.406 33.7877 26.5619Z" fill="#AA2424"/>
<path fill-rule="evenodd" clip-rule="evenodd" d="M33.7876 17.8395C34.1952 16.9954 34.0273 16.2685 33.3081 15.823C33.2841 15.7996 33.2601 15.7996 33.2122 15.7761C33.2361 15.7527 33.2601 15.7527 33.3081 15.7292C34.0273 15.2837 34.1952 14.5569 33.7876 13.7128L32.5168 11.3212C32.325 10.9226 32.5648 10.7585 32.6367 10.7116C32.7087 10.6647 32.7806 10.6647 32.8525 10.6647C32.9244 10.6881 32.9724 10.7116 33.0203 10.7819C33.0443 10.8053 33.0443 10.8522 33.0443 10.8991C33.0443 10.946 33.0203 10.9695 32.9724 10.9929C32.8765 11.0398 32.8525 11.1571 32.9005 11.2508C32.9484 11.3446 33.0923 11.3681 33.1642 11.2977C33.2841 11.2274 33.38 11.1102 33.404 10.9695C33.4279 10.8288 33.404 10.6881 33.332 10.5709C33.2361 10.4302 33.0923 10.313 32.9244 10.2895C32.7566 10.2426 32.5648 10.2895 32.4209 10.3833C32.0373 10.6178 31.9414 11.0398 32.1572 11.4853L33.4279 13.8769C33.6437 14.3458 33.7876 14.9789 33.0923 15.401C32.7326 15.6354 32.2531 15.5182 32.0134 15.1665C31.8695 14.932 31.9414 14.6038 32.1812 14.4631C32.349 14.3693 32.5408 14.4162 32.6367 14.5569C32.6847 14.6507 32.6607 14.7679 32.5648 14.8148C32.4689 14.8617 32.4449 14.9789 32.5168 15.0727C32.5648 15.1665 32.6847 15.1899 32.7806 15.1196C33.0443 14.9555 33.1402 14.6038 32.9484 14.3224C32.7326 13.9941 32.2771 13.9004 31.9414 14.1114C31.5099 14.3693 31.39 14.932 31.6537 15.3541C31.7736 15.5182 31.9174 15.6589 32.0853 15.7527C31.9174 15.8465 31.7736 15.9637 31.6537 16.1278C31.39 16.5499 31.5099 17.0892 31.9414 17.3705C32.2771 17.5815 32.7326 17.4878 32.9484 17.1595C33.1162 16.9016 33.0443 16.5264 32.7566 16.3623C32.6607 16.3154 32.5408 16.3388 32.4929 16.4092C32.4449 16.503 32.4689 16.6202 32.5648 16.6671C32.6607 16.714 32.6847 16.8547 32.6367 16.925C32.5408 17.0657 32.325 17.1126 32.1812 17.0188C31.9414 16.8781 31.8695 16.5499 32.0134 16.3154C32.2531 15.9637 32.7326 15.8699 33.0923 16.0809C33.7636 16.503 33.6437 17.136 33.4279 17.605L32.1332 19.9966C31.9174 20.4421 32.0134 20.8641 32.397 21.0986C32.5168 21.1689 32.6367 21.1924 32.7566 21.1924C32.9724 21.1924 33.1882 21.0751 33.3081 20.8876C33.38 20.7703 33.404 20.6297 33.38 20.489C33.356 20.3483 33.2601 20.2311 33.1402 20.1607C33.0443 20.1138 32.9244 20.1373 32.8765 20.2076C32.8285 20.3014 32.8525 20.4186 32.9244 20.4655C32.9484 20.489 32.9724 20.5124 32.9964 20.5593C32.9964 20.6062 32.9964 20.6297 32.9724 20.6765C32.9005 20.7938 32.7326 20.8407 32.5888 20.7469C32.5168 20.7 32.2771 20.5359 32.4689 20.1373L33.7876 17.8395Z" fill="#AA2424"/>
<path fill-rule="evenodd" clip-rule="evenodd" d="M31.9894 4.59171C32.3251 4.80273 32.7806 4.70894 32.9964 4.38068C33.1642 4.12277 33.0923 3.74761 32.8046 3.58348C32.7087 3.53659 32.5888 3.56004 32.5409 3.63038C32.4929 3.72417 32.5169 3.8414 32.6128 3.8883C32.7087 3.93519 32.7327 4.07587 32.6847 4.14621C32.5888 4.2869 32.373 4.33379 32.2292 4.24C31.9894 4.09932 31.9175 3.77106 32.0613 3.53659C32.3011 3.18489 32.7806 3.0911 33.1403 3.30212C33.8116 3.72417 33.6917 4.35724 33.4759 4.82618L32.1812 7.21778C31.9654 7.66327 32.0613 8.08532 32.4449 8.31979C32.5648 8.39013 32.6847 8.41357 32.8046 8.41357C33.0204 8.41357 33.2362 8.29634 33.356 8.10876C33.428 7.99153 33.4519 7.85085 33.428 7.71016C33.404 7.56948 33.3081 7.45225 33.1882 7.3819C33.0923 7.33501 32.9724 7.35846 32.9245 7.4288C32.8765 7.52259 32.9005 7.63982 32.9724 7.68672C32.9964 7.71016 33.0204 7.73361 33.0444 7.7805C33.0444 7.8274 33.0444 7.85085 33.0204 7.89774C32.9484 8.01497 32.7806 8.06187 32.6368 7.96808C32.5648 7.92119 32.3251 7.75706 32.5169 7.35846L33.8116 4.96686C34.2192 4.12277 34.0513 3.39591 33.3321 2.95041C32.7806 2.62216 32.0613 2.76284 31.7257 3.30212C31.438 3.77106 31.5578 4.33379 31.9894 4.59171Z" fill="#AA2424"/>
<path fill-rule="evenodd" clip-rule="evenodd" d="M30.5334 16.2127L30.0418 15.7319L30.5334 15.2511L31.0251 15.7319L30.5334 16.2127Z" fill="#AA2424"/>
<path fill-rule="evenodd" clip-rule="evenodd" d="M30.5347 29.0379L30.043 28.5571L30.5347 28.0763L31.0263 28.5571L30.5347 29.0379Z" fill="#AA2424"/>
<path fill-rule="evenodd" clip-rule="evenodd" d="M30.5398 41.8611L30.0481 41.3803L30.5398 40.8995L31.0314 41.3803L30.5398 41.8611Z" fill="#AA2424"/>
<path fill-rule="evenodd" clip-rule="evenodd" d="M30.5261 54.6682L30.0345 54.1874L30.5261 53.7066L31.0178 54.1874L30.5261 54.6682Z" fill="#AA2424"/>
<path fill-rule="evenodd" clip-rule="evenodd" d="M30.5269 67.4934L30.0352 67.0126L30.5269 66.5318L31.0185 67.0126L30.5269 67.4934Z" fill="#AA2424"/>
<path fill-rule="evenodd" clip-rule="evenodd" d="M30.5322 80.3138L30.0405 79.833L30.5321 79.3521L31.0239 79.8329L30.5322 80.3138Z" fill="#AA2424"/>
<path fill-rule="evenodd" clip-rule="evenodd" d="M30.5366 93.1409L30.045 92.6601L30.5366 92.1793L31.0283 92.6601L30.5366 93.1409Z" fill="#AA2424"/>
<path fill-rule="evenodd" clip-rule="evenodd" d="M30.5254 3.39186L30.0337 2.91106L30.5254 2.43025L31.017 2.91106L30.5254 3.39186Z" fill="#AA2424"/>
<path fill-rule="evenodd" clip-rule="evenodd" d="M33.7397 9.30455L34.7467 6.81916C34.7946 6.67848 35.0583 6.67848 35.1303 6.81916L36.1373 9.30455C36.1612 9.35144 36.1612 9.39834 36.1373 9.44523L35.1303 11.9306C35.0823 12.001 35.0104 12.0479 34.9385 12.0479C34.8426 12.0479 34.7706 12.001 34.7467 11.9306L33.7397 9.44523C33.7157 9.39834 33.7157 9.35144 33.7397 9.30455ZM34.0993 9.37489L34.9145 11.3444L35.7297 9.37489L34.9145 7.40534L34.0993 9.37489Z" fill="#AA2424"/>
<path fill-rule="evenodd" clip-rule="evenodd" d="M34.7467 19.6214C34.7946 19.4807 35.0583 19.4807 35.1063 19.6214L36.1373 22.1068C36.1612 22.1537 36.1612 22.2006 36.1373 22.2475L35.1303 24.7329C35.0823 24.8032 35.0104 24.8501 34.9385 24.8501C34.8426 24.8501 34.7706 24.8032 34.7467 24.7329L33.7397 22.2475C33.7157 22.2006 33.7157 22.1537 33.7397 22.1068L34.7467 19.6214ZM34.0993 22.1771L34.9145 24.1467L35.7297 22.1771L34.9145 20.2076L34.0993 22.1771Z" fill="#AA2424"/>
<path fill-rule="evenodd" clip-rule="evenodd" d="M34.7467 32.4002C34.7946 32.2595 35.0583 32.2595 35.1063 32.4002L36.1373 34.8856C36.1612 34.9325 36.1612 34.9794 36.1373 35.0263L35.1303 37.5117C35.0823 37.582 35.0104 37.6289 34.9385 37.6289C34.8426 37.6289 34.7706 37.582 34.7467 37.5117L33.7397 35.0263C33.7157 34.9794 33.7157 34.9325 33.7397 34.8856L34.7467 32.4002ZM34.0993 34.9559L34.9145 36.9255L35.7297 34.9559L34.9145 32.9864L34.0993 34.9559Z" fill="#AA2424"/>
<path fill-rule="evenodd" clip-rule="evenodd" d="M34.7467 45.202C34.7946 45.0613 35.0583 45.0613 35.1063 45.202L36.1373 47.6874C36.1612 47.7343 36.1612 47.7811 36.1373 47.828L35.1303 50.3134C35.0823 50.3838 35.0104 50.4307 34.9385 50.4307C34.8426 50.4307 34.7706 50.3838 34.7467 50.3134L33.7397 47.828C33.7157 47.7811 33.7157 47.7343 33.7397 47.6874L34.7467 45.202ZM34.0993 47.7577L34.9145 49.7273L35.7297 47.7577L34.9145 45.7882L34.0993 47.7577Z" fill="#AA2424"/>
<path fill-rule="evenodd" clip-rule="evenodd" d="M34.7467 57.9808C34.7946 57.8401 35.0583 57.8401 35.1063 57.9808L36.1373 60.4662C36.1612 60.5131 36.1612 60.56 36.1373 60.6069L35.1303 63.0922C35.0823 63.1626 35.0104 63.2095 34.9385 63.2095C34.8426 63.2095 34.7706 63.1626 34.7467 63.0922L33.7397 60.6069C33.7157 60.56 33.7157 60.5131 33.7397 60.4662L34.7467 57.9808ZM34.0993 60.5365L34.9145 62.5061L35.7297 60.5365L34.9145 58.567L34.0993 60.5365Z" fill="#AA2424"/>
<path fill-rule="evenodd" clip-rule="evenodd" d="M34.7467 70.783C34.7946 70.6423 35.0583 70.6423 35.1063 70.783L36.1373 73.2684C36.1612 73.3153 36.1612 73.3622 36.1373 73.4091L35.1303 75.8945C35.0823 75.9648 35.0104 76.0117 34.9385 76.0117C34.8426 76.0117 34.7706 75.9648 34.7467 75.8945L33.7397 73.4091C33.7157 73.3622 33.7157 73.3153 33.7397 73.2684L34.7467 70.783ZM34.0993 73.3388L34.9145 75.3083L35.7297 73.3388L34.9145 71.3692L34.0993 73.3388Z" fill="#AA2424"/>
<path fill-rule="evenodd" clip-rule="evenodd" d="M34.7467 83.5613C34.7946 83.4207 35.0583 83.4207 35.1063 83.5613L36.1373 86.0467C36.1612 86.0936 36.1612 86.1405 36.1373 86.1874L35.1303 88.6728C35.0823 88.7431 35.0104 88.79 34.9385 88.79C34.8426 88.79 34.7706 88.7431 34.7467 88.6728L33.7397 86.1874C33.7157 86.1405 33.7157 86.0936 33.7397 86.0467L34.7467 83.5613ZM34.0993 86.1171L34.9145 88.0866L35.7297 86.1171L34.9145 84.1475L34.0993 86.1171Z" fill="#AA2424"/>
<path fill-rule="evenodd" clip-rule="evenodd" d="M35.7538 15.6588C35.7778 15.6822 35.8017 15.7057 35.8017 15.7526C35.8017 15.776 35.7778 15.8229 35.7298 15.8698L35.0105 16.5732C34.9866 16.5967 34.9626 16.6201 34.9146 16.6201C34.8906 16.6201 34.8427 16.5967 34.8187 16.5732L34.0994 15.8698C34.0515 15.7995 34.0515 15.7057 34.0994 15.6588L34.8187 14.9554C34.8906 14.9085 34.9866 14.9085 35.0345 14.9554L35.7538 15.6588ZM34.4111 15.7526L34.9146 16.245L35.4181 15.7526L34.9146 15.2602L34.4111 15.7526Z" fill="#AA2424"/>
<path fill-rule="evenodd" clip-rule="evenodd" d="M34.8186 29.3755L34.0993 28.6721C34.0513 28.6017 34.0513 28.5079 34.0753 28.4845L34.7946 27.7811C34.8665 27.7342 34.9624 27.7342 35.0104 27.7811L35.7297 28.4845C35.7536 28.5079 35.7776 28.5314 35.7776 28.5783C35.7776 28.6017 35.7536 28.6486 35.7297 28.6721L35.0104 29.3755C34.9864 29.3989 34.9624 29.4224 34.9145 29.4224C34.8905 29.4224 34.8426 29.3989 34.8186 29.3755ZM35.418 28.5548L34.9145 28.0624L34.411 28.5548L34.9145 29.0472L35.418 28.5548Z" fill="#AA2424"/>
<path fill-rule="evenodd" clip-rule="evenodd" d="M34.8186 42.2007L34.0993 41.4973C34.0513 41.4269 34.0513 41.3331 34.0753 41.3097L34.7946 40.6063C34.8665 40.5594 34.9624 40.5594 35.0104 40.6063L35.7297 41.3097C35.7536 41.3331 35.7776 41.3566 35.7776 41.4035C35.7776 41.4269 35.7536 41.4738 35.7297 41.4973L35.0104 42.2007C34.9864 42.2241 34.9624 42.2476 34.9145 42.2476C34.8905 42.2476 34.8426 42.2241 34.8186 42.2007ZM35.418 41.38L34.9145 40.8876L34.411 41.38L34.9145 41.8724L35.418 41.38Z" fill="#AA2424"/>
<path fill-rule="evenodd" clip-rule="evenodd" d="M34.8186 55.0029L34.0993 54.2995C34.0513 54.2526 34.0513 54.1588 34.0753 54.1119L34.7946 53.4085C34.8665 53.3616 34.9624 53.3616 35.0104 53.4085L35.7297 54.1119C35.7536 54.1354 35.7776 54.1588 35.7776 54.2057C35.7776 54.2292 35.7536 54.2761 35.7297 54.2995L35.0104 55.0029C34.9864 55.0264 34.9624 55.0498 34.9145 55.0498C34.8905 55.0498 34.8426 55.0264 34.8186 55.0029ZM35.418 54.2057L34.9145 53.7133L34.411 54.2057L34.9145 54.6981L35.418 54.2057Z" fill="#AA2424"/>
<path fill-rule="evenodd" clip-rule="evenodd" d="M34.8186 67.8286L34.0993 67.1252C34.0513 67.0783 34.0513 66.9845 34.0753 66.9376L34.7946 66.2342C34.8665 66.1873 34.9624 66.1873 35.0104 66.2342L35.7297 66.9376C35.7536 66.9611 35.7776 66.9845 35.7776 67.0314C35.7776 67.0548 35.7536 67.1017 35.7297 67.1252L35.0104 67.8286C34.9864 67.852 34.9624 67.8755 34.9145 67.8755C34.8905 67.8755 34.8426 67.852 34.8186 67.8286ZM35.418 67.0079L34.9145 66.5156L34.411 67.0079L34.9145 67.5003L35.418 67.0079Z" fill="#AA2424"/>
<path fill-rule="evenodd" clip-rule="evenodd" d="M34.8186 80.6543L34.0993 79.9509C34.0513 79.904 34.0513 79.8102 34.0753 79.7633L34.7946 79.0599C34.8665 79.013 34.9624 79.013 35.0104 79.0599L35.7297 79.7633C35.7536 79.7867 35.7776 79.8102 35.7776 79.8571C35.7776 79.8805 35.7536 79.9274 35.7297 79.9509L35.0104 80.6543C34.9864 80.6777 34.9624 80.7012 34.9145 80.7012C34.8905 80.7012 34.8426 80.6777 34.8186 80.6543ZM35.418 79.8336L34.9145 79.3412L34.411 79.8336L34.9145 80.326L35.418 79.8336Z" fill="#AA2424"/>
<path fill-rule="evenodd" clip-rule="evenodd" d="M34.927 12.9248L34.5879 12.5932L34.927 12.2616L35.2661 12.5932L34.927 12.9248Z" fill="#AA2424"/>
<path fill-rule="evenodd" clip-rule="evenodd" d="M34.9224 13.833L34.5833 13.5014L34.9224 13.1698L35.2615 13.5014L34.9224 13.833Z" fill="#AA2424"/>
<path fill-rule="evenodd" clip-rule="evenodd" d="M34.9216 14.7563L34.5826 14.4247L34.9216 14.0931L35.2607 14.4247L34.9216 14.7563Z" fill="#AA2424"/>
<path fill-rule="evenodd" clip-rule="evenodd" d="M34.9258 17.4267L34.5867 17.0951L34.9258 16.7636L35.2649 17.0951L34.9258 17.4267Z" fill="#AA2424"/>
<path fill-rule="evenodd" clip-rule="evenodd" d="M34.9209 18.3359L34.5819 18.0043L34.921 17.6727L35.26 18.0043L34.9209 18.3359Z" fill="#AA2424"/>
<path fill-rule="evenodd" clip-rule="evenodd" d="M34.927 19.2549L34.5879 18.9233L34.927 18.5917L35.2661 18.9233L34.927 19.2549Z" fill="#AA2424"/>
<path fill-rule="evenodd" clip-rule="evenodd" d="M34.9185 4.53366L34.5794 4.20207L34.9185 3.87048L35.2575 4.20207L34.9185 4.53366Z" fill="#AA2424"/>
<path fill-rule="evenodd" clip-rule="evenodd" d="M34.9141 5.45016L34.575 5.11858L34.9141 4.78699L35.2531 5.11858L34.9141 5.45016Z" fill="#AA2424"/>
<path fill-rule="evenodd" clip-rule="evenodd" d="M34.9097 6.36716L34.5706 6.03557L34.9097 5.70398L35.2487 6.03557L34.9097 6.36716Z" fill="#AA2424"/>
<path fill-rule="evenodd" clip-rule="evenodd" d="M34.9104 25.7339L34.5713 25.4023L34.9104 25.0707L35.2495 25.4023L34.9104 25.7339Z" fill="#AA2424"/>
<path fill-rule="evenodd" clip-rule="evenodd" d="M34.9153 26.6455L34.5762 26.3139L34.9153 25.9823L35.2544 26.3139L34.9153 26.6455Z" fill="#AA2424"/>
<path fill-rule="evenodd" clip-rule="evenodd" d="M34.9312 27.5766L34.5921 27.245L34.9312 26.9135L35.2702 27.245L34.9312 27.5766Z" fill="#AA2424"/>
<path fill-rule="evenodd" clip-rule="evenodd" d="M34.9119 30.2343L34.5728 29.9028L34.9119 29.5712L35.2509 29.9028L34.9119 30.2343Z" fill="#AA2424"/>
<path fill-rule="evenodd" clip-rule="evenodd" d="M34.928 31.166L34.5889 30.8344L34.928 30.5028L35.267 30.8344L34.928 31.166Z" fill="#AA2424"/>
<path fill-rule="evenodd" clip-rule="evenodd" d="M34.9238 32.0757L34.5847 31.7441L34.9238 31.4125L35.2629 31.744L34.9238 32.0757Z" fill="#AA2424"/>
<path fill-rule="evenodd" clip-rule="evenodd" d="M34.9165 38.5561L34.5774 38.2245L34.9165 37.8929L35.2556 38.2245L34.9165 38.5561Z" fill="#AA2424"/>
<path fill-rule="evenodd" clip-rule="evenodd" d="M34.9183 39.4697L34.5792 39.1381L34.9184 38.8065L35.2574 39.1382L34.9183 39.4697Z" fill="#AA2424"/>
<path fill-rule="evenodd" clip-rule="evenodd" d="M34.9121 40.3872L34.573 40.0556L34.9121 39.724L35.2512 40.0556L34.9121 40.3872Z" fill="#AA2424"/>
<path fill-rule="evenodd" clip-rule="evenodd" d="M34.9129 43.0537L34.5738 42.7221L34.9129 42.3905L35.252 42.7221L34.9129 43.0537Z" fill="#AA2424"/>
<path fill-rule="evenodd" clip-rule="evenodd" d="M34.9119 43.9687L34.5728 43.6371L34.9119 43.3055L35.251 43.6372L34.9119 43.9687Z" fill="#AA2424"/>
<path fill-rule="evenodd" clip-rule="evenodd" d="M34.9111 44.8833L34.572 44.5517L34.9111 44.2201L35.2502 44.5517L34.9111 44.8833Z" fill="#AA2424"/>
<path fill-rule="evenodd" clip-rule="evenodd" d="M34.9197 51.3803L34.5806 51.0488L34.9197 50.7172L35.2587 51.0488L34.9197 51.3803Z" fill="#AA2424"/>
<path fill-rule="evenodd" clip-rule="evenodd" d="M34.9167 52.2959L34.5777 51.9643L34.9167 51.6327L35.2558 51.9643L34.9167 52.2959Z" fill="#AA2424"/>
<path fill-rule="evenodd" clip-rule="evenodd" d="M34.9163 53.2056L34.5772 52.8739L34.9163 52.5423L35.2554 52.874L34.9163 53.2056Z" fill="#AA2424"/>
<path fill-rule="evenodd" clip-rule="evenodd" d="M34.9168 55.8784L34.5777 55.5468L34.9168 55.2152L35.2559 55.5468L34.9168 55.8784Z" fill="#AA2424"/>
<path fill-rule="evenodd" clip-rule="evenodd" d="M34.916 56.7935L34.577 56.4618L34.9161 56.1302L35.2552 56.4619L34.916 56.7935Z" fill="#AA2424"/>
<path fill-rule="evenodd" clip-rule="evenodd" d="M34.9148 57.7085L34.5757 57.3769L34.9147 57.0453L35.2538 57.3769L34.9148 57.7085Z" fill="#AA2424"/>
<path fill-rule="evenodd" clip-rule="evenodd" d="M34.9211 64.205L34.5821 63.8735L34.9211 63.5419L35.2602 63.8735L34.9211 64.205Z" fill="#AA2424"/>
<path fill-rule="evenodd" clip-rule="evenodd" d="M34.9238 65.1186L34.5848 64.787L34.9238 64.4554L35.2629 64.787L34.9238 65.1186Z" fill="#AA2424"/>
<path fill-rule="evenodd" clip-rule="evenodd" d="M34.9229 66.0337L34.5838 65.7021L34.9229 65.3705L35.2619 65.7021L34.9229 66.0337Z" fill="#AA2424"/>
<path fill-rule="evenodd" clip-rule="evenodd" d="M34.9234 68.7065L34.5844 68.3749L34.9235 68.0433L35.2625 68.375L34.9234 68.7065Z" fill="#AA2424"/>
<path fill-rule="evenodd" clip-rule="evenodd" d="M34.9197 69.6182L34.5806 69.2865L34.9198 68.9549L35.2588 69.2866L34.9197 69.6182Z" fill="#AA2424"/>
<path fill-rule="evenodd" clip-rule="evenodd" d="M34.9189 70.5332L34.5798 70.2016L34.9189 69.87L35.258 70.2016L34.9189 70.5332Z" fill="#AA2424"/>
<path fill-rule="evenodd" clip-rule="evenodd" d="M34.926 77.0288L34.587 76.6972L34.926 76.3656L35.2651 76.6972L34.926 77.0288Z" fill="#AA2424"/>
<path fill-rule="evenodd" clip-rule="evenodd" d="M34.9253 77.9433L34.5862 77.6117L34.9253 77.2802L35.2644 77.6117L34.9253 77.9433Z" fill="#AA2424"/>
<path fill-rule="evenodd" clip-rule="evenodd" d="M34.9229 78.8584L34.5838 78.5268L34.9229 78.1952L35.2619 78.5268L34.9229 78.8584Z" fill="#AA2424"/>
<path fill-rule="evenodd" clip-rule="evenodd" d="M34.9248 81.5307L34.5857 81.1991L34.9248 80.8676L35.2639 81.1991L34.9248 81.5307Z" fill="#AA2424"/>
<path fill-rule="evenodd" clip-rule="evenodd" d="M34.9239 82.4458L34.5849 82.1141L34.924 81.7826L35.263 82.1142L34.9239 82.4458Z" fill="#AA2424"/>
<path fill-rule="evenodd" clip-rule="evenodd" d="M34.9231 83.3603L34.584 83.0287L34.9231 82.6971L35.2622 83.0287L34.9231 83.3603Z" fill="#AA2424"/>
<path fill-rule="evenodd" clip-rule="evenodd" d="M34.9124 89.8359L34.5733 89.5043L34.9124 89.1727L35.2514 89.5043L34.9124 89.8359Z" fill="#AA2424"/>
<path fill-rule="evenodd" clip-rule="evenodd" d="M34.9116 90.7509L34.5726 90.4194L34.9116 90.0878L35.2507 90.4194L34.9116 90.7509Z" fill="#AA2424"/>
<path fill-rule="evenodd" clip-rule="evenodd" d="M34.9275 91.6821L34.5884 91.3505L34.9275 91.0189L35.2666 91.3505L34.9275 91.6821Z" fill="#AA2424"/>
<path fill-rule="evenodd" clip-rule="evenodd" d="M32.493 101.1C32.3012 100.701 32.541 100.537 32.6129 100.49C32.6848 100.443 32.7568 100.443 32.8287 100.443C32.9006 100.467 32.9486 100.49 32.9965 100.56C33.0205 100.584 33.0205 100.631 33.0205 100.678C33.0205 100.725 32.9965 100.748 32.9486 100.771C32.8527 100.818 32.8287 100.936 32.9006 101.029C32.9486 101.123 33.0924 101.147 33.1644 101.076C33.2843 101.006 33.3802 100.889 33.4041 100.748C33.4281 100.607 33.4041 100.467 33.3322 100.349C33.1404 100.045 32.7328 99.9508 32.4211 100.162C32.0375 100.396 31.9416 100.818 32.1574 101.264L33.4281 103.655C33.6439 104.124 33.7877 104.757 33.0924 105.179C32.7328 105.414 32.2533 105.297 32.0135 104.945C31.8697 104.711 31.9416 104.382 32.1814 104.242C32.3252 104.148 32.541 104.195 32.6369 104.335C32.6848 104.429 32.6609 104.546 32.565 104.593C32.4691 104.64 32.4451 104.757 32.493 104.851C32.541 104.945 32.6848 104.968 32.7568 104.922C33.0205 104.757 33.1164 104.406 32.9486 104.124C32.7328 103.796 32.2773 103.702 31.9416 103.913C31.7258 104.031 31.582 104.242 31.534 104.476C31.486 104.711 31.534 104.945 31.6539 105.156C31.8697 105.508 32.2533 105.672 32.6369 105.672C32.8527 105.672 33.0685 105.625 33.2603 105.484C33.9796 105.039 34.1474 104.312 33.7398 103.468L32.493 101.1Z" fill="#AA2424"/>
<path fill-rule="evenodd" clip-rule="evenodd" d="M30.5396 105.965L30.0479 105.484L30.5396 105.003L31.0312 105.484L30.5396 105.965Z" fill="#AA2424"/>
<path fill-rule="evenodd" clip-rule="evenodd" d="M34.7467 96.5745C34.7946 96.4339 35.0583 96.4339 35.1063 96.5745L36.1373 99.0599C36.1612 99.1068 36.1612 99.1537 36.1373 99.2006L35.1303 101.686C35.0823 101.756 35.0104 101.803 34.9385 101.803C34.8426 101.803 34.7706 101.756 34.7467 101.686L33.7397 99.2006C33.7157 99.1537 33.7157 99.1068 33.7397 99.0599L34.7467 96.5745ZM34.0993 99.1303L34.9145 101.1L35.7297 99.1303L34.9145 97.1607L34.0993 99.1303Z" fill="#AA2424"/>
<path fill-rule="evenodd" clip-rule="evenodd" d="M34.8187 104.687C34.8906 104.64 34.9866 104.64 35.0345 104.687L35.7298 105.414C35.7538 105.438 35.7778 105.461 35.7778 105.508C35.7778 105.531 35.7538 105.578 35.7298 105.602L35.0105 106.305C34.9866 106.329 34.9626 106.352 34.9146 106.352C34.8906 106.352 34.8427 106.329 34.8187 106.305L34.0994 105.602C34.0515 105.531 34.0515 105.438 34.0994 105.391L34.8187 104.687ZM34.4111 105.508L34.9146 106L35.4181 105.508L34.9146 105.016L34.4111 105.508Z" fill="#AA2424"/>
<path fill-rule="evenodd" clip-rule="evenodd" d="M34.8186 93.4795L34.0993 92.7761C34.0513 92.7057 34.0513 92.6119 34.0753 92.5885L34.7946 91.8851C34.8665 91.8382 34.9624 91.8382 35.0104 91.8851L35.7297 92.5885C35.7536 92.6119 35.7776 92.6354 35.7776 92.6823C35.7776 92.7057 35.7536 92.7526 35.7297 92.7761L35.0104 93.4795C34.9864 93.5029 34.9624 93.5264 34.9145 93.5264C34.8905 93.5264 34.8426 93.5029 34.8186 93.4795ZM35.418 92.6588L34.9145 92.1664L34.411 92.6588L34.9145 93.1512L35.418 92.6588Z" fill="#AA2424"/>
<path fill-rule="evenodd" clip-rule="evenodd" d="M34.9155 102.66L34.5765 102.329L34.9155 101.997L35.2546 102.329L34.9155 102.66Z" fill="#AA2424"/>
<path fill-rule="evenodd" clip-rule="evenodd" d="M34.9156 103.573L34.5765 103.242L34.9156 102.91L35.2547 103.242L34.9156 103.573Z" fill="#AA2424"/>
<path fill-rule="evenodd" clip-rule="evenodd" d="M34.9128 104.489L34.5738 104.158L34.9128 103.826L35.2519 104.158L34.9128 104.489Z" fill="#AA2424"/>
<path fill-rule="evenodd" clip-rule="evenodd" d="M34.9217 94.2881L34.5827 93.9564L34.9218 93.6249L35.2608 93.9565L34.9217 94.2881Z" fill="#AA2424"/>
<path fill-rule="evenodd" clip-rule="evenodd" d="M34.9185 95.2021L34.5794 94.8705L34.9185 94.5389L35.2575 94.8705L34.9185 95.2021Z" fill="#AA2424"/>
<path fill-rule="evenodd" clip-rule="evenodd" d="M34.9199 96.1176L34.5809 95.7861L34.9199 95.4545L35.259 95.7861L34.9199 96.1176Z" fill="#AA2424"/>
<path fill-rule="evenodd" clip-rule="evenodd" d="M34.9144 3.771C34.8905 3.771 34.8425 3.74755 34.8185 3.7241L34.0753 3.04414C34.0273 2.9738 34.0273 2.88001 34.0753 2.83311L34.7946 2.1297C34.8665 2.08281 34.9624 2.08281 35.0103 2.1297L35.7296 2.83311C35.7536 2.85656 35.7776 2.88001 35.7776 2.9269C35.7776 2.95035 35.7536 2.99724 35.7296 3.02069L35.0103 3.7241C34.9864 3.74755 34.9624 3.771 34.9144 3.771ZM35.4179 2.90346L34.9144 2.41107L34.4109 2.90346L34.9144 3.39584L35.4179 2.90346Z" fill="#AA2424"/>
<path d="M22.3867 75.0801V77.1924H18.0732V81.1504H22.3867V83.2695H12.3926V81.1504H16.3096V77.1924H12.3926V75.0801H22.3867ZM18.5518 71.0537C19.3083 71.0537 19.8802 70.9307 20.2676 70.6846C20.6549 70.4339 20.8486 70.0283 20.8486 69.4678C20.8486 68.9118 20.6572 68.513 20.2744 68.2715C19.887 68.0254 19.3128 67.9023 18.5518 67.9023C17.7952 67.9023 17.2279 68.0254 16.8496 68.2715C16.4714 68.5176 16.2822 68.9209 16.2822 69.4814C16.2822 70.0374 16.4714 70.4385 16.8496 70.6846C17.2233 70.9307 17.7907 71.0537 18.5518 71.0537ZM18.5518 65.7695C19.7959 65.7695 20.7689 66.0977 21.4707 66.7539C22.1725 67.4102 22.5234 68.3239 22.5234 69.4951C22.5234 70.2288 22.3639 70.876 22.0449 71.4365C21.7214 71.9971 21.2588 72.4277 20.6572 72.7285C20.0557 73.0293 19.3538 73.1797 18.5518 73.1797C17.3031 73.1797 16.3324 72.8538 15.6396 72.2021C14.9469 71.5505 14.6006 70.6344 14.6006 69.4541C14.6006 68.7204 14.7601 68.0732 15.0791 67.5127C15.3981 66.9521 15.8561 66.5215 16.4531 66.2207C17.0501 65.9199 17.7497 65.7695 18.5518 65.7695ZM16.7471 56.9922C17.1572 56.9922 17.5081 57.1221 17.7998 57.3818C18.0869 57.637 18.2715 58.0153 18.3535 58.5166H18.4082C18.472 57.9743 18.6589 57.5459 18.9688 57.2314C19.2741 56.9124 19.6523 56.7529 20.1035 56.7529C20.8464 56.7529 21.4137 57.0446 21.8057 57.6279C22.193 58.2113 22.3867 59.0452 22.3867 60.1299V64.0469H14.7441L14.7441 60.1299C14.7441 59.0817 14.915 58.2979 15.2568 57.7783C15.5941 57.2542 16.0908 56.9922 16.7471 56.9922ZM19.9941 58.9131C19.6934 58.9131 19.4769 59.0293 19.3447 59.2617C19.208 59.4941 19.1396 59.8428 19.1396 60.3076V61.9619H20.9443V60.2666C20.9443 59.8245 20.8623 59.4896 20.6982 59.2617C20.5296 59.0293 20.2949 58.9131 19.9941 58.9131ZM16.9111 59.1045C16.4463 59.1045 16.2139 59.4736 16.2139 60.2119V61.9619H17.7246V60.4512C17.7246 60.0091 17.6608 59.6742 17.5332 59.4463C17.4056 59.2184 17.1982 59.1045 16.9111 59.1045ZM14.7441 53.0752H17.7656C18.0846 53.0752 18.8639 53.1276 20.1035 53.2324L14.7441 49.7051L14.7441 47.1963H22.3867V49.2129H19.3379C18.7956 49.2129 18.0299 49.1673 17.041 49.0762L22.3867 52.5898V55.0918H14.7441V53.0752ZM14.7441 42.917H17.6836L17.6836 40.0049H14.7441V37.9199H22.3867V40.0049H19.2354L19.2354 42.917H22.3867V45.002H14.7441V42.917ZM14.7441 30.7217V28.4248L18.4082 31.4531L22.3867 28.1582V30.5234L18.5107 33.6475H22.3867V35.7324H14.7441V33.6475H18.4561L14.7441 30.7217ZM22.3867 22.2109L21.3477 22.6143V22.6689C21.7897 23.0199 22.0973 23.3822 22.2705 23.7559C22.4391 24.125 22.5234 24.6081 22.5234 25.2051C22.5234 25.9388 22.3138 26.5176 21.8945 26.9414C21.4753 27.3607 20.8783 27.5703 20.1035 27.5703C19.2923 27.5703 18.6953 27.2878 18.3125 26.7227C17.9251 26.153 17.7109 25.2962 17.6699 24.1523L17.6289 22.8262H17.2939C16.5192 22.8262 16.1318 23.2227 16.1318 24.0156C16.1318 24.6263 16.3164 25.3441 16.6855 26.1689L15.2773 26.8594C14.8171 25.9798 14.5869 25.0046 14.5869 23.9336C14.5869 22.9082 14.8102 22.1221 15.2568 21.5752C15.7035 21.0283 16.3825 20.7549 17.2939 20.7549H22.3867V22.2109ZM18.8457 22.8262L18.873 23.6328C18.8913 24.2389 19.0007 24.6901 19.2012 24.9863C19.4017 25.2826 19.707 25.4307 20.1172 25.4307C20.7051 25.4307 20.999 25.0934 20.999 24.4189C20.999 23.9359 20.86 23.5508 20.582 23.2637C20.304 22.972 19.9349 22.8262 19.4746 22.8262H18.8457Z" fill="#AA2424"/>
</g>
<defs>
<filter id="filter0_dd" x="-7" y="-6" width="57" height="132" filterUnits="userSpaceOnUse" color-interpolation-filters="sRGB">
<feFlood flood-opacity="0" result="BackgroundImageFix"/>
<feColorMatrix in="SourceAlpha" type="matrix" values="0 0 0 0 0 0 0 0 0 0 0 0 0 0 0 0 0 0 127 0"/>
<feOffset dx="1" dy="1"/>
<feGaussianBlur stdDeviation="1"/>
<feColorMatrix type="matrix" values="0 0 0 0 0 0 0 0 0 0 0 0 0 0 0 0 0 0 0.292686 0"/>
<feBlend mode="normal" in2="BackgroundImageFix" result="effect1_dropShadow"/>
<feColorMatrix in="SourceAlpha" type="matrix" values="0 0 0 0 0 0 0 0 0 0 0 0 0 0 0 0 0 0 127 0"/>
<feOffset dx="3" dy="3"/>
<feGaussianBlur stdDeviation="5"/>
<feColorMatrix type="matrix" values="0 0 0 0 0.38725 0 0 0 0 0.350212 0 0 0 0 0.350212 0 0 0 0.5 0"/>
<feBlend mode="normal" in2="effect1_dropShadow" result="effect2_dropShadow"/>
<feBlend mode="normal" in="SourceGraphic" in2="effect2_dropShadow" result="shape"/>
</filter>
<linearGradient id="paint0_linear" x1="0" y1="1" x2="0" y2="113" gradientUnits="userSpaceOnUse">
<stop stop-color="white"/>
<stop offset="1" stop-color="#CFCFCF"/>
</linearGradient>
<clipPath id="clip0">
<rect width="38" height="113" fill="white"/>
</clipPath>
</defs>
</svg>
