<svg width="37" height="113" viewBox="0 0 37 113" fill="none" xmlns="http://www.w3.org/2000/svg">
<g clip-path="url(#clip0)">
<g filter="url(#filter0_dd)">
<path fill-rule="evenodd" clip-rule="evenodd" d="M0 1H37V113L18.8164 100L0 113V1Z" fill="url(#paint0_linear)"/>
</g>
<path d="M22.3867 87.1895V89.6094L18.6064 91.9336L22.3867 94.2578V96.5273L17.2324 93.2119L12.3926 96.3154V93.9775L15.9883 91.8242L12.3926 89.7119V87.4287L17.3486 90.5664L22.3867 87.1895ZM14.7441 84.0791H17.7656C18.0846 84.0791 18.8639 84.1315 20.1035 84.2363L14.7441 80.709V78.2002H22.3867V80.2168H19.3379C18.7956 80.2168 18.0299 80.1712 17.041 80.0801L22.3867 83.5938V86.0957H14.7441V84.0791ZM14.7441 69.6826H16.3096V72.1846H22.3867V74.2695H16.3096V76.7783H14.7441L14.7441 69.6826ZM14.7441 57.6719H22.3867V59.7637H16.3096V62.5322H22.3867V64.6172H14.7441L14.7441 57.6719ZM22.5234 51.2871C22.5234 52.1849 22.1976 52.889 21.5459 53.3994V53.5088C22.1839 53.4359 22.5531 53.3994 22.6533 53.3994H25.75V55.4844H14.7441V53.7891L15.7354 53.4951V53.3994C14.9788 52.9118 14.6006 52.1895 14.6006 51.2324C14.6006 50.3301 14.9492 49.6237 15.6465 49.1133C16.3438 48.6029 17.3122 48.3477 18.5518 48.3477C19.3675 48.3477 20.0762 48.4684 20.6777 48.71C21.2793 48.9469 21.7373 49.2865 22.0518 49.7285C22.3662 50.1706 22.5234 50.6901 22.5234 51.2871ZM16.2686 51.9023C16.2686 52.4173 16.4281 52.7933 16.7471 53.0303C17.0615 53.2673 17.5833 53.3903 18.3125 53.3994H18.5381C19.3584 53.3994 19.9463 53.2786 20.3018 53.0371C20.6572 52.791 20.835 52.4036 20.835 51.875C20.835 50.9408 20.0648 50.4736 18.5244 50.4736C17.7725 50.4736 17.2096 50.5898 16.8359 50.8223C16.4577 51.0501 16.2686 51.4102 16.2686 51.9023ZM18.5518 44.9639C19.3083 44.9639 19.8802 44.8408 20.2676 44.5947C20.6549 44.3441 20.8486 43.9385 20.8486 43.3779C20.8486 42.8219 20.6572 42.4232 20.2744 42.1816C19.887 41.9355 19.3128 41.8125 18.5518 41.8125C17.7952 41.8125 17.2279 41.9355 16.8496 42.1816C16.4714 42.4277 16.2822 42.8311 16.2822 43.3916C16.2822 43.9476 16.4714 44.3486 16.8496 44.5947C17.2233 44.8408 17.7907 44.9639 18.5518 44.9639ZM18.5518 39.6797C19.7959 39.6797 20.7689 40.0078 21.4707 40.6641C22.1725 41.3203 22.5234 42.234 22.5234 43.4053C22.5234 44.139 22.3639 44.7861 22.0449 45.3467C21.7214 45.9072 21.2588 46.3379 20.6572 46.6387C20.0557 46.9395 19.3538 47.0898 18.5518 47.0898C17.3031 47.0898 16.3324 46.764 15.6396 46.1123C14.9469 45.4606 14.6006 44.5446 14.6006 43.3643C14.6006 42.6305 14.7601 41.9834 15.0791 41.4229C15.3981 40.8623 15.8561 40.4316 16.4531 40.1309C17.0501 39.8301 17.7497 39.6797 18.5518 39.6797ZM20.8623 33.1719H16.3096V34.7373C17.1572 34.8512 17.9616 35.0085 18.7227 35.209C19.4837 35.4049 20.1969 35.6784 20.8623 36.0293V33.1719ZM25.1279 29.9658V31.8389H22.3867V36.9795H25.1279V38.8525H20.8623V38.21C20.1833 37.7725 19.3265 37.4056 18.292 37.1094C17.2575 36.8132 16.0749 36.6058 14.7441 36.4873V31.0869H20.8623V29.9658H25.1279ZM22.3867 23.8066L21.3477 24.21V24.2646C21.7897 24.6156 22.0973 24.9779 22.2705 25.3516C22.4391 25.7207 22.5234 26.2038 22.5234 26.8008C22.5234 27.5345 22.3138 28.1133 21.8945 28.5371C21.4753 28.9564 20.8783 29.166 20.1035 29.166C19.2923 29.166 18.6953 28.8835 18.3125 28.3184C17.9251 27.7487 17.7109 26.8919 17.6699 25.748L17.6289 24.4219H17.2939C16.5192 24.4219 16.1318 24.8184 16.1318 25.6113C16.1318 26.222 16.3164 26.9398 16.6855 27.7646L15.2773 28.4551C14.8171 27.5755 14.5869 26.6003 14.5869 25.5293C14.5869 24.5039 14.8102 23.7178 15.2568 23.1709C15.7035 22.624 16.3825 22.3506 17.2939 22.3506H22.3867V23.8066ZM18.8457 24.4219L18.873 25.2285C18.8913 25.8346 19.0007 26.2858 19.2012 26.582C19.4017 26.8783 19.707 27.0264 20.1172 27.0264C20.7051 27.0264 20.999 26.6891 20.999 26.0146C20.999 25.5316 20.86 25.1465 20.582 24.8594C20.304 24.5677 19.9349 24.4219 19.4746 24.4219H18.8457ZM18.4561 16.1504H14.7441V14.209H18.4561L14.7441 11.4883V9.33496L18.4082 12.1514L22.3867 9.06836V11.2969L18.5107 14.209H22.3867V16.1504H18.5107L22.3867 19.0625V21.291L18.4082 18.208L14.7441 21.0244V18.8711L18.4561 16.1504Z" fill="white"/>
<path fill-rule="evenodd" clip-rule="evenodd" d="M32.7877 90.6659L31.517 88.2743C31.3252 87.8757 31.565 87.7116 31.6369 87.6647C31.7568 87.5943 31.9246 87.6178 32.0205 87.735C32.0445 87.7585 32.0445 87.8054 32.0445 87.8522C32.0445 87.8991 32.0205 87.9226 31.9726 87.946C31.8767 87.9929 31.8527 88.1102 31.9006 88.204C31.9486 88.2977 32.0924 88.3212 32.1644 88.2743C32.2843 88.204 32.3802 88.0867 32.4041 87.946C32.4281 87.8054 32.4041 87.6647 32.3322 87.5474C32.1404 87.2426 31.7328 87.1488 31.4211 87.3599C31.0375 87.5943 30.9416 88.0164 31.1574 88.4619L32.4281 90.8535C32.6439 91.3224 32.7877 91.9555 32.0924 92.3775C31.7328 92.612 31.2533 92.4948 31.0135 92.1431C30.8697 91.9086 30.9416 91.5803 31.1814 91.4396C31.3492 91.3459 31.541 91.3928 31.6369 91.5334C31.6848 91.6272 31.6609 91.7445 31.565 91.7914C31.4691 91.8382 31.4451 91.9555 31.517 92.0493C31.565 92.1431 31.6848 92.1665 31.7808 92.0962C32.0445 91.932 32.1404 91.5803 31.9486 91.299C31.8527 91.1348 31.6848 91.0176 31.493 90.9942C31.3012 90.9473 31.1094 90.9942 30.9416 91.0879C30.7258 91.2052 30.582 91.4162 30.534 91.6507C30.486 91.8851 30.534 92.1196 30.6539 92.3306C30.7738 92.4948 30.9176 92.6354 31.0854 92.7292C30.9176 92.823 30.7738 92.9403 30.6539 93.1044C30.534 93.3154 30.486 93.5499 30.534 93.7843C30.582 94.0188 30.7258 94.2064 30.9416 94.3471C31.1094 94.4409 31.3012 94.4878 31.493 94.4409C31.6848 94.394 31.8527 94.3002 31.9486 94.1361C32.1164 93.8781 32.0445 93.503 31.7808 93.3389C31.6848 93.292 31.565 93.3154 31.517 93.3857C31.4691 93.4795 31.493 93.5968 31.565 93.6437C31.6609 93.6906 31.6848 93.8312 31.6369 93.9016C31.541 94.0423 31.3252 94.0892 31.1814 93.9954C30.9416 93.8547 30.8697 93.5264 31.0135 93.292C31.2533 92.9403 31.7328 92.8465 32.0924 93.0575C32.7638 93.4795 32.6439 94.1126 32.4281 94.5815L31.1334 96.9731C30.9176 97.4186 31.0135 97.8407 31.3971 98.0752C31.493 98.1455 31.6369 98.1689 31.7568 98.1689C31.8047 98.1689 31.8527 98.1689 31.9006 98.1455C32.0685 98.0986 32.2123 98.0048 32.3082 97.8641C32.3802 97.7469 32.4041 97.6062 32.3802 97.4655C32.3562 97.3249 32.2603 97.2076 32.1404 97.1373C32.0445 97.0904 31.9246 97.1138 31.8767 97.2076C31.8287 97.3014 31.8527 97.4186 31.9486 97.4655C31.9726 97.489 31.9965 97.5124 32.0205 97.5593C32.0205 97.6062 32.0205 97.6297 31.9965 97.6766C31.9246 97.7938 31.7568 97.8407 31.6129 97.7469C31.541 97.7 31.3012 97.5359 31.493 97.1373L32.7877 94.7691C33.1953 93.925 33.0275 93.1982 32.3082 92.7527C32.2843 92.7292 32.2603 92.7292 32.2123 92.7058C32.2363 92.6823 32.2603 92.6823 32.3082 92.6589C33.0275 92.2368 33.1953 91.51 32.7877 90.6659Z" fill="white"/>
<path fill-rule="evenodd" clip-rule="evenodd" d="M32.7878 77.8402L31.517 75.4486C31.3252 75.05 31.565 74.8859 31.6369 74.839C31.7088 74.7921 31.7808 74.7921 31.8527 74.7921C31.9246 74.8155 31.9726 74.839 32.0205 74.9093C32.0445 74.9328 32.0445 74.9797 32.0445 75.0266C32.0445 75.0735 32.0205 75.0969 31.9726 75.1203C31.8767 75.1672 31.8527 75.2845 31.9246 75.3783C31.9726 75.472 32.1164 75.4955 32.1884 75.4252C32.3082 75.3548 32.4042 75.2376 32.4281 75.0969C32.4521 74.9562 32.4281 74.8155 32.3562 74.6983C32.1644 74.3935 31.7568 74.2997 31.4451 74.5107C31.0615 74.7452 30.9656 75.1672 31.1814 75.6127L32.4521 78.0043C32.6679 78.4733 32.8117 79.1063 32.1164 79.5284C31.7568 79.7629 31.2773 79.6456 31.0375 79.2939C30.8937 79.0594 30.9656 78.7312 31.2054 78.5905C31.3732 78.4967 31.565 78.5436 31.6609 78.6843C31.6849 78.7312 31.7088 78.7781 31.6849 78.825C31.6849 78.8719 31.6369 78.9188 31.589 78.9422C31.4931 78.9891 31.4691 79.1063 31.517 79.2001C31.565 79.2939 31.7088 79.3174 31.7808 79.2705C31.9246 79.1767 31.9966 79.0594 32.0445 78.9188C32.0685 78.7781 32.0445 78.614 31.9726 78.4967C31.7568 78.1685 31.3013 78.0747 30.9656 78.2857C30.534 78.5436 30.4141 79.1063 30.6779 79.5284C30.7978 79.6925 30.9416 79.8332 31.1094 79.927C30.9416 80.0208 30.7978 80.138 30.6779 80.3021C30.4141 80.7242 30.534 81.2635 30.9656 81.5448C31.3013 81.7559 31.7568 81.6621 31.9726 81.3338C32.1404 81.0759 32.0685 80.7007 31.8048 80.5366C31.7088 80.4897 31.589 80.5132 31.541 80.5835C31.4931 80.6773 31.517 80.7945 31.589 80.8414C31.6849 80.8883 31.7088 81.029 31.6609 81.0993C31.565 81.24 31.3492 81.2869 31.2054 81.1931C30.9656 81.0524 30.8937 80.7242 31.0375 80.4897C31.2773 80.138 31.7568 80.0442 32.1164 80.2552C32.7878 80.6773 32.6679 81.3104 32.4521 81.7793L31.1574 84.1709C30.9416 84.6164 31.0375 85.0384 31.4211 85.2729C31.541 85.3433 31.6609 85.3667 31.7808 85.3667C31.9966 85.3667 32.2123 85.2495 32.3322 85.0619C32.4042 84.9447 32.4281 84.804 32.4042 84.6633C32.3802 84.5226 32.2843 84.4054 32.1644 84.335C32.0685 84.2881 31.9486 84.3116 31.9007 84.4054C31.8527 84.4992 31.8767 84.6164 31.9726 84.6633C31.9966 84.6867 32.0205 84.7102 32.0445 84.7571C32.0445 84.804 32.0445 84.8274 32.0205 84.8743C31.9486 84.9915 31.7808 85.0384 31.6369 84.9447C31.565 84.8978 31.3252 84.7336 31.517 84.335L32.8117 81.9434C33.2193 81.0993 33.0515 80.3725 32.3322 79.927C32.3082 79.9035 32.2843 79.9035 32.2363 79.8801C32.2603 79.8566 32.2843 79.8566 32.3322 79.8332C33.0275 79.4112 33.1954 78.6843 32.7878 77.8402Z" fill="white"/>
<path fill-rule="evenodd" clip-rule="evenodd" d="M32.7877 65.015L31.517 62.6234C31.3252 62.2248 31.565 62.0607 31.6369 62.0138C31.7568 61.9435 31.9246 61.9669 32.0205 62.0841C32.0445 62.1076 32.0445 62.1545 32.0445 62.2014C32.0445 62.2483 32.0205 62.2717 31.9726 62.2952C31.8767 62.3421 31.8527 62.4593 31.9006 62.5531C31.9486 62.6469 32.0924 62.6703 32.1644 62.6234C32.2843 62.5531 32.3802 62.4358 32.4041 62.2952C32.4281 62.1545 32.4041 62.0138 32.3322 61.8966C32.1404 61.5917 31.7328 61.498 31.4211 61.709C31.0375 61.9435 30.9416 62.3655 31.1574 62.811L32.4281 65.2026C32.6439 65.6715 32.7877 66.3046 32.0924 66.7266C31.7328 66.9611 31.2533 66.8439 31.0135 66.4922C30.8697 66.2577 30.9416 65.9294 31.1814 65.7888C31.3492 65.695 31.541 65.7419 31.6369 65.8826C31.6848 65.9763 31.6609 66.0936 31.565 66.1405C31.4691 66.1874 31.4451 66.3046 31.517 66.3984C31.565 66.4922 31.6848 66.5156 31.7808 66.4453C32.0445 66.2812 32.1404 65.9294 31.9486 65.6481C31.7328 65.3198 31.2773 65.226 30.9416 65.4371C30.7258 65.5543 30.582 65.7653 30.534 65.9998C30.486 66.2343 30.534 66.4687 30.6539 66.6798C30.7738 66.8439 30.9176 66.9846 31.0854 67.0784C30.9176 67.1721 30.7738 67.2894 30.6539 67.4535C30.534 67.6645 30.486 67.899 30.534 68.1335C30.582 68.3679 30.7258 68.5555 30.9416 68.6962C31.2773 68.9072 31.7328 68.8134 31.9486 68.4852C32.1164 68.2273 32.0445 67.8521 31.7808 67.688C31.6848 67.6411 31.565 67.6645 31.517 67.7349C31.4691 67.8287 31.493 67.9459 31.565 67.9928C31.6609 68.0397 31.6848 68.1804 31.6369 68.2507C31.541 68.3914 31.3252 68.4383 31.1814 68.3445C30.9416 68.2038 30.8697 67.8756 31.0135 67.6411C31.2533 67.2894 31.7328 67.1956 32.0924 67.4066C32.7638 67.8287 32.6439 68.4617 32.4281 68.9307L31.1334 71.3223C30.9176 71.7678 31.0135 72.1898 31.3971 72.4243C31.517 72.4946 31.6369 72.5181 31.7568 72.5181C31.8047 72.5181 31.8527 72.5181 31.9006 72.4946C32.0685 72.4477 32.2123 72.3539 32.3082 72.2133C32.3802 72.096 32.4041 71.9553 32.3802 71.8147C32.3562 71.674 32.2603 71.5567 32.1404 71.4864C32.0445 71.4395 31.9246 71.4629 31.8767 71.5333C31.8287 71.6271 31.8527 71.7443 31.9246 71.7912C31.9486 71.8147 31.9726 71.8381 31.9965 71.885C31.9965 71.9319 31.9965 71.9553 31.9726 72.0022C31.9246 72.0726 31.8767 72.096 31.8047 72.1195C31.7328 72.1429 31.6609 72.1195 31.5889 72.0726C31.517 72.0257 31.2773 71.8615 31.4691 71.4629L32.7638 69.0714C33.1714 68.2273 33.0035 67.5004 32.2843 67.0549C32.2603 67.0315 32.2363 67.0315 32.2123 67.008C32.2363 66.9846 32.2603 66.9846 32.3082 66.9611C33.0275 66.586 33.1953 65.8591 32.7877 65.015Z" fill="white"/>
<path fill-rule="evenodd" clip-rule="evenodd" d="M31.9006 49.7508C31.9486 49.8446 32.0685 49.8681 32.1644 49.7977C32.2843 49.7274 32.3802 49.6102 32.4041 49.4695C32.4281 49.3288 32.4041 49.1881 32.3322 49.0709C32.1404 48.7661 31.7328 48.6723 31.4211 48.8833C31.0375 49.1178 30.9416 49.5398 31.1574 49.9853L32.4281 52.3769C32.6439 52.8458 32.7877 53.4789 32.0924 53.901C31.7328 54.1354 31.2533 54.0182 31.0135 53.6665C30.8697 53.432 30.9416 53.1038 31.1814 52.9631C31.3492 52.8693 31.541 52.9162 31.6369 53.0569C31.6848 53.1507 31.6609 53.2679 31.565 53.3148C31.4691 53.3617 31.4451 53.4789 31.517 53.5727C31.565 53.6665 31.6848 53.6899 31.7808 53.6196C32.0445 53.4555 32.1404 53.1038 31.9486 52.8224C31.8527 52.6583 31.6848 52.541 31.493 52.5176C31.3012 52.4707 31.1094 52.5176 30.9416 52.6114C30.7258 52.7286 30.582 52.9396 30.534 53.1741C30.486 53.4086 30.534 53.643 30.6539 53.8541C30.7738 54.0182 30.9176 54.1589 31.0854 54.2527C30.9176 54.3465 30.7738 54.4637 30.6539 54.6278C30.534 54.8388 30.486 55.0733 30.534 55.3078C30.582 55.5423 30.7258 55.7298 30.9416 55.8705C31.2773 56.0815 31.7328 55.9878 31.9486 55.6595C32.1164 55.4016 32.0445 55.0264 31.7808 54.8623C31.6848 54.8154 31.565 54.8388 31.517 54.9092C31.4691 55.003 31.493 55.1202 31.565 55.1671C31.6609 55.214 31.6848 55.3547 31.6369 55.425C31.541 55.5892 31.3252 55.6126 31.1814 55.5188C30.9416 55.3781 30.8697 55.0499 31.0135 54.8154C31.2533 54.4637 31.7328 54.3699 32.0924 54.5809C32.7638 55.003 32.6439 55.636 32.4281 56.105L31.1334 58.4966C30.9176 58.9421 31.0135 59.3641 31.3971 59.5986C31.517 59.6689 31.6369 59.6924 31.7568 59.6924C31.9726 59.6924 32.1883 59.5751 32.3082 59.3876C32.3802 59.2703 32.4041 59.1297 32.3802 58.989C32.3562 58.8483 32.2603 58.7311 32.1404 58.6607C32.0445 58.6138 31.9246 58.6373 31.8767 58.7311C31.8287 58.8248 31.8527 58.9421 31.9486 58.989C31.9726 59.0124 31.9965 59.0359 32.0205 59.0828C32.0205 59.1297 32.0205 59.1531 31.9965 59.2C31.9246 59.3172 31.7568 59.3641 31.6129 59.2703C31.541 59.2234 31.3012 59.0593 31.493 58.6607L32.7877 56.316C33.1953 55.4719 33.0275 54.7451 32.3082 54.2996C32.2843 54.2761 32.2603 54.2761 32.2123 54.2527C32.2363 54.2292 32.2603 54.2292 32.3082 54.2058C33.0275 53.7603 33.1953 53.0334 32.7877 52.1893L31.517 49.7977C31.3252 49.3991 31.565 49.235 31.6369 49.1881C31.7568 49.1178 31.9246 49.1412 32.0205 49.2585C32.0445 49.2819 32.0445 49.3288 32.0445 49.3757C32.0445 49.4226 32.0205 49.446 31.9726 49.4695C31.8527 49.5398 31.8287 49.6571 31.9006 49.7508Z" fill="white"/>
<path fill-rule="evenodd" clip-rule="evenodd" d="M32.7878 39.3637L31.517 36.9721C31.3252 36.5735 31.565 36.4093 31.6369 36.3624C31.7568 36.2921 31.9246 36.3155 32.0205 36.4328C32.0445 36.4562 32.0445 36.5031 32.0445 36.55C32.0445 36.5969 32.0205 36.6204 31.9726 36.6438C31.8767 36.6907 31.8527 36.8079 31.9246 36.9017C31.9726 36.9955 32.0925 37.019 32.1884 36.9486C32.3082 36.8783 32.4042 36.761 32.4281 36.6204C32.4521 36.4797 32.4281 36.339 32.3562 36.2218C32.1644 35.9169 31.7568 35.8232 31.4451 36.0342C31.0615 36.2686 30.9656 36.6907 31.1814 37.1362L32.4521 39.5278C32.6679 39.9967 32.8117 40.6298 32.1164 41.0518C31.7568 41.2863 31.2773 41.1691 31.0375 40.8174C30.8937 40.5829 30.9656 40.2546 31.2054 40.114C31.3732 40.0202 31.565 40.0671 31.6609 40.2078C31.7088 40.3015 31.6849 40.4188 31.589 40.4657C31.4931 40.5126 31.4691 40.6298 31.541 40.7236C31.589 40.8174 31.7088 40.8408 31.8048 40.7705C32.0685 40.6063 32.1644 40.2546 31.9726 39.9733C31.7568 39.645 31.3013 39.5512 30.9656 39.7623C30.534 40.0202 30.4141 40.5829 30.6779 41.0049C30.7978 41.1691 30.9416 41.3098 31.1094 41.4035C30.9416 41.4973 30.7978 41.6146 30.6779 41.7787C30.4141 42.2007 30.534 42.74 30.9656 43.0214C31.3013 43.2324 31.7568 43.1386 31.9726 42.8104C32.1404 42.5525 32.0685 42.1773 31.8048 42.0132C31.7088 41.9663 31.589 41.9897 31.541 42.0601C31.4931 42.1539 31.517 42.2711 31.589 42.318C31.6849 42.3649 31.7088 42.5056 31.6609 42.5759C31.565 42.7166 31.3492 42.7635 31.2054 42.6697C30.9656 42.529 30.8937 42.2007 31.0375 41.9663C31.2773 41.6146 31.7568 41.5208 32.1164 41.7318C32.7878 42.1539 32.6679 42.7869 32.4521 43.2559L31.1574 45.6475C30.9416 46.093 31.0375 46.515 31.4211 46.7495C31.541 46.8198 31.6609 46.8433 31.7808 46.8433C31.8287 46.8433 31.8767 46.8433 31.9246 46.8198C32.0925 46.7729 32.2363 46.6791 32.3322 46.5385C32.4042 46.4212 32.4281 46.2805 32.4042 46.1399C32.3802 45.9992 32.2843 45.8819 32.1644 45.8116C32.0685 45.7647 31.9486 45.7881 31.9007 45.8585C31.8527 45.9523 31.8767 46.0695 31.9486 46.1164C31.9726 46.1399 31.9966 46.1633 32.0205 46.2102C32.0205 46.2571 32.0205 46.2805 31.9966 46.3274C31.9486 46.3978 31.9007 46.4212 31.8287 46.4447C31.7568 46.4681 31.6849 46.4447 31.6129 46.3978C31.541 46.3509 31.3013 46.1867 31.4931 45.7881L32.7878 43.3965C33.1954 42.5525 33.0275 41.8256 32.3082 41.3801C32.2843 41.3567 32.2603 41.3567 32.2123 41.3332C32.2363 41.3098 32.2603 41.3098 32.3082 41.2863C33.0275 40.9581 33.1954 40.2078 32.7878 39.3637Z" fill="white"/>
<path fill-rule="evenodd" clip-rule="evenodd" d="M32.7877 26.5619L31.517 24.1703C31.3252 23.7717 31.5649 23.6076 31.6368 23.5607C31.7088 23.5138 31.7807 23.5138 31.8526 23.5138C31.9246 23.5372 31.9725 23.5607 32.0205 23.631C32.0444 23.6545 32.0444 23.7014 32.0444 23.7483C32.0444 23.7951 32.0205 23.8186 31.9725 23.842C31.8766 23.8889 31.8526 24.0062 31.9246 24.1C31.9725 24.1937 32.0924 24.2172 32.1883 24.1469C32.3082 24.0765 32.4041 23.9593 32.4281 23.8186C32.452 23.6779 32.4281 23.5372 32.3561 23.42C32.2602 23.2793 32.1164 23.1621 31.9485 23.1386C31.7807 23.0917 31.5889 23.1386 31.445 23.2324C31.0614 23.4669 30.9655 23.8889 31.1813 24.3344L32.452 26.726C32.6678 27.195 32.8117 27.828 32.1164 28.2501C31.7567 28.4846 31.2772 28.3673 31.0374 28.0156C30.9655 27.8984 30.9415 27.7577 30.9655 27.6405C30.9895 27.4998 31.0854 27.3825 31.2053 27.3122C31.3731 27.2184 31.5649 27.2653 31.6608 27.406C31.7088 27.4998 31.6848 27.617 31.5889 27.6639C31.493 27.7108 31.469 27.828 31.5409 27.9218C31.5889 28.0156 31.7088 28.0391 31.8047 27.9687C32.0684 27.8046 32.1643 27.4529 31.9725 27.1715C31.7567 26.8433 31.3012 26.7495 30.9655 26.9605C30.7497 27.0777 30.6059 27.2888 30.5579 27.5232C30.51 27.7577 30.5579 27.9922 30.6778 28.2032C30.7977 28.3673 30.9415 28.508 31.1094 28.6018C30.9415 28.6956 30.7977 28.8128 30.6778 28.9769C30.5579 29.188 30.51 29.4224 30.5579 29.6569C30.6059 29.8914 30.7497 30.079 30.9655 30.2196C31.3012 30.4307 31.7567 30.3369 31.9725 30.0086C32.1403 29.7507 32.0684 29.3755 31.8047 29.2114C31.7088 29.1645 31.5889 29.188 31.5409 29.2583C31.493 29.3521 31.517 29.4693 31.5889 29.5162C31.6848 29.5631 31.7088 29.7038 31.6608 29.7741C31.5649 29.9383 31.3491 29.9617 31.2053 29.8679C31.0854 29.7976 31.0135 29.6804 30.9655 29.5397C30.9415 29.399 30.9655 29.2818 31.0374 29.1645C31.2772 28.8128 31.7567 28.719 32.1164 28.93C32.7877 29.3521 32.6678 29.9852 32.452 30.4541L31.1573 32.8457C30.9415 33.2912 31.0374 33.7132 31.4211 33.9477C31.5409 34.0181 31.6608 34.0415 31.7807 34.0415C31.9965 34.0415 32.2123 33.9243 32.3322 33.7367C32.4041 33.6195 32.4281 33.4788 32.4041 33.3381C32.3801 33.1974 32.2842 33.0802 32.1643 33.0098C32.0684 32.9629 31.9485 32.9864 31.9006 33.0567C31.8526 33.1505 31.8766 33.2678 31.9485 33.3146C31.9725 33.3381 31.9965 33.3615 32.0205 33.4084C32.0205 33.4553 32.0205 33.4788 31.9965 33.5257C31.9246 33.6429 31.7567 33.6898 31.6129 33.596C31.5409 33.5491 31.3012 33.385 31.493 32.9864L32.7877 30.5948C33.1953 29.7507 33.0275 29.0238 32.3082 28.5783C32.2842 28.5549 32.2602 28.5549 32.2362 28.5315C32.2602 28.508 32.2842 28.508 32.3322 28.4846C33.0275 28.1329 33.1953 27.406 32.7877 26.5619Z" fill="white"/>
<path fill-rule="evenodd" clip-rule="evenodd" d="M32.7876 17.8395C33.1952 16.9954 33.0273 16.2685 32.3081 15.823C32.2841 15.7996 32.2601 15.7996 32.2122 15.7761C32.2361 15.7527 32.2601 15.7527 32.3081 15.7292C33.0273 15.2837 33.1952 14.5569 32.7876 13.7128L31.5168 11.3212C31.325 10.9226 31.5648 10.7585 31.6367 10.7116C31.7087 10.6647 31.7806 10.6647 31.8525 10.6647C31.9244 10.6881 31.9724 10.7116 32.0203 10.7819C32.0443 10.8053 32.0443 10.8522 32.0443 10.8991C32.0443 10.946 32.0203 10.9695 31.9724 10.9929C31.8765 11.0398 31.8525 11.1571 31.9005 11.2508C31.9484 11.3446 32.0923 11.3681 32.1642 11.2977C32.2841 11.2274 32.38 11.1102 32.404 10.9695C32.4279 10.8288 32.404 10.6881 32.332 10.5709C32.2361 10.4302 32.0923 10.313 31.9244 10.2895C31.7566 10.2426 31.5648 10.2895 31.4209 10.3833C31.0373 10.6178 30.9414 11.0398 31.1572 11.4853L32.4279 13.8769C32.6437 14.3458 32.7876 14.9789 32.0923 15.401C31.7326 15.6354 31.2531 15.5182 31.0134 15.1665C30.8695 14.932 30.9414 14.6038 31.1812 14.4631C31.349 14.3693 31.5408 14.4162 31.6367 14.5569C31.6847 14.6507 31.6607 14.7679 31.5648 14.8148C31.4689 14.8617 31.4449 14.9789 31.5168 15.0727C31.5648 15.1665 31.6847 15.1899 31.7806 15.1196C32.0443 14.9555 32.1402 14.6038 31.9484 14.3224C31.7326 13.9941 31.2771 13.9004 30.9414 14.1114C30.5099 14.3693 30.39 14.932 30.6537 15.3541C30.7736 15.5182 30.9174 15.6589 31.0853 15.7527C30.9174 15.8465 30.7736 15.9637 30.6537 16.1278C30.39 16.5499 30.5099 17.0892 30.9414 17.3705C31.2771 17.5815 31.7326 17.4878 31.9484 17.1595C32.1162 16.9016 32.0443 16.5264 31.7566 16.3623C31.6607 16.3154 31.5408 16.3388 31.4929 16.4092C31.4449 16.503 31.4689 16.6202 31.5648 16.6671C31.6607 16.714 31.6847 16.8547 31.6367 16.925C31.5408 17.0657 31.325 17.1126 31.1812 17.0188C30.9414 16.8781 30.8695 16.5499 31.0134 16.3154C31.2531 15.9637 31.7326 15.8699 32.0923 16.0809C32.7636 16.503 32.6437 17.136 32.4279 17.605L31.1332 19.9966C30.9174 20.4421 31.0134 20.8641 31.397 21.0986C31.5168 21.1689 31.6367 21.1924 31.7566 21.1924C31.9724 21.1924 32.1882 21.0751 32.3081 20.8876C32.38 20.7703 32.404 20.6297 32.38 20.489C32.356 20.3483 32.2601 20.2311 32.1402 20.1607C32.0443 20.1138 31.9244 20.1373 31.8765 20.2076C31.8285 20.3014 31.8525 20.4186 31.9244 20.4655C31.9484 20.489 31.9724 20.5124 31.9964 20.5593C31.9964 20.6062 31.9964 20.6297 31.9724 20.6765C31.9005 20.7938 31.7326 20.8407 31.5888 20.7469C31.5168 20.7 31.2771 20.5359 31.4689 20.1373L32.7876 17.8395Z" fill="white"/>
<path fill-rule="evenodd" clip-rule="evenodd" d="M30.9894 4.59171C31.3251 4.80273 31.7806 4.70894 31.9964 4.38068C32.1642 4.12277 32.0923 3.74761 31.8046 3.58348C31.7087 3.53659 31.5888 3.56004 31.5409 3.63038C31.4929 3.72417 31.5169 3.8414 31.6128 3.8883C31.7087 3.93519 31.7327 4.07587 31.6847 4.14621C31.5888 4.2869 31.373 4.33379 31.2292 4.24C30.9894 4.09932 30.9175 3.77106 31.0613 3.53659C31.3011 3.18489 31.7806 3.0911 32.1403 3.30212C32.8116 3.72417 32.6917 4.35724 32.4759 4.82618L31.1812 7.21778C30.9654 7.66327 31.0613 8.08532 31.4449 8.31979C31.5648 8.39013 31.6847 8.41357 31.8046 8.41357C32.0204 8.41357 32.2362 8.29634 32.356 8.10876C32.428 7.99153 32.4519 7.85085 32.428 7.71016C32.404 7.56948 32.3081 7.45225 32.1882 7.3819C32.0923 7.33501 31.9724 7.35846 31.9245 7.4288C31.8765 7.52259 31.9005 7.63982 31.9724 7.68672C31.9964 7.71016 32.0204 7.73361 32.0444 7.7805C32.0444 7.8274 32.0444 7.85085 32.0204 7.89774C31.9484 8.01497 31.7806 8.06187 31.6368 7.96808C31.5648 7.92119 31.3251 7.75706 31.5169 7.35846L32.8116 4.96686C33.2192 4.12277 33.0513 3.39591 32.3321 2.95041C31.7806 2.62216 31.0613 2.76284 30.7257 3.30212C30.438 3.77106 30.5578 4.33379 30.9894 4.59171Z" fill="white"/>
<path fill-rule="evenodd" clip-rule="evenodd" d="M29.5334 16.2127L29.0418 15.7319L29.5334 15.2511L30.0251 15.7319L29.5334 16.2127Z" fill="white"/>
<path fill-rule="evenodd" clip-rule="evenodd" d="M29.5347 29.0379L29.043 28.5571L29.5347 28.0763L30.0263 28.5571L29.5347 29.0379Z" fill="white"/>
<path fill-rule="evenodd" clip-rule="evenodd" d="M29.5398 41.8611L29.0481 41.3803L29.5398 40.8995L30.0314 41.3803L29.5398 41.8611Z" fill="white"/>
<path fill-rule="evenodd" clip-rule="evenodd" d="M29.5261 54.6682L29.0345 54.1874L29.5261 53.7066L30.0178 54.1874L29.5261 54.6682Z" fill="white"/>
<path fill-rule="evenodd" clip-rule="evenodd" d="M29.5269 67.4934L29.0352 67.0126L29.5269 66.5318L30.0185 67.0126L29.5269 67.4934Z" fill="white"/>
<path fill-rule="evenodd" clip-rule="evenodd" d="M29.5322 80.3138L29.0405 79.833L29.5321 79.3521L30.0239 79.8329L29.5322 80.3138Z" fill="white"/>
<path fill-rule="evenodd" clip-rule="evenodd" d="M29.5366 93.1409L29.045 92.6601L29.5366 92.1793L30.0283 92.6601L29.5366 93.1409Z" fill="white"/>
<path fill-rule="evenodd" clip-rule="evenodd" d="M29.5254 3.39186L29.0337 2.91106L29.5254 2.43025L30.017 2.91106L29.5254 3.39186Z" fill="white"/>
<path fill-rule="evenodd" clip-rule="evenodd" d="M32.7397 9.30455L33.7467 6.81916C33.7946 6.67848 34.0583 6.67848 34.1303 6.81916L35.1373 9.30455C35.1612 9.35144 35.1612 9.39834 35.1373 9.44523L34.1303 11.9306C34.0823 12.001 34.0104 12.0479 33.9385 12.0479C33.8426 12.0479 33.7706 12.001 33.7467 11.9306L32.7397 9.44523C32.7157 9.39834 32.7157 9.35144 32.7397 9.30455ZM33.0993 9.37489L33.9145 11.3444L34.7297 9.37489L33.9145 7.40534L33.0993 9.37489Z" fill="white"/>
<path fill-rule="evenodd" clip-rule="evenodd" d="M33.7467 19.6214C33.7946 19.4807 34.0583 19.4807 34.1063 19.6214L35.1373 22.1068C35.1612 22.1537 35.1612 22.2006 35.1373 22.2475L34.1303 24.7329C34.0823 24.8032 34.0104 24.8501 33.9385 24.8501C33.8426 24.8501 33.7706 24.8032 33.7467 24.7329L32.7397 22.2475C32.7157 22.2006 32.7157 22.1537 32.7397 22.1068L33.7467 19.6214ZM33.0993 22.1771L33.9145 24.1467L34.7297 22.1771L33.9145 20.2076L33.0993 22.1771Z" fill="white"/>
<path fill-rule="evenodd" clip-rule="evenodd" d="M33.7467 32.4002C33.7946 32.2595 34.0583 32.2595 34.1063 32.4002L35.1373 34.8856C35.1612 34.9325 35.1612 34.9794 35.1373 35.0263L34.1303 37.5117C34.0823 37.582 34.0104 37.6289 33.9385 37.6289C33.8426 37.6289 33.7706 37.582 33.7467 37.5117L32.7397 35.0263C32.7157 34.9794 32.7157 34.9325 32.7397 34.8856L33.7467 32.4002ZM33.0993 34.9559L33.9145 36.9255L34.7297 34.9559L33.9145 32.9864L33.0993 34.9559Z" fill="white"/>
<path fill-rule="evenodd" clip-rule="evenodd" d="M33.7467 45.202C33.7946 45.0613 34.0583 45.0613 34.1063 45.202L35.1373 47.6874C35.1612 47.7343 35.1612 47.7811 35.1373 47.828L34.1303 50.3134C34.0823 50.3838 34.0104 50.4307 33.9385 50.4307C33.8426 50.4307 33.7706 50.3838 33.7467 50.3134L32.7397 47.828C32.7157 47.7811 32.7157 47.7343 32.7397 47.6874L33.7467 45.202ZM33.0993 47.7577L33.9145 49.7273L34.7297 47.7577L33.9145 45.7882L33.0993 47.7577Z" fill="white"/>
<path fill-rule="evenodd" clip-rule="evenodd" d="M33.7467 57.9808C33.7946 57.8401 34.0583 57.8401 34.1063 57.9808L35.1373 60.4662C35.1612 60.5131 35.1612 60.56 35.1373 60.6069L34.1303 63.0922C34.0823 63.1626 34.0104 63.2095 33.9385 63.2095C33.8426 63.2095 33.7706 63.1626 33.7467 63.0922L32.7397 60.6069C32.7157 60.56 32.7157 60.5131 32.7397 60.4662L33.7467 57.9808ZM33.0993 60.5365L33.9145 62.5061L34.7297 60.5365L33.9145 58.567L33.0993 60.5365Z" fill="white"/>
<path fill-rule="evenodd" clip-rule="evenodd" d="M33.7467 70.783C33.7946 70.6423 34.0583 70.6423 34.1063 70.783L35.1373 73.2684C35.1612 73.3153 35.1612 73.3622 35.1373 73.4091L34.1303 75.8945C34.0823 75.9648 34.0104 76.0117 33.9385 76.0117C33.8426 76.0117 33.7706 75.9648 33.7467 75.8945L32.7397 73.4091C32.7157 73.3622 32.7157 73.3153 32.7397 73.2684L33.7467 70.783ZM33.0993 73.3388L33.9145 75.3083L34.7297 73.3388L33.9145 71.3692L33.0993 73.3388Z" fill="white"/>
<path fill-rule="evenodd" clip-rule="evenodd" d="M33.7467 83.5613C33.7946 83.4207 34.0583 83.4207 34.1063 83.5613L35.1373 86.0467C35.1612 86.0936 35.1612 86.1405 35.1373 86.1874L34.1303 88.6728C34.0823 88.7431 34.0104 88.79 33.9385 88.79C33.8426 88.79 33.7706 88.7431 33.7467 88.6728L32.7397 86.1874C32.7157 86.1405 32.7157 86.0936 32.7397 86.0467L33.7467 83.5613ZM33.0993 86.1171L33.9145 88.0866L34.7297 86.1171L33.9145 84.1475L33.0993 86.1171Z" fill="white"/>
<path fill-rule="evenodd" clip-rule="evenodd" d="M34.7538 15.6588C34.7778 15.6822 34.8017 15.7057 34.8017 15.7526C34.8017 15.776 34.7778 15.8229 34.7298 15.8698L34.0105 16.5732C33.9866 16.5967 33.9626 16.6201 33.9146 16.6201C33.8906 16.6201 33.8427 16.5967 33.8187 16.5732L33.0994 15.8698C33.0515 15.7995 33.0515 15.7057 33.0994 15.6588L33.8187 14.9554C33.8906 14.9085 33.9866 14.9085 34.0345 14.9554L34.7538 15.6588ZM33.4111 15.7526L33.9146 16.245L34.4181 15.7526L33.9146 15.2602L33.4111 15.7526Z" fill="white"/>
<path fill-rule="evenodd" clip-rule="evenodd" d="M33.8186 29.3755L33.0993 28.6721C33.0513 28.6017 33.0513 28.5079 33.0753 28.4845L33.7946 27.7811C33.8665 27.7342 33.9624 27.7342 34.0104 27.7811L34.7297 28.4845C34.7536 28.5079 34.7776 28.5314 34.7776 28.5783C34.7776 28.6017 34.7536 28.6486 34.7297 28.6721L34.0104 29.3755C33.9864 29.3989 33.9624 29.4224 33.9145 29.4224C33.8905 29.4224 33.8426 29.3989 33.8186 29.3755ZM34.418 28.5548L33.9145 28.0624L33.411 28.5548L33.9145 29.0472L34.418 28.5548Z" fill="white"/>
<path fill-rule="evenodd" clip-rule="evenodd" d="M33.8186 42.2007L33.0993 41.4973C33.0513 41.4269 33.0513 41.3331 33.0753 41.3097L33.7946 40.6063C33.8665 40.5594 33.9624 40.5594 34.0104 40.6063L34.7297 41.3097C34.7536 41.3331 34.7776 41.3566 34.7776 41.4035C34.7776 41.4269 34.7536 41.4738 34.7297 41.4973L34.0104 42.2007C33.9864 42.2241 33.9624 42.2476 33.9145 42.2476C33.8905 42.2476 33.8426 42.2241 33.8186 42.2007ZM34.418 41.38L33.9145 40.8876L33.411 41.38L33.9145 41.8724L34.418 41.38Z" fill="white"/>
<path fill-rule="evenodd" clip-rule="evenodd" d="M33.8186 55.0029L33.0993 54.2995C33.0513 54.2526 33.0513 54.1588 33.0753 54.1119L33.7946 53.4085C33.8665 53.3616 33.9624 53.3616 34.0104 53.4085L34.7297 54.1119C34.7536 54.1354 34.7776 54.1588 34.7776 54.2057C34.7776 54.2292 34.7536 54.2761 34.7297 54.2995L34.0104 55.0029C33.9864 55.0264 33.9624 55.0498 33.9145 55.0498C33.8905 55.0498 33.8426 55.0264 33.8186 55.0029ZM34.418 54.2057L33.9145 53.7133L33.411 54.2057L33.9145 54.6981L34.418 54.2057Z" fill="white"/>
<path fill-rule="evenodd" clip-rule="evenodd" d="M33.8186 67.8286L33.0993 67.1252C33.0513 67.0783 33.0513 66.9845 33.0753 66.9376L33.7946 66.2342C33.8665 66.1873 33.9624 66.1873 34.0104 66.2342L34.7297 66.9376C34.7536 66.9611 34.7776 66.9845 34.7776 67.0314C34.7776 67.0548 34.7536 67.1017 34.7297 67.1252L34.0104 67.8286C33.9864 67.852 33.9624 67.8755 33.9145 67.8755C33.8905 67.8755 33.8426 67.852 33.8186 67.8286ZM34.418 67.0079L33.9145 66.5156L33.411 67.0079L33.9145 67.5003L34.418 67.0079Z" fill="white"/>
<path fill-rule="evenodd" clip-rule="evenodd" d="M33.8186 80.6543L33.0993 79.9509C33.0513 79.904 33.0513 79.8102 33.0753 79.7633L33.7946 79.0599C33.8665 79.013 33.9624 79.013 34.0104 79.0599L34.7297 79.7633C34.7536 79.7867 34.7776 79.8102 34.7776 79.8571C34.7776 79.8805 34.7536 79.9274 34.7297 79.9509L34.0104 80.6543C33.9864 80.6777 33.9624 80.7012 33.9145 80.7012C33.8905 80.7012 33.8426 80.6777 33.8186 80.6543ZM34.418 79.8336L33.9145 79.3412L33.411 79.8336L33.9145 80.326L34.418 79.8336Z" fill="white"/>
<path fill-rule="evenodd" clip-rule="evenodd" d="M33.927 12.9248L33.5879 12.5932L33.927 12.2616L34.2661 12.5932L33.927 12.9248Z" fill="white"/>
<path fill-rule="evenodd" clip-rule="evenodd" d="M33.9224 13.833L33.5833 13.5014L33.9224 13.1698L34.2615 13.5014L33.9224 13.833Z" fill="white"/>
<path fill-rule="evenodd" clip-rule="evenodd" d="M33.9216 14.7563L33.5826 14.4247L33.9216 14.0931L34.2607 14.4247L33.9216 14.7563Z" fill="white"/>
<path fill-rule="evenodd" clip-rule="evenodd" d="M33.9258 17.4267L33.5867 17.0951L33.9258 16.7636L34.2649 17.0951L33.9258 17.4267Z" fill="white"/>
<path fill-rule="evenodd" clip-rule="evenodd" d="M33.9209 18.3359L33.5819 18.0043L33.921 17.6727L34.26 18.0043L33.9209 18.3359Z" fill="white"/>
<path fill-rule="evenodd" clip-rule="evenodd" d="M33.927 19.2549L33.5879 18.9233L33.927 18.5917L34.2661 18.9233L33.927 19.2549Z" fill="white"/>
<path fill-rule="evenodd" clip-rule="evenodd" d="M33.9185 4.53366L33.5794 4.20207L33.9185 3.87048L34.2575 4.20207L33.9185 4.53366Z" fill="white"/>
<path fill-rule="evenodd" clip-rule="evenodd" d="M33.9141 5.45016L33.575 5.11858L33.9141 4.78699L34.2531 5.11858L33.9141 5.45016Z" fill="white"/>
<path fill-rule="evenodd" clip-rule="evenodd" d="M33.9097 6.36716L33.5706 6.03557L33.9097 5.70398L34.2487 6.03557L33.9097 6.36716Z" fill="white"/>
<path fill-rule="evenodd" clip-rule="evenodd" d="M33.9104 25.7339L33.5713 25.4023L33.9104 25.0707L34.2495 25.4023L33.9104 25.7339Z" fill="white"/>
<path fill-rule="evenodd" clip-rule="evenodd" d="M33.9153 26.6455L33.5762 26.3139L33.9153 25.9823L34.2544 26.3139L33.9153 26.6455Z" fill="white"/>
<path fill-rule="evenodd" clip-rule="evenodd" d="M33.9312 27.5766L33.5921 27.245L33.9312 26.9135L34.2702 27.245L33.9312 27.5766Z" fill="white"/>
<path fill-rule="evenodd" clip-rule="evenodd" d="M33.9119 30.2343L33.5728 29.9028L33.9119 29.5712L34.2509 29.9028L33.9119 30.2343Z" fill="white"/>
<path fill-rule="evenodd" clip-rule="evenodd" d="M33.928 31.166L33.5889 30.8344L33.928 30.5028L34.267 30.8344L33.928 31.166Z" fill="white"/>
<path fill-rule="evenodd" clip-rule="evenodd" d="M33.9238 32.0757L33.5847 31.7441L33.9238 31.4125L34.2629 31.744L33.9238 32.0757Z" fill="white"/>
<path fill-rule="evenodd" clip-rule="evenodd" d="M33.9165 38.5561L33.5774 38.2245L33.9165 37.8929L34.2556 38.2245L33.9165 38.5561Z" fill="white"/>
<path fill-rule="evenodd" clip-rule="evenodd" d="M33.9183 39.4697L33.5792 39.1381L33.9184 38.8065L34.2574 39.1382L33.9183 39.4697Z" fill="white"/>
<path fill-rule="evenodd" clip-rule="evenodd" d="M33.9121 40.3872L33.573 40.0556L33.9121 39.724L34.2512 40.0556L33.9121 40.3872Z" fill="white"/>
<path fill-rule="evenodd" clip-rule="evenodd" d="M33.9129 43.0537L33.5738 42.7221L33.9129 42.3905L34.252 42.7221L33.9129 43.0537Z" fill="white"/>
<path fill-rule="evenodd" clip-rule="evenodd" d="M33.9119 43.9687L33.5728 43.6371L33.9119 43.3055L34.251 43.6372L33.9119 43.9687Z" fill="white"/>
<path fill-rule="evenodd" clip-rule="evenodd" d="M33.9111 44.8833L33.572 44.5517L33.9111 44.2201L34.2502 44.5517L33.9111 44.8833Z" fill="white"/>
<path fill-rule="evenodd" clip-rule="evenodd" d="M33.9197 51.3803L33.5806 51.0488L33.9197 50.7172L34.2587 51.0488L33.9197 51.3803Z" fill="white"/>
<path fill-rule="evenodd" clip-rule="evenodd" d="M33.9167 52.2959L33.5777 51.9643L33.9167 51.6327L34.2558 51.9643L33.9167 52.2959Z" fill="white"/>
<path fill-rule="evenodd" clip-rule="evenodd" d="M33.9163 53.2056L33.5772 52.8739L33.9163 52.5423L34.2554 52.874L33.9163 53.2056Z" fill="white"/>
<path fill-rule="evenodd" clip-rule="evenodd" d="M33.9168 55.8784L33.5777 55.5468L33.9168 55.2152L34.2559 55.5468L33.9168 55.8784Z" fill="white"/>
<path fill-rule="evenodd" clip-rule="evenodd" d="M33.916 56.7935L33.577 56.4618L33.9161 56.1302L34.2552 56.4619L33.916 56.7935Z" fill="white"/>
<path fill-rule="evenodd" clip-rule="evenodd" d="M33.9148 57.7085L33.5757 57.3769L33.9147 57.0453L34.2538 57.3769L33.9148 57.7085Z" fill="white"/>
<path fill-rule="evenodd" clip-rule="evenodd" d="M33.9211 64.205L33.5821 63.8735L33.9211 63.5419L34.2602 63.8735L33.9211 64.205Z" fill="white"/>
<path fill-rule="evenodd" clip-rule="evenodd" d="M33.9238 65.1186L33.5848 64.787L33.9238 64.4554L34.2629 64.787L33.9238 65.1186Z" fill="white"/>
<path fill-rule="evenodd" clip-rule="evenodd" d="M33.9229 66.0337L33.5838 65.7021L33.9229 65.3705L34.2619 65.7021L33.9229 66.0337Z" fill="white"/>
<path fill-rule="evenodd" clip-rule="evenodd" d="M33.9234 68.7065L33.5844 68.3749L33.9235 68.0433L34.2625 68.375L33.9234 68.7065Z" fill="white"/>
<path fill-rule="evenodd" clip-rule="evenodd" d="M33.9197 69.6182L33.5806 69.2865L33.9198 68.9549L34.2588 69.2866L33.9197 69.6182Z" fill="white"/>
<path fill-rule="evenodd" clip-rule="evenodd" d="M33.9189 70.5332L33.5798 70.2016L33.9189 69.87L34.258 70.2016L33.9189 70.5332Z" fill="white"/>
<path fill-rule="evenodd" clip-rule="evenodd" d="M33.926 77.0288L33.587 76.6972L33.926 76.3656L34.2651 76.6972L33.926 77.0288Z" fill="white"/>
<path fill-rule="evenodd" clip-rule="evenodd" d="M33.9253 77.9433L33.5862 77.6117L33.9253 77.2802L34.2644 77.6117L33.9253 77.9433Z" fill="white"/>
<path fill-rule="evenodd" clip-rule="evenodd" d="M33.9229 78.8584L33.5838 78.5268L33.9229 78.1952L34.2619 78.5268L33.9229 78.8584Z" fill="white"/>
<path fill-rule="evenodd" clip-rule="evenodd" d="M33.9248 81.5307L33.5857 81.1991L33.9248 80.8676L34.2639 81.1991L33.9248 81.5307Z" fill="white"/>
<path fill-rule="evenodd" clip-rule="evenodd" d="M33.9239 82.4458L33.5849 82.1141L33.924 81.7826L34.263 82.1142L33.9239 82.4458Z" fill="white"/>
<path fill-rule="evenodd" clip-rule="evenodd" d="M33.9231 83.3603L33.584 83.0287L33.9231 82.6971L34.2622 83.0287L33.9231 83.3603Z" fill="white"/>
<path fill-rule="evenodd" clip-rule="evenodd" d="M33.9124 89.8359L33.5733 89.5043L33.9124 89.1727L34.2514 89.5043L33.9124 89.8359Z" fill="white"/>
<path fill-rule="evenodd" clip-rule="evenodd" d="M33.9116 90.7509L33.5726 90.4194L33.9116 90.0878L34.2507 90.4194L33.9116 90.7509Z" fill="white"/>
<path fill-rule="evenodd" clip-rule="evenodd" d="M33.9275 91.6821L33.5884 91.3505L33.9275 91.0189L34.2666 91.3505L33.9275 91.6821Z" fill="white"/>
<path fill-rule="evenodd" clip-rule="evenodd" d="M31.493 101.1C31.3012 100.701 31.541 100.537 31.6129 100.49C31.6848 100.443 31.7568 100.443 31.8287 100.443C31.9006 100.467 31.9486 100.49 31.9965 100.56C32.0205 100.584 32.0205 100.631 32.0205 100.678C32.0205 100.725 31.9965 100.748 31.9486 100.771C31.8527 100.818 31.8287 100.936 31.9006 101.029C31.9486 101.123 32.0924 101.147 32.1644 101.076C32.2843 101.006 32.3802 100.889 32.4041 100.748C32.4281 100.607 32.4041 100.467 32.3322 100.349C32.1404 100.045 31.7328 99.9508 31.4211 100.162C31.0375 100.396 30.9416 100.818 31.1574 101.264L32.4281 103.655C32.6439 104.124 32.7877 104.757 32.0924 105.179C31.7328 105.414 31.2533 105.297 31.0135 104.945C30.8697 104.711 30.9416 104.382 31.1814 104.242C31.3252 104.148 31.541 104.195 31.6369 104.335C31.6848 104.429 31.6609 104.546 31.565 104.593C31.4691 104.64 31.4451 104.757 31.493 104.851C31.541 104.945 31.6848 104.968 31.7568 104.922C32.0205 104.757 32.1164 104.406 31.9486 104.124C31.7328 103.796 31.2773 103.702 30.9416 103.913C30.7258 104.031 30.582 104.242 30.534 104.476C30.486 104.711 30.534 104.945 30.6539 105.156C30.8697 105.508 31.2533 105.672 31.6369 105.672C31.8527 105.672 32.0685 105.625 32.2603 105.484C32.9796 105.039 33.1474 104.312 32.7398 103.468L31.493 101.1Z" fill="white"/>
<path fill-rule="evenodd" clip-rule="evenodd" d="M29.5396 105.965L29.0479 105.484L29.5396 105.003L30.0312 105.484L29.5396 105.965Z" fill="white"/>
<path fill-rule="evenodd" clip-rule="evenodd" d="M33.7467 96.5745C33.7946 96.4339 34.0583 96.4339 34.1063 96.5745L35.1373 99.0599C35.1612 99.1068 35.1612 99.1537 35.1373 99.2006L34.1303 101.686C34.0823 101.756 34.0104 101.803 33.9385 101.803C33.8426 101.803 33.7706 101.756 33.7467 101.686L32.7397 99.2006C32.7157 99.1537 32.7157 99.1068 32.7397 99.0599L33.7467 96.5745ZM33.0993 99.1303L33.9145 101.1L34.7297 99.1303L33.9145 97.1607L33.0993 99.1303Z" fill="white"/>
<path fill-rule="evenodd" clip-rule="evenodd" d="M33.8187 104.687C33.8906 104.64 33.9866 104.64 34.0345 104.687L34.7298 105.414C34.7538 105.438 34.7778 105.461 34.7778 105.508C34.7778 105.531 34.7538 105.578 34.7298 105.602L34.0105 106.305C33.9866 106.329 33.9626 106.352 33.9146 106.352C33.8906 106.352 33.8427 106.329 33.8187 106.305L33.0994 105.602C33.0515 105.531 33.0515 105.438 33.0994 105.391L33.8187 104.687ZM33.4111 105.508L33.9146 106L34.4181 105.508L33.9146 105.016L33.4111 105.508Z" fill="white"/>
<path fill-rule="evenodd" clip-rule="evenodd" d="M33.8186 93.4795L33.0993 92.7761C33.0513 92.7057 33.0513 92.6119 33.0753 92.5885L33.7946 91.8851C33.8665 91.8382 33.9624 91.8382 34.0104 91.8851L34.7297 92.5885C34.7536 92.6119 34.7776 92.6354 34.7776 92.6823C34.7776 92.7057 34.7536 92.7526 34.7297 92.7761L34.0104 93.4795C33.9864 93.5029 33.9624 93.5264 33.9145 93.5264C33.8905 93.5264 33.8426 93.5029 33.8186 93.4795ZM34.418 92.6588L33.9145 92.1664L33.411 92.6588L33.9145 93.1512L34.418 92.6588Z" fill="white"/>
<path fill-rule="evenodd" clip-rule="evenodd" d="M33.9155 102.66L33.5765 102.329L33.9155 101.997L34.2546 102.329L33.9155 102.66Z" fill="white"/>
<path fill-rule="evenodd" clip-rule="evenodd" d="M33.9156 103.573L33.5765 103.242L33.9156 102.91L34.2547 103.242L33.9156 103.573Z" fill="white"/>
<path fill-rule="evenodd" clip-rule="evenodd" d="M33.9128 104.489L33.5738 104.158L33.9128 103.826L34.2519 104.158L33.9128 104.489Z" fill="white"/>
<path fill-rule="evenodd" clip-rule="evenodd" d="M33.9217 94.2881L33.5827 93.9564L33.9218 93.6249L34.2608 93.9565L33.9217 94.2881Z" fill="white"/>
<path fill-rule="evenodd" clip-rule="evenodd" d="M33.9185 95.2021L33.5794 94.8705L33.9185 94.5389L34.2575 94.8705L33.9185 95.2021Z" fill="white"/>
<path fill-rule="evenodd" clip-rule="evenodd" d="M33.9199 96.1176L33.5809 95.7861L33.9199 95.4545L34.259 95.7861L33.9199 96.1176Z" fill="white"/>
<path fill-rule="evenodd" clip-rule="evenodd" d="M33.9144 3.771C33.8905 3.771 33.8425 3.74755 33.8185 3.7241L33.0753 3.04414C33.0273 2.9738 33.0273 2.88001 33.0753 2.83311L33.7946 2.1297C33.8665 2.08281 33.9624 2.08281 34.0103 2.1297L34.7296 2.83311C34.7536 2.85656 34.7776 2.88001 34.7776 2.9269C34.7776 2.95035 34.7536 2.99724 34.7296 3.02069L34.0103 3.7241C33.9864 3.74755 33.9624 3.771 33.9144 3.771ZM34.4179 2.90346L33.9144 2.41107L33.4109 2.90346L33.9144 3.39584L34.4179 2.90346Z" fill="white"/>
</g>
<defs>
<filter id="filter0_dd" x="-7" y="-6" width="57" height="132" filterUnits="userSpaceOnUse" color-interpolation-filters="sRGB">
<feFlood flood-opacity="0" result="BackgroundImageFix"/>
<feColorMatrix in="SourceAlpha" type="matrix" values="0 0 0 0 0 0 0 0 0 0 0 0 0 0 0 0 0 0 127 0"/>
<feOffset dx="1" dy="1"/>
<feGaussianBlur stdDeviation="1"/>
<feColorMatrix type="matrix" values="0 0 0 0 0 0 0 0 0 0 0 0 0 0 0 0 0 0 0.292686 0"/>
<feBlend mode="normal" in2="BackgroundImageFix" result="effect1_dropShadow"/>
<feColorMatrix in="SourceAlpha" type="matrix" values="0 0 0 0 0 0 0 0 0 0 0 0 0 0 0 0 0 0 127 0"/>
<feOffset dx="3" dy="3"/>
<feGaussianBlur stdDeviation="5"/>
<feColorMatrix type="matrix" values="0 0 0 0 0.38725 0 0 0 0 0.350212 0 0 0 0 0.350212 0 0 0 0.5 0"/>
<feBlend mode="normal" in2="effect1_dropShadow" result="effect2_dropShadow"/>
<feBlend mode="normal" in="SourceGraphic" in2="effect2_dropShadow" result="shape"/>
</filter>
<linearGradient id="paint0_linear" x1="0" y1="1" x2="0" y2="113" gradientUnits="userSpaceOnUse">
<stop stop-color="#D54A4A"/>
<stop offset="1" stop-color="#AA2424"/>
</linearGradient>
<clipPath id="clip0">
<rect width="37" height="113" fill="white"/>
</clipPath>
</defs>
</svg>
