<svg xmlns="http://www.w3.org/2000/svg" xmlns:xlink="http://www.w3.org/1999/xlink" viewBox="0 0 1484.89 836.93"><defs><style>.cls-1{fill:#87968a;}.cls-2{fill:#535b7a;}.cls-3{fill:#87988a;}.cls-4{fill:#879e8b;}.cls-5{fill:#879d8b;}.cls-6{fill:#879c8b;}.cls-7{fill:#6b9b3d;}.cls-8{fill:#5e923e;}.cls-9{fill:#5f923e;}.cls-10{fill:#67983d;}.cls-11{fill:#879b8b;}.cls-12{fill:#87978a;}.cls-13{fill:#87998b;}.cls-14{fill:#879f8b;}.cls-15{fill:#6b9c3d;}.cls-16{fill:#63963e;}.cls-17{fill:#87958a;}.cls-18{fill:#9ec436;}.cls-19{fill:#7eab3b;}.cls-20{fill:#7aa83b;}.cls-21{fill:#81ad3a;}.cls-22{fill:#5d913f;}.cls-23{fill:#64963e;}.cls-24{fill:#89b339;}.cls-25{fill:#87b23a;}.cls-26{fill:#7daa3b;}.cls-27{fill:#96be38;}.cls-28{fill:#65973e;}.cls-29{fill:#9bc237;}.cls-30{fill:#74a33c;}.cls-31{fill:#aacd35;}.cls-32{fill:#67983e;}.cls-33{fill:#89b33a;}.cls-34{fill:#63953f;}.cls-35{fill:#87948a;}.cls-36{fill:#8eb839;}.cls-37{fill:#a0c537;}.cls-38{fill:#93bb38;}.cls-39{fill:#82ae3a;}.cls-40{fill:#aed135;}.cls-41{fill:#6d9d3e;}.cls-42{fill:#92ba39;}.cls-43{fill:#b3d534;}.cls-44{fill:#7ca93b;}.cls-45{fill:#64963f;}.cls-46{fill:#80ac3b;}.cls-47{fill:#5f923f;}.cls-48{fill:#a9cd37;}.cls-49{fill:#b4d635;}.cls-50{fill:#88948a;}.cls-51{fill:#b5d634;}.cls-52{fill:#a3c837;}.cls-53{fill:#93bb39;}.cls-54{fill:#accf36;}.cls-55{fill:#93bb3a;}.cls-56{fill:#97be38;}.cls-57{fill:#7daa3d;}.cls-58{fill:#95bd39;}.cls-59{fill:#8bb53b;}.cls-60{fill:#b0d236;}.cls-61{fill:#9fc538;}.cls-62{fill:#85b03c;}.cls-63{fill:#9fc437;}.cls-64{fill:#afd236;}.cls-65{fill:#67983f;}.cls-66{fill:#82ae3c;}.cls-67{fill:#a9cd38;}.cls-68{fill:#689940;}.cls-69{fill:#87b23d;}.cls-70{fill:#89b33c;}.cls-71{fill:#9fc43b;}.cls-72{fill:#9bc13d;}.cls-73{fill:#8fb83d;}.cls-74{fill:#93bb3c;}.cls-75{fill:#9cc23a;}.cls-76{fill:#a7cb3d;}.cls-77{fill:#b0d23a;}.cls-78{fill:#b9d939;}.cls-79{fill:#b6d737;}.cls-80{fill:#b7d73a;}.cls-81{fill:#a7cb3a;}.cls-82{fill:#b9d938;}.cls-83{fill:#afd239;}.cls-84{fill:#99c03c;}.cls-85{fill:#a6ca39;}.cls-86{fill:#a3c73d;}.cls-87{fill:#6f7f90;}.cls-88{fill:url(#linear-gradient);}.cls-89{fill:url(#linear-gradient-2);}.cls-90{fill:url(#linear-gradient-3);}.cls-91{fill:url(#linear-gradient-4);}.cls-92{fill:url(#linear-gradient-5);}.cls-93{fill:url(#linear-gradient-6);}.cls-94{fill:url(#linear-gradient-7);}.cls-95{fill:url(#linear-gradient-8);}.cls-96{fill:url(#linear-gradient-9);}</style><linearGradient id="linear-gradient" x1="1481.14" y1="737" x2="1113.14" y2="739" gradientUnits="userSpaceOnUse"><stop offset="0" stop-color="#f6b504" stop-opacity="0"/><stop offset="1" stop-color="#eb8c24" stop-opacity="0.5"/></linearGradient><linearGradient id="linear-gradient-2" x1="742.09" y1="7.95" x2="746.09" y2="241.95" xlink:href="#linear-gradient"/><linearGradient id="linear-gradient-3" x1="459.28" y1="62.61" x2="570.28" y2="301.61" xlink:href="#linear-gradient"/><linearGradient id="linear-gradient-4" x1="227.98" y1="212" x2="457.98" y2="453" xlink:href="#linear-gradient"/><linearGradient id="linear-gradient-5" x1="57.63" y1="448.92" x2="395.84" y2="599.5" xlink:href="#linear-gradient"/><linearGradient id="linear-gradient-6" x1="-1.06" y1="736.47" x2="354.94" y2="743.47" xlink:href="#linear-gradient"/><linearGradient id="linear-gradient-7" x1="1026.57" y1="61.47" x2="923.57" y2="302.47" xlink:href="#linear-gradient"/><linearGradient id="linear-gradient-8" x1="1255.68" y1="213.45" x2="1043.68" y2="420.45" xlink:href="#linear-gradient"/><linearGradient id="linear-gradient-9" x1="1417.86" y1="453.14" x2="1098.86" y2="576.14" xlink:href="#linear-gradient"/></defs><title>logo</title><g id="Слой_2" data-name="Слой 2"><g id="Layer_1" data-name="Layer 1"><path class="cls-1" d="M1020.16,568c-4.76-8.68-11.56-15.81-18-23.13-10.37-11.75-21.63-22.55-34.65-31.5-14.22-9.79-30.2-12.51-46.66-11-44.92,4.21-80.17,27.14-110.07,59.38C799,574.46,795,590.59,793.33,607.15c-2.17,21.23-3.14,42.66,1.12,63.66,1.76,8.66-.84,12.54-7.57,16.84-14.75,9.41-28.06,20.78-40.74,32.83-2,1.9-2.93,2-5,0a335.77,335.77,0,0,0-47.65-37.76c-2.51-1.65-3.5-3.2-2.09-6,7.22-14.34,6.45-30,7.57-45.38,2.55-35.14-11.61-63.36-35.75-87.54-1.71-1.71-3.22-3.93-6.08-3.94-.91-.69-3,.61-2.95-1.7,1.17-.24,2-.63.62-1.74-19-15.28-39.34-27.66-64.43-29-10.31-.56-20.55,1.61-30.61,3.9-11,2.5-22,5.28-32.94,8-17.1,4.3-30.79,13.65-41.68,27.53-10.14,12.92-21.34,25-28.63,41.18-2.63-4.11-4.63-7.32-6.72-10.45-1.17-1.75.16-2.8.95-4q14.39-21.33,28.8-42.64a56.19,56.19,0,0,0,3.53-6c.84-1.67,1.36-3.48-.36-5s-3.46-1.24-5.17-.61c-2.88,1.06-5.07,3.22-7.05,5.46-15.88,18-31.25,36.38-44.31,56.58-1.23,1.9-2.54,3.76-4.27,6.3-2-4-3.49-7.28-5.2-10.45-1-1.77.12-2.85,1-4,13.95-19.09,27.11-38.77,42.5-56.77,4.37-5.12,5.5-11.28,5.85-17.66.56-10.18-.61-20.31-1.32-30.44-.82-11.71-1.19-11.68,10.43-17.31,0,5.3.11,10.18,0,15.06-.49,18.6,11.52,32.41,32.78,35.09,16.57,2.09,31.22-2.59,45.8-9.06,9-4,7.37-13.91.59-21.41-8.28-9.16-19.08-15-30.43-19.57-9.74-3.92-20.08-5.92-30.33-8-6-1.22-11.75,0-17.31,3-9.82,5.34-18.71,11.94-28.3,20.41,0-5.33,0-9.24,0-13.15,0-1.22.1-2.38,1.22-3.09,11.24-7,21.26-16.22,34.48-19.72,8.51-2.25,16.9-2.35,25.47.82,12.59,4.65,14.23,3.27,15-10,.49-9-1.28-17.86-.07-26.92,1.62-12.15,6.22-23,12-33.61.83-1.52,10.22-3.37,11.52-2.36s.47,2.42.14,3.64c-3.17,11.7-7.39,23.14-8.88,35.25-1.1,9-1.28,18,.53,26.84a26.82,26.82,0,0,0,10.36,16.1c13.36,10,24.82,22.16,37.46,33,11.52,9.84,25.55,12.24,40.17,12.36,2.53,0,4.65,0,3.35-3.91-8.28-24.65-25-41.07-48.76-50.86-1.43.2-2.62,0-2.67-1.8-11.25-10.43-15.44-24-17.48-38.63-1.19-8.52.48-16.59,3.15-24.49a235.3,235.3,0,0,1,16.47-36.85c2.56-4.72,5.6-6,10.35-5,1.92.4,3.88.65,6.28,1.05-1.75,3.17-3.19,6.15-5,8.93-8,12.65-12.81,26.64-16.94,40.88-2.67,9.2-1,17.51,4.79,25.43,8.09,11.11,18.69,19.13,30.72,24.95,16.65,8.06,26.75,21.43,33.82,37.76a157.44,157.44,0,0,0,19.86,34,67,67,0,0,0,32.91,23.31c7.08,2.3,10,.62,12-6.63,3.32-11.7,2.28-23.38-.23-35.05-1.19-5.52-2-11.13-3.54-16.56a33.09,33.09,0,0,0-18.65-22.11c-12.62-5.92-23.13-14-29.86-26.79-14.19-27-37.25-44.7-63.83-58.33-5.65-2.89-6.57-8.57-2-13.17,1.71-1.73,3.36-.52,5.05,0,24.11,6.89,44.22,20.6,62.5,37.18,8.38,7.6,16.1,15.94,24.08,24a54.14,54.14,0,0,0,13.21,9.75c11.23,5.95,21.45,1.72,23.95-10.77,4.24-21.21-.11-40.21-19.77-54.07-17.39-12.26-37.18-18.34-57.58-22.8-21.33-4.66-42.94-4.64-64.62-3.46-3,.17-7.26,1.78-8.84-.69-1.32-2,1.95-5.24,3.08-8,1.22-2.94,3-4.28,6.44-4.18,25.32.74,50.61-.47,75.89-1.88a1.43,1.43,0,0,1,2.14.05c4.64,2.58,9.2,5.34,14,7.7,7.58,3.76,12,2,14.94-5.94a77.3,77.3,0,0,1,12.19-21.63c3-3.78,5.27-3.78,10.59,0,3.2,2.26.07,4.17-.75,5.79-3,6-5.23,12.08-5.48,19a22.11,22.11,0,0,0,8.09,18.47,75.26,75.26,0,0,0,20.6,13c9.15,3.78,13.91,1.23,16-8.28,4.18-19.06-1.34-31.35-18.41-40.81-4.21-2.33-8.48-4.6-12.87-6.58-8.63-3.89-17.32-7.67-26.08-11.25-3.58-1.46-4.12-2.64-.92-5.25,4.8-3.91,9.07-5.87,15.61-2.49,12.22,6.33,25,11.52,37.66,17.08,4.91,2.16,9.12,5.37,13.48,8.39l-.07-.07c3.93,4.93,5.95,10.66,7.08,16.79a25.92,25.92,0,0,0,1.81,5.68c2.87,6.51,8.44,8.32,14.74,4.88,4.89-2.67,8.7-6.71,12.7-10.45a143.71,143.71,0,0,1,26.21-19.05c4.89-2.85,12.46.44,13.73,5.91.62,2.66-1.77,3.4-3.35,4.25-13.42,7.26-23.93,17.94-34.16,28.93a143.52,143.52,0,0,0-16.26,20.85c-11,17.34-12.61,36.21-8.41,55.72,2.47,11.48,10,13.56,19,6a70.15,70.15,0,0,0,22-32.7,68.64,68.64,0,0,1,20.87-31.16c1-.87,1.94-1.82,2.9-2.75,14.28-13.89,15.83-24.31,6.31-42-5.77-10.71-14.75-18.33-24.32-25.41-1.29-1-3-1.51-3.53-3.29,8.79-5.27,11.84-5,19.2,1.49,9.25,8.15,18.86,15.93,24,27.66a65.34,65.34,0,0,1,5.67,20.05c.59,6,2.56,8.19,8.41,9.45,6.08,1.31,12.24,1.28,18.4,1.05,2-1.43,3.94-1.65,5.89,0,9,.1,17.91.95,26.87,1.85,9.26.94,13.16,6.4,15.13,14.93-5,.11-9.67-1.65-14.47-2.24-15.33-1.89-30.62-5-46.15-2.48-9.84,1.6-19.5,3.92-27.19,11l.07-.07a29.11,29.11,0,0,0-14.34,16.31c-1.22,3.29.25,4.95,3.3,5.94,3.87,1.26,7.64.16,11.31-.58,11.91-2.4,23-7.23,34.25-11.74.89-1.21,1.88-2.06,3.4-.89,30.51-3.08,59.49,3.63,87.92,13.82,3.77,1.35,7.1,8.53,5.76,12.31-1,2.73-2.86.88-4.08.4A184.91,184.91,0,0,0,951.13,386c-40.92-9.6-78.52-1.67-113.16,21.62C820.3,419.52,803.76,432.7,792.22,451c-11.1,17.57-16.28,36.7-13.23,57.59,1,6.68,5.1,9.9,11.76,9.12a35.33,35.33,0,0,0,9.66-2.4c26.45-11.11,49.22-26.7,62.87-52.88,8.48-16.28,21.4-27.74,36.94-36.86,7.89-4.63,16.69-6.52,25.16-9.43,3-1,6-2,9-3,11.43-3.65,19.72-9.88,18.77-23.59,1.42.27,2.38.49,3.35.64,6.17.93,10.47,3.38,11.55,10.47,1,6.55,6,10.63,11.65,13.53,10.07,5.16,20.26,10.07,30.37,15.15a10.17,10.17,0,0,1,4.78,12.87c-1,2.5-2.36,1-3.51.35-5.68-3.15-11.31-6.36-17-9.56-18.35-10.36-37.58-10.23-57-4.12C918.1,434.91,901,444.6,888.5,461c-5.43,7.11-4.5,11.32,3.84,15,9.66,4.32,20,5,30.35,4.59,11.62-.49,23.27-1,34.85-2.48A35.35,35.35,0,0,0,987.16,450a62.37,62.37,0,0,0,1-12.92c-.08-2.88,1-3.31,3.67-2.36,7.86,2.79,7.83,3.49,8.53,11.65,1,11.54-3.88,21.83-5.71,32.75-1.31,7.87-.39,10.52,6.8,14.15,9.28,4.68,17.84,10.14,25.39,17.42,5.82,5.62,9.4,4.63,13.09-2.62,4.35-8.56,4.35-18,5.21-27.26.26-2.77-.36-5.65,1-8.31,8.32,4,10.31,7.09,9,15.53-1.57,10.31-2.44,20.71-6.6,30.59a20.6,20.6,0,0,0,3.29,21.72c4.33,5.22,3.45,9.81.73,15.08-1.68,3.26-3.05,2.92-4.88.33-7.59-10.81-16.74-20.29-25.71-29.91-4.21-4.51-8.51-8.94-13.72-12.32-1.95-1.26-4.26-2.65-6.35-.53-1.8,1.83-.86,4.13.16,6.05,5.1,9.61,12,18,18.47,26.66a441.2,441.2,0,0,1,31.3,49.3c.38.69.66,1.43,1.43,3.11-4.24,0-7.83-.14-11.41.05-2.42.13-3-1.57-4-3.09-4.75-7.63-9.48-15.28-14.3-22.87-1-1.51-1.69-3.28-3.44-4.16Z"/><path class="cls-2" d="M355,817.93l10.17-3.76a1005.29,1005.29,0,0,1,275.49-63.9c15.74-1.36,31.54-2,47.29-3.23,4.38-.35,5.51,1.18,6.09,5.26,2.8,19.62,13.59,33.51,32,40.58,18,6.9,35.11,4.08,50.24-8a47,47,0,0,0,18-32.28c.5-4.46,2.15-5.66,6.56-5.46,75.37,3.45,149.57,14.49,222.41,34.3a969.14,969.14,0,0,1,99,32.37c1.22.48,2.53.74,3.8,1.11l8.53,3.91a396.93,396.93,0,0,1,40,17.81c-4.79,0-9.18-1.73-13.64-2.95C1096.19,816,1031.1,800.18,965.1,788.41c-39.66-7.08-79.5-13.21-120-11.41a98.53,98.53,0,0,0-21.67,3.28,33.65,33.65,0,0,0-18.33,12c-33,41.88-94.14,40.31-125-3.06-3.37-4.73-8.12-6.7-13.2-8.32-12.88-4.1-26.21-4.33-39.55-4.24-31.4.2-62.38,4.57-93.24,9.85C460.4,799.14,387.93,816.9,316,836.84a2.39,2.39,0,0,1-2.3-.63c6.74-3.08,13.44-6.23,20.22-9.23C340.88,823.89,347.93,820.94,355,817.93Z"/><path class="cls-3" d="M430.56,528.86c-1.2-3.88-2.22-7.16-3.24-10.43a3.76,3.76,0,0,1,1-4.07c8.65-9,9.81-19.82,8.25-31.55-1.11-8.39-1.38-16.89-2.44-25.29-2.53-20.08,6.57-34.61,21.68-46.34,1.51-1.17,2.77-2.83,5-3.32.71,6.82.77,12.75-5.75,17.56-7.83,5.78-10.64,14.25-10.32,24.17.48,15,2.9,29.76,3.5,44.72S441.22,519.29,430.56,528.86Z"/><path class="cls-4" d="M750.4,268.67c.83-.55,1.25-.81,1.65-1.1,5.65-4,10.87-5.4,17.28-.44,5.68,4.39,12.7,4.07,19.56,1.62,11.88-4.24,23.58-9,36.1-11.31,16.46-3,40,6.44,48.32,20.32-7-.52-13.38,1.46-19.72-3.28-10.38-7.75-22.22-9.2-34.57-4.82q-12.69,4.5-25.33,9.13C777.26,284.82,763.48,279.52,750.4,268.67Z"/><path class="cls-5" d="M984.27,350c-4.14-1.15-7.13-2.18-10.2-2.76a6,6,0,0,1-4.93-3.64c-.07-.15-.17-.28-.25-.43-7.21-14.12-19.16-19.87-34.57-20.21-8.79-.19-17.55-1.4-26.34-2a35.78,35.78,0,0,1-25.56-12.82,79.21,79.21,0,0,1-10.06-14.19c4.88,0,9.1,0,13.31,0a3.08,3.08,0,0,1,2.75,1.78c7.16,11.3,18.19,14.8,30.76,15.31a151,151,0,0,1,30.45,4.69C967.67,320.17,976.9,333.35,984.27,350Z"/><path class="cls-4" d="M654.19,293.93c-9.35,1.39-18.54,1-27.71-2.31,1.44-3.56,4.49-5.79,6.65-8.68,1.2-1.61,3.1-.92,4.68-.65a29.33,29.33,0,0,0,24.31-6.22q12.48-10,25.13-19.71c16.65-12.83,34.61-12.79,53.29-5.25.41.17.7.61,1.43,1.27-3.27,2-6.36,3.84-9.37,5.81-1.34.88-2.41.42-3.71,0-12.61-4.36-24.21-2.69-34.61,6-7,5.85-14.16,11.59-21.09,17.56-5.81,5-11.7,9.79-19.07,12.34Z"/><path class="cls-6" d="M480.52,409.76c-.2-1.06-.31-1.54-.38-2-1-6.57.38-11.33,7.32-14.53,8.29-3.83,12.39-11.56,14.77-20.3,2.61-9.59,4.56-19.41,8.7-28.54,7.06-15.58,17.83-27.12,34.91-31.68a16,16,0,0,1,2.91-.64c1.47-.11,3,0,5.23,0-2.79,5.32-3.92,10.73-10.44,13.1-14.64,5.32-22.74,16.55-26.4,31.41C515,365.39,512.56,374.2,510,383,505.69,397.86,493.62,404.16,480.52,409.76Z"/><path class="cls-7" d="M923.88,514.63c9.18-9.46,20.07-10,29.42-2,7.76,6.65,12.57,15.33,17,25.1-7.83-2.44-14.68-.29-21.64,2-13.24,4.28-23.4-2.4-25.6-16.27-.5-3.18.21-3.67,3.19-3,9.2,1.93,18.4,3.81,27.5,6.33C945.19,519.75,935.29,516.12,923.88,514.63Z"/><path class="cls-8" d="M860.7,573.41c-6.85.62-11.07,3.81-15.1,7.36-2,1.76-3.85,3.69-5.93,5.34-10.85,8.59-21.4,2.9-28-6.51-1.86-2.64.74-2.58,2.12-2.94,4.82-1.26,9.64-2.55,14.51-3.55s9.82-1.65,14.65-2.43c-7.45-2.91-17.86-2.65-33.12.86,2-9.89,12.1-16.26,22.53-14.12C843.07,559.65,851.62,565.81,860.7,573.41Z"/><path class="cls-9" d="M490.2,553.62a54.14,54.14,0,0,0,3.62,31.84c-.06-9.15,1-18.2,1.45-27.27.22-4.28,1.62-4.51,5.06-2.47,12.2,7.23,14.58,17.08,6.7,28.81-6.08,9.06-6.79,10.82-7.49,19.33-8.81-8.1-17.34-15.67-20.52-27.29C476.41,567,480.49,558.55,490.2,553.62Z"/><path class="cls-10" d="M534.83,570.47c-6.48-9.81-12.53-19.11-12.8-30.8-.23-10.09,5.47-17.2,16.23-19.83-4,10.6-6.21,21.16-4.75,32.21,1.8-.15,1.37-1.62,1.59-2.62,1.9-8.61,4.95-16.86,7.81-25.18.9-2.61,1.77-2.63,3.76-1,11.1,9.15,11.29,21.08.47,30.62-2.61,2.3-5,4.82-7.45,7.34S536.29,566.83,534.83,570.47Z"/><path class="cls-11" d="M1058.57,457.9c-3.22-1.88-5.89-3.54-8.64-5-1.8-1-1.83-2.5-1.95-4.21-.87-13-5.9-23.33-18-29.54-7.85-4-15.25-8.92-23.19-12.7-4.35-2.07-6.26-4.88-6.61-9.36-.15-2-.61-3.9-1-6,1.58-.61,2.64.34,3.75.85,13.79,6.34,27.1,13.51,39.05,23C1056,426,1061.16,439,1058.57,457.9Z"/><path class="cls-5" d="M543.81,340.37c6.7-15.54,13.84-29.9,23.5-42.91,8.88-12,21.8-15.61,35.61-17.44,3-.4,6.13-.58,10-.93-4.66,6.32-7.73,12.45-16.68,12.42-8.69,0-15,5.6-20.06,12.38a122.65,122.65,0,0,0-16.37,29c-2,5.2-5.13,7.22-10.31,7.14C547.88,340,546.24,340.21,543.81,340.37Z"/><path class="cls-6" d="M1026,399.87c-5.45-3-10.93-4.6-13.1-11.79-2.63-8.73-9.55-14.65-17.74-18.73-9.9-4.93-20.52-7.68-31.21-10.23-3.71-.88-9.14-8.11-8.77-11.74.2-1.94,1.63-1.37,2.62-1.16,15.14,3.2,30.29,6.49,43.91,14.27s21,20,24.25,35A22.76,22.76,0,0,1,1026,399.87Z"/><path class="cls-4" d="M676,260.06c-4.54,4.16-8,8.71-15.4,8.08-16.16-1.37-27.06,8.1-36.53,19.68-2.52,3.08-5.59,6-7.17,9.53-4,9-11,9.76-19.52,8.1.7-2.74,2.75-4.69,4.41-6.82,8-10.24,16.13-20.27,25.79-29,12.11-11,26.57-12.76,41.92-11.17C671.47,258.64,673.76,258.47,676,260.06Z"/><path class="cls-11" d="M465.4,435.12c-2.21-25.15-2.47-49.74,17.91-68.94a50.82,50.82,0,0,1,19.48-11.52c-1.72,6.47-1.5,12.23-8.12,16.25-13.86,8.41-18.74,22.19-19.53,37.74-.31,6.14-.69,12.27-.89,18.42C474.07,432.57,468.65,432.43,465.4,435.12Z"/><path class="cls-12" d="M432.26,466.52c0,3.8-.05,7.6,0,11.4a5.32,5.32,0,0,1-1.63,4c-9.07,9.76-10.83,21.32-8.1,33.9a163.82,163.82,0,0,0,7.7,24.21c3.1,8,3.09,8-4.23,14.77-8.32-19.08-17.55-37.74-13.8-59.3,2.13-12.24,9.16-21.76,18.59-29.48Z"/><path class="cls-3" d="M1078.87,522.28c-5.66-5.72-10-10.43-8.34-18.78,1.16-5.77-1.36-11.74-5.07-16.76-7.27-9.86-15.71-18.72-26-25.26-6.67-4.25-7.13-9.34-5.86-16.18,7,3.36,12.81,8,18.51,12.71,8.69,7.24,17.49,14.51,23,24.65C1081.86,495,1082.55,508.12,1078.87,522.28Z"/><path class="cls-13" d="M1018.1,416.51c9.31,3.14,10.59,4.62,10.75,13.57.14,7.64.15,15.27-.36,22.93-.83,12.49,1.08,24.27,11.18,33.18.91.8,1.74,1.67,1.35,3-1,3.33-.45,7-2.15,10.44-12.69-8.26-20.65-19.17-20.74-34.72C1018,448.8,1018.1,432.71,1018.1,416.51Z"/><path class="cls-14" d="M809,258.21c-2.94.93-4.71,1.37-6.39,2-4.34,1.74-8.11,1.91-12.61-.76-8.23-4.88-17.16-4-26-.93a124.87,124.87,0,0,0-28.48,14.2c-3.94,2.66-7.25,3.21-11.2.49a38,38,0,0,0-5.67-2.66c1.66-2.19,4-3.07,6.07-4.29,11.14-6.66,22.57-12.73,34.77-17.29a40.37,40.37,0,0,1,26.37-1.11A96.43,96.43,0,0,1,809,258.21Z"/><path class="cls-4" d="M932,307.11c-4.2,0-7.79-.07-11.39,0-1.85.05-2.53-1.24-3.47-2.4-7.5-9.17-17-13.93-29-13.87-10.16,0-20.33,0-30.37,1.42-4.14.6-6.58-.42-8.74-3.64a53.91,53.91,0,0,0-4.57-5.1c6.35-.79,11.68-1.67,17.05-2.09,10.27-.8,20.51-1.81,30.87-1,11.07.84,19.88,6,27.81,13.19C924.39,297.49,928.58,301.46,932,307.11Z"/><path class="cls-15" d="M874.11,528.07c10,5.21,20,8.31,32.48,7.82a200.6,200.6,0,0,1-30.15-13c9.21-11.87,22.22-11.82,30.74,0,4,5.53,7.81,11.14,15.19,13.6-9.38,5.22-18.58,9.34-29,9.36S875.27,538.91,874.11,528.07Z"/><path class="cls-16" d="M985.31,537.83c14.61,3.87,19.59,15.73,12.06,28.37-3.4,5.7-6.77,11.37-6.25,19.22-8.88-7-16.64-13.92-20.57-24-3.55-9.14-.41-17.88,8.47-23.38.59,5.37-.07,10.61,1,15.74s2.15,9.93,4.81,14.49C984.57,558.07,984.33,548,985.31,537.83Z"/><path class="cls-1" d="M1057.61,504c11.39,13,22.78,25.18,30.78,39.91,5,9.24,4,19.37,2.39,29.31a75.47,75.47,0,0,1-4.32,15.93c-2.76-6.14-8.3-10.07-4.74-17.79,3.31-7.17,1.44-14.71-2.08-21.66A101.55,101.55,0,0,0,1060.47,523C1054.53,517.2,1054.61,511.46,1057.61,504Z"/><path class="cls-17" d="M412.8,530.09c.93,3.73,1.59,7,2.58,10.11a5.38,5.38,0,0,1-.68,4.62c-5.83,10.88-6.33,22.09-1.86,33.61,2.52,6.49,6.1,12.46,9.56,19.06-3.24.47-6.1.86-9,1.31-1.36.21-2.05-.48-2.82-1.5C396.69,578.52,397.37,549.39,412.8,530.09Z"/><path class="cls-18" d="M790.47,369.73c.78,7.42.72,14.88,1,22.34.1,3.17-.71,3.69-3.64,2.45-10.28-4.37-13.48-12.69-8.29-22.63,2.63-5,5.35-10,4.55-16.95,8.59,6,16.1,11.8,19.53,21.3,2.57,7.1-.09,14-7.24,18.85C796.34,386,795.17,377.5,790.47,369.73Z"/><path class="cls-19" d="M788.15,477.62c-.83-11.9,5.58-18.79,17.81-19.49,6.32-.36,12.49.68,19.22,2.45-5.31,4.51-7.17,10.48-9.53,16.26-3.87,9.5-14.46,12.24-22.82,6.37-2.41-1.69-.61-2.38.39-3.25,3-2.62,6-5.22,9.15-7.7,3-2.35,6.07-4.53,9.32-6.95C804.58,466.3,800.71,468.33,788.15,477.62Z"/><path class="cls-20" d="M477.21,470.51c5.88,1.31,11.47.3,17.13-1.1,10.54-2.6,18.47,3.48,19.39,14.28.3,3.55-1.89,2.44-3.45,2.07-3.71-.89-7.38-2-11-3.1-3.45-1.09-6.84-2.36-10.4-3.26,6.45,6.28,14.38,9.72,23.32,11.69-7.47,6.61-15.74,6.65-22.77.46C484.45,487.18,479.07,478,477.21,470.51Z"/><path class="cls-21" d="M895.11,469.26a150.9,150.9,0,0,1,23.29-10.64c-4.95-.83-6.64-.55-13.14,1.15-4.16,1.09-7.93,3.08-11.92,4.88.3-8.36,6-14.25,14-14.8,9.2-.63,17.17,2.91,25.68,7.44-5.9,2.25-8.93,6.65-12,11.11C913.63,479.23,903.8,479.59,895.11,469.26Z"/><path class="cls-15" d="M571.23,513.6c1.83,5.87,3.54,11,6.66,15.55a51.82,51.82,0,0,0,5.69,7c-2.23-6.75-4.55-13.43-6.76-20.14-1.44-4.38.34-4.44,3.59-3.88,10.31,1.79,14.81,8.21,12.75,18.57-1.07,5.4-2,10.74,0,16.91-9-3-17.16-6.33-22.93-13.59C565.43,528,565.76,521.16,571.23,513.6Z"/><path class="cls-22" d="M685.2,579.39a54,54,0,0,0-25.65-2c7.57,2,14.54,4,21.56,5.68,3.65.89,3.19,2.19,1.12,4.5-7.36,8.18-14.82,8.43-22.7.62-1.89-1.87-3.84-3.66-5.83-5.42s-4.41-2.75-7.94-3.41c7.5-6,14.54-10.76,23.42-11.81C676.69,566.62,682.9,571.12,685.2,579.39Z"/><path class="cls-23" d="M654.2,538.2l2.94,1.7c-9.23,6.71-13,10.73-17.34,19.27a162.83,162.83,0,0,1,20.68-15.8c5,11.41,0,20.54-11.8,21.74-7.79.8-9.77,1.36-15.55,4.56-.43-8.92.32-17.32,5.07-24.86C641.9,539,647.52,537.15,654.2,538.2Z"/><path class="cls-24" d="M960.35,436.3c-9.75.59-17.58,3.06-24.8,7.89.08-8.72,5.5-14.66,13.55-15.22,8.42-.58,15.93,2.34,24,6.16-5.22,2.46-8,6.48-10.53,10.68-6.79,11.11-15.17,12.08-25.22,2.52,3.65-2.08,7.12-4.19,10.71-6.07S955.46,438.65,960.35,436.3Z"/><path class="cls-5" d="M572,341.34a85.18,85.18,0,0,0-3.6,8c-1.31,3.91-4.59,2.6-7.13,2.89a208.32,208.32,0,0,0-37.41,8c-1.07.33-2.26,1.31-3.24.39-1.16-1.09-.06-2.44.11-3.71.82-6.34,4.1-9.34,10.67-10.59,12.39-2.36,24.86-4.1,37.29-6.16C569.74,340,571.68,339.14,572,341.34Z"/><path class="cls-11" d="M978.63,366.39c3.36,1.43,6.67,2.85,10,4.23a3.79,3.79,0,0,1,2.46,2.85,287.23,287.23,0,0,1,7,43.2,14.3,14.3,0,0,1-.29,2.37l-9.56-4.7a3.46,3.46,0,0,1-2-3.2c-1-14.8-4.21-29.19-8-43.49C978.2,367.41,978.44,367.06,978.63,366.39Z"/><path class="cls-25" d="M852.78,462.65c3.68-8.1,5.92-15.84,5.1-25.66a162.4,162.4,0,0,1-9,23.38c-9.49-5.74-10.35-16.62-1.8-23.36,4.17-3.29,8.67-6.21,10.77-12.35,5,8.25,8.94,16.16,8.14,25.52C865.42,456.75,861.05,460.79,852.78,462.65Z"/><path class="cls-17" d="M1051.83,587.9c-4.13-5-6.75-9.42-3-16.65,6.1-11.72,12-23.72,14.7-37,7,4.73,8.66,9.59,6,16.88a212.78,212.78,0,0,1-14.73,32.69C1054,585.2,1053.66,587,1051.83,587.9Z"/><path class="cls-5" d="M930,326.13l2-.14c6.51-.41,10.9,1.42,13.65,8.39,4.38,11.12,9.49,21.94,12.89,33.45.87,3,1,3.93-2.91,3.5-5.85-.64-8.84-3-10.67-8.79a200.93,200.93,0,0,0-13.27-31.69C930.92,329.42,929.75,328.08,930,326.13Z"/><path class="cls-26" d="M518,461c8.45-.09,15.79.74,22.69,4.08,6.52,3.14,11,11.67,6.79,19.35-4.64-6.83-10.08-12.65-18.81-16.88A139.81,139.81,0,0,1,544,487.35c-11.89,4.42-19.68-.28-20.91-12.3C522.57,470.26,521.7,465.57,518,461Z"/><path class="cls-27" d="M908.2,399.4c-5.87,1.6-9.08,5.38-12.38,9.16-6.87,7.87-14.13,8.09-21.44,1-2.24-2.17-2.76-3.49.85-4.51,3.18-.9,6.25-2.2,9.4-3.22s6.28-1.88,9.85-2.94c-6.89-1.56-11.24-1-23.21,2.91,1-8.59,8.43-13.54,18.12-11.61C896.13,391.53,902,394.85,908.2,399.4Z"/><path class="cls-28" d="M627.94,567c-7.22-1.61-13.78-3.34-19.29-7.65-6.55-5.12-7.68-12.19-2.94-19.64,2.86,6.67,6.26,12.75,12.4,16.87-2.46-5.34-4.86-10.72-7.42-16-1.31-2.71-.53-3.45,2.3-3.47,9.41-.05,14.94,6,13.76,15.34C625.86,559.43,625.9,559.94,627.94,567Z"/><path class="cls-29" d="M698.31,403.15c-2.1-2.93-4.17-5.68-6.08-8.55s-3.66-5.88-6-9.69c.68,8.36,4.68,14.32,8.58,20.46-14.56.41-18.38-14.51-11.17-32,2.53,3.86,6.21,6,10.13,7.9C703.79,386.26,705.35,393.32,698.31,403.15Z"/><path class="cls-30" d="M814.85,493c-6.91,18.43-19.33,25.34-28.75,15.65,6.57-1.61,12.78-3.61,19.06-8.88l-19.84,5.06c-.55-12,8.09-15.95,16-13.63a47.57,47.57,0,0,0,6.74,1.73A51.65,51.65,0,0,0,814.85,493Z"/><path class="cls-31" d="M635.15,329.2c20.56-.89,30.75,6.54,26.91,19.81-4.66-5.7-9.41-10.83-17.36-14.26a169.68,169.68,0,0,1,12.65,14.73c1.74,2.22,1.17,3-1.34,3.51-8.92,1.91-14.45-1.8-16-10.9C639.22,337.69,638.47,333.29,635.15,329.2Z"/><path class="cls-32" d="M877.19,546.29c-5.16.67-8.53,3.2-11.86,5.89-8.13,6.59-15.47,4.82-20.65-5.2,6.75-1.91,13.63-2.45,21.34-3.33-7.64-2.43-14.48-2.12-21.4-.83a11.53,11.53,0,0,1,13.85-8.43C865.85,536,871.45,540.55,877.19,546.29Z"/><path class="cls-33" d="M838.11,432.66c-3.5,3-5.26,6.87-6.78,10.92-3.69,9.84-11.05,12-20.24,6,4-4.73,9.29-7.93,13.69-12.26-6.36.79-11.13,4.64-16,8.51-1.73-7.18,2.35-13.14,9.93-14.79C824.64,429.73,831,430.24,838.11,432.66Z"/><path class="cls-34" d="M902.2,554c-8.37,17.39-21.48,22.66-30.5,12.33,6.86-.76,13.4-1.92,19.77-6.39-6.19.79-11.46,1.37-16.7,2.17-4.17.64-4-1.11-2.72-4.11,3.16-7.21,8.86-9.8,16.22-6.92C892.64,552.77,896.9,554.64,902.2,554Z"/><path class="cls-30" d="M688.59,501c2.66,6.11,7.64,9.81,12.93,13.28-6.58,3.47-12.87,1.57-16.85-5-2.76-4.54-4.54-12.21-4.3-19.09,4.14,2.73,8.78,2.85,13.36,3.4,8.61,1,12.21,5.73,11.42,14.28-.26,2.81-1,3.66-3.59,1.87C697.27,506.77,692.92,503.89,688.59,501Z"/><path class="cls-35" d="M1088.74,602c-4.66-1.14-8.12-2.12-11.65-2.78-1.91-.36-2.74-1.52-3.59-3-2.8-4.89-5.49-9.86-8.63-14.53-1.85-2.76-2.49-5.06-.87-8.15,1.45-2.77,2.3-5.84,3.72-9.59A199.52,199.52,0,0,1,1088.74,602Z"/><path class="cls-36" d="M654.69,437c-3.7-5.11-6.06-10.9-9.31-16.28-.19,6.49,2.33,12.17,5.47,17.72-7.18.68-12.69-5-12.54-13.11.12-6.24,2.17-12,5.18-18.08,2.38,4.22,5.88,6.73,9.61,9.09C661.84,421.9,662.41,429.32,654.69,437Z"/><path class="cls-37" d="M591.36,390.16c-13.28-5.62-13.26-18.62-.62-32.7,1.07,4.93,4.54,8,7.75,11.27,6.08,6.2,5.85,12.11-.4,18.15-2.11,2-3.28,2.55-4.11-.94-1.34-5.6-3-11.13-4.63-17.32A44.29,44.29,0,0,0,591.36,390.16Z"/><path class="cls-38" d="M557.85,426a132,132,0,0,1-10.66-18.65c.33,8.41,3.52,14.36,6.86,20.33-13.18.24-17.08-14.17-8.45-31.07,2,4,5.5,6.19,9.13,8.26C564.16,410.23,565.29,417,557.85,426Z"/><path class="cls-39" d="M595.19,454c.33,7.68,3.52,13.65,6.87,19.67-13.37,0-17.26-14.64-8.46-31,2.27,4.22,6.16,6.41,10.07,8.66,7.52,4.33,9,10.25,4.67,17.6-1.51,2.58-2.58,3.84-4.48.23C601.27,464.25,598.33,459.48,595.19,454Z"/><path class="cls-19" d="M657.07,460.59c5.51,3.14,10.4,2.29,15.19,2.36,7.93.11,12.87,6,11.91,13.89-.3,2.5-1.3,2.17-2.89,1.34-2.65-1.38-5.36-2.66-8-4.06-2.43-1.28-4.81-2.66-8.32-4.6,4.76,6.5,10.22,10,16.24,12.82-3.54,3-6.94,3.72-11.17,1.73C660.6,479.62,659.58,470.36,657.07,460.59Z"/><path class="cls-40" d="M824.08,322.49c-3.44,6.71-4,12.71-3.95,19.27-4.24-2.37-6.33-5.69-6.25-10.1.19-9.94,7.78-14.71,15-21.24-.1,6,2.4,10,4.49,14.2,3.53,7.08.9,13.47-6.41,16.59-2.15.92-3,.7-3-1.8.1-2.65.06-5.31.06-8S824.08,326.33,824.08,322.49Z"/><path class="cls-41" d="M616.7,526.28c-4.73-5.38-10-7.75-15.43-9.93,3.78-4.09,9.22-4.34,13.94-.6S622.1,525,624,530.5c.62,1.79.22,2.88-2.07,2.47-3.82-.69-7.61.16-11.42.37-6.81.37-11-3.47-11.56-10.22-.23-2.71.33-3.85,3.2-2.66C606.58,522.28,611,524,616.7,526.28Z"/><path class="cls-32" d="M515.65,561.06a27.87,27.87,0,0,0-8.82-7.2c-8.83-4.72-9.88-10.9-3.28-19.26,4.11,4.83,6.66,10.58,10.39,16.44a38.6,38.6,0,0,0-7-18.13C520.72,532.48,522,547.65,515.65,561.06Z"/><path class="cls-42" d="M617.27,401.11c16,4.8,22.42,16.81,13.52,25.5-1.11-6.07-3-11.64-7.54-17.17,1.34,5.56,2.34,10.12,3.56,14.63,1,3.85-.24,4.32-3.67,3.14-6.87-2.36-9.48-6.88-7.39-13.93C616.89,409.42,617.89,405.59,617.27,401.11Z"/><path class="cls-43" d="M721.07,320.9c.11-6.58-.62-12.41-3.44-17.84-.22,5.87.82,11.74-.65,17.54-9.1-2.94-11.68-9.12-7.05-17.08,1.91-3.29,3.75-6.55,3.58-10.64C727.37,300.85,731,313.39,721.07,320.9Z"/><path class="cls-44" d="M838.08,473.11c-3.22,4.37-6.11,8.19-8.89,12.1-1.82,2.55-2.85,1.87-4-.58-3-6.59-1.11-12.17,5.65-15.07,3.65-1.57,7.2-3.21,9.95-6.34,5.09,13.35,2.5,27.69-10.71,26.56C833.68,484.69,837.18,479.8,838.08,473.11Z"/><path class="cls-45" d="M958.66,560.62c-2.37-5.45-4.05-9.56-5.94-13.57-1.2-2.55-.36-3.12,2.16-3.08,6.52.11,10.65,4.11,10.47,10.63-.12,4.41-.87,8.82.52,13.25-15.89-2-23.53-11.43-17.44-21.86C951,551.1,953.19,556.21,958.66,560.62Z"/><path class="cls-46" d="M956.31,459.91c-5.26,16.57-13.68,21.95-24,15.47,5.26-2.31,10.79-3.67,15.53-8.68-5.26,1.65-9.5,2.86-13.66,4.32-3,1.07-3.38-.24-3-2.76,1.08-6.81,6.16-10.48,12.93-8.92C948,460.22,951.79,461.06,956.31,459.91Z"/><path class="cls-47" d="M1020.09,568c3.73,9.41.65,16.6-10.82,24.68-.72-4.4-2.77-8.08-4.89-11.77-3.6-6.24-1.34-12.33,5.14-15.23,2-.91,2.73-.53,2.73,1.6,0,5.14,0,10.29,0,16.45,3.47-6.34,3.62-12.37,3.61-19l4.31,3.34Z"/><path class="cls-48" d="M806.34,360.06c-12.15-3.34-10.76-15.63-1.64-27.54a34.38,34.38,0,0,0,6.55,8.51c6.69,6.35,6.25,11.82-1.5,18-1.61-2.35-2.14-5.07-2.9-7.67s-1.48-5.38-2.54-9.29A33.87,33.87,0,0,0,806.34,360.06Z"/><path class="cls-49" d="M782.1,299c-5.2,4.32-7.87,9.36-10.29,14.8-5.78-10.24,1.85-19.65,17.14-21.4-1.22,3.92-.87,7.84-.72,11.76.27,7.15-3.1,10.91-10.08,11.52-2.37.21-3.64-.15-2.3-2.93C777.91,308.5,779.78,304.14,782.1,299Z"/><path class="cls-50" d="M440.87,569.33,457,598.66c-7.32.76-13.16-.18-15.86-7.54a18.36,18.36,0,0,0-1.82-3C433.74,578.91,433.74,578.91,440.87,569.33Z"/><path class="cls-51" d="M671.77,310.95c-7.83-6.29-4.34-17.89,11.76-24.71-.79,4.22.81,7.85,2,11.58,2.07,6.66-.48,11.41-7,13.63-2.72.93-3.79.5-3.13-2.53.94-4.34,1.79-8.69,2.9-14.08C674.12,300.06,672.88,305.29,671.77,310.95Z"/><path class="cls-52" d="M849.09,359c7.26-3.17,14.44-2.56,22.21.49-3.71,2.67-5.23,6.37-7,9.92-1.59,3.14-3.94,5.43-7.68,5.55-3.08.1-6.75-.44-7.88-3.13-.86-2.07,2.91-3,4.61-4.34,2.3-1.85,4.9-3.33,8.12-5.47-6.19.52-10.45,3.45-14.93,6.16-1.69-4.08,1.6-6.33,2.64-9.24Z"/><path class="cls-53" d="M510.66,425c-10.82-4.1-11.33-14.25-1.64-26.27,2,3.75,5,6.58,7.91,9.45,2.49,2.44,3.92,5.39,2.51,9-1,2.68-2.44,6-5.15,6.13-2,.11-2-3.71-2.77-5.78-1.09-2.86-1.81-5.87-3-9.79C507.46,414.24,508.87,419.31,510.66,425Z"/><path class="cls-54" d="M627.35,348.87l-5.9-13.17c-1.17,5.29,1.49,9.42,2.72,13.85-9.82-.76-11.45-11.81-3.48-24.1,1.38,3.58,4.34,5.44,7,7.58C633.91,337.92,633.82,343.39,627.35,348.87Z"/><path class="cls-55" d="M838.68,416.62c1.57-10.82,10.45-13.44,23.46-7.24a27.62,27.62,0,0,0-5.83,7.29c-4.14,7.48-8.64,8.29-15.88,2.83,3.51-3.39,8-5.21,12.79-8.35C847.37,411.45,843.26,413.84,838.68,416.62Z"/><path class="cls-52" d="M667.68,353.46c1.38,3.59,4.35,5.44,7.07,7.59,6.15,4.87,6.05,10.42-.33,15.73-1-2.13-2.09-4.19-3-6.31s-1.76-4.24-2.94-7.08c-1.13,5.59,1.46,9.74,2.75,14.19C661.3,376.7,659.7,365.68,667.68,353.46Z"/><path class="cls-56" d="M591.52,395.36c3.6,1.85,6.89,1.64,10.19,1.6,8.17-.12,11.23,3.55,10,12.08-4.87-1.34-8.9-4.28-14.25-7.05,3.56,5,7.8,7.54,12.27,9.88C601.74,418.23,593.39,409.59,591.52,395.36Z"/><path class="cls-57" d="M705.6,485.89c-2.8-4.26-5-8.16-10-11.4l7.13,12.63c-8.23,2.15-12.66-1-12.67-8.86a37,37,0,0,0-1.67-9.63C702.85,469.63,708.83,475.34,705.6,485.89Z"/><path class="cls-58" d="M924.7,397.8c.35,14.58-6.31,22.2-16.05,18.69,3.62-2.58,7.16-5,9-9.54L907,414c-2.87-7.54-.3-12,7.31-13.26C917.73,400.19,921.23,400,924.7,397.8Z"/><path class="cls-59" d="M579.15,429.18l2.67,1.8c1.17,3,3.16,5.88,1.45,10-3.26-2.95-5.59-6.68-10.21-7.42,2,2.36,3.89,4.79,6,7.07,2.48,2.72,1.09,3.38-1.69,3.78-5.4.78-9-1.57-10.29-6.95-.42-1.78-.61-3.63-1.15-5.37a46.2,46.2,0,0,0-2.18-4.87A28.28,28.28,0,0,1,579.15,429.18Z"/><path class="cls-60" d="M735.6,334.7c2-4.65,3.89-8.88,3.36-14.5l-5.89,13.07c-6.32-4.6-6.62-10.53-.76-15,2.65-2,5.29-4,7.06-6.9C746.52,320.32,746.2,334.22,735.6,334.7Z"/><path class="cls-61" d="M612.17,376.12c1.63,3.89,3.06,7.35,4.54,10.79,1.13,2.62.06,3.25-2.42,2.93-5.26-.68-8.23-4-8.17-9.41,0-3.62.89-7.25-.34-10.89,12.74.9,19.59,9.33,14.95,18.27-2-1.71-2.18-4.42-3.65-6.36C615.72,379.65,614.77,377.52,612.17,376.12Z"/><path class="cls-62" d="M492.65,444.46a27.77,27.77,0,0,0,9.72,3.6c5.83,1.25,8.13,5.36,6.84,11.19-.57,2.58-1.48,2.59-3.23,1-2.39-2.15-4.86-4.22-8.24-7.14.88,3.38,2.42,4.86,3.66,6.51s3.16,2.36,3.75,4.39C496.48,467.31,490.88,457,492.65,444.46Z"/><path class="cls-63" d="M714.22,388.67c-.32-4.19.48-8.39-2.05-12.77l-1,12.91c-7.52-3.14-9.24-7.44-5.56-13.69a53.38,53.38,0,0,0,3.77-8C719.83,373,722.25,383,714.22,388.67Z"/><path class="cls-64" d="M867.35,329.43c2-2,4.43-2.81,6.61-3.94s4.16-2,7-3.31c-5.56.11-9.86,1.79-14.4,3.92a6.19,6.19,0,0,1,3.52-7c6.51-3.28,12.57-.75,18.71,2.14-2.08,2.1-4.25,3.81-5.84,6.16C878.25,334.36,874.65,334.81,867.35,329.43Z"/><path class="cls-65" d="M916.12,546.54c4.71-6.7,9.13-7.27,14.69-1.94,2,2,4,3.93,6.86,4.78-8.72,8.84-18.57,9.26-22.42.61,4.7.59,9.2,1.65,14.25.69C924.92,548.78,920.15,548.84,916.12,546.54Z"/><path class="cls-66" d="M969.71,457.59c-.59,4.3-1.11,7.91-1.56,11.53-.25,2-1,2.06-2.6,1.07-4.7-2.92-5.83-7.84-2.57-12.43,1.9-2.67,4.21-5.05,4.8-8.66,9.8,8.14,11.28,17.48,3.5,22C970.42,466.74,972.23,462.14,969.71,457.59Z"/><path class="cls-67" d="M675.06,343.89c2.66,3.28,4.68,5.87,6.81,8.37s.88,3.34-1.69,3.67c-4.57.58-7.95-1.83-9.05-6.56-.38-1.62-.58-3.28-1-4.87s-1.09-3.05-1.67-4.6c13-1,18.75,3.13,17.43,12.82C682.68,349.54,680.08,346,675.06,343.89Z"/><path class="cls-68" d="M554.52,552.85a35.5,35.5,0,0,0,2-8.17c.37-2.83,1.3-5.53,4.29-6.85,2.24-1,5.09-1.68,6.62-.09s-1.11,3.32-2.07,4.87c-1.12,1.82-2.57,3.44-4.53,6,4.7-2,7-5.28,9.52-8.42C573.26,548.7,566.13,554.34,554.52,552.85Z"/><path class="cls-69" d="M649,447.73l2.29,11.6c-7.4-1.05-9.63-3.93-8-10.31a39,39,0,0,0,1.15-8.25c8.79,2,16.47,11.33,9.67,17.37C652.46,454.93,652.24,451.13,649,447.73Z"/><path class="cls-70" d="M682,446.06c-4-2.4-7.6-4.38-12.38-4.86l10.93,6.92c-5,4.71-9.46,4.3-12.7-1.07-1.52-2.53-3-5.09-5.34-7.14C673.82,434.91,680.7,437,682,446.06Z"/><path class="cls-71" d="M553.81,373.27a31.7,31.7,0,0,0,4.35,8.14c1.62,2.31,2.16,4.89.58,7.45-1,1.68-2.46,3.89-4.36,3.68-2.39-.26-1-3-1.43-4.55a65.45,65.45,0,0,1-1.14-7.11c-1.3,4.69-.93,8.26-.84,11.95C543.61,388.83,544.69,381.56,553.81,373.27Z"/><path class="cls-72" d="M633.47,385.57c8.73,7.77,9.65,14.56,2.5,18.92-.14-3.31.67-6.61-.58-10.59-1.69,3-.95,5.87-1.63,8.39-.53,2-1.21,2.46-3,1.07-3.44-2.67-4.23-6.27-1.73-10C630.67,390.84,632.58,388.53,633.47,385.57Z"/><path class="cls-73" d="M869.57,435.47c3.45-2,6.84-3,9.43-6.56-3.09,1.27-5.45,2.3-7.87,3.21-.83.31-1.89,1.35-2.6.3a3.93,3.93,0,0,1-.12-2.83c1-3.61,3.22-5.65,7.13-5.59,2.95.05,5.9,0,8.89,0C882.64,434.78,877.42,438.87,869.57,435.47Z"/><path class="cls-74" d="M497.68,422c-3.11-2.57-5.05-5.61-9.2-6.86,2.17,2.55,3.95,4.6,5.7,6.67s.74,2.92-1.45,3.13c-3.73.35-6.51-.87-7.69-4.74-.86-2.84-1-5.88-2.7-8.5C492.21,409.57,498.48,413.61,497.68,422Z"/><path class="cls-75" d="M923.68,389.9c-3.46-2.62-6.8-2.83-10.36-3.3.91-2.62,2.78-3.81,5.19-3.58,5.81.55,8.62,4.92,11.52,9.32-14.55,4.5-15.41,4.35-17.48-3.1C916,388.37,919.43,389.6,923.68,389.9Z"/><path class="cls-76" d="M887.07,368l-3.4.89c-2.42-1.07-5-2-6.23-5,2.64-1.85,6.21-1.24,9.41-3-3.51-1.63-6.53.3-9.58-.1,3.49-6.76,9.51-6.48,17.82.83C892.37,363.72,889.27,365.32,887.07,368Z"/><path class="cls-77" d="M894.9,336l-5.89,0c-1.25-1.91.59-2.09,1.55-2.71,1.63-1,3.45-1.86,4.37-3.94-2.26-.2-3.65,1.52-5.46,2.11-.92.3-2,1.16-2.67.28a3.79,3.79,0,0,1-.32-2.79c.79-3.68,3.06-5.74,6.94-5.77,2.61,0,5.22,0,8.06,0A18.44,18.44,0,0,1,894.9,336Z"/><path class="cls-78" d="M756.14,294.05l-3.51-11.73c10.73-1.12,15.58,1.9,15,9.53-2.84-.83-3.85-4.18-6.78-4.78-1,1.25.51,1.57.91,2.26,1,1.74,4.17,3.19,2.75,5.09-1.19,1.59-4.29,1-6.54.12-.6-.24-1.24-.38-1.86-.56Z"/><path class="cls-79" d="M657.54,307l-2.15-.05c-3.59-2.12-5.3-6.27-9.32-8.08,2.38-2.67,5.76-2.92,8.11-4.89l-.08.06c4.27-.05,8.43.09,10.06,5.65-3.59.06-6.75-1.89-10.25-1.28,1.56,1.84,3.94,1.67,5.8,2.64,1.1.58,3,.42,3.1,1.93s-1.5,2-2.6,2.71A26,26,0,0,1,657.54,307Z"/><path class="cls-80" d="M860.22,295.15c10.9,2.19,14.62,6.73,11.56,14.33-1-1.75-1.73-3.27-2.64-4.68s-1.76-3.09-3.89-4.31l3.48,8.06c.83,1.92-.15,2.35-1.84,2.27a6.73,6.73,0,0,1-6.47-7.84A17.74,17.74,0,0,0,860.22,295.15Z"/><path class="cls-81" d="M691.41,351.27c9.6-.47,14.06,3.18,13.38,11.07-2.86-1.54-3.73-5.08-7.46-6.4,1.29,2,2.33,3.55,3.22,5.14.59,1.06,2.24,2.23,1,3.37-.75.69-2.55.59-3.77.34a5.68,5.68,0,0,1-4.82-5C692.5,357,692,354.3,691.41,351.27Z"/><path class="cls-82" d="M798,290.54l10.25-3c-3.54-1.42-6.75.34-10.07.19,3.18-6.55,9.31-6.48,16.67-.07C804.23,296.72,803.59,296.86,798,290.54Z"/><path class="cls-83" d="M926.81,327.71c-10.26,9.71-10.92,8.91-16.52,3.17,2.93-2.06,6.57-1.9,9.8-3.42-3.33-1.21-6.41.13-9.56.48C912.26,321.12,919.42,321.11,926.81,327.71Z"/><path class="cls-84" d="M943.63,392.35c2.06,11.33.39,15.1-6.24,15.42.47-2.77,3.45-4.42,3.35-7.86a14.78,14.78,0,0,1-2.52,2.66c-1.42.86-1.72,4.74-4.06,2.49-2-1.88-1.66-5,.49-7.24C937,395.35,940.87,395.58,943.63,392.35Z"/><path class="cls-85" d="M925.61,356.53c-4.32,8.57-9.92,10.77-14.93,5.88,2.39-.64,4.78-1.25,7.15-1.94a10.15,10.15,0,0,0,1.89-1.13c-3.41-.45-6.29,1.37-9.27.31C912,353.17,912.14,353.15,925.61,356.53Z"/><path class="cls-86" d="M522.89,366.42c3.45,11.57,3.3,12.2-3.24,13.83-1.1-2.46,1.08-4.82.18-7.41-2.32,1.65-1.32,4.85-3.12,6.7C513,374.1,514.69,370.48,522.89,366.42Z"/><path class="cls-87" d="M1158.71,767.69c-13.78-10.45-29.29-17.74-45.2-24.19-3.54-1.44-3.63-2.57-1.74-5.59,5.3-8.47,10-17.28,13.13-26.83,2.52-7.8,1.6-10.1-5.33-14.53-7.8-5-16.46-7.94-25.29-10.39-7.24-2-14.59-3.67-22.14-5.54a102,102,0,0,0,8.31-21.35c3.37-11.67,6.44-23.41,6.7-35.68.09-4.49-1.75-7.22-6.15-8.32a71.86,71.86,0,0,0-14.26-2.28c-23.43-1.06-46.54,1.64-69.5,6-66.17,12.42-128.7,34.56-186.08,70.2-24.71,15.35-47.41,33.26-67,54.87,4.18-1,8.34-2.14,12.56-3,35.84-6.92,72.09-10.38,108.49-11.78,34.62-1.33,69.22-.5,103.71,3.58,37.61,4.45,74.46,12.06,110,25.31,15.92,5.93,31.43,12.82,45.41,22.68,9.13,6.44,9.39,7.62,6.22,18.26-1.57,5.25-3.72,10.33-4.55,15.79,2.09,3,4.76,4.61,8.53,3.91,1.06-1,2.07-2.13,3.18-3.09,9.12-7.85,17.57-16.35,24.51-26.22C1169.95,778.42,1169.52,775.88,1158.71,767.69Zm-318.5-72.27c13.53-6,26.44-11.91,39.48-17.5,33.64-14.43,67.8-27.46,103.4-36.29,19.58-4.86,39.33-8.64,59.67-7.62a48.52,48.52,0,0,1,15.56,3.17c3,1.18,5.08,3.16,5.64,6.44,2,11.49,1.17,23.27,3.62,34.72.51,2.39-1.48,1.62-2.54,1.44-11.16-1.91-22.39-3.08-33.67-4.09a464.57,464.57,0,0,0-59.9-1.35,524.14,524.14,0,0,0-71.9,7.64,484.31,484.31,0,0,0-54.74,13.15C843.61,695.48,842.44,696.36,840.21,695.41Zm254.6,37.44c-.22,2.36-1,3.29-3.89,2.35a456.93,456.93,0,0,0-82.55-18.63,545.62,545.62,0,0,0-100.64-4c-13.3.69-26.57,1.66-39.78,3.3a30.69,30.69,0,0,1-3.74,0c24-5.49,48.25-9.6,72.63-12.67,26.1-3.29,52.32-5.67,78.66-5,20,.54,39.89,1.94,59,8.65a56.83,56.83,0,0,1,11.32,5.16C1096.95,719,1095.9,721.19,1094.81,732.85Z"/><path class="cls-87" d="M741.28,741.69C707.19,706.22,666.54,680.3,622,660.17,570,636.64,515.67,621,458.91,614.31c-15.05-1.77-30.23-2.64-45.35-.49-13.33,1.9-15.07,4.53-13,17.74,2.67,17,6.95,33.45,14.38,49.25-4.75,1.09-9.3,2-13.81,3.18-12.12,3.06-24.13,6.41-34.75,13.36-4.37,2.86-6.26,6.34-4.58,11.82,3.25,10.62,8.39,20.28,14.24,29.58,2.06,3.27,1.64,4.42-1.89,5.85-14.23,5.73-28.14,12.26-40.43,21.53-13.67,10.3-14.87,10.38-3.69,26C337,802,346,810,355,817.93c4,.46,7.54-.44,10.17-3.76-2.94-5.6-4.31-11.74-6-17.74-2.26-7.76-1.78-9,4.7-13.94,9.56-7.35,20.22-12.81,31.22-17.57,57.18-24.77,117.58-33.75,179.28-35.84q32.43-1.1,64.88.86c24.91,1.49,49.67,4.23,74.4,7.52,10.08,1.34,19.63,4.81,29.58,6.54C742.52,743.23,742,742.4,741.28,741.69ZM393.6,737c-1.78-4.67-1.79-9.33-1.7-14,.07-3.94,2.87-6.24,5.72-8.31,10.24-7.43,22.14-10.53,34.31-12.67,27.91-4.9,56-4.49,84.09-2.13,6,.5,11.95.89,17.9,1.51a815.18,815.18,0,0,1,84.15,13.43C541.78,707.46,466.74,712.45,393.6,737ZM534,675.29c-38.13-2.71-76.17-1.64-114.72,4.91,2.74-11.78,2.27-23.15,3.62-34.35.68-5.61,3.73-8.26,8.56-9.65,11.09-3.2,22.44-2.89,33.7-1.61,45.43,5.16,87.77,21,129.73,38,17.39,7.06,34.53,14.69,51.36,23.22A506.46,506.46,0,0,0,534,675.29Z"/><path class="cls-88" d="M1134.65,688.84a22.1,22.1,0,0,1,5.2,8c2.48,6.68,1.05,13-.67,18.35a116.13,116.13,0,0,1-8.16,18.94c12,5.34,24.77,12,36.75,21.11,5.14,3.9,12.91,9.78,14.45,19.4,1,6.06-.85,11.45-3.26,15.93l305.94,37.62V645.77Z"/><path d="M715.71,245.4h0Z"/><path class="cls-89" d="M715.78,230.4a79.17,79.17,0,0,1,29.52,6.23c.42.17.82.35,1.19.54q3.5-1.48,6.93-2.76a57.48,57.48,0,0,1,20.13-3.76A55.46,55.46,0,0,1,789.3,233a109.83,109.83,0,0,1,14.56,5.44L833.17,0H650.74l29.71,241.59A61.35,61.35,0,0,1,715.78,230.4Z"/><path class="cls-90" d="M541.87,297.85l.37-.1a26.51,26.51,0,0,1,5.33-1c.55,0,1.13-.07,1.74-.08q2.77-4.27,5.88-8.49c12.65-17,31.06-21.44,45.69-23.37,2.41-.32,4.7-.51,7.13-.7l1.28-.11L540.12,20.27,372,91.13,505.39,323.41A64,64,0,0,1,541.87,297.85Z"/><path class="cls-91" d="M418.82,456.08c-1.81-22.16,7.46-41.32,27.62-57l.37-.33a28.07,28.07,0,0,1,4.13-3.16l0-.24a73.69,73.69,0,0,1,10.42-26.68L289.65,144.52,159.47,272.31l247.47,197A72.72,72.72,0,0,1,418.82,456.08Z"/><path class="cls-92" d="M385.68,633.41c-1.23-7.85-2.08-16.85,3.52-24.42a21.93,21.93,0,0,1,7.22-6.25c-12.59-19.29-14.07-45.19-4.79-66.77L94.72,365.61,23.92,533.74,386.18,636.43C386,635.42,385.84,634.43,385.68,633.41Z"/><path d="M410.19,557.42h0c0-.14,0-.27.06-.41C410.23,557.15,410.21,557.29,410.19,557.42Z"/><path class="cls-93" d="M307.34,775.25c1.17-9.54,7.93-14.62,15.77-20.51l1.31-1a168.33,168.33,0,0,1,32.16-18.5,121,121,0,0,1-9.39-22.08c-2.86-9.34-.83-18,5.54-24.53L0,645.28V827.71l310.41-38.17C308,785,306.7,780.45,307.34,775.25Z"/><path d="M896.78,347l1.4.13h0Z"/><path d="M880.59,346.89h0l.76-.07Z"/><path class="cls-94" d="M881.83,264.67c.56,0,1.12,0,1.69,0,3.17,0,6.11.11,9,.32,13.17,1,25.19,6.57,36.75,17,4.94,4.48,10.13,9.45,14.49,16.65q4.2.86,8.58,2a57.15,57.15,0,0,1,30,18.44L1112.88,91.62,944.77,20.77,877,259.51A49.85,49.85,0,0,1,881.83,264.67Z"/><path class="cls-95" d="M1040.68,391.65a20.67,20.67,0,0,1,.45,3.47c3.58,2.4,7,4.86,10.22,7.44,9.24,7.33,15.51,15.47,19.18,24.88,3.35,8.6,4.43,18.1,3.31,28.94a88.73,88.73,0,0,1,8.78,9.7L1325.43,272.8,1195.24,145,1028,363.24A71.72,71.72,0,0,1,1040.68,391.65Z"/><path class="cls-96" d="M1102,536c7,13,6.09,26.37,4,38.93a90.5,90.5,0,0,1-4.49,17.19c.48,1.1,1,2.18,1.45,3.3l-.31,24.52-.22,0a27.42,27.42,0,0,1,.14,3.18,105.2,105.2,0,0,1-1.1,13L1461,534.23l-70.8-168.13L1100,532.58Q1101,534.29,1102,536Z"/></g></g></svg>