<svg width="330" height="277" viewBox="0 0 330 277" fill="none" xmlns="http://www.w3.org/2000/svg">
<path opacity="0.257975" fill-rule="evenodd" clip-rule="evenodd" d="M321.21 1.46804C323.12 0.590919 325.354 0.808053 327.06 2.03696C328.766 3.26528 329.684 5.31703 329.463 7.41137L305.373 236.616C305.179 238.465 304.121 240.113 302.522 241.057C301.429 241.702 300.171 241.966 298.94 241.837C298.37 241.777 297.805 241.632 297.265 241.402L219.09 208.145L171.725 245.693C170.502 246.663 168.974 247.084 167.482 246.927C166.721 246.847 165.97 246.617 165.273 246.233C164.16 245.619 163.315 244.67 162.801 243.563C162.766 243.506 162.732 243.442 162.7 243.367L132.513 171.314L50.586 136.461C48.4526 135.554 47.0554 133.469 47.0237 131.146C46.992 128.822 48.3324 126.699 50.4405 125.731L160.775 75.0957C163.714 73.7465 167.187 75.0413 168.53 77.9852C169.875 80.9298 168.582 84.4097 165.644 85.759L67.3723 130.858L135.974 160.043L294.073 26.8193L212.791 64.1219C209.852 65.4699 206.38 64.1762 205.036 61.2323C203.692 58.2878 204.984 54.8078 207.923 53.4592L321.21 1.46804ZM168.416 182.08C168.541 180.893 169.024 179.772 169.8 178.868L269.239 63.0666L144.053 168.555L164.666 217.756L168.416 182.08ZM175.372 227.852L179.226 191.187L206.817 202.925L175.372 227.852ZM183.896 180.43L294.563 227.51L315.636 27.0113L183.896 180.43ZM106.194 182.875C104.17 180.376 100.504 179.991 98.0044 182.015L38.2659 230.39C35.7669 232.414 35.3816 236.08 37.4051 238.58C38.4178 239.829 39.8402 240.55 41.322 240.706C42.8039 240.862 44.3451 240.452 45.5949 239.44L105.333 191.065C107.832 189.042 108.218 185.375 106.194 182.875ZM17.789 246.983C20.2848 244.963 23.9449 245.348 25.9662 247.842C27.9868 250.338 27.602 253.999 25.1067 256.02L10.4099 267.921C9.16205 268.931 7.62302 269.34 6.14336 269.185C4.6637 269.029 3.24336 268.309 2.23273 267.062C0.212175 264.566 0.596993 260.905 3.09225 258.884L17.789 246.983ZM84.2173 267.092C83.2247 265.866 81.7523 265.065 80.1829 264.901C78.607 264.735 77.0069 265.212 75.7804 266.205C74.5538 267.199 73.7542 268.665 73.5886 270.24C73.4237 271.81 73.8997 273.416 74.8936 274.643C75.8868 275.87 77.3592 276.67 78.9286 276.835C80.4979 277 82.1045 276.523 83.3305 275.53C84.557 274.537 85.3579 273.064 85.5229 271.495C85.6884 269.919 85.2111 268.319 84.2173 267.092ZM124.304 227.034C126.84 224.983 130.557 225.373 132.608 227.907C134.66 230.441 134.269 234.159 131.735 236.211L99.6512 262.191C98.384 263.217 96.8211 263.633 95.3186 263.475C93.8161 263.317 92.3738 262.586 91.3476 261.319C89.2957 258.785 89.6865 255.067 92.2203 253.015L124.304 227.034ZM232.273 236.367C230.224 233.839 226.515 233.449 223.985 235.496L191.876 261.497C189.347 263.545 188.957 267.256 191.005 269.785C192.029 271.05 193.469 271.78 194.969 271.937C196.468 272.095 198.028 271.68 199.293 270.656L231.402 244.655C233.931 242.607 234.321 238.897 232.273 236.367ZM184.679 64.7268C186.249 64.8917 187.721 65.692 188.714 66.9186C189.707 68.1451 190.184 69.7517 190.019 71.3271C189.854 72.8964 189.053 74.3628 187.827 75.3561C186.6 76.3553 184.994 76.826 183.425 76.661C181.855 76.4961 180.382 75.7018 179.39 74.4693C178.397 73.2427 177.919 71.6421 178.084 70.0727C178.25 68.4974 179.051 67.025 180.277 66.0317C181.503 65.0385 183.11 64.5618 184.679 64.7268Z" fill="url(#paint0_linear)"/>
<defs>
<linearGradient id="paint0_linear" x1="165.216" y1="-122.888" x2="-74.2457" y2="194.813" gradientUnits="userSpaceOnUse">
<stop stop-color="#FBC400"/>
<stop offset="1" stop-color="#CB4523"/>
</linearGradient>
</defs>
</svg>
