<svg width="19" height="19" viewBox="0 0 19 19" fill="none" xmlns="http://www.w3.org/2000/svg">
<path fill-rule="evenodd" clip-rule="evenodd" d="M14.2973 12.6347C13.6829 12.0282 12.9159 12.0282 12.3054 12.6347C11.8398 13.0965 11.3741 13.5582 10.9162 14.0278C10.791 14.157 10.6853 14.1844 10.5327 14.0983C10.2314 13.9339 9.91048 13.8009 9.62089 13.6209C8.27079 12.7717 7.13983 11.6799 6.13801 10.4511C5.64102 9.84066 5.19881 9.18715 4.88966 8.45146C4.82704 8.30276 4.83878 8.20493 4.9601 8.08362C5.42578 7.6336 5.87973 7.17183 6.33759 6.71007C6.97547 6.0683 6.97547 5.31696 6.33368 4.67128C5.96974 4.30343 5.6058 3.94341 5.24186 3.57557C4.86618 3.1999 4.49441 2.82031 4.11481 2.44856C3.50042 1.84983 2.7334 1.84983 2.12292 2.45247C1.65332 2.91423 1.20329 3.38773 0.725857 3.84167C0.28365 4.26039 0.0605888 4.77302 0.0136287 5.37175C-0.0607248 6.34614 0.177989 7.26575 0.514537 8.16188C1.20329 10.0168 2.25206 11.6642 3.5239 13.1747C5.24186 15.2175 7.29245 16.8336 9.69133 17.9998C10.7714 18.5241 11.8906 18.9272 13.1077 18.9937C13.9451 19.0407 14.673 18.8294 15.2561 18.1759C15.6553 17.7298 16.1053 17.3228 16.5279 16.8962C17.1541 16.2623 17.158 15.4953 16.5358 14.8692C15.7922 14.1217 15.0448 13.3782 14.2973 12.6347Z" fill="#595976"/>
<path fill-rule="evenodd" clip-rule="evenodd" d="M13.4763 9L15 8.77848C14.7605 7.5865 14.0998 6.50703 13.0964 5.64909C12.0351 4.74543 10.693 4.17581 9.21473 4L9 5.3045C10.1438 5.44163 11.1844 5.88115 12.0062 6.58087C12.7825 7.24191 13.2904 8.07876 13.4763 9Z" fill="#595976"/>
<path fill-rule="evenodd" clip-rule="evenodd" d="M16.1009 3.02071C14.4886 1.3667 12.4487 0.322261 10.1968 0L10 1.44047C11.9453 1.72002 13.709 2.62468 15.1018 4.04961C16.4226 5.40466 17.2893 7.11691 17.6034 9L19 8.75539C18.6329 6.57334 17.6299 4.59318 16.1009 3.02071Z" fill="#595976"/>
</svg>
