<svg width="16" height="20" viewBox="0 0 16 20" fill="none" xmlns="http://www.w3.org/2000/svg">
<path fill-rule="evenodd" clip-rule="evenodd" d="M0.0380775 7.20178C0.420473 3.24463 3.73045 0.144513 7.71477 0.00509035C12.2624 -0.154836 16 3.47426 16 7.97681C16 8.4935 15.9507 8.99788 15.8561 9.48996C15.8561 9.48996 15.8396 9.58018 15.8026 9.7401C15.6793 10.2937 15.4984 10.8227 15.264 11.323C14.4581 13.2257 12.6037 16.3955 8.44255 19.8401C8.18351 20.0533 7.80934 20.0533 7.55441 19.8401C3.39329 16.3914 1.53888 13.2216 0.73708 11.3271C0.50682 10.8268 0.32179 10.2937 0.198437 9.7442C0.157319 9.58018 0.144984 9.49406 0.144984 9.49406C0.00518329 8.76004 -0.0400463 7.99321 0.0380775 7.20178ZM4.11285 8.07113C4.11285 10.2117 5.85213 11.9463 7.99848 11.9463C10.1448 11.9463 11.8841 10.2117 11.8841 8.07113C11.8841 5.93057 10.1448 4.19598 7.99848 4.19598C5.85213 4.19598 4.11285 5.93057 4.11285 8.07113Z" fill="#6F7F91"/>
</svg>
