<svg width="30" height="38" viewBox="0 0 30 38" fill="none" xmlns="http://www.w3.org/2000/svg">
<path fill-rule="evenodd" clip-rule="evenodd" d="M0.0713954 13.6834C0.788387 6.16479 6.9946 0.274576 14.4652 0.00967167C22.992 -0.294189 30 6.6011 30 15.1559C30 16.1376 29.9075 17.096 29.7302 18.0309C29.7302 18.0309 29.6993 18.2023 29.6299 18.5062C29.3987 19.558 29.0594 20.5631 28.62 21.5136C27.1089 25.1288 23.6319 31.1515 15.8298 37.6961C15.3441 38.1013 14.6425 38.1013 14.1645 37.6961C6.36242 31.1437 2.88539 25.121 1.38202 21.5214C0.950288 20.5709 0.603357 19.558 0.372069 18.514C0.294973 18.2023 0.271845 18.0387 0.271845 18.0387C0.00971869 16.6441 -0.0750867 15.1871 0.0713954 13.6834ZM7.71159 15.3351C7.71159 19.4022 10.9727 22.6979 14.9972 22.6979C19.0216 22.6979 22.2827 19.4022 22.2827 15.3351C22.2827 11.2681 19.0216 7.97237 14.9972 7.97237C10.9727 7.97237 7.71159 11.2681 7.71159 15.3351Z" fill="white"/>
</svg>
