<svg width="38" height="33" viewBox="0 0 38 33" fill="none" xmlns="http://www.w3.org/2000/svg">
<path fill-rule="evenodd" clip-rule="evenodd" d="M30.5 15C30.224 15 30 15.224 30 15.5C30 15.776 30.224 16 30.5 16C30.776 16 31 15.776 31 15.5C31 15.224 30.776 15 30.5 15Z" fill="#6F7F91"/>
<path fill-rule="evenodd" clip-rule="evenodd" d="M0.480692 16.8924L11.9357 21.1179C12.0314 21.8701 12.2028 23.2194 12.3947 24.7295L12.3954 24.7352C12.8281 28.1409 13.3643 32.361 13.3702 32.3945C13.4728 32.9837 14.2066 33.2002 14.6267 32.7852L14.6274 32.7847C14.6285 32.7838 14.6295 32.783 14.6304 32.7821L21.4018 26.0006L31.6382 30.0282C32.0734 30.1993 32.5593 29.9355 32.6439 29.482L37.9877 0.862146C38.0373 0.597218 37.9347 0.327157 37.7207 0.159189C37.5067 -0.00849454 37.2162 -0.0469932 36.9649 0.0593772L0.447352 15.5384C-0.164956 15.7979 -0.143792 16.6623 0.480692 16.8924ZM16.5103 23.03C16.4514 23.0964 16.3949 23.1894 16.3636 23.2852L14.4316 28.9861L13.4038 20.8988L30.8317 6.86366L16.5103 23.03ZM17.525 24.4749L15.8197 29.5071L19.9081 25.4126L17.525 24.4749ZM31.3477 28.3411L18.3165 23.2139L36.0409 3.20572L31.3477 28.3411ZM12.4769 19.7581L32.739 3.44042L2.72756 16.1621L12.4769 19.7581Z" fill="#6F7F91"/>
<path fill-rule="evenodd" clip-rule="evenodd" d="M30.4562 17.006C30.1159 16.9534 29.8055 17.2508 29.763 17.6702L29.0049 25.1397C28.9588 25.5944 29.2457 26 29.6216 26C29.9304 26 30.1977 25.7169 30.2372 25.3298L30.9951 17.8603C31.0378 17.4409 30.7965 17.0583 30.4562 17.006Z" fill="#6F7F91"/>
</svg>
