<svg width="45" height="45" viewBox="0 0 45 45" fill="none" xmlns="http://www.w3.org/2000/svg">
<path fill-rule="evenodd" clip-rule="evenodd" d="M0.999995 22.5346C1.00133 23.363 1.67399 24.0335 2.50241 24.0322L21.0024 24.0023L21.0322 42.5023C21.0336 43.3307 21.7062 44.0012 22.5346 43.9999C23.3631 43.9985 24.0336 43.3259 24.0322 42.4975L24.0024 23.9975L42.5024 23.9676C43.3308 23.9663 44.0013 23.2937 43.9999 22.4652C43.9986 21.6368 43.3259 20.9663 42.4975 20.9676L23.9975 20.9975L23.9677 2.49751C23.9664 1.66908 23.2937 0.998594 22.4653 0.99993C21.6369 1.00127 20.9664 1.67392 20.9677 2.50235L20.9976 21.0023L2.49757 21.0322C1.66915 21.0335 0.998659 21.7061 0.999995 22.5346Z" fill="#DBDCDD"/>
</svg>
