<svg width="27" height="27" viewBox="0 0 27 27" fill="none" xmlns="http://www.w3.org/2000/svg">
<path fill-rule="evenodd" clip-rule="evenodd" d="M13.5 0C13.1966 0 12.9506 0.246061 12.9506 0.549447C12.9506 0.852833 13.1966 1.09889 13.5 1.09889C20.338 1.09889 25.9011 6.66204 25.9011 13.5C25.9011 20.338 20.338 25.9011 13.5 25.9011C6.66204 25.9011 1.09889 20.338 1.09889 13.5C1.09889 8.84765 3.66682 4.62625 7.80059 2.48313C8.07 2.34348 8.17513 2.01189 8.03548 1.74248C7.89583 1.47307 7.56414 1.36794 7.29482 1.50759C2.79522 3.84036 0 8.43566 0 13.5C0 20.944 6.05609 27 13.5 27C20.9439 27 27 20.9439 27 13.5C27 6.05609 20.944 0 13.5 0Z" fill="#fff"/>
<path fill-rule="evenodd" clip-rule="evenodd" d="M18.9055 6.73545C17.3876 5.60007 15.574 5 13.6607 5C8.88519 5 5 8.81311 5 13.5C5 18.1869 8.88519 22 13.6607 22C15.974 22 18.1489 21.1159 19.7847 19.5104C19.9973 19.3017 19.9973 18.9633 19.7847 18.7546C19.572 18.5459 19.2272 18.5459 19.0146 18.7546C17.5845 20.1582 15.6831 20.9312 13.6607 20.9312C9.48571 20.9312 6.08905 17.5976 6.08905 13.5C6.08905 9.4024 9.48562 6.06885 13.6607 6.06885C17.009 6.06885 19.9992 8.27022 20.9325 11.4223C21.0163 11.7058 21.3184 11.8687 21.6073 11.7864C21.8961 11.704 22.0622 11.4075 21.9782 11.124C21.4656 9.3926 20.3744 7.83396 18.9055 6.73545Z" fill="#fff"/>
<path fill-rule="evenodd" clip-rule="evenodd" d="M19.8962 12.1525C19.6911 11.9492 19.3587 11.9492 19.1538 12.1525C18.9487 12.3558 18.9487 12.6855 19.1538 12.8888L21.1287 14.8475C21.2272 14.9452 21.3607 15 21.5 15C21.6393 15 21.7728 14.9452 21.8713 14.8475L23.8462 12.8888C24.0513 12.6855 24.0513 12.3558 23.8462 12.1525C23.6411 11.9492 23.3087 11.9492 23.1038 12.1525L21.5 13.743L19.8962 12.1525Z" fill="#fff"/>
</svg>
