<svg width="19" height="19" viewBox="0 0 19 19" fill="none" xmlns="http://www.w3.org/2000/svg">
<path fill-rule="evenodd" clip-rule="evenodd" d="M18.477 9.45577C18.477 10.0033 18.4255 10.5509 18.3275 11.0861C18.7664 11.8755 19 12.7682 19 13.6765C19 15.0985 18.4478 16.4359 17.4444 17.4409C16.4412 18.4472 15.1079 19 13.6895 19C12.7708 19 11.8712 18.7605 11.0766 18.3098C10.5607 18.4016 10.0324 18.4498 9.50522 18.4498C8.29418 18.4498 7.11885 18.212 6.01299 17.742C4.9439 17.2901 3.98508 16.641 3.16068 15.8152C2.33696 14.9892 1.6901 14.0281 1.23876 12.9567C0.770251 11.8477 0.533099 10.6701 0.533099 9.45577C0.533099 8.93591 0.579834 8.41524 0.668201 7.90573C0.232397 7.11955 0 6.22968 0 5.32446C0 3.90241 0.552698 2.56522 1.55569 1.55969C2.55881 0.553801 3.89266 0 5.3114 0C6.18045 0 7.03884 0.217266 7.80225 0.62413L7.80642 0.623549C8.36283 0.516369 8.93455 0.462663 9.50533 0.462663C10.7164 0.462663 11.8914 0.700389 12.9971 1.16945C14.065 1.62246 15.0252 2.27054 15.8484 3.09647C16.6728 3.92229 17.3194 4.88412 17.7714 5.9551C18.24 7.06398 18.477 8.24168 18.477 9.45577ZM4.92766 12.2156C4.92766 13.3929 6.3537 14.9637 9.54105 14.9637C12.5738 14.9637 14.0765 13.4984 14.0763 11.5361C14.0763 10.269 13.4935 8.92382 11.195 8.41047L9.09655 7.94351C8.2987 7.76135 7.37966 7.52037 7.37966 6.76593C7.37966 6.01021 8.02421 5.48198 9.1877 5.48198C10.5633 5.48198 11.0582 6.03785 11.4674 6.49738C11.7557 6.82116 12.0014 7.09712 12.4825 7.09712C13.0952 7.09712 13.6314 6.73617 13.6314 6.11541C13.6314 4.66674 11.3185 3.57971 9.35632 3.57971C7.22635 3.57971 4.95816 4.48632 4.95816 6.90112C4.95816 8.06417 5.37239 9.30151 7.65566 9.87542L10.4906 10.5849C11.3485 10.7968 11.5633 11.2806 11.5633 11.7171C11.5633 12.4427 10.8439 13.1518 9.54105 13.1518C8.07183 13.1518 7.56856 12.4975 7.14311 11.9443C6.83163 11.5393 6.56186 11.1885 5.98528 11.1885C5.37239 11.1885 4.92766 11.6119 4.92766 12.2156Z" fill="#595976"/>
</svg>
