<svg width="31" height="31" viewBox="0 0 31 31" fill="none" xmlns="http://www.w3.org/2000/svg">
<path fill-rule="evenodd" clip-rule="evenodd" d="M22.7075 20.8904C21.7317 19.9271 20.5135 19.9271 19.5439 20.8904C18.8043 21.6238 18.0647 22.3572 17.3375 23.103C17.1386 23.3081 16.9708 23.3516 16.7284 23.2149C16.2498 22.9539 15.7402 22.7425 15.2802 22.4566C13.136 21.108 11.3397 19.3739 9.74861 17.4224C8.95926 16.4528 8.25693 15.4149 7.76592 14.2464C7.66648 14.0103 7.68513 13.8549 7.8778 13.6622C8.61742 12.9475 9.3384 12.2141 10.0656 11.4807C11.0787 10.4614 11.0787 9.26811 10.0594 8.24261C9.48135 7.65839 8.90333 7.0866 8.3253 6.50237C7.72863 5.90572 7.13818 5.30285 6.53529 4.71241C5.55949 3.7615 4.34129 3.7615 3.3717 4.71863C2.62586 5.45201 1.9111 6.20405 1.15283 6.925C0.450502 7.59002 0.0962293 8.40421 0.0216456 9.35512C-0.0964453 10.9027 0.282689 12.3633 0.817205 13.7865C1.9111 16.7325 3.5768 19.3491 5.59678 21.7481C8.3253 24.9924 11.5821 27.5593 15.3921 29.4114C17.1075 30.2442 18.8851 30.8844 20.8181 30.99C22.1482 31.0646 23.3042 30.729 24.2303 29.6911C24.8642 28.9825 25.579 28.3362 26.2503 27.6587C27.2447 26.6519 27.2509 25.4337 26.2627 24.4393C25.0818 23.2522 23.8947 22.0713 22.7075 20.8904Z" fill="#6F7F91"/>
<path fill-rule="evenodd" clip-rule="evenodd" d="M22.4193 14.7798L24.982 14.6928C24.7843 12.7543 23.8697 10.9216 22.35 9.38155C20.7421 7.75873 18.6128 6.61853 16.1919 6.08123L15.6178 8.11959C17.4908 8.53707 19.1421 9.41774 20.3872 10.6743C21.5634 11.8614 22.2653 13.2815 22.4193 14.7798Z" fill="#6F7F91"/>
<path fill-rule="evenodd" clip-rule="evenodd" d="M26.1682 5.03451C23.4811 2.27783 20.0812 0.537101 16.328 0L16 2.40078C19.2422 2.8667 22.1817 4.37446 24.5029 6.74935C26.7044 9.00776 28.1489 11.8615 28.6724 15L31 14.5923C30.3881 10.9556 28.7166 7.65531 26.1682 5.03451Z" fill="#6F7F91"/>
</svg>
