<svg width="36" height="35" viewBox="0 0 36 35" fill="none" xmlns="http://www.w3.org/2000/svg">
<path fill-rule="evenodd" clip-rule="evenodd" d="M16.5789 1.86667C16.8316 1.86667 17.0763 1.76556 17.25 1.59444C17.4237 1.42333 17.5263 1.18222 17.5263 0.933333C17.5263 0.684444 17.4237 0.443333 17.25 0.272222C17.0763 0.101111 16.8316 0 16.5789 0C16.3263 0 16.0816 0.101111 15.9079 0.272222C15.7342 0.443333 15.6316 0.684444 15.6316 0.933333C15.6316 1.18222 15.7342 1.42333 15.9079 1.59444C16.0816 1.77333 16.3263 1.86667 16.5789 1.86667ZM19.8632 1.86667H19.8947C20.3998 1.86667 20.8259 1.4702 20.8417 0.964909C20.8574 0.45184 20.455 0.0165082 19.9263 0.00096062C19.4055 -0.0223607 18.9636 0.381876 18.9478 0.894945C18.932 1.40801 19.3424 1.84335 19.8632 1.86667ZM26.5285 3.26667C26.3867 3.26667 26.2369 3.23554 26.1029 3.16552C25.63 2.9321 25.4487 2.37191 25.6773 1.92064C25.9137 1.45381 26.4812 1.26707 26.9463 1.50049C27.4192 1.7339 27.6083 2.2941 27.3719 2.75315C27.2064 3.07993 26.8753 3.26667 26.5285 3.26667ZM16.5789 6.53333C16.3263 6.53333 16.0816 6.63444 15.9079 6.80556C15.7342 6.97667 15.6316 7.21778 15.6316 7.46667C15.6316 7.71556 15.7342 7.95667 15.9079 8.12778C16.0816 8.29889 16.3263 8.4 16.5789 8.4C16.8316 8.4 17.0763 8.29889 17.25 8.12778C17.4237 7.95667 17.5263 7.71556 17.5263 7.46667C17.5263 7.21778 17.4237 6.97667 17.25 6.80556C17.0763 6.63444 16.8316 6.53333 16.5789 6.53333ZM19.4423 7.271C19.3319 7.7771 19.663 8.26763 20.1753 8.37664C20.2384 8.39221 20.3093 8.4 20.3724 8.4C20.8138 8.4 21.2 8.09634 21.2946 7.66031C21.4049 7.15421 21.0739 6.66368 20.5615 6.55467C20.0492 6.44566 19.5526 6.7649 19.4423 7.271ZM28.4211 17.7333C28.1684 17.7333 27.9237 17.8344 27.75 18.0056C27.5763 18.1767 27.4737 18.4178 27.4737 18.6667C27.4737 18.9156 27.5763 19.1567 27.75 19.3278C27.9237 19.4989 28.1684 19.6 28.4211 19.6C28.6737 19.6 28.9184 19.4989 29.0921 19.3278C29.2658 19.1567 29.3684 18.9156 29.3684 18.6667C29.3684 18.4178 29.2658 18.1767 29.0921 18.0056C28.9105 17.8267 28.6658 17.7333 28.4211 17.7333ZM25.7417 12.1884C25.4499 11.7613 25.5603 11.1789 25.994 10.8915C26.4277 10.6042 27.0113 10.7207 27.3109 11.14C27.6027 11.5672 27.4923 12.1496 27.0586 12.4369C26.893 12.5456 26.7116 12.6 26.5303 12.6C26.2227 12.6 25.9231 12.4525 25.7417 12.1884ZM23.3733 8.34484C23.0815 8.77283 23.1919 9.35645 23.6256 9.64437C23.7912 9.75331 23.9726 9.8 24.154 9.8C24.4615 9.8 24.7533 9.65993 24.9425 9.38758C25.2343 8.95959 25.1239 8.37597 24.6902 8.08805C24.2565 7.80791 23.665 7.91685 23.3733 8.34484ZM27.9434 15.8667C27.5099 15.8667 27.1158 15.572 27.0212 15.1299C26.9109 14.6258 27.2419 14.1372 27.7543 14.0209C28.2666 13.9123 28.7632 14.238 28.8735 14.7421C28.9839 15.2462 28.6528 15.7348 28.1405 15.8434C28.0695 15.8589 28.0065 15.8667 27.9434 15.8667ZM33.9079 18.0056C34.0816 17.8344 34.3263 17.7333 34.5789 17.7333C34.8237 17.7333 35.0684 17.8267 35.25 18.0056C35.4237 18.1767 35.5263 18.4178 35.5263 18.6667C35.5263 18.9156 35.4237 19.1567 35.25 19.3278C35.0763 19.4989 34.8316 19.6 34.5789 19.6C34.3263 19.6 34.0816 19.4989 33.9079 19.3278C33.7342 19.1567 33.6316 18.9156 33.6316 18.6667C33.6316 18.4178 33.7342 18.1767 33.9079 18.0056ZM34.0034 8.91716C33.7668 8.45693 33.1988 8.26971 32.7335 8.49593C32.2681 8.72995 32.0788 9.29159 32.3075 9.75183C32.4732 10.0795 32.8045 10.2667 33.1515 10.2667C33.2935 10.2667 33.4355 10.2355 33.5775 10.1653C34.0507 9.93904 34.24 9.3774 34.0034 8.91716ZM23.2142 2.33333C23.1354 2.33333 23.0565 2.32554 22.9776 2.30218C22.4729 2.16976 22.1653 1.66346 22.2915 1.17275C22.4177 0.666448 22.9382 0.37046 23.443 0.495086C23.9556 0.619713 24.2553 1.1338 24.1291 1.63231C24.0187 2.05292 23.6401 2.33333 23.2142 2.33333ZM32.4779 5.94806C32.1459 5.54516 31.5531 5.48318 31.142 5.80859C30.7389 6.13401 30.6678 6.71511 30.9998 7.11801C31.1895 7.3427 31.4582 7.46667 31.7349 7.46667C31.9483 7.46667 32.1538 7.39693 32.3277 7.25747C32.7387 6.93205 32.8019 6.35095 32.4779 5.94806ZM35.0529 16.3333C34.548 16.3333 34.122 15.9368 34.1062 15.4313C34.0826 14.9103 34.4928 14.4827 35.0213 14.4671C35.542 14.4515 35.9838 14.8559 35.9996 15.3691C36.0153 15.8823 35.6051 16.3178 35.0845 16.3333H35.0529ZM34.575 13.5333C34.6539 13.5333 34.7328 13.5256 34.8117 13.5023C35.3166 13.3782 35.6242 12.8661 35.498 12.3695C35.3718 11.873 34.8511 11.5704 34.3462 11.6945C33.8413 11.8187 33.5337 12.3307 33.6599 12.8273C33.7625 13.254 34.149 13.5333 34.575 13.5333ZM29.3692 5.13333C29.1639 5.13333 28.9508 5.0636 28.7771 4.92414C28.3666 4.59872 28.3035 4.01762 28.6271 3.61472C28.9587 3.21183 29.5507 3.14984 29.9612 3.47526C30.3717 3.80068 30.4348 4.38178 30.1033 4.78467C29.9217 5.01711 29.6454 5.13333 29.3692 5.13333ZM25.9256 22.9575C25.2412 22.3011 24.4276 21.9472 23.5835 21.9472C22.7394 21.9472 21.9334 22.2938 21.249 22.9501L21.0665 23.1197C20.3973 23.7613 19.7129 24.4176 19.0438 25.0887C18.9145 25.0223 18.7928 24.9633 18.6636 24.9043C18.3518 24.7568 18.0628 24.6167 17.7967 24.4545C15.7663 23.2156 13.8957 21.5637 12.0859 19.4103C11.219 18.3779 10.6107 17.4561 10.1848 16.5343C10.6093 16.1385 11.026 15.7313 11.4377 15.329L11.4377 15.329C11.6013 15.1692 11.764 15.0102 11.9262 14.8529L12.3672 14.4252C13.8044 13.024 13.7968 11.2173 12.3596 9.80876L11.0593 8.54772L10.4966 8.00201L9.89587 7.41942C9.75238 7.28027 9.60806 7.13951 9.46291 6.99793L9.46243 6.99745L9.4624 6.99743C9.16924 6.71148 8.87269 6.42223 8.57273 6.13626C7.88835 5.47993 7.0747 5.13333 6.23063 5.13333C5.38655 5.13333 4.58051 5.47993 3.89612 6.13626C3.67785 6.34302 3.46296 6.55306 3.2492 6.76201L3.24905 6.76215C3.14265 6.86616 3.03652 6.9699 2.93039 7.07282C2.47413 7.52267 2.00267 7.98726 1.5236 8.42235C0.626303 9.2483 0.124423 10.2955 0.0255681 11.527C-0.126517 13.4591 0.428593 15.2069 0.930472 16.5122C2.0635 19.462 3.78967 22.2569 6.20781 25.0518C9.22669 28.5326 12.8615 31.2906 17.0134 33.2522C19.3023 34.3289 21.2642 34.882 23.1805 34.9853L23.2022 34.9864L23.2025 34.9864C23.3389 34.9934 23.4688 35 23.5987 35C25.226 35 26.5644 34.4469 27.5757 33.3481C28.0092 32.8835 28.4654 32.4484 28.9597 31.9838C29.0804 31.8668 29.2049 31.7497 29.3303 31.6317C29.4577 31.5119 29.5861 31.3911 29.7125 31.2685C31.1421 29.8674 31.1497 28.0606 29.7277 26.6742C28.4578 25.3984 27.1727 24.1521 25.9256 22.9575ZM27.8868 30.5234L27.8867 30.5235C27.8259 30.5801 27.7652 30.6367 27.705 30.6933C27.6315 30.7635 27.5574 30.8338 27.4831 30.9045C27.0653 31.3015 26.6376 31.7078 26.2374 32.1461C25.5074 32.9351 24.5873 33.267 23.3097 33.2006C21.6444 33.1121 19.903 32.618 17.8423 31.6446C13.9185 29.7936 10.489 27.1904 7.63741 23.9014C5.34853 21.2613 3.72883 18.6434 2.67184 15.8853C2.02548 14.1966 1.78215 12.8913 1.8734 11.6524C1.93423 10.8486 2.2308 10.2291 2.80872 9.69814C3.2045 9.33203 3.59053 8.95647 3.97071 8.58659L3.97078 8.58652L3.97098 8.58633C4.0655 8.49437 4.15966 8.40276 4.25352 8.31174C4.35717 8.21122 4.46166 8.10908 4.56642 8.00666L4.56653 8.00655C4.77688 7.80092 4.98836 7.59418 5.19645 7.3973C5.43218 7.17607 5.80479 6.90321 6.25344 6.90321C6.70209 6.90321 7.0747 7.16869 7.31803 7.3973C7.75908 7.81765 8.20012 8.24537 8.62596 8.66571L9.2343 9.25567L9.23433 9.2557C9.42443 9.44005 9.61452 9.62441 9.80462 9.80138C9.946 9.9385 10.0891 10.0764 10.2327 10.2149L10.2327 10.2149C10.5217 10.4935 10.8129 10.7743 11.0973 11.055C11.8273 11.7704 11.8349 12.4636 11.1049 13.1789L10.6639 13.614C10.048 14.2187 9.4092 14.8382 8.77044 15.4355C8.44346 15.7452 8.11648 16.2688 8.44346 17.021C8.93773 18.1788 9.66014 19.2923 10.7019 20.5386C12.641 22.8468 14.6561 24.6241 16.8613 25.9663C17.2035 26.1727 17.5533 26.3424 17.8955 26.5046C17.9455 26.5288 17.9949 26.5526 18.0439 26.5761C18.1888 26.6456 18.3294 26.7132 18.4658 26.7848C18.7016 26.9102 18.9373 26.9692 19.173 26.9692C19.5532 26.9692 19.903 26.8143 20.2072 26.5046C20.922 25.7893 21.6596 25.0813 22.382 24.3881L22.5645 24.2185C22.8003 23.9899 23.1729 23.7244 23.6139 23.7244C24.055 23.7244 24.4352 23.9973 24.6709 24.2185C25.9104 25.4132 27.1955 26.6521 28.4806 27.9057C29.1574 28.5916 29.1574 29.2995 28.435 30.0001C28.2576 30.1777 28.0716 30.3511 27.8868 30.5234Z" fill="#F9BE02"/>
</svg>
