<svg width="46" height="45" viewBox="0 0 46 45" fill="none" xmlns="http://www.w3.org/2000/svg">
<path fill-rule="evenodd" clip-rule="evenodd" d="M25.3807 2.4H25.421C26.0664 2.4 26.6108 1.89026 26.631 1.2406C26.6512 0.580937 26.1369 0.0212248 25.4614 0.00123508C24.7959 -0.0287495 24.2313 0.490983 24.2111 1.15064C24.1909 1.8103 24.7152 2.37002 25.3807 2.4ZM33.8976 4.2C33.7163 4.2 33.5249 4.15999 33.3537 4.06995C32.7494 3.76985 32.5178 3.04959 32.8099 2.46939C33.112 1.86918 33.8371 1.62909 34.4313 1.9292C35.0356 2.22931 35.2773 2.94956 34.9752 3.53977C34.7637 3.95992 34.3407 4.2 33.8976 4.2ZM21.1842 8.4C20.8614 8.4 20.5487 8.53 20.3268 8.75C20.1048 8.97 19.9737 9.28 19.9737 9.6C19.9737 9.92 20.1048 10.23 20.3268 10.45C20.5487 10.67 20.8614 10.8 21.1842 10.8C21.507 10.8 21.8197 10.67 22.0417 10.45C22.2636 10.23 22.3947 9.92 22.3947 9.6C22.3947 9.28 22.2636 8.97 22.0417 8.75C21.8197 8.53 21.507 8.4 21.1842 8.4ZM24.8429 9.34843C24.7019 9.99913 25.1249 10.6298 25.7796 10.77C25.8601 10.79 25.9508 10.8 26.0314 10.8C26.5954 10.8 27.0889 10.4096 27.2097 9.84897C27.3507 9.19827 26.9277 8.56758 26.2731 8.42743C25.6184 8.28728 24.9839 8.69773 24.8429 9.34843ZM36.3158 22.8C35.993 22.8 35.6803 22.93 35.4583 23.15C35.2364 23.37 35.1053 23.68 35.1053 24C35.1053 24.32 35.2364 24.63 35.4583 24.85C35.6803 25.07 35.993 25.2 36.3158 25.2C36.6386 25.2 36.9513 25.07 37.1732 24.85C37.3952 24.63 37.5263 24.32 37.5263 24C37.5263 23.68 37.3952 23.37 37.1732 23.15C36.9412 22.92 36.6285 22.8 36.3158 22.8ZM32.8922 15.6708C32.5193 15.1217 32.6604 14.3728 33.2146 14.0034C33.7688 13.634 34.5144 13.7838 34.8973 14.3229C35.2701 14.8721 35.1291 15.6209 34.5749 15.9903C34.3633 16.1301 34.1315 16.2 33.8998 16.2C33.5068 16.2 33.1239 16.0103 32.8922 15.6708ZM29.8658 10.7291C29.493 11.2793 29.6341 12.0297 30.1883 12.3999C30.3999 12.54 30.6316 12.6 30.8634 12.6C31.2564 12.6 31.6292 12.4199 31.871 12.0697C32.2438 11.5195 32.1028 10.7691 31.5486 10.3989C30.9944 10.0387 30.2387 10.1788 29.8658 10.7291ZM35.7055 20.4C35.1516 20.4 34.648 20.0211 34.5271 19.4527C34.3861 18.8046 34.8091 18.1764 35.4638 18.0269C36.1184 17.8873 36.7529 18.306 36.8939 18.9542C37.0349 19.6023 36.6119 20.2305 35.9573 20.3701C35.8666 20.39 35.7861 20.4 35.7055 20.4ZM43.3268 23.15C43.5487 22.93 43.8614 22.8 44.1842 22.8C44.4969 22.8 44.8096 22.92 45.0417 23.15C45.2636 23.37 45.3947 23.68 45.3947 24C45.3947 24.32 45.2636 24.63 45.0417 24.85C44.8197 25.07 44.507 25.2 44.1842 25.2C43.8614 25.2 43.5487 25.07 43.3268 24.85C43.1048 24.63 42.9737 24.32 42.9737 24C42.9737 23.68 43.1048 23.37 43.3268 23.15ZM43.4488 11.4649C43.1464 10.8732 42.4207 10.6325 41.8261 10.9233C41.2314 11.2242 40.9896 11.9463 41.2818 12.5381C41.4935 12.9593 41.9168 13.2 42.3603 13.2C42.5417 13.2 42.7231 13.1599 42.9045 13.0696C43.5092 12.7788 43.7511 12.0567 43.4488 11.4649ZM29.6626 3C29.5619 3 29.4611 2.98999 29.3603 2.95994C28.7153 2.78969 28.3223 2.13874 28.4835 1.50782C28.6448 0.856862 29.3099 0.476305 29.9549 0.63654C30.6099 0.796774 30.9929 1.45774 30.8317 2.09868C30.6906 2.63947 30.2068 3 29.6626 3ZM41.4995 7.6475C41.0753 7.12949 40.3178 7.0498 39.7926 7.46819C39.2775 7.88658 39.1866 8.63371 39.6108 9.15172C39.8532 9.44061 40.1966 9.6 40.5501 9.6C40.8228 9.6 41.0854 9.51034 41.3076 9.33103C41.8328 8.91264 41.9136 8.16551 41.4995 7.6475ZM44.7898 21C44.1447 21 43.6004 20.4901 43.5802 19.8403C43.55 19.1704 44.0741 18.6206 44.7495 18.6006C45.4148 18.5806 45.9793 19.1004 45.9994 19.7603C46.0196 20.4201 45.4954 20.98 44.8301 21H44.7898ZM44.1792 17.4C44.28 17.4 44.3808 17.39 44.4816 17.3601C45.1267 17.2005 45.5198 16.5421 45.3586 15.9037C45.1973 15.2652 44.532 14.8762 43.8868 15.0358C43.2417 15.1954 42.8486 15.8538 43.0099 16.4922C43.1409 17.0409 43.6348 17.4 44.1792 17.4ZM37.5273 6.6C37.265 6.6 36.9927 6.51034 36.7708 6.33103C36.2463 5.91264 36.1656 5.16551 36.5791 4.6475C37.0028 4.12949 37.7592 4.0498 38.2837 4.46819C38.8082 4.88658 38.8889 5.63371 38.4653 6.15172C38.2333 6.45057 37.8803 6.6 37.5273 6.6ZM21.1842 2.4C21.507 2.4 21.8197 2.27 22.0417 2.05C22.2636 1.83 22.3947 1.52 22.3947 1.2C22.3947 0.88 22.2636 0.57 22.0417 0.35C21.8197 0.13 21.507 0 21.1842 0C20.8614 0 20.5487 0.13 20.3268 0.35C20.1048 0.57 19.9737 0.88 19.9737 1.2C19.9737 1.52 20.1048 1.83 20.3268 2.05C20.5487 2.28 20.8614 2.4 21.1842 2.4ZM33.1272 29.5167C32.2527 28.6729 31.213 28.2178 30.1345 28.2178C29.0559 28.2178 28.026 28.6634 27.1515 29.5073L26.9183 29.7253C26.0632 30.5502 25.1888 31.3941 24.3337 32.2569C24.1685 32.1716 24.0131 32.0957 23.8479 32.0199C23.4495 31.8302 23.0803 31.6501 22.7402 31.4415C20.1459 29.8486 17.7556 27.7247 15.4431 24.9561C14.3354 23.6287 13.5581 22.4436 13.0139 21.2584C13.5563 20.7495 14.0888 20.226 14.6148 19.7088L14.6153 19.7083C14.8242 19.503 15.032 19.2986 15.239 19.0966L15.8026 18.5467C17.639 16.7452 17.6293 14.4222 15.7929 12.6113L14.1313 10.9899L13.4123 10.2883L12.6447 9.53926C12.4612 9.3602 12.2767 9.17906 12.091 8.99687L12.0909 8.99675C11.7163 8.62909 11.3373 8.25717 10.954 7.88948C10.0796 7.04563 9.03989 6.6 7.96135 6.6C6.88282 6.6 5.85287 7.04563 4.97838 7.88948C4.69948 8.15531 4.4249 8.42536 4.15177 8.694L4.15164 8.69412C4.01565 8.82787 3.88002 8.96128 3.74438 9.09363C3.16139 9.672 2.55897 10.2693 1.94683 10.8287C0.800276 11.8907 0.158985 13.237 0.0326704 14.8204C-0.16166 17.3046 0.547646 19.5517 1.18894 21.2299C2.6367 25.0225 4.84235 28.616 7.9322 32.2095C11.7897 36.6847 16.4342 40.2308 21.7394 42.7529C24.6641 44.1372 27.1709 44.8483 29.6195 44.981L29.647 44.9825C29.8215 44.9914 29.9877 45 30.1539 45C32.2332 45 33.9433 44.2889 35.2356 42.8761C35.7895 42.2788 36.3725 41.7194 37.004 41.1221C37.1583 40.9715 37.3173 40.821 37.4776 40.6693C37.6404 40.5153 37.8044 40.36 37.966 40.2024C39.7927 38.4009 39.8024 36.0779 37.9854 34.2954C36.3628 32.6551 34.7207 31.0527 33.1272 29.5167ZM36.3336 38.5716C36.1069 38.7999 35.8692 39.0229 35.6329 39.2445L35.6322 39.2452C35.5548 39.3179 35.4775 39.3903 35.4008 39.4628C35.3571 39.5048 35.3132 39.5469 35.2692 39.589C35.2187 39.6374 35.168 39.6858 35.1173 39.7343C34.5834 40.2448 34.0369 40.7672 33.5255 41.3307C32.5927 42.3452 31.417 42.7719 29.7847 42.6865C27.6567 42.5727 25.4317 41.9375 22.7985 40.6859C17.7848 38.3061 13.4026 34.9591 9.75891 30.7304C6.83424 27.336 4.76462 23.9701 3.41402 20.424C2.58812 18.2527 2.27719 16.5745 2.39379 14.9816C2.47152 13.9481 2.85046 13.1517 3.58892 12.469C4.09467 11.9983 4.58796 11.5154 5.07377 11.0398C5.19464 10.9215 5.31504 10.8036 5.43506 10.6865C5.56746 10.5573 5.70093 10.426 5.83477 10.2944L5.83489 10.2943L5.83492 10.2942C6.10373 10.0298 6.37398 9.76398 6.63991 9.51081C6.94112 9.22637 7.41723 8.87556 7.9905 8.87556C8.56378 8.87556 9.03989 9.21689 9.35082 9.51081C9.91438 10.0513 10.4779 10.6012 11.0221 11.1416L11.7994 11.9001C12.0423 12.1372 12.2852 12.3742 12.5281 12.6018C12.7087 12.778 12.8914 12.9552 13.0748 13.1331L13.0751 13.1334L13.0753 13.1336C13.4445 13.4917 13.8165 13.8527 14.1799 14.2136C15.1127 15.1333 15.1224 16.0246 14.1896 16.9443L13.6261 17.5037C12.839 18.2812 12.0229 19.0776 11.2067 19.8456C10.7889 20.2439 10.3711 20.917 10.7889 21.8841C11.4204 23.3727 12.3435 24.8044 13.6747 26.4068C16.1524 29.3745 18.7273 31.6596 21.5451 33.3852C21.9823 33.6507 22.4293 33.8687 22.8665 34.0773C22.9303 34.1085 22.9935 34.139 23.056 34.1692C23.2412 34.2586 23.4209 34.3455 23.5952 34.4376C23.8965 34.5988 24.1977 34.6747 24.4989 34.6747C24.9847 34.6747 25.4317 34.4756 25.8203 34.0773C26.7337 33.1576 27.6762 32.2474 28.5993 31.3561L28.8324 31.1381C29.1337 30.8441 29.6098 30.5028 30.1733 30.5028C30.7369 30.5028 31.2227 30.8536 31.5239 31.1381C33.1077 32.6741 34.7498 34.267 36.3919 35.8788C37.2567 36.7606 37.2567 37.6708 36.3336 38.5716Z" fill="url(#paint0_linear)"/>
<defs>
<linearGradient id="paint0_linear" x1="0.632303" y1="0" x2="0.632303" y2="43.7629" gradientUnits="userSpaceOnUse">
<stop stop-color="#686868"/>
<stop offset="1" stop-color="#282848"/>
</linearGradient>
</defs>
</svg>
