<svg width="24" height="27" viewBox="0 0 24 27" fill="none" xmlns="http://www.w3.org/2000/svg">
<path fill-rule="evenodd" clip-rule="evenodd" d="M23.251 3.88569H17.6366V2.96978C17.6366 1.33224 16.3051 0 14.6685 0H9.33148C7.69487 0 6.36338 1.33224 6.36338 2.96978V3.88569H0.74896C0.332871 3.88569 0 4.21875 0 4.63507C0 5.0514 0.332871 5.38446 0.74896 5.38446H2.10264V22.9922C2.10264 25.2015 3.90014 27 6.10818 27H17.8918C20.0999 27 21.8974 25.2015 21.8974 22.9922V5.38446H23.251C23.6671 5.38446 24 5.0514 24 4.63507C24 4.21875 23.6671 3.88569 23.251 3.88569ZM7.8613 2.96978C7.8613 2.15933 8.5215 1.49877 9.33148 1.49877H14.6685C15.4785 1.49877 16.1387 2.15933 16.1387 2.96978V3.88569H7.8613V2.96978ZM17.8918 25.5012C19.2732 25.5012 20.3994 24.3744 20.3994 22.9922H20.405V5.38446H3.60055V22.9922C3.60055 24.3744 4.72677 25.5012 6.10818 25.5012H17.8918Z" fill="#6F7F91"/>
<path fill-rule="evenodd" clip-rule="evenodd" d="M12.5 23C12.7778 23 13 22.6611 13 22.2376V8.76242C13 8.33886 12.7778 8 12.5 8C12.2222 8 12 8.33886 12 8.76242V22.2319C12 22.6555 12.2222 23 12.5 23Z" fill="#6F7F91"/>
<path fill-rule="evenodd" clip-rule="evenodd" d="M7.5 22C7.77778 22 8 21.6694 8 21.256V9.74396C8 9.33065 7.77778 9 7.5 9C7.22222 9 7 9.33065 7 9.74396V21.256C7 21.6694 7.22593 22 7.5 22Z" fill="#6F7F91"/>
<path fill-rule="evenodd" clip-rule="evenodd" d="M17.5 22C17.2222 22 17 21.6439 17 21.1988V8.80119C17 8.35608 17.2222 8 17.5 8C17.7778 8 18 8.35608 18 8.80119V21.1988C18 21.6439 17.7778 22 17.5 22Z" fill="#6F7F91"/>
</svg>
