<svg width="20" height="20" viewBox="0 0 20 20" fill="none" xmlns="http://www.w3.org/2000/svg">
<path fill-rule="evenodd" clip-rule="evenodd" d="M14.9841 0H5C2.25397 0 0 2.25397 0 5.01587V15C0 17.746 2.25397 20 5 20H14.9841C17.746 20 20 17.746 20 14.9841V5.01587C20 2.25397 17.746 0 14.9841 0ZM9.46032 4.11111C9.4847 3.73312 9.76199 3.74852 9.99717 3.76159C10.0681 3.76553 10.1353 3.76926 10.1905 3.7619C13.1746 3.85714 15.746 6.53968 15.7143 9.42857C15.7143 9.47153 15.7164 9.51737 15.7186 9.56424C15.7311 9.82907 15.7451 10.127 15.381 10.127C15.0644 10.127 15.056 9.87488 15.0478 9.62848V9.62847C15.0453 9.55361 15.0428 9.47927 15.0317 9.4127C14.6349 6.34921 13.2063 4.90476 10.0952 4.42857C10.0499 4.42291 10.0001 4.41977 9.94883 4.41654C9.71282 4.40169 9.44728 4.38498 9.46032 4.11111ZM13.5093 9.11205C13.5245 9.35339 13.5404 9.60625 13.9206 9.55556C14.1835 9.50775 14.1765 9.28901 14.1706 9.10253C14.1686 9.04132 14.1668 8.98358 14.1746 8.93651C14.1905 7.14286 12.619 5.50794 10.6984 5.28571C10.65 5.28062 10.5992 5.27267 10.5477 5.26461L10.5477 5.26461C10.2781 5.22243 9.98981 5.17733 9.93651 5.52381C9.87262 5.86883 10.1482 5.90523 10.4072 5.93944C10.4699 5.94772 10.5316 5.95588 10.5873 5.96825C12.5079 6.38095 13.1746 7.06349 13.4921 8.93651C13.5017 8.9909 13.5055 9.0511 13.5093 9.11203V9.11205ZM12.7302 8.57143C12.7302 8.8254 12.6984 9.06349 12.4127 9.09524C12.2063 9.12698 12.0794 8.95238 12.0476 8.74603C11.9683 7.98413 11.5556 7.52381 10.7619 7.39683C10.5238 7.36508 10.3016 7.28571 10.4127 6.96825C10.4921 6.7619 10.6825 6.73016 10.8889 6.73016C11.746 6.71429 12.7302 7.71429 12.7302 8.57143ZM13.3175 16.2381C14.2857 16.254 15.4127 15.3333 15.746 14.4286C16.0226 13.6679 15.5522 13.3049 15.08 12.9406C15.0102 12.8868 14.9404 12.8329 14.873 12.7778C14.5793 12.5452 14.2667 12.3316 13.9498 12.115C13.8557 12.0507 13.7612 11.9861 13.6667 11.9206C12.8571 11.3651 12.1111 11.3175 11.5079 12.2222C11.1746 12.7302 10.6825 12.746 10.1905 12.5238C8.80952 11.9206 7.74603 10.9683 7.12698 9.60317C6.84127 8.98413 6.84127 8.44444 7.49206 8.01587C7.8254 7.79365 8.1746 7.52381 8.14286 7.03175C8.11111 6.39683 6.50794 4.22222 5.87302 4C5.60317 3.90476 5.34921 3.90476 5.07937 4C3.60317 4.47619 2.98413 5.68254 3.57143 7.09524C5.31746 11.3175 8.4127 14.2698 12.6667 16.0635C12.8654 16.143 13.0862 16.1893 13.2368 16.2209C13.2667 16.2272 13.2938 16.2328 13.3175 16.2381Z" fill="#64238B"/>
</svg>
