<svg width="20" height="20" viewBox="0 0 20 20" fill="none" xmlns="http://www.w3.org/2000/svg">
<path fill-rule="evenodd" clip-rule="evenodd" d="M9.9975 0H10.0025C15.5162 0 20 4.48625 20 10C20 15.5138 15.5162 20 10.0025 20C7.96875 20 6.0825 19.395 4.50125 18.3475L0.6575 19.5763L1.90375 15.8612C0.705 14.215 0 12.1875 0 10C0 4.485 4.48375 0 9.9975 0ZM13.8587 15.5325C14.6225 15.3675 15.58 14.8025 15.8213 14.1213C16.0625 13.4387 16.0625 12.8575 15.9925 12.7337C15.936 12.6356 15.8023 12.5712 15.6028 12.4751C15.5508 12.4501 15.4944 12.423 15.4338 12.3925C15.14 12.2463 13.7113 11.54 13.4412 11.4462C13.1763 11.3462 12.9237 11.3813 12.7237 11.6637C12.6857 11.717 12.6478 11.7704 12.61 11.8235C12.3687 12.1628 12.136 12.4901 11.9425 12.6987C11.7662 12.8862 11.4788 12.91 11.2375 12.81C11.2112 12.799 11.1811 12.7869 11.1473 12.7732C10.7653 12.6189 9.91807 12.2768 8.8925 11.3638C8.0275 10.5938 7.44 9.635 7.27 9.3475C7.10309 9.05909 7.24706 8.88997 7.38012 8.73367C7.38259 8.73078 7.38505 8.72789 7.3875 8.725C7.47329 8.61885 7.55654 8.53047 7.64021 8.44164C7.70039 8.37775 7.76079 8.31362 7.8225 8.2425C7.83166 8.23194 7.84058 8.22169 7.84926 8.21171C7.9803 8.06104 8.05832 7.97132 8.14625 7.78375C8.24625 7.59 8.175 7.39 8.10375 7.2425C8.05473 7.1392 7.7519 6.40446 7.49194 5.77371C7.38069 5.5038 7.2773 5.25294 7.205 5.07875C7.01125 4.615 6.86375 4.5975 6.57 4.585C6.561 4.58455 6.55192 4.58409 6.54274 4.58363C6.44988 4.57893 6.34762 4.57375 6.235 4.57375C5.8525 4.57375 5.45375 4.68625 5.2125 4.9325C5.20407 4.94111 5.19528 4.95005 5.18616 4.95932C4.87752 5.27321 4.19 5.97243 4.19 7.36625C4.19 8.76277 5.18089 10.1143 5.36422 10.3644C5.36927 10.3712 5.37371 10.3773 5.3775 10.3825C5.38853 10.397 5.40932 10.4271 5.43959 10.4709C5.81393 11.013 7.63729 13.6536 10.3563 14.78C12.6538 15.7325 13.3363 15.6438 13.8587 15.5325Z" fill="#18B345"/>
</svg>
