<svg width="23" height="15" viewBox="0 0 23 15" fill="none" xmlns="http://www.w3.org/2000/svg">
<path fill-rule="evenodd" clip-rule="evenodd" d="M4.33213 7.01989C3.88929 7.47072 3.88929 8.20442 4.33213 8.65967C4.77496 9.1105 5.49566 9.1105 5.94284 8.65967C9.00796 5.53923 13.9964 5.53923 17.0615 8.65967C17.2829 8.88508 17.5738 9 17.8647 9C18.1556 9 18.4465 8.88508 18.6679 8.65967C19.1107 8.20884 19.1107 7.47514 18.6679 7.01989C14.7171 2.99337 8.28292 2.99337 4.33213 7.01989Z" fill="#005BC2"/>
<path fill-rule="evenodd" clip-rule="evenodd" d="M7.33783 9.59589C6.88739 9.9611 6.88739 10.5555 7.33783 10.9243C7.78827 11.2895 8.52134 11.2895 8.9762 10.9243C10.3673 9.79282 12.6371 9.79282 14.0282 10.9243C14.2534 11.1069 14.5493 11.2 14.8452 11.2C15.1411 11.2 15.4369 11.1069 15.6622 10.9243C16.1126 10.559 16.1126 9.96468 15.6622 9.59947C13.3702 7.73404 9.6342 7.73404 7.33783 9.59589Z" fill="#005BC2"/>
<path fill-rule="evenodd" clip-rule="evenodd" d="M11.5 15C12.3284 15 13 14.3284 13 13.5C13 12.6716 12.3284 12 11.5 12C10.6716 12 10 12.6716 10 13.5C10 14.3284 10.6716 15 11.5 15Z" fill="#005BC2"/>
<path fill-rule="evenodd" clip-rule="evenodd" d="M22.156 4.11699C16.2795 -1.37233 6.72052 -1.37233 0.843961 4.11699C0.385346 4.54571 0.385346 5.24343 0.843961 5.67636C1.30258 6.10508 2.04895 6.10508 2.51206 5.67636C7.46689 1.04028 15.5331 1.04028 20.4924 5.67636C20.7217 5.89072 21.023 6 21.3242 6C21.6255 6 21.9267 5.89072 22.156 5.67636C22.6147 5.24764 22.6147 4.54991 22.156 4.11699Z" fill="#005BC2"/>
</svg>
