<svg width="34" height="33" viewBox="0 0 34 33" fill="none" xmlns="http://www.w3.org/2000/svg">
<path fill-rule="evenodd" clip-rule="evenodd" d="M8.89345 8.13194C8.30766 8.71773 8.30766 9.66748 8.89345 10.2533L14.9039 16.2637L8.89345 22.2741C8.30766 22.8599 8.30766 23.8096 8.89345 24.3954C9.47923 24.9812 10.429 24.9812 11.0148 24.3954L17.0252 18.385L23.0356 24.3954C23.6214 24.9812 24.5711 24.9812 25.1569 24.3954C25.7427 23.8096 25.7427 22.8599 25.1569 22.2741L19.1465 16.2637L25.1569 10.2533C25.7427 9.66748 25.7427 8.71773 25.1569 8.13194C24.5711 7.54616 23.6214 7.54616 23.0356 8.13194L17.0252 14.1424L11.0148 8.13194C10.429 7.54616 9.47923 7.54616 8.89345 8.13194Z" fill="#d8d8d8"/>
</svg>
