<svg width="33" height="33" viewBox="0 0 33 33" fill="none" xmlns="http://www.w3.org/2000/svg">
<path fill-rule="evenodd" clip-rule="evenodd" d="M8.37001 8.36827C7.78422 8.95406 7.78422 9.90381 8.37001 10.4896L14.3804 16.5L8.37001 22.5104C7.78422 23.0962 7.78422 24.0459 8.37001 24.6317C8.9558 25.2175 9.90554 25.2175 10.4913 24.6317L16.5017 18.6213L22.5121 24.6317C23.0979 25.2175 24.0477 25.2175 24.6335 24.6317C25.2193 24.0459 25.2193 23.0962 24.6335 22.5104L18.6231 16.5L24.6335 10.4896C25.2193 9.90381 25.2193 8.95406 24.6335 8.36827C24.0477 7.78249 23.0979 7.78248 22.5121 8.36827L16.5017 14.3787L10.4913 8.36827C9.90554 7.78249 8.9558 7.78249 8.37001 8.36827Z" fill="#6F7F91"/>
</svg>
